<svg data-name="Layer 1" xmlns="http://www.w3.org/2000/svg" viewBox="0 0 114.05 125.81"><title>Africa</title><path d="M45.43 7.88l-.05.11.25.19.2-.16-.11-.14h-.29z"/><path d="M109.91 46.66v.08h-.21l.11-.25v-.26l-.14-.19.14-.33.17-.14v-.07h-.2l-.08-.14.09-.16v-.25l.1-.25.16-.24h-.25l-.4-.14-.19-.13v.07h-.13l-.19.19-.12.23h-.05l-.28.28-.44.04v.13l-.13-.12-.46.07-.29.23-.76.14h-.16l-.15-.09h-.49l-.44.22h-.42l-.24.08-.31-.13-.31.06-1 .59-.46.05-.31-.15-.15.05h-.43l-.09-.09h-.15l-.53.42h-.25l-.41.25-.14.17-.46.06-.38-.09-.39-.35h-.15l-.11-.24-1-1h-.1l-.15-.31h-.38l-.24.1h-.11l-.17-.21h.34l.16-.24H97l.29-.33.16-.07-.05-.48v-.15h-.1l-.3-.47V43h-.09l-.05-.09-.12.11-.17-.09h-.16l-.14-.31.06-.09-.22-.29-.2-.05-.26-.65-.11-.15v.09h-.13l-.22-.28-.37-.2-.22-.4-.54-.6-.06-.14-.44-.1-.15-.18-.29-.33-.2.07-.1-.06h-.23l-.15.11-.18-.18-.26-.4.11-.12-.28-.4h-.12v.32h.07v.44l-.32-.03-.08-.49-.13-.33-.25-.05V38l-.08-.42h-.12l-.21-1.13-.59-1.76-.37-.39h-.12v-.21l-.34-.18h-.32v-.3l-.69-.46-.26-.06-.28-.53-.21-.67.09-.58-.08-.62-.42-1.15v-.29h.05l.12.15v.1h.08v-.2l-.3-.36-.11-.43-.06-.09v-.07l-.06-.07v-.08l-.08-.12V27.77l-.27-.11-.37-.37v-.19l-.31-.1-.2-.41-.19.09H85l-.49-.31-.24-.82.05-.22v-.39l-.1-.21v-.14l.12.1h.46l-.18-.19h-.15l-.26-.4-.1-.08v.11l-.18-.21-.14-.42-.62-.91-.26-.17-.06-.42-1-1.45v-.33l-.17-.26-.06-.6-.17-.2v-.18l-.45-.61v-.23l.06-.25-.13-.25-.91-.77-.07-.25-.58-.69v-.36l-.37-.42v-.42l.07-.11.06.1h.15l.11.4.14.17v.2l.6.51v.31l.16.31.41.19.1.3.75.79.41.23v.1l.06-.19.21-.2.12-.56-.14-.14.19-.47v-.33l.15-.56a8.76 8.76 0 0 0-1.29-2.09 5.26 5.26 0 0 1-.59-1.43h-.11l-1-.17-.78.21-.57-.4-.07.27.21.32v.2l-.21-.32-.32-.18-.07-.27.15-.07-.13-.13h-.26l-.32-.11-.53-.14-.08.09h.23v.11h-.6l-.34.14-.11-.11v-.07h.3l.25-.11h-.75l-.19.14-.42.23-.2.11-.4.13-.33.32-.06.14h-.52l-.44-.23h-.9l-.45-.28h-.18l-.19.12-.44-.31-.51-.11-1.22-.09-.6-.2h-.93l-.14-.44-.22-.25H66.65l-1.06-.13-.21-.19h-.42l-.56-.15-.12-.18h.12V10l-.66-.37h-.34l-.55-.14-.13-.07-.17.14-.33-.17h-.12l-.49.25-.77.07-.66.32-.38.37-.09.43-.2.15v.81l.28.44.19.63-.13.36-.41.41-.05.15-.53.45-.33.12-.77-.35-.6-.5-.47-.38-.69-.35-1.16-.49-.51-.06-.17.1h-.61l-.55-.26-.49-.94v-.49l-.39-.52-1-.14-.53-.34h-.87l-.49-.19-1.1.2-.77-.17-.3-.28-.54-.11-.46-.28V8.39l-.24-.13-.09.07v.12l-.12.09-.21-.09-.07-.24h-.23l-.5-.34-.25-.45.12-.42.78-.55.45-.45.12-.14-.13-.18.17-.18-.06-.23-.12-.08v-.5l-.46-.18-.37-.51.07-.42.38-.26v-.28l.24-.35h-.65l-.17.18-.15-.1v-.08q-5.54.09-11.06.38h-.13l-2.08.12-.45.34-.44.06h-.22l-.37.23v.24l-.2.25h-.17l-.1-.09h-.22l-.17.12-.09.12h-.44l-.43.27-.2.18-.05.19-.3.32-.45.15h-.64l-.89-.07-.2-.2-.11-.3h-.1l-.28.3-.5.1-.5-.14h-.26l-.33.17-.47.07-.34-.07-.45-.43-.17-.13-.07-.25V4.4l.06-.09-.09-.12-.3.11-.13.12L21 4.4l-.3.33-.07.85-.36.42-.07.64-.2.44-.72.66h-.17l-.34.26-.58.2-.43.46h-.17l-.59.41-.38.12-.22.34-.72.51.25.54v.38l-.63.57-.4.83v.34l.26.52-.2.58.13.13.18.23-.11.45-1 1.11-.11.44-.45.49h-.5l-1.09 1-1.61.35-1 1.38V20h-.26L8 20.55l-.11.31-.43.25.13.4-1 1.4-.06.45-.64.64-.23.12-.39.88v.24l-.63.83v.15l.19.14-.27.11-.5.91h-.19l-.23.24v.39l-.17.33v.58l-.15.34v.61l.34-.39.13.38L4 30l.19-.15.45.68-.2.2.12.33-.11.53h-.19l-.18.13.45.69.31 1.59-.11 1.13-.38.53-.25 1-.1 1.16-.4.74-1 .9.53.43.34.61h.3v.32h-.13l.39.25-.21.15.12.37.4.2.36-.09-.27.3H4l-.32-.4-.27.27.18.23v.47l-.15.17.08.12.36-.19.53.19-.34.21-.18-.07-.26-.07.12.11v.31l.13.24h.73l-.28.21.28.28h.32l.08.17h.18l.4-.14.41.02.43.24-.13.1h-.82l.09.13h.26l.14.15-.1.14h.18l-.37.4.66-.07v.26l.07.09.4-.12.25.27-.14.58.36.49h.36l.24.09.14-.2.26.12-.13.2v.25l.14.14h.33l.12.47.43.23.25.2-.17.3v.24l.23.12-.21.4.12.25h.3l.16.5v.36l.35.38.31-.12v.07l-.13.27.2.19.22.25-.09.19.36.09.84.43h.59l.24.13-.12.22.26.12.4.57h.24l.65.44 1 1h.33l1.2.89 1.7.62.55-.47h.34l.12-.15 1.08-.4v-.08L21 55h2.08l.78-.25.72.34.07-.39.3-.07.31.56.84.12.62.27 1.35-.65.95-.08.82-.69.75-.36 1-.13.84-.52.72.09 1.08-.37.68.14.5-.2 1.15.6.64.63.39.76v.5l.21.11.2.59.4.37.57.15 1.52-.08.31-.19.23.09.72-.26.24.11.4-.08.15-.44.29.3.12-.07.23.11.25-.13.19 1h.27L44 57l.46-.2.24.38-.11.2v.44l.28.4.06.6-.21.55.22.24-.31.31.12.27-.5.56-.39.75.39.2v.46h-.33l.31.5.49.12L44 63l-.18-.18v.44l-.07.87-.3.25-.45-.15v.17l.33.69.18.14v.25l.28.37v.47l.24.24.17.37.4.33-.12.08.43.45.71.57.14.34.57.27v.26l.27.11.38.37.11.2.47.3v.29l.25.27v.31l.37.4.11.45-.18.33.17.37h.45l.19.14-.45.25.17.2v.23l.87 1v1.22l.47.67-.07.62-.5.64.29.14v.57l.24.38v.4l.59 1v.26l.19.24v1.38l-.62 1.16H50l-.69.52v.38l-.85.76v.52l-.14.12v1.26l-.38.5-.09.59-.43.52v.57l-.07.5v.76l-.07.5.1 1.5.93 1 .5.86.78 1.74.12.7.78 1.12v.44l.83 1.2v.65l-.2.08.22.81v1.21l.46 1.23v.66l.14.45-.23.14.19.24.11.82.21.11.14.28-.17.13v.32l.25.27v.61l.28.39.38.75.38.38.08.21.54.39.08.51.51.37.33 1v.44l.33.87.2.91.44.57v.34l.45.75v.24l.17.53-.09.48-.18.2h-.14l-.15-.16-.17.15v.4l.24.41.28.25.28.5-.21.35.07.4-.11.27v.32l.2.15v-.29l.26-.23.37.06.08.33-.13.11.15.07.22-.11.3.15v.38l.16-.09.78.37.15-.07.16.06.1-.22.28-.05.34-.38.38.08.08-.11h.39l.46.17.24-.11h.37l.09-.12.17-.14.19-.05.17.08.08-.26.25-.11h.84l.37.2.25-.09v-.11l.47-.09.72.18.21.16.75.16.1-.1-.09-.2.22-.22h.26l.32.16h.55v-.08l-.24-.2.17-.29.4-.12h.48l.17.13h.35l.34-.21.64-.37v-.1l.38-.11.23-.25 1.08-.69.27-.3v-.08h.2l1.64-1.61.07-.12H74l.28-.33.29-.12.08-.44.5-.48.65-1.09.24-.46h.3l.18-.33v-.15l.31-.36.19-.37.38-.24.15-.18.32-.15.09-.14h.14l.43-.51.07-.28.23-.27.15-.6.23-.47v-.49l.19-.57h-.09l.19-.25V106l.15-.26.07-.44v-.15h-.1l-.07.27-.22-.07-.14.18v-.28l-.15-.29-.07-.08.15-.1h.16l.11-.38.2-.16.12-.19.4-.1.53-.5 1.38-.27 1-.46.57-.61.09-.4.2-.3-.05-.18-.24.14-.06-.27h.08v-.32l.14-.18v-.26l.19-.5.06-.06v-.43l.13-.16v-.43H84v-.33l-.18.38v.27h-.11l-.09-.34.08-1-.19-.34v-.37l-.17-.27-.15-.07.2-.17v-.21l-.45-.6.17-.25v-.24l.12-.15v-.25l-.23-.14v-.13h.17l.3.19.15-.2H84l.27-.2v-.36l.84-.56h.37v-.22h.15l.17-.14v-.16l.63-.37.06-.24h.18l.07-.41.11.25.19-.08.38-.47v-.2l.15.1.63-.41.46-.21v-.08h.38l1-.53.08-.22h.15l1-.57v-.3h.26l.31-.43v-.33l.34-.44h.2v-.32l.14-.2h-.2l-.07.06-.06-.08.23-.23h.2v-.15l-.1-.14.17-.08.16-.23-.07-.61-.08-.07h-.2l-.08-.11v-.09h.24v-.7l-.09-.13h.06l.11-.78-.06-.41.17-.16V83l-.09-.09v-.4l.09-.09-.18-.33-.07-.56.12-.12v-.09l-.06-.12v-.17l.32-.46-.08-.07.08-.19.06-.37-.15-.09v-.15l-.34-.29-.41-.06-.56-.54.05-.24-.16-.47-.15-.18.15-.25-.18-.16-.07-.31-.07-.2h.09l-.17-.41-.07-.35.21-.18v-.37l-.21-.23v-.58l.09-.38.19-.12h.13l.09-.18-.21-.58h-.21l-.33-.37-.44-.38v-.36l.26-.66.34-1 .11-.15v-.24l-.08-.09h.2l.33-.14.57-.83.23-.5v-.35l.25-.31.26-.4-.1-.08v-.16l.22-.26v-.11l.2-.07h.46l.28-.4.54-.19-.09-.15.18-.2h.12l.51-.63v-.17l1.29-1.43.14-.33.33-.32.32-.09.13-.24.15-.06.88-1 .24-.07 1.07-1.13.56-.43.44-.31.52-.09.75-.64 1.74-1.54.83-1 .47-.49.11-.33 1.07-1.45v-.26l.57-.79v-.5l.89-1.7.2-.18-.15-.23v-.18l.35-.38h.12l.22-.28.37-.78.54-.76v-.41l.1-.17.06-.37-.12-.21.23-.39h.34v.06l.1-.05-.09-.19zm-88.38 4.91v.21l-.08.1-.39-.46.09-.66.25-.28.23-.1-.19.21-.08.45v.34l.19-.15.1.09zm9.09-.57l-.09.74.11.67-.08.19v.43l-.1.11-.15-.09-.07-.38-.71-.42.38.06.41.17.16-.18-.09-.44-.43-.42h-.25l-.1-.14.51-.21v-.18l-.62-.5-.75-.33-.14-.54-.61-.35-.17.06L28 49l.32-.09v-.5h.12l.15.37.06.4.26.29v-.2l.16.08.15.6.26.08.26-.12.06.14-.17.16.12.21.55.26.11-.38v-.67l.2.46-.17.55zm6.27-3.26v.37l-.08.14-.2-.62v-.37l-.14-.23.06-.24v-.17l.28-.1.1-.39-.19-.53.21.28.07.47-.11.81.08.1h.16v.12zm21.62 19.18v.34l-.19.29v-.78l-.19-.43v-.27h-.18l.15-.25h.19l.32-.16-.18.38v.2l.17.21v.14h.21zm8.23 45.14h-.14l.06-.25-.06-.15h.14l.43.32.07.44zm2.14 1l-.25.16H68.21L68 113l-.09-.08.6-.18.47-.23h.33v.23l.06.18zm14.63-68.47l.13-.08.24.5.54.44-.47-.07-.37-.23v-.06l-.07-.17zM83 60.6h.46l.2.23v.1-.07h-.22l-.32-.05-.16-.16zm-2.53-.23l.14.27.11.06.18-.23.19-.22h.29l.07.18-.08.11-.08-.08-.21.08-.08.21.15.14h.21l.14-.17.56-.2.16.14-.09.16H82l-.23.15v.13l.15-.05h.17v.12h.19l.1-.23.2.1v.18h-.1v.1l.06.31.25.13h.17l.13.14-.17.15v.19l-.41-.56-.28-.15h-.15l-.27-.15h-.19l-.11-.12-.15-.06-.08.08-.28-.07-.28-.33-.15-.07-.1-.2zm-2.79.74l.2-.26.5-.6.34-.24.26-.41v-.18l.11.11v.2l-.1.17v.4l-.1.24-.29.24-.18.07v.18l-.21.19-.24.24v.13l-.13.1h-.11l-.07-.18-.09-.1v-.21zm-1.86 2.78l.54-.24.11.33-.5.51h-.21l-.14-.23zm-.51 2.19v-.25l.33.15v.31l.12.23-.27.21v.14l-.27.21-.08.1v-.52l-.11-.29zm-2.48 22.07L73 88l.16.19.27.13.13.16.25.06h-.31l-.19.06-.47-.28-.42-.08zm-.35 18.59l-.17-.28h.39l.44.2zm1.86-17l-.1.32-.18-.23h-.16l-.25.35-.25-.11-.35.27-.09.29h-.27l-.17.18-.14.32-.14.1-.42.64-.27.16-.25.07v.24l-.12-.23h-.33l-.09-.11-.09-.17.5.19.43-.1.38-.52.19-.53.2-.16.14-.21.68-.59.06-.35.35-.14.33.07.25-.07.4.2v.14zm.77-12.44l-.44.7-.47.23-.29-.28.32-.49.67-.59.26.12zm1.4 3.56l-.1.31-.23-.26-.07.17.08.18-.08.27h-.36l-.15-.16.08-.18v-.29l.19-.31.29-.09h.13l.06-.14.27.28.08.18zm.67-5.27L77 75l-.32-.34-.63-.43-.57-1-.16-.5.25-.34v-.34l-.2-.14-.16-.88.07-.54-.28-.27.09-1.06v-.41l.23-.29.16.77.45.57.2.52v.57l.18.32-.09.25.23.68v.38l-.23.32.09.5.45.11.16.27.43.27.2.59v.57l.27.41.41 1 .2.45-.18.25-.5-.43h-.34l-.23-.18.18-.43zm3 12.46l-1 .23-.94.06-.41.08-.44-.18h-.23l.57-.11h.38l.26-.19.37.06.78-.11h.94l.21.08zm3.91-2.32h-.18l-.25.34-.2-.17.07-.36-.06-.11.09-.24-.56-.6.11-.38V84l-.19-.12-.06-.55-.23-.26v-.32l.21-.32.28-.7-.06-.73-.06-.1v-.68l-.07-.22.08-.27-.32-.44-.08-.51.09-.34h.19l.25.36.25.1.23.45v.58l.11.43v.38l.11.35.42.32v.31l-.08.7-.18.35-.11.08-.08.37.06.68.1.25v.36l.11.19v.19L84 85v.13l.31.15.08.29-.07.18.11.25v.28zm.24-21.88h-.43l-.08.2h-.16l-.41.25-.1.24.1.16-.25.3-.24.36-.32.48-.28.15-.31.29.14.06h.28v.1h-.29l-.09.12h-.18v.16l.29.06h.25l.19.17.14-.19h.26v.16l-.5.32-.78.15-.31-.09-.07.33-.16-.15-.27-.2-.15.08-.41-.15-.2.07.13.13v.12h-.22l-.28.13-.09.09v-.46l-.17-.2.12-.3v-.19l.15-.69v-.29l.21-.33-.18-.27-.07-.35v-.52l.18-.2-.25-.44v-.31l.28.17.36-.38.24.12.36.07.2-.33.09.18h.27l.19.18.14-.08.25-.35.3.23h.25l.14-.2.11.26.37.11.07.37.33.25.28-.12H84l.4-.28.14.14zm4.27-19.58l-.08.27v.24l-.13-.11h-.11v-.31H88l-.16-.14v-.36l.23-.25.5-.07.24.08.08.29z"/><path d="M270.35-103.09h-.26l-.36-.21.2-.27.29.18.24-.11v-.39h-.32l-.23-.12-.19.17v.26l-.12-.23-.36.08.06-.4-.19-.21-.27.07v.25l-.13-.2v-.23l.34-.15-.08-.47-.19-.1.37-.26-.24-.4v-.23l-.42-.35h-.39l-.37.38.07-.49.26-.17-.3-.4v-.27h-.15l-.24.25-.16-.24-.24-.11-.44.07.33-.3h.42l.38-.31.11.17.3-.53.35-.08.08-.27-.19-.28-.7-.16.53-.09h.5l.17-.2-.12-.33-.34-.15-.19-.33-.3.07v-.18l.11-.41-.27-.84.07-.19.17-.24v-.23l-.3-.11-.3.34-.26.19v-.4h-.28v.23l-.19.08-.08-.15.07-.33-1-.17-.21.12-.46-.09-.27-.26v-.15l-.28-.07-.16.05-.12-.18h-.27l-.27.45-.31.07-.15.08-.17.14h.39l-.11.22-.36.23h-.16l.11.28.28.24-.08.12-.32-.09-.24-.58v-.18l-.21.05-.4.57-.23.46-.32.27.05.17.41-.33h.2l.14.32.3.27.56.4.09.37-.21.24.07.25.41-.08.4-.21.23.27v.28l.21.5v.14l-.28-.3-.18-.4-.2-.08-.18.27.09.29.14.1-.05.1-.27-.07-.25-.44-.41-.06-.31.28-.24-.1-.1-.34.14-.16-.19-.33-.28-.25-.09-.34-.54-.18-.5-.9-.32-.36.05-.14-.2-.18-.25-.05.09.12-.09.26-.14-.09-.14-.34-.62-.34h-.37l-.32.07.06.21.27.15.59.21-.43.17-.55-.23-.29-.28.07-.23-.15-.11h-.5l.17.11v.17l-.44.12-.25-.31.09-.15-.51-.09h-.12l.06.3-.26-.08-.13-.27h-.45l.14.25-1.34-.26-.37.14-.51-.18v-.2l-.46-.12v.25l-.17-.11-.3-.09-.28-.23-.19.1.08.26H251.11l-.11.25h-.47l-.94-.33v-.12l.54.2.29.14v-.14l-.91-.62-1.08-.12-.46.12-.15-.11.18-.17-.25-.18-.33.08.11.09-.23.07-.36-.17-1-.31-.51.06-.18.21-.23-.08-.15-.2-.3.13H244l-.27-.24h-.21l-.44.06-.12-.08-.2.26-.07.25-.15-.3-1.26.33v.31l-.3-.11-.17.36h-.12l-.12-.21h-.44v.3h-.21l-.26.12-.41-.27-.37.13v.23h-.71l-.85.08-.21-.13-.7.11-.07.09.43.32.2.51.19.14.09.32.24.47-.13.19v.4h.18l.28-.25.56.26.14.24.23.06.57.56.11.5.45.15.31.39v.21l.09.19-.14.13.21.3-.13.13-.21-.07-.37.24v.25h-.39l-.25.18-.52-.07-.2-.19v-.34l-.52-.71h-.22l-.11.09-.75-.17-.47.07-.23-.15-.45-.5v-.38l-.28-.23h-.4l-.07-.19-.16-.36-.5-.12-.17.15v.77l.06.22-.37.51-.14.33-.2-.21v-.19h-.15l-.29.19-.66-.05-.56.21-.23-.08-.42.33-.46.09-.27-.08-.31-.3h-.21l-.11.12v.24l-.54.22-.29.23-.63.07-.38.44V-105.5l.58.82.08.47-.43-.59-.32-.32h-.26l-.33-.19.06.28.31.14.15.5v.18l-.46-.58h-.29l-.09-.57-.52-.5-.24-.42h-.27l.13.49-.07.3-.14-.38-.34-.2-.43.06v.23l-.2-.2h-.43l-.37.44-.36.08.23-.33v-.3l-.32-.62v-.45l-.14-.17v-.3l-.3-.56-.56-.64-.66-.34-.65-.69-1.53-.51h-.81l-.37.07-.66.44v.13l-.34-.07-.58.2-1.17.59-.44.11-.51.51-.31.12-.63.52-.36.17-.38.34-.52.13-.44-.15-.66.14-.45.23.34-.36.51-.31.07-.27-.44-.52-.79-.19-.74-.5-.24-.12-.13.13-.31.63v.36l-.13-.24-.17.07-.17.39-.23.12-.09-.15.12-.44.14-.21-.14-.39-.38-.19-.38.34.06.21-.2.36-.19-.2v-.39l-.18-.33-.14-.46-.32.32h-.53l-.34.21-.23-.09.27-.23-.07-.3v-.31l-.11-.33.06-.1.57.44.26-.19v-.36l-.52-.69-1-.38-.84-.11-.91.24-.83.18-.54.44.12 1.6v.43l.12.3-.31.46v.41l-.4.32h-.26l-.14-.15v-.21l-.37-.25.22-.19.21.09.23-.5-.12-.63-.32-.13-.2-.56.21.08.32-.28v.33l.31.3.19.51.09-.18v-.81l-.15-.57-1.06.41-.82.56v.33l-.46.33-.31-.19.07-.24.26-.11-.32-.36.2-.66.33.13.17-.06.34.18 1-.46.4-.13h-.76l-.45.07-.6-.07h-1.34l-.3.18-1.81.13h-1.06l-.65.13-.7-.31-.62.09-.45.18.34.42h.53l.3.12h.3l.32.38v.23l-.54.51h-.33l-.53.2-.06.44-.18.3.33.6.56.15.06-.34.33-.33.58-.18-.11.57h-.53l.25.38-.07.08.14.27-.39.23.32.08.33-.14.17.25-.07.36.38.39h.38l.49.57-.08.28-.24-.17-.33.13.11.37-.19.11-.18-.15-.2.07-.13-.34-.49-.37-.24.08.17.25-.27.18-.19-.17-.19.15.14.36v.5l.36.09.4-.21.27.28-.25.21.34.18-.28.23-.43-.12v.15l.44.25h-.7l-.17-.31h-.52l-.2-.33-.37-.11-.37-.37h-.49l-.33-.19h-.26l-.17-.08-1.06.44v.3l-.13.15.24.23-.07.2.24.36-.06.08-.31-.26-.24.12-.27-.11-1.23.14-.58-.06-.33-.38-.38-.09-.34-.37-.19-.4-.28-.12v.24l.24.51.09.83.44.94.33.75.32 1.66-.08.36h-.19l-.19-.28-.07-.25-.27-.28-.17.12.12.21-.11.2-.46-.11-.45-.52-.75-.07-.32-.41-.26-.11-1-.94h-.4l-.2.15h-.27l-.14-.19.62-.58h.27l-.21-.14-.37-.18-.36-.36h-.09l.09.2.3.28v.32l-.37.25-.58-.15-.58-.44-.12-.24-.6-.07-.12-.33-.27-.18h.69l.6.15.28.21.34-.14.27-.49v-.24l-.25.11-.07-.24h-.3l.11-.47-.35-.38-.22.14-.06-.27-.18-.1-.21.14-.14.17-.5-.07v-.43l.59-.53v-.23h-.26l-.43.43v-.37l.24-.26-.11-.34h-.12l-.13.12-.09-.3h-.29l-.11-.14-.23-.19.17-.41-.14-.14-.19.15-.21.38-.1-.6-.29-.25-.29.22h-.18l-.12-.44-.27.26h-.15l-.08.2-.09-.41v-.22h-.43l-.18.1-.15-.14-.46.14h-.28l-.07.14.17.14.11.33-.21-.05-.14.08v.23h-.09l-.35.08-.11-.09.14-.27.2-.17-.18-.3-.28-.06v.29l-.19.15-.2-.25-.27-.09-.28-.3-.1.19-.24.05h-.41l-.12-.18-.07.26-.19.14-.37-.29h-.25l.07.27.07.12-.35.28-.15-.09-.05-.18-.17.3v.4l.21.24.08.31.17.07.05.41.35.07.15.24v.31l.26.25.1.24-.2.31h-.15l-.1-.24-.43.12-.28-.08-.3.07.12.22-.18.3h-.33l-.24-.08-.69.37-1 .16-.38-.12h-.5l-.11.06-.27-.08-1.39-.06-.41-.33-.18-.59.2-.37.12-.06v-.25l-.44-.17h-.47l-1 .43h-1.25l-1 .27-.65.12-.13.23H161l-.15.21-.33.19-.4.38.2.39.22.07.25-.12.13.09-.15.24h-.17l-.28.31v.17l-.12-.11-.06-.59-.41-.33-.07-.23.07-.24-.33-.3h-.21l-.6-.59h-.17v.19l.49.56v.33l-.26.28-.59.11-.21.13h-.42l-.85-.69v-.31l.18-.2v-.25l-.43.18v.36l-.21.25-.53-.36h-.45l-.31.26.07.52-.25.36.23.4.34.17.46-.34v-.21l.58-.33.13.24v.34l-.58.44.18.24-.23.34-.38.12-.33-.19v.12l.17.33-.23.37-.46.37.18.26-.18.15h-.24l-.46.4-.56.07h-.53l-.18.34.15.42.53.55.24.07-.22.07h-.41l-.11.21.07.13-.14.29-.29.3h-.3l-.11.2.07-.29.25-.2.21-.83-.21-.15v-.25l.14-.17v-.38l-.15-.44.15-.42.31-.19.12-.28-.18-.62-.09-.18.11-.2h.21l.12.05.42-.15.28-.69v-.26l-.17-.34.18-.75.24-.34.25-.53-.17-.45h-.1l-.19.21h-.25l-.36-.11h.33l.37-.31.28-.14.14-.31v-.17l.18-.21.24-.5-.08-.16.13-.31.4-.19v-.25l-.2-.21v-.15l.24-.39-.08-.3.12-.25h.13l.22-.5v-.6l-.11-.54-.28-.49.09-.17-.07-.22-.18-.05-.16.09-.22-.13-.15-.24h-.09l-.17.35-.13.11-.17-.12-.19-.37.06-.09-.15-.11h-.41l-.21-.28.07-.09h.42l.54.21.25.23.14-.16h.12l.13.18v.17h.12v-.24l-.25-.33v-.3l-.21-.3-.2-.13h-.12l-.17.11-.21-.09-.06-.34-.45-.41v-.27l-.24-.21-.16-.25h-.21l-.25.18v.3h.28l.2.14v.17l-.18.12v.23l-.14.07-.54-.63v-.23l-.17-.33-.27-.06-1.18-.68-.31-.11-.08-.09-.69.05-.22-.09.11-.17-.05-.2-.33.07-.13-.12-.32.07-.24.24-.11-.07-.28.26-.11.31h-.65l-.39.41-.53.14-.21.08-.15-.11h-.23l-.14.11v.32l.24.09h.17l.16.43v.56l-.21.44h-.47l-.37.37-.6.14h-.21l.26-.21.25-.09v-.36l-.38-.63.21-.45v-.3l.12-.19-.19-.47v-.31l-.41-.42-.25.14-.21-.14h-.17l-.08.36h-.39l-.15-.14-.31.17-.27.42h-.3v-.23l.23-.32v-.2h-.23l-.51.76-.72.28-.25-.07.25-.41.34-.07.33-.51-.09-.33.15-.27v-.14l.31-.19v-.13l-.47-.12-.12-.14v-.45h-.14l-.42.36-.43-.07-.17-.45h-.27l-.3.3-.38-.44h-.21l-.44.38-.07.26-.28.08.2.32-.3.3-.07.52.12.38-.33.39v1.45l.38.34v.37h-.28v.38l.3.38h.31l.36.46.43.09-.45.3.14.38v.24h.57l.39-.15.49.2h.5l.12.19-.26.19-.27-.06h-.24l-.38-.19-.71.3-.21-.14-.31.13-.31-.07h-.28l-.21.24h-.64l-.23.25.06.12.32.11.07.26.37-.07.19.14.33-.21.3.41.4.25.36.64-.31.65-.44.21.26-.72-.18-.19v-.45h-.49l-.12-.08v-.2l-.18-.07-.3.18h-.4l-.36.34.33.12-.18.19h-.34l.21.26-.06.19-.46.34-.06-.33h-.13l-.22.18.12.33-.12.34h-.26l-.06-.49-.25-.3-.07.13.07.3-.28.47-.12.45-.33-.24v-.19l.32-.74-.13-.25-.34-.06-.83.3-.31-.11-.45.33-.27-.06-.28-.3-.4.06.36.33-.24.24-.11-.06v-.15h-.12l-.13.28-.18.12v.69l.19.19.36-.36.18.18.53-.33h.19l-.07.31-.88.37-.15.33-.38.23-.69.11v.25l.12.19-.53.12-.28-.12h-.17l-.08.28-.18.08-.4.13-.12.18.19.27h-.13l-.09.29-.17.08-.14-.21h-.12l-.3.43v.15l-.11.12v.3l-.31.34v.28l-.39.13h-.53l-.3.25v.31h.24l.15-.21.74.18-.17.24-.32-.06-.07.12.24.19-.06.63-.28.2.06.23v.3l-.34-.49-.29.08-.33-.46h-.23l-.07.12.2.19v.28l-.18.2.2.32.31-.14.5.15h.36l.06.3.31.24.3-.08.17-.08.12.19-.32.17h-.38l-.3-.27-.18.1v.25l-.15.11.37.44.25-.11h.52l.15.43.19.15.15-.19h.49l-.1.27.45.31h.38l.23.45-.23.57-.63.38-.25.34v.21l.55.55.34.15h-.58l-.65-.52v-.34l.3-.64.24-.17v-.24l.18-.33-.11-.13-1.09.46-.57.21-.17.38-.38.15-.31-.12-.38.08-.45.39-1.2.44-.85.19H123l-.39.39h-.44l-.24.19.37.28v.34l-.09.32.19.2h.25l.07.19-.12.24.56.33.4.71v.56l.13.26h.14l.06.43.45.3H125.79l.38-.24v.35l.14.26v.4l.47.25.25.44h.82l.55.36h.21l.32.38.08.81.11.33-.08.37.34.43.31.21.5.72.19.7.43.38.12.32-.36.69h-.19L130-82l.3.46h.53l.31.23.58.63.55.23.06-.06.24.08.51-.4.51-.09.59.39.43.15h.29l.19.4.07.63-.15-.58-.25-.31h-.47l-.68-.53h-.34l-.47.5v.44l.06.23-.63-.65h-.64l-.34-.26v-.33l-.3-.4-.49-.12h-.5l-.57-.38.14-.12v-.37l.21-.14-.08-.25v-.74l-.19-.55-.25-.18-.18.5-.24.09v.39l-.19.24.09.21-.09.32h-.2l-.14-1 .21-.27v-.36l-.51-.4v-.52l-.2-.36v-.42l.46-.27V-86l-.06-.31.08-.56h-.5l-.24-.24-.66.4-.83.12h-.45l-.65-.66-.36-.19-.07-.31-.91-.11-.39-.26-.38-.4h-1.09l-.31-.14-.36.21-.38.59v.36l-.18.12-.15-.11-.08.19.2.23.52-.33.58.14.29.57-.34.63-.44.09-.71-.3-.43-.5h-.24l-.44.32-.14.18-.22.08.47.71h.19l.12.39.55.47h.52l.3.24.77.06.19-.21h.14l.06.25h.53l.18.46.2.07.08.31.64.06.27-.19-.23.3-.65.11-.42-.24h-.3l-.43-.47-.27-.07-.3.15h-.36l-.28.34-.11-.25-.29-.2-.3.13h-.56l-.43-.27-.38.07-.15-.25.27-.19v-.23l-.27-.23v-.26l-.47-.42-.19-.34.14-.39-.25-.43v-.69l-.34-.33v-.5l-.14-.17-.21-.06-.07-.42-.45-.32-.2.12.66 1.27.2.84-.17.69-.52.6-.33.33v.18l.24.23.1.49-.21.6v.39l.57.46.72.62.15.44h.4l.34.37.39.57-.09 1-.08.39.36.56-.06.7.19.37.59.62v.73l.17.21.44.13.46-.28.56.18.21-.18.11-.43.38-.39.39.12.27-.09.57.33.33-.12.19.36.75.31h.53l.36.47v.25l.47.27.11.25.09.06.07.25.23.18-.25.21-.31.08v.52l.22.45.19.12-.11.26.19.28h.36l.2.28h.45l.24-.4.11.24.31-.08.21.08-.18.11-.11.18h-.47l-.26.08-.43.09-.42-.3h-.38l-.24-.36.08-.09-.06-.39-.3-.37-.08-.36-.27-.18.06-.38-.39-.49h-.14l-.13-.24-.51-.25v-.43l-.5-.49h-.43l-.64.62-.41.06-.25.37-.49.38v.9l.19.27.65.38.47 1.15v.28l-.49.85-.08.52.27.46-.27.73v.29l-.44.44v.23l-.3.14-.2.27v.39l.19.23v.31L121-67l-.6-.13-.11-.17h-.55l-.58.09-.5-.14-1.16-.19-.42-.39-.14-.31-.49.09-.18.3-.11-.12h-.21l.23-.42h.46l.89-.12.15-.2.71.4h.23l.08-.2h.3v.24l-.47.26.3.25h.58l.24-.31.33-.15v-.24l-.32-.36v-.21l.39.19.14-.2v-.65l.37-.21v-.18l-.24.06-.07-.13.34-.18v-.68l-.13-.18.21-.26v-.15l.28-.25v-.49l-.36-.36-.2-.59.08-.43v-.34l.15.06v-.25l-.47-.46h-.23l-.21-.26-.5-.17-.63-.81-.13-.66-.18-.17.17-.27-.33-.2-.19-.34.12-.41-.49-.71v-.47l-.33-.37.09-.23v-.21l-.31-.41-.12-1-.2-.32-.38-.26-.13-.59-.17-.13-.24.09v-.08l-.37-.11-.21-.4-.33-.31-.12-.37.19-.11.08-.3-.14-.26.07-.21-.17-.25.14-.85-.2-.49v-.56l-.17-.18v-.38l-.2-.36.25-.11-.12-.28-.32-.07h-.44l-.94-.38h-.37l-.18.15-.27-.13h-.27l-.39.2h-.44l-.36.15-.11-.13.11-.14-.26-.13-.25.07v.65l-.09.53.27.36-.11.12-.15.58.19.19v.37l.11.24-.12.25v.47l.24.37-.21.39v.3l.14.39-.09.19-.34.24-.55.85-.21.14.06.26.2.31-.18.27v.52l.38.36.2-.13.21.2.22.57h.36l.28.26-.23-.06-.22.3v.39l.47.34v.41l-.25.22-.21-.17v.24l.26.68.24.21.11.53.15-.25.29.19h.37l.33.23.3-.41.17.15v.56l.24.3h.18l.64.76.32.1.24-.15h.3v.13h.29l-.29.23v.84l-.09.21.21.33-.07.17h-.19l.08.44v.2l-.33-.07-.37-.7-.43-.32-.49-.09-.2-.44-.33-.27-.83-.07-.87-.5-.52-.07-.06-.3h-.24l-.26-.24-.45.17-.3.26-.15-.34.11-.17-.08-.21-1-.37-.45-.31-1.51-.08-1.19.17-.3-.09h-.31l-.26-.18-.13.07-.26-.06-.19.18.15.33v.26l-.33.12v.13l.23.36.21.12.17.57.15.26.06-.27h.19l.26.51v.28l.36.09.53.53-.41-.07-.14-.13h-.24l-.13.52-.3.2-.43-.19-.22.17v.18l.33.4.12.11v.19l-.17.18h-.79l-.18-.23.06-.24-.15-.31.25-.24v-.17l-.31-.31L102-73l.24-.27-.06-.11-.24.12h-.17l-.41.41-.24.05-.29.25v.17h-.39l-.17.18v.2l-.24.18h-.68l-.23-.09-.14.08h-.21l-.18-.17-.41.26-.09.17-.32.05-.27.29v.14l.23.17-.08.19.07.18-.1.13-.25-.19-.14-.21h-.15l-.33.38-.15.38v-.37l-.33-.12-.22.14h-.21l-.21.06-.26-.05-.06-.25.32-.31H96l.13-.23-.21-.33.07-.12.2-.11-.36-.34-.18.09h-.21l-.11-.15.58-.27h.24l.31-.16-.06-.12-.56.08-.83.36-.25.2.11.14.09.29.12.19-.17.23-.19.06-.29-.32.11-.15.11-.06v-.2h-.1l-.58.57v.14l.23.24.18.08v.22l-.36.35-.17-.12.11-.18-.06-.24h-.11v-.24l-.79.16-.08.2-.43.2-.34-.06-.19.1v.18l-.64.78h-.18l-.58.71-.26.14-.24-.23H90l.13.31.41.31.07.24-.51-.19-.13.18-.84.11-.17.12.24.3v.28l-.2.36.14.47L89-66l-.56.25-.08.17H88l-.14.19-.19-.34-.41.3H87l-.63-.82-.65-.55-.22-.12v-.46l.08-.18.17.09.13-.23v-.18l.15-.17h.49l.14-.21h.56l.06-.24-.44-.56-.06-.25h-.36l-.33-.39v-.3l-.39-.25-.84-.08h-.58l-.25.13h-.38l-.65-.4h-.36v.17l.77.63.45.32.24.66v.36l.17.21-.13.11v.3l.07.23-.12.09v.71l-.12.4.13.39h.46l.34.2.23.25-.06.15.06.21-.06.15v.18l.14.11-.11.23v.72l-.13.18.21.42v.57l-.2-.18-.12-.39-.39-.3-.38.36v-.33l-.09-.25-.49-.06-.45.06-.26-.26h-.39l-.21.17-.36.76-.51.42-.37.07-.26.25-.09.4-.34.46-.43.34v.27l.17.46.69.71.42.62-.24.27h-.28v.33l-.27.23-.17.26-.42-.4-1-.47h-.34l-.11-.2h-.55l-.29-.24-.21-.33-.44-.08-.33-.3h-.36l-.07.2.09.2-.07.18.11.17-.2.2h-.31l.23.43.08.34.43.2.27.37.38.19.3-.13h.18l.25-.18v.25l.34.13v.12l-.11.15.24.21v.49l-.19.08h-.26l-.34.37h-.17l-.29-.28h-.45l-.2-.17h-.45l-.14-.11v-.38l-.27-.17-.21-.29h-.12l-.29.24-.63-.23-.14-.25-.15-.15.13-.25-.08-.43v-.3l-.33-.2v-.26l-.43-.42v-.36l-.24-.08.06-.27.24-.08v-.81h-.11v-.21l.11-.19h-.17l-.34-.47-.71-.3-.19.14-.15-.17h-.25l-.13.09-.36-.13.13-.18h.31l.08-.24h-.34v-.09l.22-.1-.21-.15-.21.14-.51.13-.07-.08.14-.19.31-.15-.09-.11-.46-.11-.08-.35-.37-.24-.07-.45-.33-.23.07-.09h.29l.08.09h.4l.06.3.65.62h.21l.06-.11.32.23h.51l.06-.13.2.23-.19.13.12.1v.18h.31l.14-.15h.5l-.13.07H73.69v.19l.39.38.24-.17.26.08.06.15h.43l.26.08.23-.17.37.27.51.15.91.05.71-.08.09-.13h.46l.22-.18.51-.09.43-.23.59-.81.06-.21.34-.44v-.21l.11-.24.07-.46v-.76l-.12-.12h-.12l-.25-.39-.19-.12-.11-.39-.33-.34-.27-.06-.07.14-.36-.17v-.2l-.63-.44v-.3l-.33-.33h-.17l.07.15.25.37-.23.09-.39-.36h-.25l-.45-.41h-.15v.16l.06.18-.24-.06-.37-.55-.3-.09-.22-.26-1.08-.71-1.6-.85-.37-.15v.13l-.33-.2-.39-.08v.15l-.24.13-.31-.12H71l-.2-.27-.3-.13v.08l.17.23v.14l-.21-.15h-.32l-.12.12.06.2-.2.38h-.33l.19-.3.19-.12-.11-.13h-.22l.06-.18.08-.12-.13-.07-.14.14-.26.33v-.32l-.08-.09-.13.24h-.08v-.23l-.26-.09-.25.21-.08-.28-.12-.09-.21.21-.1-.23v-.34l.17-.22v.2l.24.24h.37l.24.11.27-.21v-.17l-.19-.19-.08-.11-.24-.1-.12.12-.17-.14-.17-.19-.31-.15h-.3l-.06.1.11.18h.1v.12h-.37v.12l.27.18-.14.07h-.21l-.12.21v.39L67-72v-.31l-.13-.12-.44-.05-.23-.18h-.12l-.11.06v.18l-.12-.12-.08-.18h-.17v.5l-.11-.07-.14-.22-.23.15-.08.17-.04-.28-.08-.34h-.12l-.12-.34-.12-.07h-.26l-.3-.07h-.37l-.18-.24.07-.06.46.12h.38l.33.06.62.08.43-.15.28-.56.59-.15.25-.21v-.09l-.19-.07-.06-.12-.22-.07h-.27l-.38-.32h-.21l-.25.28h-.16v-.11l.25-.16v-.21l-.3-.12-.07-.12h-.2l-.2.35h-.11v-.25h-.14l-.12.18h-.14l-.05-.16.2-.14v-.18l-.3-.18h-.3l-.18.11v.43l-.21.09v.15l.18.44v.2l-.16.15-.13-.27h-.19v.1h-.25l-.38.17.3-.41.23-.06.15-.3v-.15h-.11l-.31.23-.18-.05v-.14l.2-.17v-.13l-.27-.07-.05-.12.22-.07.09.09h.33l.19-.49-.05-.2-.31.08-.14-.09.06-.22-.08-.21-.2.18h-.17l-.18-.15-.22.21v.15l.18.23-.12.17h-.14l-.22-.31-.16.15-.08.27.07.11h.24l.11.11v.13l-.19.08v.22l-.18.09v.16l.05.09-.17.11.1.31-.09.1-.2-.14-.18.14v.12l-.2.14v-.3l.25-.55-.25-.09v-.14l.18-.18v-.47l-.24-.14h-.15l-.39.64v.36l-.4.54-.09.38.08.17v.31l-.4.44-.21.09v-.27l-.09-.19.26-.41-.05-.27.11-.21-.12-.27.46-.5.08-.3.07-.05v-.17h-.24l-.35-.29h-.12v.28l-.18.2v-.27l-.21-.2-.22-.01-.19.1v.38l-.09.18-.14-.15-.17-.1-.13.13v.12l.35.24.08.27-.08.09-.05-.17-.19.17v.16l.09.12-.09.1-.28-.18h-.15l-.16.33-.21.09v.12l.13.09-.29.19-.07.23.24.25-.18.18.24.11.11.11-.19.14h-.38l-.1-.41-.18-.05.17-.19-.24-.13H55.66l-.48-.38H55l-.16.2-.11-.21-.24.22-.28.07v.13l.34.4h.24l.14.16h.36l-.15.29v.27l.24.33v.21l-.21-.21-.17-.31-.27-.11-.16-.2-.08.27-.23.2-.05-.37-.23.2v.16l-.27.24v.25l.33.15.14.29h-.25l-.14-.14-.21.31-.07.24-.34.27v-.17l.23-.17-.08-.22.22-.44-.17-.88-.22.14-.35.57v.38l.05.15-.24.31v-.3l.15-.33-.21-.49h-.16l-.3.2-.21.39.14.3v.27l.43.31.12.21-.17.33-.14-.42-.31-.14-.21-.55-.09-.06-.4.14-.05.2.4.31h.19l.1.12h-.27l-.27.09.18.3-.3-.21v-.36l-.12-.07-.11-.28-.18.14-.07.39.14.18-.05.35-.26-.14-.22.07-.3.35h.27l.2.24h-.25l-.18.12.17.12-.12.14h-.22v.16l.08.07h-.18l-.13-.16-.22.06-.2.26.08.15-.1.09h-.31l-.15.29.25.08.68-.19.16.11.28-.14h.17v.2l-.2.22-.06.42-.07.09-.12-.15v-.21l-.25.07-.11-.14h-.31l.1.11-.09.18-.23-.04h-.17l.23.17.09.24H49l-.09.18v.23l-.06.16-.13-.22v-.28l-.21-.28-.21.23-.22.06-.08-.15.08-.13h-.18l-.25.27.21.23h.33l.27.17-.15.24-.57.08-.12-.11h-.23l-.12.28.19.18-.19.26h.23l.29-.33H48l.14.2h-.42l-.06.31.15.23.33.2v.24l-.2-.23h-.19l-.24-.31h-.14l-.19.2.21.17h-.29l-.27.2v.19l.3.13.25-.17.17.17.26-.08.08.25.19.11v.18l-.4-.26h-.32l-.15.1-.44.07v.24l-.25.13-.11-.09-.38.2h-.21v.15l.24.1.18.22-.21.08-.16.02-.08.07.19.18-.07.12h-.28v-.08l-.1.09.2.17-.13.11v.18h.17l-.17.11h-.19l-.11-.11v.16l-.09.17.17.07.42.14.06.19h.17l.24-.11-.19.18v.14h-.28l-.12-.12h-.43L45-61l.09.09h.31v.2l.15.14v.24l-.18-.19h-.14l-.14.18v.2h-.08l.14.17v.2H45l-.17-.15-.11.08v.25l.26.07V-59.22l-.34-.23-.14.08v.25h.09v.27l.12.26h.18l.13-.24h.14l-.13.36h-.19l-.26.28h-.23l-.19.08v.14l-.25.11-.2.18.21.11-.07.13h-.39l-.18.25v.12l.31.09-.24.12-.12.26h-.24v-.24l-.15-.1-.09.14h-.2l.07.18-.14.13v.18l.08.15h-.36l-.2.26v.32l-.27.18v.43l-.2.17-.27.26.08.12.31-.2h.17v.18l-.2.08v.31l.18.24.33-.19h.36l.47-.46v-.21l-.25.07.21-.28.06-.33h.11l.14-.13H43.67l-.44.28v.2l.43.13-.14.19h-.23l-.44.46.27.14-.15.2v.28h-.27l-.23-.23h-.32l-.19.15v.26l-.25.14-.24.13.18-.2.13-.09-.19-.25v-.28l-.21-.31h-.21l-.12.21h-.3v.14h.38l-.39.36-.26-.12h-.23l-.3.27h.17l.15-.07.08.08L40-53l-.14.18-.14-.14h-.21v.14l.34.2h.4l-.08.21.18.07v.19l-.35-.07-.06-.21h-.27l-.27-.24-.06-.19h-.11v.24l.27.37.28.21.22.04.13.14h-.26l-.48-.14-.4-.45-.19.12-.25-.19h-.31l-.15-.13-.12.14v.24l-.17.15.24.25.56-.13.08.11-.23.15.12.07.39-.19h.18l-.09.17-.45.19-.18.26-.31-.08-.26-.34h-.13l-.15.13-.23-.2-.19.12-.15-.12-.24.14.07.12.49.07.31.2.37.2-.11.25.13.2-.23.12-.09-.12V-51h-.52l.11.2v.15l-.34-.21-.3.31.3.2h-.24l-.17.07-.08-.3H36l.14.3-.19.13-.08-.28-.26-.24h-.14v.17l.3.27-.13.18.13.13.33-.08.46.1.3.19h.45l.14-.11h.23l-.3.3-.4-.06-.15.08-.49-.25-.31.08-.14-.06-.24.2h-.33v.13l.51.23-.19.21h.25l.17-.11h.42l-.31.21h-.44l-.12.06h-.13v.1l.23.09h.17l-.26.15h-.13v.14l.14.1.11.18h.35l.19-.14.47-.07.32.08.12.08.21-.14v-.2l.21-.06.08.17h.23l.34-.25h.15l-.07.13-.17.12.3.08.14-.14-.06-.17.22-.33-.06.25.24.28-.18.24-.41.1-.2.15.11.09-.14.24h-.36v-.14l.18-.14v-.28h-.29l-.32.31v.17l-.34-.14-.27-.06-.34.06-.2-.06-.38.19h-.19l-.22-.15h-.08l.12.29-.08.15.14.12.22-.05.12-.15h.18l-.2.22v.25l-.12.11-.22-.12.1.34.18.15.44-.48.31.13-.13.13v.25l-.37.2.06.11h.23l-.12.19.17.25-.11.3h.09l.24-.37.21-.12v-.31l.57-.24h.28l.24-.07-.17.11-.3.23v.37l.09.23-.23-.19v-.33h-.17l-.2.37-.17.06.28.11-.25.33h-.2l-.09.21.15.07h.43l.11.18h-.31l-.11.18v.21l-.33-.23-.15.07-.06.26-.07-.31-.2.13-.27.37.11.28.41.44.08-.25.11.09.23-.11-.06-.13.13-.3.33.25-.15.09.19.2-.03.4-.2.14.18.44.14-.17.38-.11.15.21h-.32l-.15.12.17.26v.11l-.56-.4-.19.07-.18-.14h-.24v.24l-.17.18.39.66.32.06.43.37.59.23.07.19-.14.07.23.21.21-.1-.09-.3h.19l.2.16v.09l.31.39.14-.18.12.06.27-.12.33-.31h.14l.13-.15h.07l.08.22h.19l.54-.54v-.19l-.24-.3.41.26.33-.33-.09-.11.19-.14v-.21l.24-.16h.26l.07-.19-.25-.31.09-.21-.22-.3-.27-.2v-.26l.15.09.3.33.12.43.11.12h.19v.17l.14.18.3-.14-.08-.17-.14-.11.11-.19.25.22v.11l.39-.37.1-.34-.19-.24-.21-.09-.1-.21.14-.09v-.14h.15l.12-.14-.1-.17v-.29l.24-.18.22.22-.18.28.06.37-.07.25.18.28v.21l.33.34h.37l.15.13-.12.15-.24.14.06.64.12.18v.51l.22.12.08.12v.33l.34-.15-.21-.23v-.24h.15l-.07.15.26.15.08.17-.31.26-.05.25.09.24v.34l-.14.15.18.25.26.06.15.41.14.12.29.58v.44l.32.13.08.3.3.3.33-.19.09.38-.23.43h-.39l-.06.17.21.13v.28l.32.09.14.73-.18.29.17.15h.31l.79-.21.39.14.31-.28v-.25l-.18-.15.21-.51.49-.06.11-.5.08.23.57.1.34-.19.28.13.17.21.34-.42.11-.62.25-.26.06-.77.14-.25-.27-.24v-.32l.26-.3-.25-.32.27-.25-.34-.21.15-.27-.19-.3.34.13.37-.07-.33-.31.17-.36v-.19l-.46-.17h.58l-.31-.32h-.26l.18-.21h.17v.07l.18-.17v-.2l.26.2v-.32l.21-.24h.21v-.2l.12-.17.11.14-.06.28h.18l.27-.41h.21l.21-.18v-.3l-.19-.17-.24-.07-.27.15-.15-.07-.25.14-.2-.27-.33-.06-.2-.13h-.41v.15l-.19-.07h-.47V-44l.22-.09.25.09.22-.3.13.13.24-.07.11-.2.27.06.13.14h.19v-.19l.15.15.36.13v.2l.26.14.43-.11.11-.32.39-.43.2-.47-.31-.3v-.24l-.46-.27.08-.18-.56-.43-.07-.27-.25-.17-.27.33-.17-.33-.15.09v-.3h-.21l-.15-.24-.18-.19.21-.27-.17-.34.14-.08v-.19l-.24-.09.24-.3-.09-.46.07-.09.2.18v-.31l-.24-.25.08-.46-.06-.36.08-.12v-.39l-.36-.46.25.09.46-.08.25-.38-.13-.27.08-.17.27.07.43-.37v-.18h-.21l.1-.26.21-.21.13.17h.14l.08-.33h.13l.13.2.21-.19V-54l.14-.32h.24v.23h.19l.15-.32.38-.21-.12-.28v-.27l.17.21.32-.31h.2l.31-.52v-.51l.23-.27h.2l.31-.39h-.23l-.18-.25.19-.07-.09-.2h-.25l-.31-.24.38-.07-.01-.21.19-.55.09-.18-.14-.27H56l-.14-.22.1-.11.19.09.07.11h.12v-.18l-.29-.13.24-.13h.27l.26-.24-.21-.14-.2-.38.21.07.14.17.23-.05.11-.25v-.3l.17-.13.19.34.25-.31.12.26.26.11.13-.26.25.14.37-.24.18.21h.3l.2-.14.12.13H60l.29.3h.59l.4.39-.23.11.15.21v.47l-.11.1.47.44-.34-.07h-.13l.4.33v.3l-.47-.26h-.39l-.42.27v.25l-.28.3v.21l-.13.09-.49.51-.07.51h-.12l-.08-.15h-.14l.11.31-.07.25h-.32l-.19.26.08.39.21.15-.38-.12-.11-.14-.13.17-.12.33v.15l-.21-.1-.08.12.21.21v.15l-.19.2-.09.18-.28.18-.15-.11v-.11l-.19-.04-.21.08.08.28-.18.15.12.3-.12.29h-.15l-.15.26.12.31.08.06-.09.31.06.21.2-.09.17.18-.05.34-.08.17.11.3-.06.14.31.5.15.13-.11.19.24.37-.22.09v.49l-.11.19v.64l.18.23-.17.34v.24l.12.17.42-.19.15.12.07-.19.36.38h.21l.21.19h.45l.13.06-.12.23h.17l.38-.26v.21l-.19.26.39.56.08.19-.11.32.11.06.17-.46.19-.1v.2l.27-.12h.22l.51-.37h.28l.62-.4v-.17l.4.12h.27l.25-.38.06.13-.13.26.17.07.17-.38h.14l-.03-.37.13-.13.15.31h.18l.07-.23.15.34.2-.07v-.21h.18l.07.17.2-.19.4-.08.23.2.49-.07v-.17l-.13-.13.14-.08.21.07v.19l.31.08s.13-.33.2-.36.44-.24.44-.24l.34-.06-.22.19.11.2v.27l-.34-.28-.06.2.37.4h.37l.2.3h.36l.14-.06h.25L69-46l-.19.24-.46-.15-.19.07-.08.27-.38.28-.31-.19-.18.14v.31l-.29.1-.13-.26h-.14v.19l.14.24-.14.5h-1.26l-.56-.36h-.53l-.3-.13-.26.07-.33-.32v.21h-.2v.13l.18.15-.28.19-.14-.09h-.56l-.11-.14-.08.31h-.29l-.31.09v.26h-.2l-.5.21-.18.3v1h.2l.11-.08h.28l-.14.23h-.23v.4l.26.4.44.4h.15v-.26l.31-.25.12.23-.17.82v.49l.14.69-.18.55-.5.53h-.37l-.37-.36v-.27l-.79-.77v-.46h-.13l-.27.27-.44.11-.15.14h-.32l-.24.36v.32h-.13v.55l-.41.49v.61l-.22.21.18.75.18.18v.52l.11.39-.13.23.21.12.09.52-.14.1.13.31-.21.3-.44-.12.06-.5.26-.45v-.12l-.12.11-.24.46-.12.42-.42.19-.42-.06-.19.17v.3l.06.15.34-.15.24.09v.12l-.5.19-.53.47-.45.11-.12-.11.45-.25.41-.43h-.14l-.24.32-.58.27-.68-.19-.19-.38.11-.26h.36l.17.11v-.11l-.44-.21-.79-.2-.62.32h-.45l-.46.18-.28.39h-.45l-.28.32v.25h-.49l-.74.4h-.5l-.18.38-.12.38-.11.06v.15h-.44l-.19-.17h-.26l-.28-.23.06-.3-.17-.12-.32.06-.38-.4H47l-.11-.17-.14.07h-.34l-.32.23L46-32l.16-.16h.05l.12-.12.33-.13h-.41l-.14.07v.16l-.31.16v.14l-.57.09-.22.3-.05.22h-.33l-.1-.17h-.28l-.14.07-.4-.12.28-.19h.19l.21-.25v-.27l-.12-.07L44-32l-.08.11-.4-.28-.12-.17-.15.09-.08.17-.24.18-.09-.26-.25-.07-.08-.18.15-.15.17-.36h-.31l-.32-.34.08-.19-.28-.29h-.1V-34l.18-.15v-.24l-.08-.03v-.21l.61-.31-.17-.06.23-.25.13.08.32-.12v-.43L43-36l.19-.19h.27l.19.21.11-.08h.12l.11-.15.09-.26-.27-.3-.15.12h-.37l-.18-.19-.17-.25h-.15l.13-.17v-.32l-.3-.2h-.46l-.23.11h-.25l-.12.11.26.36-.07.12.25.31v.09l-.24-.09-.26.06v-.14l.17-.18-.17-.3h-.08l-.25.34.14.2-.3.21-.18-.2h-.26l-.28-.22-.21.23.33.25v.3l-.2-.15h-.13l.06.39.21.12v.36l.18.18-.43.2-.18.45.18.14.26-.14.36.32.07.47-.13.08.08.31v.26l.21.14h.17v.23l.34.32-.28.11h-.26v.27l.27-.12v.37l.28.18-.25.19v.23l.21.13h.38l.49.51.65.27-.68-.13-.52-.47-.33.13-.25-.13h-.25l-.19.31.06.26v.45l.14.3-.33-.32v-.36l-.23-.2-.14.06v.23l.14.27-.15.17-.22-.32v-.36l-.34-.25-.2.1-.7.19-.06.31.14.27.34.06.07.3-.33-.11-.24-.21-.44-.23-.46.07-.27.24-.26-.11-.17.11h-.38l-.36.39-.57.31-.12-.08-.33.13v.38l-.31.24.1.37-.07.33-.13.27-.11.19-.24.18v.24l.36.32.32.09h-.36l-.17.14-.11.1.14.18h.18v.15h-.28l-.26-.27-.27-.13-.26.11.1.14h.25l.23.21h.08l.3.2-.28-.11h-.18l-.43-.14h-.27l-.33.26L33-25l-.56.19-.08-.19-.45.26-.11.31.07.37-.09.58-.45.44v.19l-.5.14h-.26l-.28-.09-.59.32-.14.27.11.19.27.09-.37.26-.45.09-.62-.08-.27-.14-.23.13-.09-.21-.21-.12.09-.25-.25-.12-.26.1h-.37l-.17-.07.11.36-.06.15.52.49-.09.15.07.24-.06.24.17.21v.27l-.55-.07-.24.08-.23-.06-.27.07-.11-.11-.34.28-.44-.58-.22-.08-.37.08-.3.27-.15-.08-.18.17-.15-.11h-.32l-.2.2h-.47l-.21.25.12.2.27-.09.27.08.07.11-.3-.06h-.18l.11.3.1-.23.19.07v.2l-.18.07-.28.11v.16h.27l.12.33v.19l.32-.21.23.06h.19l.5.2.11.18h.2l.34.23.25-.23h.15l-.06.18.08.11.26-.15.15.15-.12.31.14.23h.19l.3-.19h.32l.2.27-.25-.14h-.28l-.18.25.17.07.06.31-.14.26.06.2h.26l.39.49.38.06.37.21v.27L28-15l-.12.31h-.07l-.07.27.26.06.47.37.37.89-.4-.39-.11-.38L28-14l-.15.11-.15.78v.57l.25.17-.2.15-.08 1.07-.28.93-.5.3h-.23l-.15.23-.83-.49h-.28l-.28.28-.56-.1-.11-.25h-.57l-.76.32-.51-.12-1.11-.18-.4-.23-.1-.2-.5.14-.4.17-.37-.15h-.33l-.28.24-.33-.41-.39-.08-.24.17-.08-.11-.57.32v.21l.19.13-.24.18-.5.06-.2-.1-.59.21-.17.33.14.33.2-.07v.18l.13.06-.08.44h.12l.25-.24-.07.33.12.12-.16.2h.26l-.37.32v.41l.24.53-.11 1 .06.15-.12.44.23.26-.17.23-.19.4V-4a4.54 4.54 0 0 1 4.42-2.9 4.89 4.89 0 0 1 2.45.62l3-.22a4.52 4.52 0 0 1 4.58-3.1c1 0 2 0 3 .07l.22-.2.55-.58h.18l.18.13h.36l.38.23h.26l.24-.19h.23l.95.59.13.12h1l.17-.14-.06-.15L39-10l1-.74a4.09 4.09 0 0 1 1.41-2.86 38.07 38.07 0 0 1 13-6.52 5.21 5.21 0 0 1 2.52-.76l.91-.26c5.2-1.45 7.88 5.05 5 8.24a27.36 27.36 0 0 0 1 3.43c2.22-.23 4.44-.48 6.67-.68l.1-.09h.29l.2-.19.06-.59-.16-.46.17-.28v-.46l-.13-.23.2-.21.08-.33-.14-.24.21-.25v.15l.43.3.33-.07.22-.4v-.24l-.17-.13.17-.17.06-.27-.15-.19V-14.92l.13.2h.2l.59-.71-.09-.2h.17l.32-.42v-.39l.22-.18h.37l.31-.39.18.17v.08h.28l.13-.18.13-.21.11.18.19.14.24.08.47-.12-.33.2-.2.11-.28-.09-.42.05h-.35l.14.19h.57l.46.15-.06.12-.17.11.23.2h.22l.28.17.33-.17.38-.07.36.15.25.14.12-.22.14.07.07.39.18.21-.13.08-.46.08-.56.33-.32.49.27.12.21-.18.34.17h.18l.5.39v.23l-.19.57-.08.12.27.21h.57l.55-.25.72-.55h.5l.27-.38.37-.2.62.11h.53l.19-.23-.14-.28.15-.13.12-.2h-.42l-.5.06-.12.32-.3-.19h-.18l-.26.27-.18-.07-.76-.83-.12-.42-.24-.33-.13.08.15.4.55.66.52.5-.15.08-.36-.11-.13-.19-.07-.36-.17-.11-.19.18v-.25h-.14l-.14.09V-15l.15-.19-.11-.15-.18.09-.15-.16-.19-.23h-.5l-.2-.13v-.13l.34.06.19-.18.23.17h.33v-.19h.28l.47-.5.06-.18.17.11v.13l-.31.37-.12.07.07.14.19-.11.33-.47.07-.2-.18-.23-.09-.19h.14l.2.34h.2l.32-.2.42.09.26-.2h.44l.33-.36.17-.24h.34l.13-.27.2-.15h.39l.39-.17h.17v.17l.37-.13.32.06.34-.24.41-.06.09.17-.08.24-.82.44-.34.24.15.15h.2l-.2.23-.19-.01-.53.07.21.46.23.23.17-.14.08.17.32.09v.12h-.2l-.13.19h-.21l-.13.12v.12l-.33.33v.32l.15.11-.07.45h-.38l-.25-.19-.34-.08v.14l.12.23-.24.11-.21.18h.55l.43.36v.24l.34.36h.58l.61.37.41.11 1 .74.2.38.28.09.09.19.25.21h.25c3.9 0 7.79.18 11.61.47v-.33l-.09-.22v-.17H99v-.27l.16.07.08-.29.12-.26h-.18l-.16.15-.32-.23v-.52l-.29-.09-.2-.25-.19.06h-.26l-.15-.54.1-.28.17-.12v-.58l.12-.25.1-.33.17-.11.07-.35.14-.25v-.2l.16.06.15.12.12-.07.07-.18.13.13.15-.12h.21l.23-.13v-.13l-.23-.08h.15a.49.49 0 0 0 .14.06 2.09 2.09 0 0 0 .24-.06l.15.15.11-.1-.06-.18-.45-.26h.2l.29.08h.11l.25.06v-.19l-.15-.1h.17V-17l-.14-.12h.24v-.28h.13l.08.16h.22l.1-.16h.14l.11.12.12-.12.05-.18h.15l.27-.22.13-.2h.17l.18-.25h.15l.11.1.09-.05.07-.23.22-.22h.41l.15.1h.2l.12-.1.07.08v.24l.15.18.1-.1h.19v.13l.22.09.15-.09v-.15l.17-.09v-.11l.21-.06h.74v.14l.12.21h.21v.09l-.13.2.07.18.24.24v.23l-.18.32.05.15.1.14.1.1-.12.15-.2.09-.05.35.2.41.3.07.23.08-.05.14-.33.16h-.25l-.25-.28H106l-.14.09-.14-.12h-.26l-.31.09-.24-.12-.28.1-.34.1-.19.2v.39l-.15.1v.16l.31.36v.23l.09.06h.31l.08.16-.08.08-.26-.1-.14.07-.17.14-.13-.07h-.18l-.13-.07h-.46l-.16-.05-.13.16v.14l.19.24h.25l.27.1.11.24.17.11.11.33h.13l.08.19.44.51v.7h.14l.29-.07.11-.06.14.08.14.26.13.12.13.27.14.05.23-.1.28.07.25.11h.34l.11.07-.05.11v.25c7.48 1.21 14.52 3.91 18.28 11.19 3.41 6.6 4 13.35 3 20.11l.1.18h.25l.21.15h.25l.36-.34h.52l.25.07.24-.15h.25v-.12l.12.09.45.06.38-.14h.46l.33.26.14.35-.05.26.05.05h-.08v.11h.26l.46-.21v.32l.35.4.09.56.06.06v.21l-.12.08h.22l.11.33h.73l.56.27v.19l.69-.44.44-.07-.34.19-.31.4v.32l.2.09.49.51 1 .36.3-.1h.27l.65-.28V25.4l.09.05h.32l-.12.3h-.09l-.3.46h-.19l-.65.51v.12l-.17-.11h-.1l-.17.15-.27.12v-.35l-.19.06-.06-.09h-.19l-.06.17.06.21.69.69.21.11h.15v.11l.5.65 1.21 1 .57.12.38-.13.81-.5.53-.27v-.18l.24-.25.05-.56-.23-.29.22-.6v-.51l.12.25h.38l.19.09.28-.17-.12.2-.26.26h-.21l-.08.06-.05.31.15.26v.3h.19l.37-.05.27.06h-.25l-.12.18-.34.21.14.74.18.12.15.45v.45l-.17.36v.27l.25.14-.29.14.07.53.47.85v.29l.17.22h-.21v.33l.46.59h-.34l.3.45v.43l.67 1.29v.88l.25.68.26.17.12.46.2.12v.2l.37.66h.11v.18l.4.46h.09v.57l.17.25.17.34.08.49.27.71.18.27v.65l.14.13.19.4.43.45h.31l.27.44.46.53.14.53.15.44h.13v.3l.36.65.17.59v.65l.56 1.16.46.54.47.33h.51l.62-.38.14-.41-.07-.12.07-.07v-.17l.18-.29.54-.24h.11l.67-.23.24.09.07.14v.05l-.06-.09-.51-.26v-.2l.14-.18.4-.53-.08-.13.18-.31.41-.07.16.08.3-.11v-.36l-.12-1.31-.15-.24v-.61l.4-.72.36-1-.06-.77-.39-.13V40l.25-.29-.26-.77v-.56l.15-.28.52-.52h.11l.17.24h.24l.43-.54V37l.31-.26.7.11.37-.24.26-.38-.06-.37v-.33l.44-.37.59-.2.32-.32.21-.4 1.4-1.13.27-.75 1.07-.95-.14-.07-.08.11-.25.1.07-.41h.16l.27-.21h.12l.06.08v.16l.09.12.85-.44v-.2l.57-.41-.07-.19h.17l.08-.28.35-.31h-.1v-.1l-.17-.33-.05-.19.15-.31.07-.24.17-.14 1-.36.23-.26v-.22l.09-.22.09-.09-.12-.15h-.18v-.09h.27l.24.21-.07.24.08.39.26.09v-.05h.25l.06-.11v.08-.31l.06.18.11.36.17.09v-.17l.24.26.17-.28.01-.54.22-.08.12.3.07.15h.18l.07-.23.14-.06.21.14.15-.09v-.28l-.17-.37h.09v-.33l.12-.2-.07-.15.11.14v.1l-.16.53.21.3.2-.32.22-.11-.07.14-.13.05-.15.27.24.17.25-.47.3-.12v-.42l-.21-.34-.2-.08.32-.12v-.17l-.21-.32-.06-.55.13.46.28.26h.18l.06.11.56.26.3-.18h.11v-.09h.13l.49 1.08.2.14V27l-.07.36.11.07-.08.46.06.09.19-.18v-.13.33l-.08.19.13.17.29.41.23.56-.07-.39.15.33.13.41.69.62-.15-.27v-.14l.25.2h.3l-.24.27v.13h.29v-.2l.07.2h.27l.13.2.49.1.31.45v.26l-.19.07-.18-.18-.24.14.23.21h.09l-.09.11-.24-.12-.11-.24h-.28v.17l.3.26v.18l.27.33.58.17-.07-.55-.13-.26.38.24v.27l.12.25.18.24.12.45.22.18-.09.06.09.17.15.07v.62l.28.69.14.14-.35.22.19 1.44.09.33v.26l.24-.38.33-.29.19-.46v.51l-.42.39v.43h.18v-.21l.43-.23.18.23h.15v-.15.08h.17v-.07h.31l.63-.43.08-.27.15.11h.29l.34-.2-.25-.07v-.11L180 36h.11l.18.22h.26L181 36l-.06-.19.14-.15v-.32l-.18-.13v-.18l.06-.11-.18-.2.29.17V35h.15l.06.17.31.6.13.17.08.38h.27l.21-.08.11-.19v.18l-.08.14.19.37V37h-.12l.06.3.19.13.13 1.16h.11v.55l.39.23-.12.12v.32l.23.27v.69l.14.28v.27l.09-.07.06-.5.23.38.07.33.21.19.11 1 .15.12.09.28-.11.15v.4l.15.23.23.25-.21.17.14.43-.08.19h-.1l-.05.41.09.09v.25l-.19.31-.12.1h-.12v.15l.11.19v.45l.15.49v-.46l.14-.32-.07.57h.18l-.2.3.07.13-.22.32h.18l-.12.24h-.17v.6l-.2.1v.45l-.07.14.08.53.14.21h.2v-.3l.3-.14v.15l.35.17v.24h.29l.18.57h.23l.36.47v.21h.31l.11.26h.17v.17l-.13.15v.13l.67.48.45.74.17 1.29.18.43.19.39-.06.51-.1.08v.34l.24.23-.08.14.19.27.43.25.27.43.29.17.19.29-.24.22v.21l.2.18.56.22.48.38v.29l.38.4h.22l.22-.05.17.14.24.26.47.25.51.1.2.24.31.15.1-.11.11.16.31-.2v-.07h-.15.1v-.17l-.09-.12.17.13v.18l.06.12h.24v-.25l-.33-.65h-.09v-.15l-.07-.12-.11-.09-.06-.47v-.12l-.07-.14h-.25l-.36-.33-.2-.41v-.78l-.12-.21v-.27l.08-.14v-.77l.13-.17-.15-.64-.34-.55-1.18-1.14-.24-.43h-.13l-.14.15h-.23v-.15l-.29-.18-.17-.22-.2-.45-.29-.11h-.32l-.13.09-.19-.14-.45-.44-.21-.17v-.28l-.09-.07-.05.23-.46-.17v-.22l.25-.17.08.11.05-.11.06-.09-.12-.64-.15-.08v-.26l-.18-.26-.08-.24V49.75h-.17l-.16-.35-.17-.06V49l-.14-.19v-.32l-.14-.13h-.24l-.08-.05-.15.17v.13h-.17l-.1-.12.15-.3-.31-.45v-.21l-.08-.33v-.14l.15-.19v-.08h-.16l.15-.31v-.33l.37-.48.08-1.19.22-.33v-.32l.23-.28v-.44l-.12-.09.06-.19v-.34l.17-.27v-.28l-.26-.13.07-.21v-.07h.27l.1-.12.11.09h.19l.24-.11.11.08H187.69l.27.05.08.21-.09.09v.41l.14.25-.1.11-.08.25h.24l.22.08.31-.08.34.08-.02.08v-.13l.18-.15.22.08.41.4.2.1v.14h.12l.33.27v.08h.06v-.22h.14l.21.25v.3l.21.18v.3l.22.31h.12l.12.23v.25l.11.18v.24h.43v-.27l.19-.16.13-.09v.19l.11.24v.2l-.2.22.1.15v.12h.17l.25-.24v-.09l.17.13.31.1.09-.06.36.27v.34l.3.08.15-.06.15.09.24-.08h.33l.22-.1-.14.16-.44.34-.23.38v.5l-.06.21h.09v.48l.22.12.16-.07-.15.18-.28.12-.24.15.37.05.69-.31v-.07h.08l.2-.18v-.33l.07-.17h.21l.13-.09.3-.27h.16l.08-.12.12-.09-.07-.09v-.08l-.08-.23h.18l.12.18h.14l.13-.17v-.15l-.29-.31.34.25.23-.12-.12-.25.09-.14-.43-.2h.26l.08-.06v-.11l-.18-.14.27.07v-.08l.07-.18v.39l.06.06.29-.08.18.09h.41l.68-.4.18-.21h.28v-.27l.31-.22.23-.12.35-.36.17-.07v-.38l.17-.06.21-.2-.1-.13.12-.28-.22-.33.25-.19v-.18l.16-.12v-.14l-.15-.15v-.24l.13-.08.1.12v.12h.07v-.24l-.18-.36-.07-.22-.14-.06v-.15l-.11-.4.07-.11-.1-.27.05-.18v-.28l-.1-.1-.12-.5-.12-.09-.07-.57-.27-.33.07-.13-.08-.13v-.17l-.36-.37v-.08h-.09v-.25l-.23-.4-.7-.52-.17-.3-.76-.56-.84-.46v-.11l-.34-.2-.62-.5-.06-.19.13-.31.06-.11v-.18l-.2-.36h-.15l-.42-.4-.46-.27-.27-.08.26-.07v-.17l-.33-.28.18-.26.15-.52-.12-.15h-.12v-.35l.13-.11.09-.27.14-.11v-.13l.08.11h.2l.23-.37h.12l.08-.14-.09-.18v-.55l-.08-.09.12-.17v-.22h.11l.1.15h.11l.15-.14.24-.05.15.09.06-.11.15-.11-.07-.22.08-.14.28-.05h.27l.27-.17h.13l.17-.07.11-.18-.06-.12h.1l.12-.07.19.08.25-.11v-.17l.07-.31.15.28.29.3.15-.05.38.32.17-.05h.21l.16-.27.22.21.22-.07.17.07v.11h-.23l-.05.27-.22.28v.18l.38.52.22.14v.49l.07-.06.12-.21.34.06v.09h.18l.27-.34-.08-.14h-.12v-.09l-.17-.31h-.18l-.12-.29.07-.12.22-.18.05-.21v-.17h.08l.11-.11v.08l.07.12h.08-.05v.07h.14l-.07.08h.29l.17-.17h.3l.12-.23.25.09.28-.1.34-.18-.12-.21h.27l.3-.09.31.11.18-.05.34-.17.3-.3.2-.27v-.12l.08.08.13.11.15-.11.14-.24.25-.13-.05-.38-.07-.28v-.22l-.07-.17.2.16.39.19v.2l.32.31.21-.05-.15.23-.2.09v.13l.56-.27v-.31l.28-.09.14-.13.25.14.25-.06v-.21l.25-.06.07-.15.12.19.24.26.15-.13v-.27h.17v.1h.26v-.15h.36l.19-.19.14-.13v.18l.11-.14h.17l.26-.12-.12-.2.13-.19.11-.33-.14-.32h.15l.11-.17.39-.06v.14h.3l.07-.37h.46v-.25h.14v.13l.09-.06.19-.29.18.21v-.32h.18l.12-.25-.27-.06-.22.08-.39-.3h.52l.24-.33.12.12.17-.15.43.26.12-.33-.26-.08-.11-.15v-.2l.32.22.18-.21v-.08h-.21v-.28l-.17-.13.22-.06.12.15h.15l.11.15v-.26l-.27-.2v-.25h.3l.11-.19.24.21v.21h.17l.17.26v-.38l-.12-.23h-.15l-.06-.18.21-.06v-.21l-.26-.08.36-.3-.18-.18h-.24l-.12.12.05-.24.33-.23.52-.23-.17-.18-.19.18-.38-.33h.33l-.21-.29h-.25l.17-.14-.13-.17h.2l.06-.26h.26v.31h.2l.39-.41v-.19h.36l-.21-.26h-.24l.07-.27.21.23.26-.13v-.27l.11-.12-.13-.18v-.21l.18-.12-.12-.19v-.17l-.3-.17.43.14.18-.14.24-.56h.25l.05.25.08.11.06-.31.22-.14-.17-.29h-.3l-.14-.13.13-.11h.21l.18-.17-.14-.15-.2-.1.21-.2h.11v-.13l-.17-.16h-.51v-.14l.33-.28.3.08.09-.07v-.16l.19.1v.11l.2-.15-.09-.19v-.46l-.17-.11-.07.27.06.08v.14l-.33-.07-.4.34h-.21v-.29l.43-.08.7-.65v-.09h-.31l-.13-.17-.08.14-.51-.65-.37-.06-.49.42-.25-.08-.32-.46-.32.07-.32.26-.09.27v-.37l.36-.3h.2l.21-.15.38.19.27-.13v-.27l.15-.14h.19l.37-.43h.43v-.31l-.38-.62-.81-.5-.52-.3-.63-.62H214l-.51.36-.25-.06-.4-.37v-.17l-.17-.07-.37.14h-.4l-.34.12-.44.53.37-.71.28-.14.19.06h.2l.08-.09.24.09.42-.17.19.47.2.17h.31l.2-.27.5.07.34.24h.24l.31.32.45-.26.64.24.18-.11-.23-.45L216 7l-.37-.45v-.13l-.17-.13h-.32l-.31-.13-.42-.59v-.44l-.58-.43v-.46l-.31-.11.15-.37h-.11l-.47-1-.87-.44-.23.13v-.22l-.81-.38h-.12v-.77l.13-.53-.13-.36.08-.45.11.07.23-.07.28-.46.15.09.29-.37-.3-.18-.14-.19.24-.23h.47v-.33l.39-.07v-.25l-.36-.23h.36l.26.2.07-.19h.28l.28-.24h.2l.33-.44.12.19.14-.18v.17l.38.26.39-.33v-.14h-.25v-.33l.2-.11h.17l-.26-.38v-.18l.34-.11-.2-.09-.37.07h-.44v-.13h-.34l-.13.14h-1l-.2-.18-.19-.08-.18-.27-.18-.07-.03-.1-.71.33h-.38l.13.11v.28l-.21.18-.43.17h.07l.14.19-.17.3-.14.13-.31-.12-.3.18h-.42l-.43-.83v-.43l-.07-.3h-.41l-.17.09v-.15h-.18l-.13.19-.13-.13v.14l-.24-.4-.06-.19-.52-.36-.33-.19v-.34l-.17-.37.14-.13v-.64l.19-.14v-.18l.59.21h.91l.15-.33-.09-.15h.23l-.06-.38-.09-.08.12-.18.17-.79.56-.31h.33l.25-.43h.17v-.62l.32-.36.06-.36.13-.07.2-.34h.36l.14.09h.27l.11-.31.49.58.7.41v.26l-.19.11-.07.21-.33.43v.39h-.3v.12l-.07.4.34.34v.21l-.13.06v.19l.14.17.34-.12.37-.28-.14.28-.3.2v.15h.18v.18l-.13.09h-.35l-.16.22h-.26l-.13.24.25.17v.25h.2l.19-.24h.19l.25-.38.44-.19v-.12l-.13-.31.39-.3.69-.52h.2l.06-.32h.36l.42-.3.17.14.18-.06h.34l.45-.52.15.39h.07L217-9l.22-.15v-.24l.34.19.14.2.51-.07.17-.21h.2l-.08.27-.21.14.2.3-.38.62v.75l.11.13h.58l.31-.15-.33.31h-.4l-.21.44v.65l-.08.28h.14l.27-.15.33.12-.28.45.13.21.32-.26.19.13.28-.37-.08-.17.18-.12.39.43.26-.19h.47l-.23.12.62.52.4.58h.21l-.11.17.23.32.13.27-.52-.18-.11-.15-.11.27-.2.01-.32.45.69.32.18-.06.15.34v.65l.18.12.12-.11.27.53-.51.34v.18l.21.17v.27l-.19.11v.3l.17.3h-.2l.38.74h.22l.07.36.12.1v.27l.23-.17v-.4l.14.19.23-.32.7-.6.28-.06v.17l.21-.26h.17l.15.31.3-.12.12.14.15-.11-.12-.23.38-.24h.52l.43-.55-.09-.17.21-.17-.08-1.2h-.11l-.11.12v-.37L226-3.22l-.24-.25v-.7l-.92-1.16-.84-.88-.76-1.4-1.24-.66-.17-.26-.57-.11-.09-.42.15-.17-.12-.36V-10l.42-.26.13-.34.31-.2h.32l.07-.17.23-.2-.09-.24.78-.82-.08-.12.4-.34.13-.37-.25-.19V-14l-.32-.25v-.45l.21-.78v-.38h.19l.51-.57h.14l.11-.46.4-.07.13.14.13-.52.2-.14v-.57l.29-.23v-.28l.1-.17.33.21.38-.17.18.15v.56l.49.13.49.31.18-.18.19.2.36-.37.44-.07.06-.21h.24l.24-.4.52-.64-.09-.17.37-.17v-.37l-.12-.33.24.07v.08l.37-.52-.15-.3h.17v-.49l.29-.15v-.32l.43-.28.06-.15-.13-.12.06-.37.18-.11.3-1.34.32-.42v-.28l.32-.28.07-.37.38-.46v-.32h-.15l-.11-.42.33-.33-.17-.7.27-.33v-.24h-.13l.22-.51v-.4l.3-.28v-.46h-.08l-.06-.52.2-.5v-.45l.45-.47v-.41l-.15-.3v-.47l.11-.12v-.37h-.24l-.11-.76v-.2l-.01-.38v-.59l-.4-.41h-.1l-.15-.27.13-.14.24-.4v-.14l-.28.2h-.25l-.32-1v-.49l-.06-.58.11-.21-.25-.75.19-.23-.17-.11.07-.15v-.21l-.13-.11.11-.22-.07.11-.44.23-.19.2h-.14l.11-.26.15-.1h.15L232-41h.16v-.06l-.13-.27v-.23l.19-.15-.26-.24v-.38l.14-.18-.06-.27-.2.18-.26-.07-.32-.27v-.34l.18-.21v-.28l-.44-.53h-.23l-.31-.34.21-.13v-.26l.17-.26-.26-.5h-.18l-.2-.25h-.25l-.09-.21-.68-.25-.16-.21-.43-.06-.19-.13-.18-.38-.23-.21h-.36l-.35-.29-.36.28h-.3l-.13.2h-.18l-.12-.14v-.14l-.3-.17h-.31l.15.53.27.29-.13.27.17.53-.12.43-.2.13v-.39l.06-.39-.19-.43-.12.23.06.31-.13.47-.37.23-.7.11-.09-.14.25-.24h.18v-.45l.14-.24.13-.13h-.34l-.18.17-.12-.18-.21.08-.14.31-.19.13h-.08l-.21.26-.4-.34.06-.4-.13-.49-.36-.47v-.81l-.34.09h-.14l-.26.18-.24.08-.39.28h-.31l-.26-.24-.3.11-.29-.2-.17-.29.16-.28.09-.33.3-.48v-.24l.44-.4v-.52l.47-.39v-.4l.15-.06v-.17l.3-.46.06-.36.23-.34-.13-.36.11-.19v-.57l.18-.76h.12l.08-.58.25-.13-.07-.34.43-.52v-.4l.31-.23-.18-.53.15-.12V-58l.2-.12h.14v-.34l-.14-.24v-.62l-.09-.39.23-.5.46-.52.11-.6-.4-.63.06-.36.3-.27.08-.33.57-.43.08-.31h.2l.21.23.33-.06.55-.44h.46l.46-.28h.32l.32-.23h.54l.14-.24.27.18-.13.34.23.08.29.27.15-.31.25-.21-.45-.34v-.15l.36-.19.61.08.26-.15h.64l.11.23h.15l.18-.19h.24l-.08-.26.19-.14h.51l.21.26.61-.24v-.24l-.19-.11-.13.11-.38-.2.24-.37.07.23.45-.18-.42-.26v-.2h.2l.42-.5h.45l.24.18.25-.13.56.14h.43v.15l.2.14.2-.06-.13-.23h.46l.45.08h.29l.3.22v.14l.39.07.27-.26h.25l.07.19-.54.4h-.49l-.12.17v.32h-.26l-.08.15.13.08h.3l.41.57.13-.15.46-.03.2-.26-.07-.12.32-.15-.24-.33h.19l.39.4h.23l.14-.2-.14-.14.21-.15.15-.21h.09v-.27l-.05-.21.21-.08.18.14.22-.13.16.15v.24l.21.11.41-.4-.2-.17v-.1L241-67l.22.09.19-.13h.21l.06-.15-.27-.3.06-.11v-.17l-.32-.13-.18-.12v.19h-.18l-.28-.15h-.08v.16h-.3l-.12.11-.25-.14.08-.27.15-.08-.42-.57.25-.19-.29-.4.15-.54v-.35l.23-.28v-.48l.3-.32v-.35l-.09-.05.32-.12-.39-.44.16-1.1.25-.22-.32-.44-.06-.41-.21-.15v-.15l.28-.21v-.43l.19-.11.34-.56.37.05.18-.14.22.08.17-.24h.57v-.15l.24-.07.07-.3h.14l.11-.11h.37l.06.3.14-.1h.12l.18.38h.12l.26-.33v-.39l.21-.06.06-.38h.14l.09.26.33.23v.38l-.09.14.14.16.1.28-.21.23.14.09.09.33h-.09v.24l.09.19-.14.2-.09.12.1.15.27-.25.11.22.31.08.05.56.16-.12v-.24l.28-.25h.21l.14.17-.26.46.28.25.1.35.19-.47.22-.14v-.19l.12-.19v-.79l.21-.22-.22-.2.26-.25V-76l-.11-.08v-.11l.11-.08.08-.47-.19-.19.17-.47.24-.18.43-.1.11.25.24.19.12-.19-.2-.22.06-.33-.46-.22-.16-.64-.21-.12v-.17l-.3-.23-.1-.46.12-.13-.07-.33-.35-.28v-.26l-.14-.16.41-.39h.33l.28-.33h.4l.12-.11.46.37h.43l.17.08h.51l-.4.23.2.15-.32.11-.36-.08-.42.44v.24l.17.39v.33l.2.18v.24l.35.4v.17l-.08.13.33.14.08.37v.18l-.13.16.07.74h.11l.11-.21h.11l.18.32.12.19-.18.47v.6l.24.18.2-.13h.29l.08.12-.06.2h-.18l-.3.23h-.1l-.39.37v.3l-.36.22-.07.15-.24.09v.3l-.17.24.12.39.22-.08v.43l-.27.49.06.2.17.1-.11.67.1.5-.15.22-.36.14v.31l.14.12-.08.6-.1.14.07.25.29.29h-.24l-.1.53.11.18v.39l-.26.28.19.33v.72l.2.58-.49.94.26.37-.3-.08-.53.07v.6l.08.25-.34.38-.62-.3-.31.28v.23h.4l.59.82v.77l-.13.19.18.21-.25.09-.08.54-.35.42.01.64.26.55.14 1.09.43.69v.55l.69 1.57.83 1.66.87 1.37.4.45v.47l1.11 1.3 1.27 2.22.56.28h.41l.25-.12-.12.26-.26.14h-.23l.4.64.61 1.34.07.56.33.49.62.07.09.21v.32l.08.24-.06.33.25-.68.17-.69.1-.06v-.32l.38-.33.07-.28-.07-.14.13-.26.11-.68-.18-.28v-.46l.26-.24-.29-.3-.18.09h-.2l.11-.24-.21-.45.18.06.12-.15-.31-.31.07-.2.08-.34h-.33l-.19-.17.17-.31.31.25.46-.43h.24l.26-.25.3-.19.11.11h.36l-.23-.31-.45-.23v-.39l-.43-.24-.3-.9.19-.79-.26-.27.2-.19.06-.42.29-.61-.13-.15.24.06.51-.32.07.17.93-.36v-.4l.21-.25-.36-.2-.53-.75h-.24l-.81-1.2v-.26l-.23-.23v-1.1l.07-.14-.13-.5.22-.36v-.32l-.37.08-.08-.19.3-.44.31-.06V-61l-.11-.12.2-.19.08.3v.39l-.14.32v.45l.47.18.4.3.21-.08v-.43l.14-.2-.25-.5-.7-.62v-.8l-.33-.17-.08-.08-.1.13-.25.19v.17l-.17.12-.33-.24v-.56l-.22-.34-.29-.58.23-.27.11-.09.05-.28.19-.29-.2-.24.08-.18v-.28l-.22-.11-.26.05-.53-.4h-.33l-.23.18v.22l.39.44v.28l-.13.11-.38-.18-.42-.56-.28-.29-.24-.17.12-.15-.25-.56v-.51l-.16-.32.11-.22-.16-.47.19-.25v-.28l.09-.36v-.33l-.17.1-.31-.34v-.12l.22-.08.28.19v-.13l-.23-.19-.25-.22.1-.21h.12l-.06-.2-.24-.25-.33-.1-.08-.21.15-.06-.08-.37-.28-.32v-.27l.1-.27.16-.12-.21-.3v-.2h.22l.32.18.18-.06.13-.45h.24l.15.23h.17l.24.34.33-.7-.34-.13.06-.31.25-.15.38-.66v-.36l.24.31.28.15v.34l.38 1 .2.25.15-.13.11-.83.11-.27-.07-.36.18-.26-.24-.43.31.17.21-.2.15-.58h.31l.33-.43.33-.09.17.13.52-.33.44.08.83.49.06.27h.24l.27-.06.15.08-.14.11.45.51.17-.15.27.27.37-.06.25.08v-.26l-.46-.61.12-.19-.09-.19-.2-.07v-.28l.18-.27.12-.73.21-.55-.08-.25.33-.47-.12-.21.19-.15-.23-.51-.21-.12v-.17h.44l.15-.34-.46-.21-.17-.25.2-.07.17.17h.21l.07-.25-.15-.23.32-.25v-.25l-.19-.23.24-.12.19.09.12-.27.08-.17-.17-.15.26-.07.36-.37-.14-.22.06-.32.18.19.32-.31-.2-.45v-.45h.26v.08l.18-.18.47-.6-.2-.07v-.29h.29l.53-.49-.23-.14.12-.13h.39l.5-.31-.14-.24.08-.13.18.11.06.27.29.1.23-.14.34.21H268l.2.18.15-.06-.17-.4-.31-.19v-.15l.21-.07v-.94l-.41-.64-.34-.08-.4-.57.23-.24-.41-.37-.71-.17-.7-.46-.26-.46-.08.3-.23-.09-.12.09-.06.36-.32.11-.12-.2v-.34l.32-.23-.24-.32.07-.11h.2l.24.21-.63-1-.45-.34V-91.65h-.21l-.57-.56v-.3h.31l-.14-.26-.82-.66h-.14l.08.23-.13.26-.44.06-.38-.37-.39-.11-.39-.6v-.2l-.2-.17-.26.07-.49.44v.18l-.27-.07-.21.13v.65l.18.18-.3-.15-.19-.55.12-.45-.47-.25-.15-.41h-.14.28l.3.34v-.32h.36l.27.18.41-.28-.15-.28-.83-.35-.2.32h-.5l-.34-.16h.34l.28-.38.27-.07.26.17.4.05.37.26.45.47h.33l.17.3.24.06.33-.24.18.21.72-.55.08.12-.08.3.27-.2v-.38l.38-.58-.09-.21v-.43l-.16-.61.26-1v-.67l-.3-.35-.12-.39-.45-.34-.2-.47h.15l.28.38h.06l-.11-.44-.4-.2-.36.15-.63-.17-.87-1-.21-.11v-.2h.46l.12-.34-.21-.25h-.37l-.14-.12.2-.15-.18-.41h.07l.35.43.49.28.08-.22-.2-.22v-.26l-.11-.24.16-.15.17.2.11.21.29.11.11.76v.25l.77.59.28-.17.34.13v.56h.29l.57-.81.11-.37-.14-.35.06-.63-.09-.3.17.31v.4h.18l.27-.27.53-.14.07-.33.53.18-.08.11.09.12.76.56.11.08.13.4v.18l.17.09.66-.16.12.08v.15h.2l.25-.3-.15-.25.06-.09h.19l-.07-.41h.24l.12.21-.08.22h.31l.27-.15.73.06.2.13h.25l.08.13h.15l.24-.23-.17-.58.11.07.34.51.44-.2v-.21zM71.8-67.18l.19-.12.07.12v.18l.38.24-.06.21v.09l-.3.2v-.2l-.18-.37-.12-.17zm-28 20.48l-.14-.2-.35-.19-.17-.4-.21-.18-.13-.27.27.15.22.3.08.17.11-.05h.22l.05.14v.16l.15.12v.45zm4.2 4.76l-.14.31-.52.1-.25.23-.1-.11v-.25l-.33.34-.49.25v-.1h-.4a3 3 0 0 1 .29-.45l.11-.2-.06-.18.15-.28v-.19l.27-.29h.17v.23l.29.12v-.24l-.12-.24-.14-.57-.14-.46.17.12H47l.27.17.11-.12.32.12.34.31v.47l.07.06-.11.19zm.22-10.28v-.15l-.08-.26-.15.16s-.11-.05-.11 0l-.06-.15v-.39l-.25-.2-.26-.1-.07-.18h.17l.05-.16.18.1h.35l.23.14.17.2h-.29l-.09.14v.26l.31.07v.69zm1.22 10.89h-.23l-.16.48-.19.75-.27.15-.19.12.17-.45.09-.12-.14-.24.16-.23.1-.77-.11-.15.49-.26.21-.26.1.19-.06.28.14.32zm.22-14.34s-.11-.07-.12-.07l-.07-.26-.24-.35.4.18.08.32zm1.16-3.09l-.11-.11-.46-.19-.17-.34h-.18l-.26-.21h.19l.31.2v.1h.33l.34.26.11.26zm1.71-1.38h-.23l-.06.08-.13.06v-.14l-.11-.25-.21-.12v-.08l-.15.07-.1-.2v-.13l-.23-.22-.35-.09h.31l.26.05.15-.15-.15-.17-.27-.06-.07-.23-.37-.28h-.52l-.49-.1h1.12l.36.19.37.38.22.12h.28l.09.14-.07.09-.32-.12-.13.07v.23l.05.28.24.17H52.45v.14l.08.2zm1.25-4.12h-.28l-.35-.29-.25-.19-.5-.19L52-65l-.61-.34-.39-.17-.27-.11h-.19l-.08-.23.11-.07.36.25.48.11.66.38h.26l.6.28.38.28.47.23zM54-67v-.11l-.1-.15h-.2l-.55-.28-.44-.18-.31-.07-.25-.28-.06-.11.29.09.39.24.46.1.48.24.36.35.08.24zm6 16v-.26l.28.12h.21l.12-.11.31.14v.14l.31.13h.23l-.05-.23.16-.28.19.23-.09.15.07.22v.2l-.29-.19-.15.07h-.18v.14l-.18.22v.15l-.12.11a.82.82 0 0 1 0-.12l-.1-.51-.13-.17h-.33zm1.72 1.46l-.16.16-.24.1-.1.19v.14l.25-.24h.24l-.2.17v.13l-.23.14-.2-.06-.29-.36-.22-.06-.11.17v.37l-.22-.05a1.33 1.33 0 0 1-.1-.28v-.19a.76.76 0 0 1 .17-.12v-.24l.14-.37.21-.1-.08.24v.18l.1.22.3-.05.29-.11v-.23l.23-.07.2-.18v.22l-.18.14zm-18.59 31.8l-.24-.07-.27-.25-.23-.11-.15-.21h.14l.15.13.5.16.17.23zm24.46-22.52l-.23-.1-.29-.1v-.16l-.32-.58-.21-.41-.23-.09h-.12v-.21l-.19-.38-.17-.52.11-.18.43-.14.4-.11v-.24l-.08-.21.13-.15.28-.12v-.14l.11.11-.06.27-.24.21-.14.3-.05.32.09.13.13.49-.11.22-.17.33.1.27.28.25h.21l.25.16.15.5.19.28zm1.59-25.85h.62l.54-.24.08-.16-.07-.09.14-.25-.13-.1v-.15l.18-.1-.16-.15.32-.08V-67.73l.11.19-.06.26.07.43-.15.24v.13l.1.07v.24l-.12.07h-.29l-.09.1v.19l-.2.13-.15-.12-.16.05-.1.1h-.21l-.21-.35H69zm-4.62 8.57v.21l.33.31.13-.23h.14l.11.15-.07.19.25.3.58.18-.3.06-.3-.14h-.22l-.16-.1-.19.07-.16.23h-.19l-.15-.18h-.12l-.12-.28-.24-.12.06-.14-.1-.37.39-.14zm-.75 3.33l-.09-.2.22.06.18.17v.26l.12.34.1.21-.14-.09-.08.15-.17-.08-.35-.55v-.23l.1.15.3.02v-.1zM62.64-70H63v-.39l.2-.32.23-.07.19-.18-.31-.04.09-.1h.25l.1-.15v.15h.21l.05.27v.09l-.08.15-.18.05-.27.3v.14l.31.14.28.06-.24.19-.19.07h-.26v.2l-.06.16-.14-.1-.16.08-.02-.1v-.2l-.15-.22h-.1l-.05.13h-.29zm-.44 15.55l-.07-.14-.13-.21.27.21.14.19h.2l.15-.07.27.15v.42l-.41-.44h-.29zm.29.44l.17.07.13.2.34.1.22.26.23.15.28.25.14.05.16-.1.24.12h.3l-.13.2-.16.15h-.18l.32.2.06.24-.16.06-.09-.14-.19.07-.35-.18.14-.19-.1-.26-.36.05-.1-.06-.11.18.1.18v.15h-.19l-.15.16v-.39l-.08-.4-.03-.11.11-.1-.11-.32-.27-.1-.15-.24zm1.11 5.33h-.26l-.12.17.25.28v.12l-.47-.28V-48.85h-.18v-.33l-.15-.19v-.32l.1-.18-.26-.28.28-.18-.1-.18.15-.18v-.14l.15-.14v-.26l.16-.23.07-.23.06.21.19.15v.17h-.27v.2l-.16.23v.24h.1l.17-.11v.25l-.09.17.07.28.08.17-.09.09-.2-.18-.08.32.12.26v.14l.2.14v.11l.21-.06.21.07v.12zm.67-1.2l-.34-.26h-.15v.21l.18.11-.1.18-.21-.16-.07-.2v-.31l.24.1.13-.14.37.4zm.07-.42l-.21-.27h.19l.06-.23.28.2v.51zm.51 1.66a2.21 2.21 0 0 1-.28 0l.07-.37.17-.17.09.27zm3.69-2.64l-.24-.16h-.14l-.15.17h-.69l-.21.07.21.34.14.43.15.16.16.24h.1l.19-.1.14.14-.2.2-.16.18-.23-.2h-.36v.15h-.29l-.12.26h.35v.2l.27.08.18.17h-.19v.18l-.14.11-.13.15h-.44l-.18.06v.13h-.32l.17-.2h.15l.12-.19h.19v-.15l.23-.08h-.26l-.1-.06-.19.06h-.16l-.34.14-.18-.09-.23-.11.23.14v-.21l-.09-.12.28-.08.15.06v-.25h-.26l-.42-.24.25.06.18-.1v-.35l.1-.19.19.43.07.24.15.06v-.34l.25-.31.27-.06.14-.23-.08-.28-.49-.33h-.34l-.33-.17v-.79l-.24-.28v-.36l-.45-.58-.36-.35v-.31l-.12-.23v-.35l-.14-.36.17.08.12.24.2.29.06.29-.1.28.28.31.24-.25.21.07v.1h.3v-.17l-.27-.24-.17-.33-.11-.4.35.54h.24l.16.29-.11.14v.26l-.12.25-.23-.17-.09.16.09.34h.32l.16.17.25.21h.3v-.25l-.2-.25-.1-.08h.21v-.31H67l.11.28-.1.2.23.4v.11l-.41.06h-.38l-.1.25h-.12l-.07-.48-.23-.08v.26l.26.26v.45l.21.17h.24l.23-.26-.09-.17.44-.06v.11l.16.17-.27.2.25.12h.6l.09-.21-.11-.2v-.38l-.06-.14v-.24l.34.32.15.07-.06-.36v-.16l.23.36.13.14v.4l-.26.16.09.16.21.16zm.23-2l-.23-.21h-.11l-.31-.36h-.32l-.34-.15-.17-.32-.2-.23v-.15l.07-.18.2.1.4.31.22.08.29-.06.19.07.1.4v.24l.07.16.24.27.15.21zm0-8.26l-.5-.27-.14-.19V-62.21l.07-.17.18-.05.21-.1.1.17v.16l.14.14.07.34.31.39.27.11h.24l.21-.13H70v.16l.13.15h.16l.16.24-.12.17.48.22.13.2h.16-.4l-.17-.06h-.18v-.1l-.2-.14-.23-.05-.07-.17h-.1l-.36-.28-.05-.14-.2-.16zm4.1 37.15l-.3-.51-.23.07V-25l.11-.29-.17-.21.22-.12-.09-.23-.31-.27-.1-.17h.18l.25.23h.14l.13-.42.06.27v.2l-.07.44.06.15v.52l.11.36zm.39-23l-.06.21-.2-.13-.15.06v.54l-.12.11-.16.17-.14-.12h-.33l-.18-.1-.08.2v.45h-.25l-.16.09-.11-.09-.35.12.2-.24-.07-.36-.37-.44-.2-.17-.18-.31-.14-.1h-.16v-.65l-.29-.28-.26-.12-.09-.32-.36-.13.13-.1h.19l.27-.21V-49.76h.26l.24-.33v-.53l-.1-.26v-.26h.23l-.07.28.1.35.27.31.34-.06.17.23.24.35.34.11-.12.17.33.06.29.18v.11l.37.15.27.35v.27l.21.27v.29l.27.27zm8.19-.88l.2.14.26.38-.07.15v.28l-.17.09-.08-.54-.3-.23-.07-.22zm-2 1.23v-.17h.48l.3.19v.34l.17.16h-.36l-.42-.07-.37-.24zm-5.15-5.54l.38.15.26.26.14.35.25.19.2.17.09-.16-.1-.19.35.12.17-.07.08-.25-.2-.43-.42-.29h-.28L75-53l-.11.12-.28-.32-.23-.17v-.21l.16.11h.24l.49.21.11.17h.26l.23.24.17-.06.46.51-.07.21v.57l.26.4v.29l.18.28.23.14.13.19h.15l-.07.26.16.23v.21l.08.28v.31l-.4.21-.12.29h-.52l-.38-.25-.43-.16h-.17l-.15-.16.06-.23.26-.09.2.15v.27l.23.06.15.18h.21v-.21l-.08-.41-.24-.23-.2-.12.03-.18-.63-.09-.29-.41-.16-.28.09-.09v-.24l-.33-.33-.29-.12v-.09h.49l-.12-.17-.23-.16.31.11-.12-.22-.33-.29h-.09l-.12-.14zm3.13 31.27l-.38-.31-.05-.19h-.2l-.18.12-.07.16h-.15v-.21l-.3-.1h-.24l-.65-.33h-.45l-.46-.23v-.19l.14-.09.14.14.11.11h.43l.26.11.4.06.2.11h.21l-.06-.25-.13-.36.14-.33.19-.28-.17.44.09.28v.16l.46.43.24.17.49.24.54.14.62.35.23.28.43.12h-.66l-.24-.24-.44-.29zm3 2.56l-.23.29h-.37l-.32-.28h-.27l-.14.2-.54.32-.2.45v.23l-.25.23h-.43l.35-.17.31-.59.1-.24v-.37l.2-.16.27-.14.35.08.33-.14.26.06.21-.26.09-.36-.15-.16v-.73l.25.64-.07.41.11.19.33.28zm1.83-23.37l-.1.23-.17.1v.37h-.34l-.09-.16.07-.15-.19-.27-.24.08-1-.79-.47-.19h-.19l.15-.25.21-.14.11.15.24.19h.24v.06l.16-.06.19.14.07.21.19-.25-.21-.26-.15-.29h-.27l-.17.09h-.16v-.17l.17-.11-.06-.41.14-.16h.24l-.11.1.09.15.4.23.61.68.29.17.38.16.29.24-.36.14zm5.41 27.86l-.25.15-.08.21-.28.08-.07.19-.15.12-.2-.2-.36-.24L87-14l.17-.16.64-.33zM89-38.56l-.19-.14h-.11v-.19l-.28-.58-.11-.14.05-.14v-.18l-.18-.12h-.3l-.13-.07h-.19l-.18-.05h-.32l-.21.13h-.18l-.3-.12h-.5l-.22-.33-.3-.28h-.32l-.53.22v.11l-.28.11.14-.16.1-.25.35-.24.12-.09-.19-.06.18-.22.12-.15.12.1.18-.24.07.31-.15.14v.19l.49.28.1.11.17.19h.29l.27.1.1-.07h1l.21.07.22.06.1-.09.12-.13.15.08v-.09l.09-.16.36-.12-.19.16-.09.31-.17.3v.43l.23.39.14.11v.23l.27.31zm3.07 17.09h.27l-.29.24-.26.16v.21l-.24.31-.12.28.26.16-.12.07-.11.18v.25l.1.12-.06.4-.11-.28h-.17l-.36.16-.07-.09-.46.16L90-19l.33-.59.07-.26-.07-.2.1-.15.14.11v.28l.09.23h.25l.21-.34v-.25l-.12-.14.11-.23h.19l.07-.35-.15-.24v-.17l.23.11.17-.06v-.46l.07-.21L92-22l.11-.27v-.25h.16l.1.36-.09.41-.42.06v.24zm.82-16.09h-.63l-.19.1h-.4l-.5.25-.17-.09-.15-.1h-.07l-.18-.18h-.2l-.3-.26.34.12.34.09.22.1h.25l.27-.2h.41l.19-.13h.39l.23-.07.2.1.33-.15v-.11l.14-.08.18.07.41.1.32.27h.58l.22-.05.41.09.3.19.19.2h.18l.52.18.1-.06.25.06.36.22.13.38v.11l-.14-.25-.17-.2h-.22l-.16-.1h-.39l-.09-.09h-.43l-.19-.11-.13-.18-.24-.12h-.93l-.4-.15-.31-.23h-.16l-.5.28zm5.6 6.25l-.25.06L98-31l-.15.05v.2l.08.27-.14.23h-.12l-.07.19v.06l-.23.26v.34l.06.1-.17.31-.23.09-.15.12h-.38l-.19.18-.14.28-.37.32-.25.22-.17-.08h-.13l-.43.43-.19.2v.21l-.1.08v.24l.11.12h.09l.17.22v.19l.1.17-.05.15-.27.12-.13.11v.16l.1.13h.15l.11.15v.18l-.08.1.17.14h-.22l-.19.18-.11.2v.38l-.1.38-.06.51-.07.14-.33.37-.06.21v.38l.07.14h-.13v.1h-.2l-.18.15v.18l-.06-.12.05-.12.26-.3v-.54l.14-.21.37-.32v-.51l.09-.27.1-.32v-.37l.31-.41.12-.14v-.11l-.31-.05-.09-.27.18-.32.18-.1.1-.21-.12-.26-.28-.2v-.38l.15-.1v-.23l.22-.31.47-.48.27-.11.18.1.09-.06.21-.23h.07l.49-.39.41-.1.2-.34v-.41l-.22-.11.22-.31.19-.16.14-.5v-.2l.05-.24.33-.23h.7l.25.11zm1.14-5l-.17-.07-.28.07-.18.14h-.18l-.18-.11-.08.16-.09.14h-.33l-.05.15-.1.1h-.14l-.08-.07-.14.06-.09.22.1.11.1.43-.06.1v.42l-.14.05-.14.11v.24l.17.18v.1l.22.06.12.16v.14l.1.09.21.06.14-.12.17-.34.14.05-.06.16-.08.13v.47l-.09.07-.09-.15V-32.57l.09.17v.27l.12.09h.21l.24.12h.31l-.23.06-.22-.05-.18.07-.2-.06-.3-.23-.19-.03-.09-.2.09-.34-.1-.31-.2-.22-.48-.25-.08-.21.05-.24v-.49l-.09-.13.23-.12h.14l.06-.31-.09-.16v-.54l.18-.15.16-.06v-.17l-.15-.25.2.1.13-.09.17-.2h.26l.18.19.31-.07.1-.16.29.11.36.09h.32zm5.48-4.69v.26l-.22.45-.25.05-.09-.08h-.14v.16l-.23.19-.06.16-.15.15-.13-.1h.12v-.27l.29-.28.13-.26.2-.15.26.07.07-.26.24-.23h.25zm2.13-2.44l-.18.06h-.15l-.07.11.07.12v.15h-.19l-.19-.27-.4-.39v-.52l-.41-.56-.18.07h-.2l-.16.12.07-.15.28-.18.11-.32-.08-.24h-.21l.17-.18v-.39l.11-.3.26-.11-.17-.4-.1-.19v-.31l-.23-.39.28.22.11.26.14.48.28.31-.1.19-.27.09-.11.2v.17l.33.19.15.16-.2.16v.28l.08.34.29.47v.27l.12.3.15.16.22-.07.08-.1.16.11h.13l.18-.11zm11.64 25.09l-.24.52-.2.41-.06.63v.35l.33.48.15.38-.08.21-.18.6V-13.93l-.62.43-.24.19h-.73l-.34-.25s-.34-.09-.34-.1h-.54l-.26-.16v-.33l.08-.12-.09-.48V-15l.2-.34v-1.03l.21-.18v.1l.07.34.25.11.28-.24.08-.19.08-.46.18-.19v.37h.12l.27.1.17-.15h.52l.26-.27.06-.28-.08-.19-.4-.06-.15-.06h-.15l-.19-.09.08-.18.24-.15.17.16.16-.17.05.05v.27l.26.08.28-.35.18-.41.21-.12zM130-7.41l-.17.14v.16l.26.26-.19.1-.29-.07-.35-.26-.62.11h-.41l-.41.14.34-.37.48-.12h.5l.25-.16h.31l.33-.38.23.07.23.38zm1.55-.1h-.49l-.33-.2h-.24l.19-.15v-.26l.17-.06.15.18.37.16.52.28v.29zm6-30.64l.17-.07.1.15.13.11.11-.1v-.16l.41-.32h.15l.08.12-.17.06v.16l.06.1.25-.31.11-.15h.21v.21l-.27.17-.12.15.22.28.41.06.07.07v.16h-.37v-.08l-.2-.09h-.09l-.29-.1-.36.09-.21-.16h-.06l-.11-.05h-.27l-.06-.11zm2.33 18.74l-.09.17-.11-.16-.14.12-.34.08-.12.24v.21l-.11.21-.07.36h-.21l-.16-.1-.24.12v.21l.15.21v.23l-.17.11v.25l.14.41v.23l.1.2v.17l-.14-.06-.19-.42-.45-.26h-.32l-.26-.2v-.27l-.08-.16.27-.24V-18l-.19-.27.14-.22.1-.21.1.09h.32v-.15l-.19-.16.17-.23.32-.09.45-.61.23-.08.61.22.32-.07.24.22zm1.63-20.37h-.23l-.06-.11v-.12l.46-.18.11.16zm1.86-60.22h-.24l-.1-.29-.11-.17v-.29l.08-.25.16.19.11.24.21.31zm1.68 86.29l-.19.11-.41-.07-.38-.14.38-.1.26-.2.38.14.28.16zm1.31-24.68v.12l-.46.4-.25.52-.43.25-.28.34-.29.45-.15.11-.08.16v-.44l.21-.19.28-.4.17-.4.28-.15.18-.28.49-.35.08-.34L146-39v-.28l.12-.1.28.26.06.5zm1-64l-.38-.13v-.24l.25-.07.16.28zm1.06-3.3l-.14.17-.1.25-.23.39-.27.14h-.19l-.11-.07-.15.16-.28.23-.22-.09h-.09v.1l.1.15v.28l-.08.08-.17-.07-.13-.12v.16l-.13.23H146l-.16-.1-.12.15-.18.18v.11l.15.11v.11l-.14.12h-.23l-.18.09-.12.14v.18l.16.09.32.43.07.17v.12l-.17.11-.4-.31-.25-.17-.16.09-.17-.07v-.13l-.1.07-.16.1v.1l.15.1.11.22.12.32.37.27.18.27.13.32.21.08.13.15-.09.13h-.18l-.36.19h-.19V-100.37l-.06-.18-.65-.69-.25-.41-.39-.12-.19.09-.3.14-.18.12v.09l-.08-.18-.41-.12-.16-.24h.7l.19-.34.06-.59-.27-.18-.24-.67-.34-.15-.28-.46.14-.23-.07-.23-.14-.09h-.44v-.26l.32-.09.38.18.23.43-.14.2.14.22h.35l.19.28.35.19.2.23h.32l.29.16.33-.12.47-.5.55-.26.32-.36.19-.08.06-.34.26-.18.28-.08.17-.2v-.48l-.1-.07-.11.16-.33.19-.1-.16-.12-.18v-.33l-.15-.26-.12-.07v-.15l.25-.12.28.07h.31l.2.14.22.48.2.36.24.13h.39l.35-.16.29-.17.13-.22zm1.54.24l.38-.2.2.19.25.16.16-.06.11.28.17.21.09.26-.06.15-.12-.08-.29-.41-.26-.1-.12.12-.26-.12h-.2l-.16-.19zm-.36 2.09l.24-.45.32-.12.32.15.07.33-.15.39-.25-.06-.32-.23zm4 80.68h-.26l-.38.14-.2.24-.76-.4-.21-.18h-.17l-.47-.29-.42-.06-.53-.35-.2-.42.12-.09.32.16.36-.07-.23-.36-.16-.09-.17-.29h.15l.21-.34v-.14l.26-.42-.45-.4-.74-.45.89-.46v.23l-.14.19v.18l.62.45h.34l.11.16-.17.18-.37.23v.31l.17.46.28.21-.08.1v.25l.67.38h.63v.14l.64.28.27-.1-.1.19.23.21zm8.54-9.41h-.19l-.32-.08v-.11l-.47-.23-.09-.24v-.42l.12-.31-.07-.28-.15-.17h-.36l-.16-.06h-.31l-.11-.09-.2.07-.34-.31v-.31l.18-.18-.07.2.17.23.24.11h.25l.33.1.18-.16h.23l.15.2.28.37-.07.28-.11.28.1.48.46.34.87.15-.27.19zm.82 3.6l-.21-.05-.14-.2-.12-.07v-.37l-.16-.13.07-.22.2-.24h.15l.14-.22.15-.06.29.2v.16l.16.14.33.23.1.15v.07h-.29l-.14.3-.18.26zm1.22 4.25l-.1.26-.07.4-.34.17-.07-.06-.08-.26-.24-.38.06-.11.25-.09v-.54h.42l.37.14v.27zm.6-2.09v-.21l-.32-.31h-.38v-.12l.09-.1h.44l.45.27h.24l.27.09-.12.14-.2.08-.1.15.24.11v.16H165zm.42 2.18h-.18l-.13-.45h.43l.19.12v.19l-.11.09.15.16-.2.12zm.86.86l-.16.09-.34-.24v-.27l.09-.1.21.1.27.26zm8.36-43.41l.37-.25h.51l.23.18.21.57.25-.06.32.32v.33l-.11.15.2.19.47-.07.16-.19-.15-.23.18-.16.13-.35.28-.21.14.16.28.7h.11l.17-.25v-.26l.24-.28.38-.08-.38.42-.17.41v.23l-.2.1h-.37l-.15-.57-.21-.32v.17l-.12.24-.06.28v.18l.12.17.17.07.21.35.06.33.07.37.28.32.29.43v.32l.1.23v.28l-.14.16-.22.06h-.34l-.34-.12-.5-.23-.28-.06-.14-.14-.18-.06.28-.1.34.12.42.19.66.11.26-.19-.18-.38v-.26l-.43-.54-.21-.53v-.23l-.2-.27-.38-.14h-.74l-.1-.21V-65.87l-.2-.15h-.12l-.07.11-.11-.18-.21-.6-.37-.14h-.2l-.1.09h-.31l-.23-.1zm-.21 36l-.19.06h-.18l-.05.19-.12.1-.07.07v-.28l.05-.18.13-.22-.24-.44.05-.41v-.26l-.1-.14-.26-.14-.05-.11.14-.11h.17l.05-.13-.06-.12h-.23l-.07-.1.06-.09.28-.2.06.16.36.13.09.13.1.4-.1.4v.99l.29.24zM178 3.49l-.21.05-.25-.1-.08-.22.15-.15L178 3l.15.26zm6.43-43l-.14-.09v-.28l-.1-.18v-.2l-.17-.1-.29.25v.33l-.12.34v.21l.17-.12.1-.2h.12l.36.27-.09.19-.2.2h-.25l-.17.26-.17.58-.45.69-.11.06-.32.19-.12.21-.49.48-.07.24-.17.1h-.32l-.26.14v.26l.1.1v.36l-.11.41-.28.37-.34.19-.29.08-.31.25h-.24l-.57.17h-.75l-.29-.16v-.16l.46-.15.26-.19h.2l.15-.21v-.21l-.2-.15-.18.07-.14.12-.16-.07V-35l.28-.17-.12-.23-.46-.32-.15-.23-.26-.09-.25-.43-.23-.14-.27-.46-.25-.15h-.34l-.2-.19-.15-.55-.26-.46-.58-.71-.23-.43L175-40l.07-.33-.25-.85-.06-.34-.16-.24-.18-.14-.26-1.1-.2-.4v-.25l-.1-.15-.19-.2-.8-1.17-.24-.16h-.37l-.33.17-.07.2v.45l.21.29.29.08.16.26.19.07.23.28v.29l.17.24v.14l-.12.19v.44l-.07.19v.24l.09.11v.46l-.15.06h-.21l-.05.11h-.18v.11l-.1-.12.09-.28h.16l.13-.06v-.56l.06-.14v-.28l-.07-.19.31-.42-.14-.16v-.22l-.21-.15-.16.09-.11.29-.25.1h-.32l-.07.24-.07.35h-.15l-.5-.06-.19.2.07.17h-.12l-.11-.27.14-.17.44-.07h.23v-.29l.35-.35.35-.06h.12v-.28l-.17.07-.18-.12v-.35l-.18-.11h-.15l-.33-.16.2-.23-.08-.1v-.62l-.11-.53v-.18l-.42-.43-.46-.28-.11-.29.15-.31.59-.15.41-.1v-.27l-.17-.18-.06-.64-.11-.16v-.31l-.35-.72-.06-.4v-.26l-.07-.53-.25-.33v-.24l-.25-.28-.34-.5v-.25l.19.26.53.67.28.36.09.58v.63l.11.51.35.43.52.36h.25v-.43l.07-.18.07.17v.52l.1.26h.25l.11.18.28.28.09-.15.09-.24.11-.15.11.14-.09.16-.12.26.11.25.32.47-.47-.5h-.31l-.2-.14-.11-.2-.33-.16-.16-.21-.32-.35-.27-.07-.16.17v.72l.1.19v.37l-.19.14-.76.23v.14l.06.27.51.2.31.37.12.35.26.28.35-.19.07-.24.14-.12.17.2h.25l.19.06.21.32.45.75.54.7.16.21v.28l.2 1 .15.41.23.15.14.28.09.49.08.57.25.36.42.35h-.21l-.27-.16h-.09v.14l.15.32.42.49.34.44.25.53.21.57.15.11.29.18.18.15v.18l.2.22.28.15.17.29.25.14.45.4.27.12.53.38.21.24.21.14.14-.07.19-.05.23-.37.19-.42v-.57l.19-.19.43-.51.15-.37.15-.19v-.18l-.11-.12v-.19l.38-.31v-.39l.28-.4v-.29l.14-.2v-.17l.35-.56v-.26l.1-.28-.08-.57.24-1v-.8l.08-.25-.17-.6-.31-.49.06-.27.11-.24.2-.25h.45l.17.17.06.25.11.25v.4l.24.69v.36l.15.67v.48l.11.36v.21l.25.2.23.24v.32l-.11.31.12.37.08.31zm9.35 82.41h-.19l-.21-.08-.12-.26h-.18l-.19-.14-.07-.19-.12-.23v-.2l-.07-.19.29.09h.29l.19.39.19.27h.34l.05.13-.07.11.09.4zm3.95-40.54l-.35.2-.52.12-.31.26h-.12l-.22.21.25-.32h.07l.1-.19.86-.42.14-.23v-.33l.16-.32-.08.58zM200.55-30l-.17.07-.21.49v.19l-.09.14-.31-.38h-.23v-.06l.17-.18.2-.49v-.24l.32-.36.08.17.24.31.05.24zm3.22 43.89V14.23l-.14.2h-.19l-.1-.32-.1-.06-.11.11h-.18l-.12.08-.06.11-.15-.11-.06-.12v-.24h-.09l-.1.09-.25-.25v-.11l-.09-.22.24-.11h.29l.14.27.18.12v.15l.17.1.25-.07v-.1l-.21-.11.15-.11.07-.35-.09-.19.11-.11.18-.06.23.19-.08.4zm10.15-5.38v-.15h.31l.13.18h.2l.1.2v.36l-.07.18h.2l.25-.31.12-.17v.18l-.07.22-.32.33h-.23l-.18-.09-.16.07-.12-.06-.2-.4v-.53zm-2.16-3.56l.12-.27.29-.07.23.34-.12.43v.35l-.2.12L212 6h-.09l-.11-.15v-.38l.22-.06v-.14l.15-.18v-.18H212l-.16.13h-.18zm-1.29.43h.23l.21-.23-.44-.15v-.3l.18-.16.06-.19.25-.22.24.29.2.05v.23l-.09.3h-.16l-.08.11-.07.2-.29.16v.11l-.14.19-.12-.18zm-1 7.28h.32v.25l-.38.18V13.52l.17.06.08.21-.1.24h-.2v.25l.11.21v.15l-.14.1-.19-.26V14l-.07-.1.13-.17-.12-.19h-.17l-.29-.38h-.2l.1-.45-.11-.41.11-.09.21.27-.08.2.29-.08v.16l-.18.29h.49l.25-.17zm-1.3-1l.33-.33.36-.1v-.22l.18-.06.21.12-.16.17-.05.24-.42.16-.19.12v.08l-.1.16h-.24l-.08-.11zm3.55-57.84v.11h-.25l-.36.16-.29.34h-.31l-.24.11-.07.15.15.28.25.17v.22l-.18.24v.23l-.13-.18-.19-.11.16-.07.06-.18-.39-.4-.06-.16-.24-.1-.26-.28v-.09h.22l.31.17.16-.12.24-.35.29.2.18-.12.38-.26h.25l.36-.12.19.08.2.09zm13.39 23.06l.36-.2v-.19h.24l.42.18v.19l.07.22.18.14-.07.36-.19.15v.29l.1.35-.23.16.16.1-.24.19h-.16l-.15-.27-.31-.12-.11-.23.09-.16v-.32l-.24-.12-.05-.32.02-.28zM89.18 53.4v-.42l.07-.19.26-.03.13.21-.07.23-.31.41-.17.08-.08-.03.17-.26zM89.07 53.96l-.07.19-.19.15-.07.02-.07-.23.26-.25.14.12zM78.12 64.63l.16-.28.2-.09.19-.11.16.1h.1l.04.14-.49.11-.36.13zM84.69 86.79l-.16.05-.01.22-.09-.26.01-.35.21.12.04.22zM111.16 43.86l.41.07.34-.05-.42-.12-.33.1zM105.54 83.56l.01-.12-.27.27.07.13.19-.28zM114.73 43.08l-.21-.1-.32.06-.22.07-.19-.05-.09-.16-.2-.03-.18.16-.03.24-.19.1.21.12.19.15.33.07.47-.08.34-.22.24-.01.12-.15-.02-.12-.25-.05zM105.29 84.46l.07-.09-.07-.13-.04.09.04.13zM102.38 78.69l.06-.14-.1.01.04.13zM104.97 84.65l.06-.29-.17-.11-.05-.06-.06.06-.15.24.21.01.16.15zM102.34 77.98l-.23-.09-.17.2.16.09.31-.06.07-.1-.14-.04zM99.97 84.03l.29-.48-.19-.25-.18.05.03.26-.06.28.11.14zM97.45 82.89l.27.02-.14-.19-.17-.01-.07.07.11.11zM10.24 51.22l-.17-.04-.06.12.04.14.21.13.13.01-.02-.22-.13-.14zM97.25 81.13l-.17-.02-.24.38.08.2.04.37.15.05.15-.04.12-.17-.1-.31.11-.16-.14-.3zM99.06 82.89l.13-.15-.16-.32-.13.13-.25.06.2.1.21.18z"/><path d="M107.62 87.01l-.07-.28.09-.14v-.34l-.11-.43.08-.17.03-.8-.23-.31-.03-.7-.12-.24-.13.05-.27-.35-.03-.32-.28-.11.16-.32-.11-.32-.4.37.1.21-.27.19-.27-.18h-.17l.25.35.01.2.19.19v.1l-.31.29v.47l-.19.3-.21-.07-.27.3-.03.26-.2.15-.17-.11-.03-.34-.15-.07-.2.2-.03.37.32.31.07.14-.11.11-.16-.05-.35.07.07.3.31.09.04.19-.13.16-.15-.17-.24.09-.05.18-.43.37-.01-.34.07-.1-.11-.19-.29.28.18.1-.06.14-.37.21.14.3.21.06-.02.16-.19.05-.26.17-.03-.2-.15-.03.15-.25-.14-.1-.57.48-.09.46.07.18-.09.19-.19-.06-.13-.11v-.41l-.14-.02-.37.38-.4-.29-.09.12-.14.03.05.44-.12-.03-.11.04v-.23l-.16-.09-.17.26-.16-.26-.62.58-.16.01-.13-.11-.32-.01-.14.22.06.48-.47.73.02.13-.44.47v.24l.24.2-.21.29.15.45-.02.39.43.83-.03.23.28.3v.14l-.21.22.07.21-.15.72-.31.2-.08.41-.19.04-.09.26-.28.23-.03.59-.19.21-.46.11-.11.14.03.51-.34.36.04.42-.1.25.07.18.02.5.4.49-.06.36.07.22.2.12.11-.03-.1.1-.32.08.02.32.05.52-.05.65.11.13.02.22.18.1.21.32.17.1.13.21.21.24.22-.07.07.1.25.06.27.35.2.04v.14l.08.08.2-.13.34.03.37-.23.3-.35.98-.09.3.07.52-.2.14-.28.25-.04.16-.49.25-.4.01-.28.32-.19-.03-.48-.08-.06.22-.17.14-.52-.04-.08h.11l.3-.46.22-1.06.16-.57.24-.25.14-.63.43-.75.41-1.28.28-.43v-.57l.32-.58.04-.21.36-.57.18-.88.15-.64.14-.16.09-.46-.14-.23.08-.4.33-.45-.04-.22.22-.26-.05-.38-.13-.13.14-.26-.02-.39-.12-.08-.01-.37.21-.1.15.11.07.33.26.36.2.04.11-.2.02-.27.08-.1.04-.28.11-.1-.02-.33-.31-.41zM39.52 62.82l.04.29.13.02.17-.11.11-.23-.27-.17-.18.2z"/><path d="M107 89.97l-.09.15-.02.21v.2l.14-.29.1-.19.08-.27-.12.19H107zM43.3 57.61l-.03-.45-.11-.11-.33.34-.12.37-.2.01-.03.24.3.16.3.05.22-.61z"/></svg>