<svg id="Layer_1" data-name="Layer 1" xmlns="http://www.w3.org/2000/svg" viewBox="0 0 555.09 747.28"><title>icon__maker</title><path d="M555.09,277.46C554.62,332,539.92,382.23,510.24,428q-36.82,56.77-73.81,113.41-58.85,90.14-117.91,180.13c-4,6-8.62,12.08-14.21,16.54-19.24,15.33-47.5,11-61.69-9.49-13.46-19.43-26.18-39.38-39.12-59.16Q132.11,560.34,60.72,451.25c-13.73-20.86-28-41.28-38-64.38C-47.1,225.39,50.76,39.18,223.38,5.31,370.74-23.6,513.15,68.19,547.92,214.56A280.79,280.79,0,0,1,555.09,277.46ZM277.74,420.73c84.65-.3,152.8-68.73,152.55-153.16-.25-84.24-68.9-151.9-153.89-151.66-83.66.23-151.67,68.7-151.47,152.49C125.14,352.72,193.66,421,277.74,420.73Z"/></svg>