<svg id="Warstwa_1" data-name="Warstwa 1" xmlns="http://www.w3.org/2000/svg" viewBox="0 0 98.68 80"><defs><style>.cls-1{fill:#1d1d1b;}</style></defs><title>icon__map</title><path class="cls-1" d="M20.21,41.29,8.33,65.06l14.15,7.07c1.57-7.83,3.12-15.53,4.64-23.24a1.19,1.19,0,0,0-.27-.93c-2.15-2.2-4.34-4.37-6.65-6.68M69.55,71a3.46,3.46,0,0,0,0-.46q-2.1-10.52-4.22-21a1.71,1.71,0,0,0-.67-1c-3.85-2.6-7.73-5.18-11.6-7.75a4.57,4.57,0,0,0-.61-.28c0,7.2,0,14.29,0,21.38a1.38,1.38,0,0,0,.71.93c5.18,2.62,10.37,5.2,15.56,7.8.24.12.5.22.82.37m-40.47,0a2.23,2.23,0,0,0,.35-.08c5.42-2.71,10.83-5.43,16.27-8.11.58-.29.56-.68.56-1.17q0-10.16,0-20.32v-.73c-.17,0-.25,0-.29,0-4,2.68-8.07,5.35-12.08,8.06a1.6,1.6,0,0,0-.53,1q-1.45,7.06-2.85,14.13c-.48,2.38-.94,4.76-1.43,7.23M0,67.65c.25-.44.51-.88.74-1.34L17.91,32c.17-.34.35-.68.59-1.15.29.28.54.5.78.73,3.57,3.57,7.15,7.11,10.68,10.71.65.65,1.06.78,1.89.22C37.39,38.74,43,35,48.55,31.3a1.19,1.19,0,0,1,1.59,0C55.66,35,61.21,38.68,66.7,42.41c.89.6,1.48.68,2.1-.22a4.07,4.07,0,0,1,.56-.53l3,5.79c-1.09.56-.79,1.48-.61,2.4Q73.87,60.51,76,71.18c.06.28.14.56.24.94l14.1-7c-.17-.36-.31-.68-.46-1-1.59-3.18-3.2-6.36-4.75-9.56a1.69,1.69,0,0,1,0-1.3c1-2,2-4,3.14-6.2.25.45.42.74.58,1l9.33,18.67c.16.31.35.61.53.91v.19Q86.61,73.89,74.52,79.92a1.58,1.58,0,0,1-1.21-.1q-11.54-5.72-23-11.51a1.82,1.82,0,0,0-1.85,0q-11.5,5.8-23,11.51a1.58,1.58,0,0,1-1.21.1Q12.06,73.91,0,67.84Z"/><path class="cls-1" d="M80.23,6.19a9.22,9.22,0,1,0,9.17,9.32,9.24,9.24,0,0,0-9.17-9.32m-.07,43.17L74.83,38.94C72,33.37,69.17,27.79,66.3,22.22c-4.65-9,1.3-20.61,11.35-22A15.37,15.37,0,0,1,95.53,13.73a14.22,14.22,0,0,1-1.41,8.34Q87.33,35.45,80.49,48.81c-.07.14-.15.27-.32.55"/></svg>