<svg id="Warstwa_1" data-name="Warstwa 1" xmlns="http://www.w3.org/2000/svg" viewBox="0 0 98 98"><defs><style>.cls-1{fill:#dcb070;}</style></defs><title>icon__skype</title><path class="cls-1" d="M25.52,0h4.23a5.22,5.22,0,0,0,.67.17,28,28,0,0,1,11,3.66A2.2,2.2,0,0,0,42.64,4c2.29-.14,4.57-.48,6.86-.46A45.3,45.3,0,0,1,78.06,14a46.3,46.3,0,0,1,9.25,10.51A45.18,45.18,0,0,1,94,55.36a2.35,2.35,0,0,0,.3,1.38,27.07,27.07,0,0,1,2.92,7.39c.31,1.37.53,2.75.78,4.13v4.07c0,.2-.1.4-.12.6a27.44,27.44,0,0,1-5.64,14.35A26.9,26.9,0,0,1,77.62,97c-1.73.46-3.53.66-5.29,1H68.26a5.23,5.23,0,0,0-.67-.16A27.16,27.16,0,0,1,57.1,94.47,3.23,3.23,0,0,0,54.89,94a44,44,0,0,1-16-.71A45.49,45.49,0,0,1,4.43,58,44.82,44.82,0,0,1,4,42.8a2.78,2.78,0,0,0-.33-1.6,27.87,27.87,0,0,1-2.88-7.4C.48,32.45.25,31.09,0,29.74V25.52c0-.23.11-.45.13-.68A29,29,0,0,1,2,17.35,27.46,27.46,0,0,1,10.87,5.64,26.34,26.34,0,0,1,20.62.92C22.23.52,23.88.3,25.52,0ZM49.37,78.41c.65,0,1.3,0,2,0a30.27,30.27,0,0,0,12-2.81A17.25,17.25,0,0,0,72.5,66a17,17,0,0,0,.88-7.71,13.05,13.05,0,0,0-4.24-8.72,22.94,22.94,0,0,0-9.4-4.93c-4.46-1.26-9-2.34-13.46-3.5-2.63-.68-5.22-1.45-7.28-3.38a4.55,4.55,0,0,1-.56-5.91,9.12,9.12,0,0,1,5.64-3.37,20,20,0,0,1,8.08,0,7.51,7.51,0,0,1,4.79,2.87c1.2,1.6,2.21,3.34,3.4,4.94a6.7,6.7,0,0,0,2.16,2.2,5.69,5.69,0,0,0,8.29-5.3,10.33,10.33,0,0,0-2.27-5.89c-3.14-4-7.47-6.07-12.33-7.11A37.46,37.46,0,0,0,46,19.6a28.37,28.37,0,0,0-13,3.58,14.64,14.64,0,0,0-6.24,7,14.49,14.49,0,0,0-.95,7.12A12,12,0,0,0,28,43.45a17.33,17.33,0,0,0,7,5.5c4.64,2.11,9.59,3.14,14.52,4.29a27.08,27.08,0,0,1,7.89,2.65c3.74,2.22,4.59,6.56,1.83,9.88A9.9,9.9,0,0,1,54.7,68.7a19.51,19.51,0,0,1-7.64.91,11.23,11.23,0,0,1-10.22-6.93,24.31,24.31,0,0,0-2.59-4.52c-1.38-1.84-4.11-2.29-6.43-1.33a5.17,5.17,0,0,0-3.26,5.27c.35,4.53,2.78,7.94,6,10.83a21.25,21.25,0,0,0,9.15,4.54A38.44,38.44,0,0,0,49.37,78.41Z"/></svg>