<svg id="Warstwa_1" data-name="Warstwa 1" xmlns="http://www.w3.org/2000/svg" viewBox="0 0 96.62 91.38"><title>icon__screen</title><path d="M0,64.34V10a3.6,3.6,0,0,0,.18-.53A11,11,0,0,1,11.31,0q37,0,74,0A11.07,11.07,0,0,1,96.6,11.31q0,25.86,0,51.71a11.75,11.75,0,0,1-1,4.73c-2,4.4-5.65,6.52-10.47,6.54-8.15,0-16.29,0-24.44,0h-1.2c0,1.2,0,2.29,0,3.39a3.81,3.81,0,0,1-4,4q-7.08,0-14.15,0a3.7,3.7,0,0,1-4-4c0-1.09,0-2.18,0-3.36H36c-8.15,0-16.29,0-24.44,0A11.12,11.12,0,0,1,.31,65.61Zm48.32-4.88H84.73a6.94,6.94,0,0,0,1.68-.13c1.86-.47,2.83-1.95,2.83-4.24q0-21.56,0-43.12c0-3.18-1.43-4.6-4.61-4.6H12C8.81,7.36,7.38,8.79,7.38,12c0,14.28,0,28.56,0,42.83,0,2.82,1.48,4.72,4.64,4.7C24.1,59.41,36.21,59.46,48.32,59.46Zm41,7.37a3.86,3.86,0,1,0-3.85,3.93A3.85,3.85,0,0,0,89.33,66.84Z"/><path d="M78,91.38H18.75c-.41-2.42-.18-4.6,1.71-6.35a3.22,3.22,0,0,1,2.28-1H74.08A3.64,3.64,0,0,1,78,87.88C78,89,78,90.14,78,91.38Z"/><rect x="21.11" y="25.59" width="54.01" height="4.32"/><rect x="21.11" y="17.59" width="17.91" height="4.32"/><rect x="21.11" y="33.58" width="54.01" height="4.32"/><rect x="21.11" y="41.58" width="54.01" height="4.32"/><rect x="21.11" y="49.58" width="54.01" height="4.32"/></svg>