<svg id="Warstwa_1" data-name="Warstwa 1" xmlns="http://www.w3.org/2000/svg" viewBox="0 0 66.66 98"><title>icon__ballon</title><path d="M34.84,0c4.53,2,6.7,6,8.35,10.35C46.83,20,46.93,30,46.39,40.05a91.68,91.68,0,0,1-8.2,33.53,69.18,69.18,0,0,0-2.47,7.6H31.12c-3-10.66-8.63-20.52-9.8-31.82-1.25-12.06-2.26-24.08,1.27-35.95a46.33,46.33,0,0,1,2.49-6.36A13.8,13.8,0,0,1,31.9,0Z"/><path d="M30.43,98c-4.53-2-3.62-5.94-3.47-9.78H40c.4,3.86.72,7.5-3.17,9.78Z"/><path d="M27.53,81.44a4.83,4.83,0,0,1-1-.78c-2.06-2.69-3.95-5.53-6.15-8.1C16,67.5,10.82,63,7.25,57.5.76,47.43-1.64,36,1.15,24.22,4.1,11.76,12.79,4.43,24.94,1a3.86,3.86,0,0,1,1,.13c-9.63,4-15.14,11.22-17.85,20.74C6.3,28.32,6.77,34.83,7.6,41.33a52.85,52.85,0,0,0,13.56,29,63.84,63.84,0,0,1,5,6.36A29.85,29.85,0,0,1,28.18,81Z"/><path d="M41.18,1.25c11.23,2.59,19.31,9,23.55,19.82,3.09,7.89,2,15.89.16,23.82C62.77,54.08,57.79,61.61,51,68.07c-2.18,2.09-4.48,4.07-6.48,6.32a67.3,67.3,0,0,0-4.22,5.93,15.52,15.52,0,0,1-1,1.17l-.79-.54a44.56,44.56,0,0,1,3-5.58c2.37-3.21,5.12-6.14,7.5-9.35,9.67-13,12.81-27.73,9.65-43.5A28,28,0,0,0,41.92,1.64C41.66,1.53,41.42,1.38,41.18,1.25Z"/></svg>