<svg id="Warstwa_1" data-name="Warstwa 1" xmlns="http://www.w3.org/2000/svg" xmlns:xlink="http://www.w3.org/1999/xlink" viewBox="0 0 98.56 98.56"><defs><style>.cls-1{fill:none;}.cls-2{clip-path:url(#clip-path);}.cls-3{fill:#dcb070;}</style><clipPath id="clip-path"><rect class="cls-1" width="98.56" height="98.56"/></clipPath></defs><title>icon__phone</title><g class="cls-2"><path class="cls-3" d="M21.73,0C23.47.78,24.19,2.43,25,3.94c2.62,4.62,5.2,9.27,7.83,13.9C33.5,19,34.3,20,35,21.07c1.58,2.66.86,4.06-.67,5.59-1.94,1.94-4.1,3.65-6.13,5.5-1.41,1.28-2.78,2.61-4.12,4a2.93,2.93,0,0,0-.42,3.64c1.16,2.26,2.44,4.45,3.71,6.65a68.43,68.43,0,0,0,7.41,10.42,53.4,53.4,0,0,0,8.23,8c2.54,1.93,5.11,3.84,7.79,5.57,2.53,1.63,5.19,3.06,7.83,4.49a3.47,3.47,0,0,0,4.59-.94c2-2.27,3.93-4.63,6-6.88a40.25,40.25,0,0,1,3.62-3.47,3.54,3.54,0,0,1,4.4-.18c2,1.17,3.87,2.51,5.86,3.65,3.87,2.21,7.8,4.3,11.67,6.49a27.62,27.62,0,0,1,3.16,2.18,4,4,0,0,1,.71,1.1V79a1.71,1.71,0,0,0-.11.29c-.41,1.92-.75,3.85-1.23,5.76a9.25,9.25,0,0,1-2.73,5.12,55.27,55.27,0,0,1-4.73,3.61,27.74,27.74,0,0,1-9.39,4.06c-1.17.27-2.36.46-3.54.69H72.58a37.14,37.14,0,0,1-4.45-.9c-4.55-1.5-9.07-3.08-13.58-4.7a53.35,53.35,0,0,1-10.41-5.12,77.71,77.71,0,0,1-10-7.34C31.39,78.06,28.6,75.62,26,73A109.46,109.46,0,0,1,14.41,59.79a60.68,60.68,0,0,1-6.75-11C6.17,45.41,4.83,42,3.55,38.56c-1-2.7-1.86-5.45-2.67-8.21C.46,28.93.29,27.44,0,26V21.73c.05-.22.11-.45.16-.67.34-1.56.6-3.14,1-4.67A31.88,31.88,0,0,1,5.3,7.85c2.11-3.33,4.75-6,8.85-6.73C16,.8,17.73.38,19.52,0Z"/></g></svg>