<svg id="Warstwa_1" data-name="Warstwa 1" xmlns="http://www.w3.org/2000/svg" viewBox="0 0 95.02 95.02">
  <title>icon__image</title>
  <g>
    <path d="M27.15,13.56c0,3.28,0,6.57,0,9.85a3.4,3.4,0,0,1-3.76,3.73q-9.85,0-19.7,0A3.39,3.39,0,0,1,0,23.44Q0,13.54,0,3.63A3.39,3.39,0,0,1,3.66,0H23.47a3.39,3.39,0,0,1,3.68,3.7C27.16,7,27.15,10.28,27.15,13.56Z"/>
    <path d="M61.09,13.57c0,3.25,0,6.5,0,9.75,0,2.48-1.32,3.82-3.77,3.83H37.61a3.39,3.39,0,0,1-3.67-3.72q0-9.85,0-19.71A3.42,3.42,0,0,1,37.71,0h19.6c2.44,0,3.77,1.35,3.77,3.82Q61.09,8.7,61.09,13.57Z"/>
    <path d="M95,13.63c0,3.25,0,6.5,0,9.75,0,2.41-1.34,3.77-3.72,3.77q-9.91,0-19.81,0a3.36,3.36,0,0,1-3.61-3.56q0-10,0-20A3.37,3.37,0,0,1,71.49,0H91.41A3.38,3.38,0,0,1,95,3.67C95,7,95,10.31,95,13.63Z"/>
    <path d="M13.58,61.09H3.83C1.36,61.08,0,59.75,0,57.32q0-9.85,0-19.71a3.41,3.41,0,0,1,3.72-3.67H23.43a3.41,3.41,0,0,1,3.72,3.77q0,9.69,0,19.39c0,2.74-1.27,4-4,4Z"/>
    <path d="M61.09,47.56c0,3.25,0,6.5,0,9.75,0,2.41-1.34,3.77-3.72,3.77q-9.91,0-19.81,0a3.37,3.37,0,0,1-3.61-3.66q0-9.91,0-19.81a3.41,3.41,0,0,1,3.72-3.67H57.37a3.4,3.4,0,0,1,3.72,3.77C61.09,41,61.09,44.28,61.09,47.56Z"/>
    <path d="M81.39,61.09H71.64a3.4,3.4,0,0,1-3.77-3.72q0-9.85,0-19.71a3.4,3.4,0,0,1,3.67-3.72H91.35A3.39,3.39,0,0,1,95,37.66q0,9.75,0,19.49c0,2.67-1.29,3.93-4,3.93Z"/>
    <path d="M13.47,95H3.72A3.39,3.39,0,0,1,0,91.35q0-9.91,0-19.81a3.4,3.4,0,0,1,3.72-3.67h19.6c2.47,0,3.82,1.33,3.82,3.77q0,9.64,0,19.28C27.15,93.81,25.92,95,23,95H13.47Z"/>
    <path d="M61.09,81.5c0,3.25,0,6.5,0,9.75,0,2.41-1.34,3.77-3.72,3.77q-9.91,0-19.81,0a3.36,3.36,0,0,1-3.61-3.56q0-10,0-20a3.37,3.37,0,0,1,3.61-3.56H57.47a3.38,3.38,0,0,1,3.61,3.66C61.09,74.86,61.09,78.18,61.09,81.5Z"/>
    <path d="M67.87,81.33q0-4.82,0-9.64c0-2.46,1.35-3.82,3.78-3.82H91.14c2.55,0,3.87,1.31,3.87,3.83q0,9.69,0,19.39C95,93.75,93.73,95,91,95H71.64a3.4,3.4,0,0,1-3.76-3.72c0-3.32,0-6.64,0-10Z"/>
  </g>
</svg>
