<svg id="Warstwa_1" data-name="Warstwa 1" xmlns="http://www.w3.org/2000/svg" viewBox="0 0 98 86.43"><title>icon__category</title><path d="M15.66,52.44C10.83,50.07,6.41,48,2.09,45.72,1.17,45.24,0,44.1,0,43.27s1.17-2,2.09-2.44c4.32-2.26,8.73-4.34,13.53-6.7L4.84,28.82a19.2,19.2,0,0,1-3.17-1.6C.92,26.65,0,25.69,0,24.92a3.31,3.31,0,0,1,1.72-2.25c5.48-2.79,11-5.45,16.57-8.15C27.82,9.88,37.37,5.27,46.87.57A4.22,4.22,0,0,1,51,.53c14.9,7.33,29.85,14.57,44.74,21.92A4.11,4.11,0,0,1,98,25.06c.06.75-1.21,1.91-2.15,2.4-4.3,2.25-8.7,4.33-13.46,6.67l11.89,5.82A10.09,10.09,0,0,1,96.41,41c.68.58,1.63,1.44,1.59,2.13a3.37,3.37,0,0,1-1.62,2.33c-4.47,2.32-9,4.47-13.85,6.83.66.4,1.1.72,1.57,1C87.95,55.19,91.85,57,95.64,59c1,.53,2.28,1.65,2.31,2.54s-1.24,2.09-2.22,2.57q-22.44,11.08-45,21.94a4.53,4.53,0,0,1-3.46,0q-22.65-10.9-45.18-22C1.19,63.59,0,62.44,0,61.61s1.15-2,2.07-2.46C6.41,56.89,10.83,54.8,15.66,52.44ZM7.34,24.9c.54.35.78.53,1,.66Q28.08,35.17,47.8,44.72a3.43,3.43,0,0,0,2.62-.11Q69.75,35.28,89,25.82c.48-.24.93-.54,1.52-.88-.42-.26-.65-.45-.91-.57C76.56,18,63.51,11.6,50.41,5.3a3.74,3.74,0,0,0-2.84,0C41.8,8,36.08,10.85,30.35,13.64Zm0,18.3a7.58,7.58,0,0,0,.87.62c13.2,6.44,26.39,12.89,39.62,19.25a3.49,3.49,0,0,0,2.63-.17c6.9-3.28,13.75-6.66,20.62-10l19.65-9.6c-3.86-1.9-7.5-3.56-11-5.45a4.94,4.94,0,0,0-5.14,0c-7.88,4-15.86,7.76-23.76,11.68a3.73,3.73,0,0,1-3.73,0q-12.25-6.1-24.59-12a3.47,3.47,0,0,0-2.45-.42C15.85,39,11.69,41.09,7.39,43.2ZM90.8,61.61c-4.16-2-8-3.86-11.84-5.83a3.45,3.45,0,0,0-3.51,0c-8.17,4.05-16.4,8-24.57,12a3.74,3.74,0,0,1-3.73,0q-12.25-6.09-24.6-12a3.47,3.47,0,0,0-2.44-.43c-4.24,1.93-8.4,4-12.74,6.16.48.31.78.53,1.1.69C21.53,68.6,34.58,75,47.68,81.29a4,4,0,0,0,3-.18c9.23-4.42,18.41-8.94,27.61-13.43Z"/></svg>