<svg id="Warstwa_1" data-name="Warstwa 1" xmlns="http://www.w3.org/2000/svg" viewBox="0 0 97.51 91"><title>icon__calendar</title><path d="M12.93,6.5c0,2.31,0,4.5,0,6.7A6.54,6.54,0,0,0,26,13.57c0-2.3,0-4.6,0-7H42.21c0,1.78,0,3.56,0,5.35A14.32,14.32,0,0,0,42.46,15,6.54,6.54,0,0,0,55.3,13.43c0-2.26,0-4.53,0-6.86H71.49c0,2.2,0,4.36,0,6.52a6.55,6.55,0,0,0,13.08.61c.06-2,0-4,0-6,0-.36,0-.73,0-1.11,3.94-.35,7.56,0,10.36,3.09a9.73,9.73,0,0,1,2.57,6.77q0,25.72,0,51.44,0,6.51,0,13A9.74,9.74,0,0,1,87.38,91H9.92A9.72,9.72,0,0,1,0,81.08Q0,48.8,0,16.53a9.73,9.73,0,0,1,10-10Zm-6.47,26c0,.36,0,.6,0,.83q0,22.31,0,44.62a3.25,3.25,0,0,0,3.5,3.38H87.18c2.71,0,3.91-1.19,3.91-3.89q0-21.91,0-43.81c0-.36,0-.72,0-1.13Z"/><path d="M81.25,8.13c0,1.52,0,3,0,4.57a3.22,3.22,0,1,1-6.42,0q0-4.62,0-9.24a3.22,3.22,0,1,1,6.41,0c0,.78,0,1.56,0,2.34S81.25,7.35,81.25,8.13Z"/><path d="M45.55,8.1c0-1.56,0-3.11,0-4.67A3.21,3.21,0,1,1,52,3.4q0,4.67,0,9.34a3.21,3.21,0,1,1-6.41,0c0-.78,0-1.56,0-2.34S45.55,8.88,45.55,8.1Z"/><path d="M22.69,8.13c0,1.56,0,3.11,0,4.67a3.21,3.21,0,1,1-6.41,0q0-4.72,0-9.44a3.21,3.21,0,1,1,6.41,0c0,.81,0,1.62,0,2.44S22.69,7.35,22.69,8.13Z"/><path d="M58.46,74.73H54c-1.32,0-1.93-.6-1.94-1.92q0-2.95,0-5.89a1.65,1.65,0,0,1,1.89-1.86q4.57,0,9.14,0A1.66,1.66,0,0,1,65,66.93q0,3,0,6a1.64,1.64,0,0,1-1.84,1.81C61.58,74.75,60,74.73,58.46,74.73Z"/><path d="M39,74.73c-1.52,0-3,0-4.57,0a1.65,1.65,0,0,1-1.89-1.86c0-2,0-4,0-6a1.63,1.63,0,0,1,1.83-1.81q4.62,0,9.24,0a1.64,1.64,0,0,1,1.84,1.81q0,3,0,6a1.66,1.66,0,0,1-1.89,1.87C42,74.74,40.52,74.73,39,74.73Z"/><path d="M19.45,74.73c-1.49,0-3,0-4.47,0s-1.95-.58-2-1.89q0-2.95,0-5.89a1.66,1.66,0,0,1,1.87-1.88q4.57,0,9.14,0c1.32,0,1.9.6,1.91,1.94q0,2.9,0,5.79c0,1.34-.59,1.92-1.92,1.93C22.5,74.74,21,74.73,19.45,74.73Z"/><path d="M78.07,52c1.49,0,3,0,4.47,0s1.94.58,2,1.9q0,2.95,0,5.89a1.67,1.67,0,0,1-1.88,1.88q-4.57,0-9.14,0c-1.32,0-1.9-.61-1.9-1.95q0-2.9,0-5.79c0-1.34.58-1.91,1.92-1.93C75,52,76.55,52,78.07,52Z"/><path d="M58.46,61.72c-1.49,0-3,0-4.47,0-1.33,0-1.93-.61-1.94-1.92,0-2,0-3.93,0-5.89a1.65,1.65,0,0,1,1.89-1.86q4.57,0,9.14,0A1.65,1.65,0,0,1,65,53.91q0,2.95,0,5.89c0,1.32-.61,1.9-1.94,1.91C61.51,61.73,60,61.72,58.46,61.72Z"/><path d="M39,61.72H34.55c-1.4,0-2-.58-2-1.94q0-2.95,0-5.89a1.63,1.63,0,0,1,1.81-1.83q4.67,0,9.34,0a1.61,1.61,0,0,1,1.76,1.79q0,3,0,6.09a1.64,1.64,0,0,1-1.86,1.78C42.07,61.73,40.54,61.72,39,61.72Z"/><path d="M19.44,61.72H15c-1.34,0-1.94-.58-2-1.9q0-2.95,0-5.89a1.65,1.65,0,0,1,1.87-1.88q4.57,0,9.14,0c1.31,0,1.9.62,1.91,1.95q0,2.89,0,5.79c0,1.33-.6,1.92-1.92,1.93C22.49,61.73,21,61.72,19.44,61.72Z"/><path d="M78.07,48.71c-1.52,0-3,0-4.57,0-1.33,0-1.91-.6-1.92-1.93,0-2,0-3.93,0-5.89A1.64,1.64,0,0,1,73.38,39q4.62,0,9.25,0a1.65,1.65,0,0,1,1.87,1.88q0,2.95,0,5.89c0,1.31-.61,1.88-2,1.89Z"/><path d="M58.47,48.71c-1.49,0-3,0-4.47,0s-1.93-.59-1.94-1.91q0-2.95,0-5.89A1.64,1.64,0,0,1,53.94,39q4.57,0,9.14,0A1.65,1.65,0,0,1,65,40.9q0,3,0,6a1.65,1.65,0,0,1-1.84,1.81c-1.56,0-3.12,0-4.67,0Z"/><path d="M39,48.71c-1.52,0-3,0-4.57,0a1.66,1.66,0,0,1-1.87-1.88q0-2.95,0-5.89c0-1.27.6-1.89,1.85-1.89q4.62,0,9.24,0a1.63,1.63,0,0,1,1.82,1.82q0,3,0,6c0,1.25-.63,1.83-1.91,1.85C42,48.72,40.5,48.71,39,48.71Z"/></svg>