<svg id="Layer_1" data-name="Layer 1" xmlns="http://www.w3.org/2000/svg" viewBox="0 0 200.51 52.01"><defs><style>.cls-1{fill:#e8e6e7}</style></defs><title>logo__exceptional-travel</title><path class="cls-1" d="M199.27 35.19l-3.19.15v.18l4.43.28v.07l-5.29.21-12.91.45c-1.34 0-2.68 0-4 .09a7.38 7.38 0 0 0-1.42.18 10.91 10.91 0 0 1-3.1.08c-.83 0-1.67.08-2.51.12s-1.9 0-2.85.1c-1.43.09-2.86.25-4.29.3-2.47.09-5 .2-7.43.13-4.34-.12-8.67-.37-13-.57l-3.76-.18a1.82 1.82 0 0 0-.35 0 27.2 27.2 0 0 1-6-.17 18.9 18.9 0 0 0-4.54 0 9.48 9.48 0 0 1-1.83 0c-2.71 0-5.41-.11-8.12-.15-3.27 0-6.54-.06-9.81-.1a28.36 28.36 0 0 0-3.5-.1 43.94 43.94 0 0 1-6.82.07c-1.93-.08-3.86-.25-5.78-.25-1.76 0-3.52.18-5.28.28-.38 0-.76.06-1.13.06-2.16 0-4.32 0-6.48-.09-1.75 0-3.5-.13-5.24-.19a3.33 3.33 0 0 0-.83.06l.6.14v.13c-.87.06-1.75.17-2.62.18q-4.75.09-9.51.12h-10l-23.89-.06h-9.27c-2.36 0-4.72.06-7.08.09a.78.78 0 0 1-.49-.11h2.8c3.71-.09 7.43-.11 11.13-.33 1.55-.09 3.09-.17 4.64-.14 3 0 5.91.12 8.86.09 6.16-.06 12.32-.16 18.48-.27.72 0 1.44-.21 2.16-.28 1.64-.16 3.28-.38 4.92-.44 4.85-.19 9.7-.32 14.55-.45 3.91-.11 7.82-.23 11.73-.29 6.36-.09 12.72-.19 19.07-.18 6.77 0 13.54.16 20.31.22h8.87c2.95 0 5.65 0 8.47-.1s5.65-.54 8.48-.76a62.27 62.27 0 0 1 10.55-.17 54.48 54.48 0 0 0 8.75 0c2.26-.15 4.55 0 6.82.05 1.65 0 3.3.17 4.94.26l8.35.48a2 2 0 0 1 1.47.45c.16.16.52.13.8.16s.75.05 1.12.08v.13M188.2 3.37h-2.47l-8.13-.06-16.26-.06H154c-3.24 0-6.47.1-9.71.09-5.2 0-10.4-.08-15.6-.14-.95 0-1.89-.13-2.84-.2v-.15l.71-.13h-3.39c-3.3.06-6.6.2-9.9.2-1.83 0-3.65-.26-5.48-.32-1.14 0-2.28.08-3.41.12-2.62.08-5.25.17-7.87.21-.74 0-1.48-.18-2.22-.17-1.28 0-2.57.16-3.85.17H79.09c-2.29 0-4.58.18-6.88.26-.36 0-.72-.06-1.08-.07C70 3.1 68.89 3 67.78 3.07c-1.76.08-3.52.26-5.29.38-.27 0-.55-.1-.83-.1-1.32 0-2.63 0-3.95.06-1.73.06-3.46.14-5.2.22-3.68.15-7.35.38-11 .43-2.44 0-4.88-.14-7.31-.35a27.58 27.58 0 0 0-2.8 0 9.21 9.21 0 0 1-2.06-.17 7.93 7.93 0 0 0-2.85-.06 13 13 0 0 1-3-.15c-1.26-.11-2.55.08-3.8-.11-1.42-.21-2.83 0-4.24-.16-1.64-.14-3.29-.17-4.94-.24s-3.13-.1-4.7-.16c-1.89-.12-3.7-.18-5.52-.32L4.51 2v-.14l-3.22-.17v-.1l1.54-.13c.15 0 .35 0 .42-.09a1.91 1.91 0 0 1 1.51-.5C8.18.66 11.61.45 15 .28 17.57.15 20.11 0 22.65 0c1.81 0 3.62.24 5.44.27s3.36-.07 5-.11S36.53 0 38.23 0c2.93.17 5.87.32 8.77.65a128.88 128.88 0 0 0 14.79.6h8.38l13.88-.1c4.67 0 9.35-.16 14-.14 6 0 11.93.16 17.89.27 2.67 0 5.35.13 8 .22 3.51.12 7 .23 10.54.37a39.34 39.34 0 0 1 5.08.35 40.54 40.54 0 0 0 6.8.46c3 0 5.91.08 8.87.12 4.34.05 8.69.11 13 .13 1.33 0 2.67-.13 4-.12 1 0 2 .16 3 .21 1.7.07 3.4.12 5.09.16 2.54.05 5.09.08 7.63.12h.18v.08M193.25 3.46h-4.65v-.09h4.63v.09M11.15 36.88V37M11.15 37H6.9v-.08M1.91 17.29v-4.75c0-.75-.22-1.1-.95-1.26a4.11 4.11 0 0 0-.75-.07c-.09 0-.18 0-.18-.13s.11-.18.35-.18c1 0 2.38.07 2.49.07h5a5.87 5.87 0 0 0 .95-.11c.11 0 .2-.11.31-.11s.09.09.09.2-.11.42-.18 1c0 .22-.07 1.19-.11 1.45 0 .11-.07.24-.15.24s-.18-.11-.18-.29a2.36 2.36 0 0 0-.13-.79c-.15-.35-.37-.62-1.56-.75-.37 0-2.77-.07-3-.07-.09 0-.13.07-.13.22v6.07c0 .15 0 .22.13.22h3.5c.5 0 .84-.09 1-.31s.24-.29.33-.29.11 0 .11.18-.11.51-.18 1.23c0 .44-.09 1.25-.09 1.41s0 .42-.15.42-.15-.09-.15-.2a2.24 2.24 0 0 0-.07-.69c-.09-.31-.29-.68-1.14-.77-.59-.07-2.77-.11-3.15-.11a.14.14 0 0 0-.15.15V24.97c.07 1.52.4 1.81 2.55 1.81a6.29 6.29 0 0 0 2.11-.24c.57-.24.84-.68 1-1.58 0-.24.09-.33.2-.33s.13.18.13.33-.19 1.62-.3 2.04-.33.57-1.19.57c-3.32 0-4.8-.13-5.43-.13H.68c-.33 0-.35 0-.35-.18s0-.13.18-.13a3.4 3.4 0 0 0 .66-.09c.44-.09.55-.57.64-1.21.11-.92.11-2.66.11-4.77zM22.39 19.05l-3.52-5.92a3.51 3.51 0 0 0-1.72-1.76 3.91 3.91 0 0 0-.92-.15c-.13 0-.2-.07-.2-.15s.09-.15.37-.15c.62 0 2.4.07 2.57.07s1.32-.07 2.07-.07c.31 0 .37 0 .37.15s-.07.15-.2.15a2 2 0 0 0-.59.07.37.37 0 0 0-.26.37 1.62 1.62 0 0 0 .22.73c.92 1.74 1.83 3.37 3 5.26.66-.95 3-4.71 3.24-5.17a1.73 1.73 0 0 0 .22-.79.48.48 0 0 0-.37-.4 2.56 2.56 0 0 0-.66-.07c-.13 0-.2 0-.2-.15s.11-.15.37-.15c.84 0 1.76.07 2 .07s1.1-.07 1.85-.07c.24 0 .35.07.35.15s-.09.15-.24.15a2.42 2.42 0 0 0-.73.11c-.64.2-1.06.84-1.69 1.78l-3.54 5.33c.42.68 4.18 7.08 4.64 7.68a2.39 2.39 0 0 0 1.3 1 3.46 3.46 0 0 0 .77.13c.11 0 .18 0 .18.13s-.11.18-.31.18h-3.52c-.57 0-.68-.07-.68-.18a.17.17 0 0 1 .13-.18c.11 0 .31-.26.11-.62-1.19-2.16-2.47-4.34-3.78-6.56l-3.43 5.83a2.21 2.21 0 0 0-.29 1 .43.43 0 0 0 .35.42 3 3 0 0 0 .42 0 .16.16 0 0 1 .18.15c0 .11-.11.15-.26.15-.53 0-1.91-.07-2.11-.07s-1.28.07-2 .07c-.18 0-.22-.07-.22-.15a.16.16 0 0 1 .18-.15 3.47 3.47 0 0 0 .84-.11c.66-.18 1.1-.66 1.83-1.78zM38.08 25.48A8.43 8.43 0 0 1 35.42 19a8.78 8.78 0 0 1 2.47-6c1.32-1.32 3.32-2.35 6.71-2.35a18.86 18.86 0 0 1 3.19.26 19.15 19.15 0 0 0 2.21.29c.24 0 .28.11.28.24s-.07.44-.11 1.23 0 1.94-.07 2.27-.07.46-.2.46-.17-.15-.17-.46a3 3 0 0 0-.92-2.24 7.33 7.33 0 0 0-4.4-1.25c-2.93 0-4.29.86-5.06 1.61-1.61 1.54-2 3.5-2 5.74a8 8 0 0 0 7.94 8.05c1.65 0 2.95-.2 3.83-1.1a4.19 4.19 0 0 0 .88-1.86c0-.24.09-.33.22-.33s.15.15.15.33a22.62 22.62 0 0 1-.48 2.82c-.13.42-.17.46-.57.64a12.78 12.78 0 0 1-4 .51c-3.3 0-5.52-.81-7.26-2.38M59.14 17.29v-4.75c0-.75-.22-1.1-.95-1.26a4.11 4.11 0 0 0-.75-.07c-.09 0-.18 0-.18-.13s.11-.18.35-.18c1 0 2.38.07 2.49.07h5a5.87 5.87 0 0 0 .95-.11c.11 0 .2-.11.31-.11s.09.09.09.2-.11.42-.18 1c0 .22-.07 1.19-.11 1.45 0 .11-.07.24-.15.24s-.18-.11-.18-.29a2.36 2.36 0 0 0-.13-.79c-.15-.35-.37-.62-1.56-.75-.37 0-2.77-.07-3-.07-.09 0-.13.07-.13.22v6.07c0 .15 0 .22.13.22h3.5c.5 0 .84-.09 1-.31s.24-.29.33-.29.11 0 .11.18-.11.51-.18 1.23c0 .44-.09 1.25-.09 1.41s0 .42-.15.42-.15-.09-.15-.2a2.24 2.24 0 0 0-.09-.73c-.09-.31-.29-.68-1.14-.77-.59-.07-2.77-.11-3.15-.11a.14.14 0 0 0-.15.15V24.93c.07 1.52.4 1.81 2.55 1.81a6.29 6.29 0 0 0 2.11-.24c.57-.24.84-.68 1-1.58 0-.24.09-.33.2-.33s.13.18.13.33-.18 1.67-.29 2.14-.33.57-1.19.57c-3.32 0-4.8-.13-5.43-.13H57.9c-.33 0-.35 0-.35-.18s0-.13.18-.13a3.4 3.4 0 0 0 .66-.09c.44-.09.55-.57.64-1.21.11-.92.11-2.66.11-4.77zM76.06 17.29v-4.75c0-.75-.22-1.1-.95-1.26a4.11 4.11 0 0 0-.75-.07c-.09 0-.18 0-.18-.13s.11-.18.35-.18c1 0 2.31.07 2.49.07.48 0 1.76-.07 2.77-.07 2.75 0 3.74.92 4.09 1.25a3.83 3.83 0 0 1 1.1 2.62A5.11 5.11 0 0 1 79.53 20a3.25 3.25 0 0 1-.46 0c-.11 0-.24 0-.24-.15s.13-.2.59-.2a3.65 3.65 0 0 0 3.81-3.59A4.67 4.67 0 0 0 82 12.67a3.82 3.82 0 0 0-3-1.1 2.71 2.71 0 0 0-.95.13c-.13 0-.18.2-.18.42v9c0 2.11 0 3.85.11 4.77.07.64.2 1.12.86 1.21a9.57 9.57 0 0 0 1 .09c.13 0 .18.07.18.13s-.11.18-.35.18c-1.21 0-2.6-.07-2.71-.07s-1.45.07-2.11.07c-.24 0-.35 0-.35-.18s0-.13.18-.13a3.4 3.4 0 0 0 .66-.09c.44-.09.55-.57.64-1.21.11-.92.11-2.66.11-4.77zM98.37 21.17c0 2.11 0 3.85.11 4.78.07.64.2 1.12.86 1.21a9.6 9.6 0 0 0 1 .09c.13 0 .18.07.18.13s-.11.18-.35.18c-1.21 0-2.6-.07-2.71-.07s-1.5.07-2.16.07c-.24 0-.35 0-.35-.18s0-.13.18-.13a3.4 3.4 0 0 0 .66-.09c.44-.09.55-.57.64-1.21.11-.92.11-2.66.11-4.78v-9.31h-3.26c-1.36 0-1.89.18-2.24.7a3.87 3.87 0 0 0-.37.68c-.07.18-.13.22-.22.22s-.11-.07-.11-.2.44-2.11.48-2.29.13-.42.22-.42a4.09 4.09 0 0 0 1 .27c.64.07 1.47.11 1.74.11H102a11.63 11.63 0 0 0 1.56-.11 5.4 5.4 0 0 1 .62-.11c.11 0 .11.13.11.26 0 .66-.07 2.18-.07 2.42s-.07.29-.15.29-.15-.07-.18-.37v-.24c-.09-.66-.59-1.17-2.71-1.21h-2.77zM114.23 21.17c0 2.11 0 3.85.11 4.78.07.64.2 1.12.86 1.21a9.58 9.58 0 0 0 1 .09c.13 0 .18.07.18.13s-.11.18-.35.18c-1.21 0-2.6-.07-2.71-.07s-1.5.07-2.16.07c-.24 0-.35 0-.35-.18s0-.13.18-.13a3.41 3.41 0 0 0 .66-.09c.44-.09.55-.57.64-1.21.11-.92.11-2.66.11-4.78v-3.88-4.75c0-.75-.26-1.12-.75-1.23a2.87 2.87 0 0 0-.68-.09c-.09 0-.18 0-.18-.13s.11-.17.35-.17c.73 0 2.11.06 2.22.06s1.5-.06 2.16-.06c.24 0 .35 0 .35.17s-.09.13-.18.13a3.27 3.27 0 0 0-.55.07c-.59.11-.77.48-.81 1.25s0 1.32 0 4.75zM131.63 27c2 0 6.07-1.15 6.07-7.55 0-5.28-3.21-8.12-6.69-8.12-3.67 0-6.43 2.42-6.43 7.24 0 5.13 3.08 8.43 7 8.43m-.46-16.42c5 0 8.65 3.13 8.65 8.25 0 4.93-3.48 9-8.78 9-6 0-8.54-4.69-8.54-8.65a8.52 8.52 0 0 1 8.67-8.6M149.12 24.55c0 1.8.26 2.38.86 2.55a4.82 4.82 0 0 0 1.1.13c.11 0 .18 0 .18.13s-.13.18-.4.18c-1.25 0-2.13-.07-2.33-.07s-1.12.07-2.11.07c-.22 0-.35 0-.35-.18s.07-.13.18-.13a3.16 3.16 0 0 0 .9-.13c.55-.15.66-.79.66-2.79V11.7c0-.86.07-1.1.24-1.1s.55.48.77.7c.33.37 3.61 3.92 7 7.55 2.18 2.33 4.58 5 5.28 5.74l-.24-11.18c0-1.43-.18-1.91-.86-2.09a5.88 5.88 0 0 0-1.08-.11c-.15 0-.18-.07-.18-.15s.18-.15.44-.15c1 0 2 .07 2.29.07s1-.07 1.87-.07c.24 0 .4 0 .4.15s-.09.15-.24.15a1.94 1.94 0 0 0-.53.07c-.73.15-.81.64-.81 2v12.89c0 1.45 0 1.56-.2 1.56s-.44-.24-1.61-1.41c-.24-.22-3.41-3.45-5.74-6-2.55-2.75-5-5.52-5.74-6.32zM178.32 20.26c.11 0 .11-.07.09-.15l-2.09-5.94q-.17-.5-.33 0L174 20.11c0 .11 0 .15.07.15zm-2.32-8.8c.26-.73.35-.86.48-.86s.22.11.48.79c.33.84 3.79 9.92 5.13 13.27.79 2 1.43 2.31 1.89 2.44a2.87 2.87 0 0 0 .88.13c.13 0 .22 0 .22.13s-.2.18-.44.18h-3.46c-.42 0-.66 0-.66-.15s.07-.13.15-.16.26-.24.13-.59l-2-5.41a.19.19 0 0 0-.2-.13h-4.73a.23.23 0 0 0-.22.18l-1.32 3.89a4.62 4.62 0 0 0-.33 1.43c0 .44.46.64.84.64h.22c.15 0 .22 0 .22.13s-.13.18-.33.18c-.53 0-1.47-.07-1.71-.07s-1.45.07-2.49.07c-.29 0-.42 0-.42-.18s.09-.13.2-.13h.64c1-.13 1.45-1 1.85-2.07zM193.61 21.21c0 3.23.09 4.64.48 5s.92.51 2.64.51c1.17 0 2.13 0 2.66-.66a3.06 3.06 0 0 0 .57-1.32c0-.18.07-.28.2-.28s.13.09.13.33A14 14 0 0 1 200 27c-.15.51-.22.59-1.39.59-3.17 0-4.62-.13-5.9-.13h-2.15c-.33 0-.35 0-.35-.17s0-.13.18-.13a3.41 3.41 0 0 0 .66-.09c.44-.09.55-.57.64-1.21.11-.92.11-2.66.11-4.77v-3.8-4.75c0-.75-.22-1.1-.95-1.25a4.13 4.13 0 0 0-.75-.07c-.09 0-.18 0-.18-.13s.11-.17.35-.17c1 0 2.38.06 2.49.06s1.72-.06 2.38-.06c.24 0 .35 0 .35.17s-.09.13-.18.13a5.18 5.18 0 0 0-.73.07c-.64.11-.81.48-.86 1.25s0 1.32 0 4.75zM63.51 44.88h-1.49c-.58 0-.82.07-1 .29a1.16 1.16 0 0 0-.17.35c0 .08 0 .12-.11.12s-.09-.05-.09-.16.19-1.07.21-1.15.06-.19.12-.19a2.34 2.34 0 0 0 .43.12c.29 0 .67.05 1 .05h4a4.36 4.36 0 0 0 1-.1c.07 0 .08.06.08.21v1.16c0 .1 0 .16-.09.16s-.1 0-.11-.2v-.11c0-.26-.29-.54-1.18-.56h-1.26v6.27c0 .43.09.5.39.54a4.22 4.22 0 0 0 .51 0c.11 0 .16 0 .16.08s-.08.1-.19.1h-2.83c-.13 0-.2 0-.2-.1s0-.08.16-.08a1.64 1.64 0 0 0 .36 0c.2 0 .26-.26.29-.55s.05-1.21.05-2.13zM77 48c0 .11 0 .15.09.18a2.64 2.64 0 0 0 .76.1 1 1 0 0 0 .71-.17 1.76 1.76 0 0 0 .59-1.5 1.6 1.6 0 0 0-1.53-1.83 2.26 2.26 0 0 0-.53 0c-.07 0-.09.06-.09.14zm-1.18-.79v-2.12c0-.32-.1-.5-.43-.57a2.05 2.05 0 0 0-.39 0c-.11 0-.17 0-.17-.09s.07-.09.22-.09H77.83a3.19 3.19 0 0 1 1.84.43 1.73 1.73 0 0 1 .68 1.37A2.8 2.8 0 0 1 79 48.35c.89 1.12 1.58 2 2.17 2.63a2 2 0 0 0 1.12.68h.28c.08 0 .12 0 .12.08s-.07.1-.19.1h-.95a2 2 0 0 1-1.07-.19 4.82 4.82 0 0 1-1.37-1.47c-.4-.55-.86-1.23-1-1.38a.21.21 0 0 0-.18-.07h-.87a.07.07 0 0 0-.08.08V49c0 .93 0 1.72.05 2.14s.09.51.39.55h.49c.08 0 .12 0 .12.08s-.07.1-.2.1h-2.69c-.13 0-.2 0-.2-.1s0-.08.16-.08a1.63 1.63 0 0 0 .36 0c.2 0 .25-.26.29-.55s.05-1.21.05-2.13zM92.29 48.76c.05 0 .06 0 .05-.06l-.9-2.47v-.09s-.05.05-.06.09l-.92 2.46v.07zm-2 .5c-.05 0-.07 0-.09.08l-.54 1.43a1.94 1.94 0 0 0-.15.61c0 .18.09.31.4.31H90c.12 0 .15 0 .15.08s-.06.1-.17.1h-2.24c-.13 0-.19 0-.19-.1s0-.08.12-.08h.31c.46-.06.65-.4.85-.9l2.51-6.28c.12-.29.18-.4.28-.4s.15.09.25.32c.24.55 1.84 4.63 2.48 6.15.38.9.67 1 .88 1.09a2.27 2.27 0 0 0 .42 0c.08 0 .13 0 .13.08s-.09.1-.46.1h-1.89c-.18 0-.3 0-.3-.08s0-.08.14-.09a.16.16 0 0 0 .09-.23l-.8-2.12a.1.1 0 0 0-.1-.07zM101.84 45.29c-.23-.55-.4-.66-.76-.76a1.54 1.54 0 0 0-.39 0c-.09 0-.12 0-.12-.09s.11-.09.26-.09H103.51c.12 0 .23 0 .23.09s-.06.09-.15.09a.72.72 0 0 0-.39.07.24.24 0 0 0-.1.21 3 3 0 0 0 .23.77l1.67 4.5c.43-1.1 1.73-4.32 2-5a1.21 1.21 0 0 0 .09-.37.19.19 0 0 0-.13-.19 1.34 1.34 0 0 0-.4-.05c-.09 0-.17 0-.17-.08s.09-.1.28-.1h1.99c.13 0 .21 0 .21.09s-.06.09-.16.09a.86.86 0 0 0-.49.12c-.13.09-.28.26-.55.9-.39.94-.66 1.48-1.2 2.71l-1.33 3c-.26.58-.32.74-.46.74s-.19-.14-.38-.61zM116.51 47.21v-2.12c0-.32-.1-.5-.43-.57a2.06 2.06 0 0 0-.39 0c-.11 0-.17 0-.17-.09s.07-.09.22-.09h3.94l.43-.06a1 1 0 0 1 .16 0s.06 0 .06.09a6.47 6.47 0 0 0-.08.65c0 .1 0 .54-.05.66s0 .11-.1.11-.09-.05-.09-.14a1 1 0 0 0-.06-.36c-.07-.18-.17-.3-.67-.36h-1.42c-.2 0-.07 0-.07.1v2.53c0 .07 0 .11.07.11h1.6c.23 0 .39-.05.48-.15s.11-.13.16-.13.07 0 .07.08a7 7 0 0 0-.08.73v.67c0 .07 0 .19-.09.19a.08.08 0 0 1-.09-.09 2.79 2.79 0 0 0 0-.36c-.05-.2-.19-.35-.56-.39h-1.42s-.06 0-.06.1v2.23c0 .69.18.84 1.2.84a2.53 2.53 0 0 0 .94-.12c.26-.12.38-.33.45-.74 0-.11 0-.15.11-.15s.08.08.08.18a8 8 0 0 1-.13 1.11c-.07.26-.16.26-.54.26-1.51 0-2.18-.06-2.77-.06h-1.26c-.13 0-.2 0-.2-.1s0-.08.16-.08a1.62 1.62 0 0 0 .36 0c.2 0 .25-.26.29-.55s.05-1.21.05-2.13zM130.59 49c0 1.28 0 2 .21 2.15s.43.22 1.21.22c.53 0 .92 0 1.17-.28a1.26 1.26 0 0 0 .26-.6c0-.09 0-.15.11-.15s.08.05.08.17a7.88 7.88 0 0 1-.15 1.15c-.06.22-.11.27-.63.27-1.44 0-2.1-.06-2.91-.06h-1.26c-.13 0-.2 0-.2-.1s0-.08.16-.08a1.69 1.69 0 0 0 .36 0c.2 0 .25-.26.29-.55s.05-1.21.05-2.13v-1.8-2.12c0-.32-.1-.5-.43-.57a1.49 1.49 0 0 0-.33 0c-.11 0-.17 0-.17-.09s.07-.09.22-.09H131.36c.14 0 .21 0 .21.09s-.06.09-.18.09a2.66 2.66 0 0 0-.39 0c-.27.05-.35.22-.37.57s0 .6 0 2.12z"/></svg>