<svg id="map__australasia" xmlns="http://www.w3.org/2000/svg" viewBox="0 0 187.44 140.39">
  <defs>
    <style>
      .st0 {
        fill: #c6c4c4;
      }
    </style>
  </defs>
  <title>map__australasia</title>
  <g id="on-desktop-map-australia">
    <a href="javascript:"><path id="AU" class="enable st0" d="M89.84,117.8l2.71,1.28,1.53-.51,2.19-.71,1.68.25.2,4.42-1,1.3-.29,3.06-1-1-2,2.67-.58-.21-1.72-.12L89.88,125l-.38-2.5-1.62-3.25.07-1.7ZM84.66,31.74l1,2.25,1.8-1.08.93,1.22,1.35,1.13-.29,1.28.6,2.48.43,1.45.71.36L92,43.32l-.27,1.52.91,2,3,1.54,2,1.41,1.88,1.29-.37.72,1.6,1.87,1.09,3.25,1.12-.66,1.14,1.31.69-.46.48,3.21,2,1.87,1.3,1.17,2.19,2.49.79,2.49.07,1.77-.19,1.94,1.34,2.68-.16,2.81L112.08,79l-.76,2.87.06,1.86-.55,2.34-1.24,3-2.08,1.63-1,2.59L105.57,95l-.83,2.93-1.08,1.68-.71,2.58-.36,2.4.14,1.11-1.61,1.22L98,107l-2.59,1.45-1.29,1.38-1.68,1.53-2.32-1.58-1.72-.63.44-1.85-1.53.67-2.46,2.58-2.42-1L80.82,109l-1.6-.25-2.71-1-1.85-2.16L74.14,103l-.65-1.75-1.38-1.4-2.7-.41.92-1.66-.68-2.52-1.37,2.35-2.49.63,1.47-1.89.42-2,1.08-1.65-.22-2.47L66.26,93l-1.75,1.15-1.07,2.69-2.19-1.4.09-1.79-1.75-2.43L58.11,90l.53-.77-3.6-2-2-.09-2.7-1.6-5,.31L41.71,87l-3.19,1.1-2.68-.22-3,1.7-2.43.77-.54,1.75-1,1.36-2.38.08-1.76.3-2.48-.61-2,.37-1.92.15-1.67,1.8-.82-.15-1.41,1L13.08,97.5l-2-.13H9.16l-3-2.17-1.51-.64.06-1.93,1.39-.46.56-.78-.1-1.2.34-2.3-.31-2L5.11,82.65l-.46-1.84L4.77,79,3.65,76.9,3.58,76,2.34,74.71,2,72.24.39,69.76,0,68.43l1.23,1.35L.28,66.9l1.39.9L2.5,69V67.41L1.11,65,.84,64l-.65-.92.3-1.77.57-.75L1.44,59l-.3-1.77L2.3,55.09l.21,2.29,1.15-2,2.28-1,1.37-1.28L9.45,52l1.27-.23.77.37,2.21-1.11,1.7-.33.42-.65.74-.27,1.55.07L21.06,49l1.52-1.31.72-1.58L25,44.62l.13-1.17.07-1.59,2-2.47,1.18,2.51,1.19-.58-1-1.37.88-1.41,1.24.63L31,37l1.53-1.42.68-1.14,1.41-.49v-.8l1.23.33v-.72l1.23-.41,1.35-.39,2.07,1.32L42,35H43.8l1.78.27L45,33.64l1.34-2.3,1.26-.75-.44-.71,1.22-1.63,1.7-1,1.43.34,2.35-.54L53.8,25.6l-2-.94,1.49-.41,1.86.7,1.49,1.17,2.36.73.8-.29,1.74.88,1.64-.82,1.05.25.66-.55,1.29,1.41-.75,1.53-1,1.13-1,.1.33,1.15-.82,1.43-1,1.41.2.81,2.23,1.6,2.16.93,1.44,1,2,1.72h.79l1.47.75.43.9,2.68,1,1.85-1,.55-1.57.57-1.29.35-1.59.85-2.3L79,34.05l.2-.84-.32-1.64.37-2.16.54-.58-.44-1,.68-1.51.53-1.56.07-.81,1-1.06.79,1.39.19,1.78.7.34.12,1.2,1,1.45.21,1.62Z"/></a>
    <path id="FJ" class="st0" d="M187.44,38.25l-.35,1.4-.23.15-1.78.72-1.79.61-.36-1.08,1.4-.6.89-.16,1.65-.9Zm-5.84,4.32-1.27-.36-1.08,1,.27,1.29,1.55.36,1.74-.4.46-1.53-1-.84Z"/>
    <path id="NC" class="st0" d="M147,53.13l2.3,1.86,1.46,1.38-1.07.72-1.54-.81-2-1.35-1.81-1.59-1.85-2.1-.39-1h1.21l1.57,1,1.23,1Z"/>
    <a href="javascript:"><path id="NZ" class="enable st0" d="M167.29,118.27l.64,1.53,2-1.5.81,1.57v1.52l-1,1.74-1.83,2.8-1.43,1.54,1,1.86h-2.16l-2.4,1.47-.75,2.57-1.59,4-2.2,1.8-1.4,1.16-2.62.06-1.82-1.34-3-.28-.47-1.48,1.51-3,3.48-3.9,1.81-.73,2-1.47,2.4-2,1.68-2,1.25-2.81,1.06-.95.4-2,2-1.7Zm4.46-17,2,3.66.06-2.38,1.27,1,.42,2.65,2.26,1.15,1.9.28,1.6-1.35,1.42.41-.68,3.15-.85,2.09-2.14-.07-.75,1.1.26,1.56-.41.68-1.06,2-1.39,2.5-2.17,1.49-.48-1-1.17-.54,1.62-3-.92-2-3-1.45.08-1.31,2-1.25.47-2.74-.13-2.28-1.14-2.34.08-.61-1.34-1.43-2.21-3-1.17-2.41,1-.27,1.53,1.89,2.18.89Z"/></a>
    <a href="javascript:"><path id="PG" class="enable st0" d="M119.23,12.07l-.78.28-1.21-1.08L116,9.49l-.6-2.13.39-.27.3.83.85.64,1.36,1.77,1.32,1ZM108.3,8.31l-1.47.23-.44.79-1.53.68-1.44.65h-1.49l-2.3-.81L98,9.07l.23-.87,2.51.41,1.53-.22.42-1.34.4-.07.27,1.48,1.6-.21.79-1,1.57-1L107,4.6l1.68,0,.57.46-.06,1.55ZM94.87,13.66l2.5,1.84,1.82,3,1.61-.09-.11,1.25,2.16.48-.84.53,3,1.19-.31.82-1.86.2-.69-.73-2.41-.32-2.83-.43-2.25-1.81L93.07,18l-1.41-2.47L88,14.39l-2.37.8-1.71.93.36,2.08-2.2,1-1.57-.47-2.9-.12V.35l4.86,1.92,5.18,1.6L89.58,5.3l1.56,1.4.43,1.65,4.67,1.73.68,1.49-2.58.3Zm16.68-8.09-.88.74-.53-1.65-.65-1.08-1.27-.92-1.56-1.17-2-.82.78-.67L107,.78l1,.61,1.18.67,1.12,1.17,1.07.89Z"/></a>
    <path id="SB" class="st0" d="M136.72,22.39l.78,1h-2l-1.07-1.74,1.67.68Zm-3.55-1.73-1.09.06-1.72-.29-.59-.44.18-1.12,1.85.44.91.59Zm2.32-.77-.42.52L133,18l-.58-1.68h1l1,2.25Zm-5.06-3.56.12.57-2.2-1.19-1.53-1-1-.94.42-.29,1.29.67,2.3,1.29Zm-6.55-2.78-.56.16-1.23-.64-1.15-1.15.15-.47,1.67,1.18Z"/>
    <path id="VU" class="st0" d="M152.77,39.54l-.92.38-.94-1.27.1-.78Zm-2.11-4.43.46,2.33-.75-.36-.58.16-.4-.8-.06-2.21Z"/>
  </g>
</svg>
