<?xml version="1.0" encoding="utf-8"?>
<!-- Generator: Adobe Illustrator 22.1.0, SVG Export Plug-In . SVG Version: 6.00 Build 0)  -->
<svg version="1.1" id="map__latin-america" xmlns="http://www.w3.org/2000/svg" xmlns:xlink="http://www.w3.org/1999/xlink" x="0px"
	 y="0px" viewBox="0 0 231.1 284.2" style="enable-background:new 0 0 231.1 284.2;" xml:space="preserve">
<style type="text/css">
	.st0{fill:#c6c4c4;}
</style>
<g>
	<g id="on-desktop-map-latin-america">
		<path id="AR" class="st0" d="M144.7,282.2l-2.7,0.2l-1.4-1.7l-1.7-0.1h-3V270l1.1,2.2l1.4,3.5l3.6,2.9l3.9,1.2L144.7,282.2z
			 M146.2,159.7l1.6,2.2l1.1-2.4l3.2,0.1l0.5,0.6l5.1,5l2.3,0.5l3.4,2.3l2.9,1.2l0.4,1.4l-2.8,4.7l2.8,0.8l3.1,0.5l2.2-0.5l2.5-2.4
			l0.5-2.7l1.4-0.6l1.4,1.8l-0.1,2.5l-2.4,1.7l-1.9,1.3l-3.2,3.1l-3.7,4.3l-0.7,2.6l-0.8,3.4v3.3l-0.6,0.7l-0.2,2.2l-0.2,1.8
			l3.6,2.9l-0.4,2.4l1.8,1.5l-0.1,1.7l-2.7,4.6l-4.2,1.9l-5.6,0.8l-3.1-0.4l0.6,2.2l-0.6,2.7l0.5,1.8l-1.7,1.3l-2.9,0.5l-2.7-1.3
			l-1.1,1l0.4,3.7l1.9,1.1l1.5-1.2l0.8,2l-2.6,1.1l-2.2,2.4l-0.4,3.9l-0.7,2.1h-2.7l-2.2,2l-0.8,3l2.8,3l2.7,0.8l-1,3.7l-3.3,2.4
			l-1.8,5l-2.6,1.7l-1.1,2.1l0.9,4.6l1.9,2.6l-1.2-0.2l-2.6-0.7l-6.8-0.6l-1.2-2.6l0-3.3l-1.9,0.3l-1-1.6l-0.2-4.6l2.1-1.9l0.9-2.7
			l-0.3-2.1l1.5-3.5l1-5.3l-0.3-2.3l1.2-0.8l-0.3-1.5l-1.3-0.8l0.9-1.6l-1.3-1.5l-0.6-4.4l1.1-0.8l-0.5-4.5l0.7-3.8l0.8-3.2l1.7-1.3
			l-0.9-3.5v-3.2l2.1-2.3l-0.1-2.9l1.6-3.3V195l-0.7-0.6l-1.3-5.7l1.7-3.3l-0.3-3.1l1-2.9l1.8-3l2-2l-0.8-1.2l0.6-1l-0.1-5.1l3-1.5
			l1-3.2l-0.3-0.8l2.3-2.7L146.2,159.7z"/>
		<path id="BO" class="st0" d="M152.2,159.6l-3.2-0.1l-1.1,2.4l-1.6-2.2l-3.7-0.7l-2.3,2.7l-2,0.4l-1.1-4.2l-1.5-3.3l0.9-2.9
			l-1.5-1.2l-0.4-2.1l-1.4-2l1.8-3.1l-1.2-2.4l0.6-1l-0.5-1.1l1.1-1.4l0-2.4l0.1-2l0.6-1l-2.4-4.6l2.1,0.2l1.4-0.1l0.6-0.9l2.5-1.1
			l1.5-1.1l3.7-0.5l-0.3,2.1l0.4,1.1L145,129l3,2.5l3.1,0.5l1.1,1.1l1.9,0.6l1.2,0.8h1.8l1.6,0.9l0.2,1.6l0.5,0.8v1.2h-0.8l1.1,3.4
			l5.4,0.1l-0.4,1.7l0.3,1.1l1.5,0.8l0.7,1.8l-0.5,2.3l-0.8,1.3l0.3,1.7l-0.9,0.6V153l-2.6-1.5H160l-4.9,0.9l-1.4,2.6l-0.1,1.6
			l-1.1,3.6L152.2,159.6z"/>
		<a href="javascript:"><path id="BR" class="enable st0" d="M166.8,185l3.7-4.4l3.2-3.1l1.9-1.3l2.4-1.7l0.1-2.5l-1.4-1.8l-1.4,0.6l0.5-1.8l0.4-1.8v-1.7l-1-0.5
			l-1,0.5l-1-0.1l-0.3-1.2l-0.3-2.8l-0.5-0.9l-1.9-0.8l-1.1,0.6l-3-0.6l0.2-4.1l-0.8-1.7l0.9-0.6l-0.3-1.7l0.8-1.3l0.5-2.3l-0.7-1.8
			l-1.5-0.8l-0.3-1.1l0.4-1.7l-5.4-0.1l-1.1-3.4h0.8v-1.2l-0.6-0.9l-0.1-1.7l-1.6-0.9h-1.8l-1.2-0.8l-1.9-0.6l-1.1-1.1l-3.1-0.5
			l-3-2.5l0.2-1.9l-0.4-1.1l0.3-2.1l-3.7,0.5l-1.5,1.1l-2.5,1.1l-0.6,0.9l-1.4,0.1l-2.1-0.2l-1.6,0.5l-1.3-0.3l0.2-4.3l-2.3,1.7
			l-2.5-0.1l-1.2-1.4l-1.9-0.2l0.6-1.2l-1.6-1.7l-1.2-2.5l0.7-0.5V116l1.7-0.8l-0.3-1.5l0.7-1l0.2-1.3l3.2-1.9l2.3-0.5l0.4-0.4
			l2.5,0.1l1.3-7.6l0.1-1.2l-0.4-1.6l-1.2-1v-2l1.6-0.5l0.6,0.3l0.1-1.1l-1.6-0.3v-1.7l5.5,0.1l0.9-1l0.8,0.9l0.5,1.6l0.5-0.3
			l1.5,1.5l2.2-0.2l0.5-0.9l2.1-0.6l1.1-0.5l0.3-1.2l2-0.8l-0.1-0.6l-2.4-0.2l-0.4-1.8l0.1-1.9l-1.3-0.7l0.5-0.3l2.1,0.4l2.2,0.7
			l0.8-0.7l2-0.4l3.1-1l1-1.1l-0.4-0.8l1.5-0.1l0.6,0.6l-0.4,1.2l1,0.4l0.6,1.3l-0.8,1l-0.5,2.4l0.7,1.4l0.2,1.3l1.8,1.3l1.4,0.1
			l0.3-0.5l0.9-0.1l1.3-0.5l0.9-0.7l1.5,0.2l0.7-0.1l1.5,0.2l0.2-0.6l-0.5-0.5l0.3-0.8l1.1,0.2l1.3-0.3l1.6,0.6l1.2,0.6l0.9-0.8
			l0.6,0.1l0.4,0.8l1.3-0.2l1.1-1.1l0.9-2l1.7-2.5l1-0.1l0.7,1.5l1.6,4.9l1.5,0.5l0.1,1.9l-2.2,2.2l0.9,0.8l5,0.4l0.1,2.8l2.1-1.8
			l3.5,1l4.7,1.7l1.4,1.6l-0.5,1.5l3.3-0.9l5.5,1.5l4.2-0.1l4.1,2.3l3.6,3.1l2.2,0.8l2.4,0.1l1,0.9l1,3.6l0.5,1.7l-1.2,4.7l-1.4,1.8
			l-4,3.9l-1.8,3.2l-2.1,2.5l-0.7,0.1l-0.8,2.1l0.2,5.4l-0.8,4.5l-0.3,1.9l-0.9,1.2l-0.5,3.9l-2.8,3.9l-0.5,3.1l-2.3,1.3l-0.7,1.8
			h-3l-4.4,1.2l-2,1.3l-3.1,0.9l-3.3,2.4l-2.4,3.1l-0.4,2.3l0.5,1.7l-0.5,3.2l-0.6,1.5l-2,1.8l-3.1,5.7l-2.5,2.6l-1.8,1.5l-1.3,3.2
			l-1.9,1.9l-0.8-1.9l1.2-1.6l-1.6-2.3l-2.2-1.8l-2.9-2.1l-1,0.1l-2.8-2.5L166.8,185z"/></a>
		<path id="BS" class="st0" d="M111,28.5l-0.7,0.1l-0.7-1.8l-1.1-0.9l0.6-2l0.8,0.1l1,2.5V28.5z M110.2,19.8l-3.1,0.5l-0.2-1.1
			l1.3-0.2l1.8,0.1L110.2,19.8z M112.5,19.8L112,22l-0.5-0.4V20l-1.3-1.2v-0.4L112.5,19.8z"/>
		<path id="BZ" class="st0" d="M78.4,46.2v-0.4l0.3-0.1l0.5,0.4l1-1.8h0.5v0.4h0.5v0.8l-0.4,1.3l0.2,0.5l-0.3,1l0.2,0.3l-0.3,1.5
			l-0.6,0.8l-0.5,0.1l-0.6,1h-0.8l0.2-3.3L78.4,46.2z"/>
		<path id="CL" class="st0" d="M135.9,270v10.6h3l1.7,0.1l-0.9,2l-2.4,1.5l-1.4-0.2l-1.7-0.4l-2-1.5l-2.9-0.7l-3.5-2.7l-2.9-2.5
			l-3.9-5.2l2.3,1l3.9,3.1l3.7,1.7l1.5-2.2l0.9-3.2l2.6-1.9L135.9,270z M137.1,158l1.1,4.2l2-0.4l0.3,0.8l-1,3.2l-3,1.5l0.1,5.1
			l-0.6,1l0.8,1.2l-2,2l-1.8,3l-1,2.9l0.3,3.1l-1.7,3.3l1.3,5.7l0.7,0.6v3.1l-1.6,3.3l0.1,2.9l-2.1,2.3v3.2l0.9,3.5l-1.7,1.3
			l-0.8,3.2l-0.7,3.8l0.5,4.5L126,227l0.6,4.4l1.3,1.5l-0.9,1.6l1.3,0.8l0.3,1.5l-1.2,0.8l0.3,2.3l-1,5.3l-1.5,3.5l0.3,2.1l-0.9,2.7
			l-2.1,1.9l0.2,4.6l1,1.6l1.9-0.3l0,3.3l1.2,2.6l6.8,0.6l2.6,0.7h-2.5l-1.4,1.1l-2.5,1.7l-0.5,4.4l-1.2,0.1l-3.2-1.5l-3.2-3.2l0,0
			l-3.5-2.6l-0.9-2.9l0.8-2.6l-1.4-2.9l-0.4-7.3l1.2-4l3-3.2l-4.3-1.2l2.7-3.6l1-6.6l3.1,1.4l1.5-8l-1.9-1l-0.9,4.8l-1.8-0.5
			l0.9-5.4l1-6.8l1.3-2.5l-0.8-3.5l-0.2-4l1.2-0.1l1.7-5.6l1.9-5.4l1.2-5l-0.6-4.9l0.8-2.7l-0.3-4l1.6-3.9l0.5-6l0.9-6.4l0.9-6.8
			l-0.2-4.9l-0.6-4.2l1.4-0.8l0.8-1.5l1.4,2l0.4,2.1l1.5,1.2l-0.9,2.9L137.1,158z"/>
		<path id="CO" class="st0" d="M117,97.1l-1.2-0.7l-1.4-0.9l-0.8,0.4l-2.4-0.4l-0.7-1.2h-0.5l-2.8-1.6l-0.4-0.9l1-0.2l-0.1-1.4
			l0.7-1l1.4-0.2l1.2-1.8l1.1-1.5l-1-0.7l0.5-1.6L111,81l0.6-0.7l-0.4-2.4l-1.1-1.5l0.4-1.4l0.9,0.2l0.5-0.8l-0.6-1.7l0.3-0.4
			l1.5,0.1l2.1-2l1.1-0.3v-0.9l0.5-2.4l1.6-1.3l1.8,0l0.2-0.6l2.2,0.2l2.2-1.4l1.1-0.6l1.4-1.4l1,0.2l0.7,0.8l-0.5,1l-1.8,0.5
			l-0.7,1.4l-1.1,0.8l-0.8,1l-0.3,2l-0.8,1.6l1.5,0.2l0.4,1.3l0.6,0.6l0.2,1.1l-0.3,1l0.1,0.6l0.7,0.2l0.7,1l3.6-0.3l1.6,0.4l2,2.4
			l1.1-0.3l2,0.1l1.6-0.3l1,0.5l-0.5,1.5l-0.6,0.9l-0.2,2l0.6,1.9l0.8,0.8l0.1,0.6l-1.4,1.4l1,0.6l0.8,1l0.9,2.8l-0.5,0.3l-0.5-1.6
			l-0.8-0.9l-0.9,1l-5.5-0.1v1.7l1.6,0.3l-0.1,1.1l-0.6-0.3l-1.6,0.5v2l1.2,1l0.4,1.6l-0.1,1.2l-1.3,7.6l-1.4-1.5l-0.8-0.1l1.8-2.8
			l-2.1-1.3l-1.7,0.2l-1-0.5l-1.5,0.7l-2.1-0.4l-1.7-2.9l-1.3-0.7l-0.9-1.3l-1.9-1.3L117,97.1z"/>
		<path id="CR" class="st0" d="M95.7,73.7L94.2,73l-0.6-0.6L94,72l-0.1-0.6l-0.8-0.7L92,70.1l-1-0.4l-0.2-0.8l-0.7-0.5l0.2,0.8
			l-0.6,0.7l-0.6-0.8l-0.9-0.3l-0.4-0.6v-0.9l0.4-0.9l-0.8-0.4l0.6-0.5l0.4-0.4l1.9,0.8l0.6-0.4l0.9,0.2l0.5,0.6l0.8,0.2l0.7-0.6
			l0.7,1.5l1.1,1.1l1.3,1.2l-1.1,0.2v1.1l0.6,0.4L95.9,72l0.1,0.5l-0.2,0.6L95.7,73.7z"/>
		<path id="CU" class="st0" d="M97.7,30.2l2.4,0.2h2.2l2.6,1l1.1,1.1l2.6-0.3l1,0.7l2.4,1.9l1.7,1.4h0.9l1.7,0.6l-0.2,0.8l2.1,0.1
			l2.1,1.2l-0.3,0.7l-1.9,0.4l-1.9,0.1l-1.9-0.2l-4,0.3l1.9-1.7l-1.1-0.8l-1.8-0.2l-1-0.9l-0.7-1.7l-1.6,0.1l-2.6-0.8l-0.8-0.6
			L99,33.2l-1-0.6l1.1-0.8l-2.8-0.1l-2,1.6h-1.2L92.7,34l-1.4,0.3l-1.2-0.3l1.5-0.9l0.6-1.1l1.3-0.7l1.4-0.6l2.1-0.3L97.7,30.2z"/>
		<path id="DO" class="st0" d="M127.3,40.6l0.4-0.5h2.2l1.7,0.8l0.7-0.1l0.5,1l1.5-0.1l-0.1,0.9l1.2,0.1l1.4,1.1l-1,1.2l-1.3-0.6
			l-1.3,0.1l-0.9-0.1l-0.5,0.5l-1.1,0.2l-0.4-0.7l-0.9,0.4l-1.1,2l-0.7-0.5l-0.1-0.8l0.1-0.8l-0.7-0.9l0.7-0.5l0.2-1.1L127.3,40.6z"
			/>
		<path id="EC" class="st0" d="M103.2,106.1l1.5-2.1l-0.6-1.2l-1.1,1.3l-1.7-1.2l0.6-0.8l-0.5-2.5l1-0.4l0.5-1.7l1.1-1.8l-0.2-1.1
			l1.5-0.6l1.9-1.1l2.8,1.6h0.5l0.7,1.2l2.4,0.4l0.8-0.4l1.4,0.9l1.2,0.7l0.4,2.1l-0.9,1.8l-3.1,2.9l-3.4,1.1l-1.7,2.4l-0.5,1.9
			l-1.6,1.1l-1.2-1.4l-1.1-0.3l-1.2,0.2l-0.1-1l0.8-0.7L103.2,106.1z"/>
		<path id="FK" class="st0" d="M156.8,266.4l3.4-2.7l2.4,1.1l1.7-1.8l2.2,2l-0.8,1.6l-3.7,1.4l-1.3-1.6l-2.4,2L156.8,266.4z"/>
		<path id="GF" class="st0" d="M181,89.7l-1.1,1.1l-1.3,0.2l-0.4-0.8l-0.6-0.1l-0.9,0.8l-1.2-0.6l0.7-1.2l0.2-1.3l0.5-1.2l-1-1.6
			l-0.2-1.9l1.5-2.4l1,0.3l2.1,0.7l3,2.4l0.5,1.1l-1.8,2.5L181,89.7z"/>
		<path id="GT" class="st0" d="M75.8,58l-1.4-0.5l-1.8,0l-1.3-0.6l-1.5-1.2l0.1-0.8l0.3-0.7l-0.4-0.5l1.4-2.4h3.6l0.1-1l-0.4-0.2
			L74,49.5l-1-0.7l-1-1h1.3v-1.6h2.6h2.6v2.3l-0.2,3.3h0.8l0.9,0.5l0.2-0.4l0.8,0.4l-1.3,1.1l-1.3,0.8l-0.2,0.5l0.2,0.6L77.9,56
			l-0.7,0.2l0.1,0.3l-0.5,0.3l-1,0.7L75.8,58z"/>
		<path id="GY" class="st0" d="M160.9,73.3l1.8,1l1.7,1.8l0.1,1.5l1.1,0.1l1.5,1.4l1.1,1l-0.5,2.5l-1.7,0.7l0.1,0.7l-0.5,1.4l1.2,2
			h0.9l0.4,1.6l1.7,2.4l-0.7,0.1l-1.5-0.2l-0.9,0.7l-1.3,0.5l-0.9,0.1l-0.3,0.5l-1.4-0.1l-1.7-1.3l-0.2-1.3l-0.7-1.4l0.5-2.4l0.8-1
			l-0.6-1.3l-1-0.4l0.4-1.2l-0.6-0.6l-1.5,0.1l-1.9-2.1l0.8-0.8l-0.1-1.3l1.7-0.5l0.7-0.5l-1-1l0.2-1L160.9,73.3z"/>
		<path id="HT" class="st0" d="M123.2,40l1.7,0.1l2.4,0.5l0.2,1.6l-0.2,1.1l-0.7,0.5l0.7,0.9l-0.1,0.8l-1.9-0.5l-1.3,0.2l-1.7-0.2
			l-1.3,0.5l-1.5-0.9l0.2-1l2.6,0.4l2.1,0.2l1-0.6l-1.3-1.3v-1.1l-1.8-0.5L123.2,40z"/>
		<path id="JM" class="st0" d="M110.9,44.2l1.9,0.3l1.5,0.7l0.5,0.8l-2,0l-0.9,0.5l-1.6-0.5l-1.6-1.1l0.3-0.7l1.2-0.2L110.9,44.2z"
			/>
		<path id="MX" class="st0" d="M56,22l-1.1,2.7l-0.5,2.2L54.2,31l-0.3,1.5l0.5,1.6l0.9,1.5l0.6,2.3l1.9,2.2l0.7,1.7l1.1,1.5l3,0.8
			l1.2,1.2l2.5-0.8l2.1-0.3l2.1-0.5l1.8-0.5l1.8-1.2l0.7-1.7l0.2-2.5l0.5-0.9l1.9-0.8l3-0.7l2.5,0.1l1.7-0.2l0.7,0.6l-0.1,1.4
			L83.4,39l-0.7,1.8l0.5,0.5l-0.4,1.3l-0.7,2.3l-0.7-0.8h-0.6h-0.5l-1,1.8l-0.5-0.4l-0.3,0.1v0.4h-2.6h-2.6v1.6h-1.3l1,1l1,0.7
			l0.3,0.6l0.4,0.2l-0.1,1H71l-1.4,2.4l0.4,0.5l-0.3,0.7l-0.1,0.8l-3.2-3.1l-1.4-0.9l-2.2-0.7l-1.6,0.2L59,52.2l-1.4,0.3l-2-0.8
			l-2.1-0.5l-2.6-1.3l-2.1-0.4l-3.2-1.4l-2.4-1.4l-0.7-0.8L41,45.7l-2.9-0.9L37,43.5l-3-1.7l-1.4-1.9l-0.7-1.5l0.9-0.3l-0.3-0.9
			l0.6-0.8v-1l-0.9-1.4L32,33L31,31.5l-2.5-3L25.8,26l-1.4-1.9L22,22.8l-0.5-0.8l0.4-1.9l-1.4-0.7L18.9,18l-0.7-2.2l-1.5-0.3
			L15,13.8l-1.3-1.5l-0.1-1l-1.5-2.4l-1-2.5V5.1l-2-1.3L8.1,4L6.5,3.1L6.1,4.4L6.6,6l0.3,2.4l1,1.3l2.1,2.2l0.5,0.8l0.4,0.2l0.4,1.1
			h0.5l0.6,2l0.9,0.8l0.6,1.1l1.8,1.6l0.9,2.9l0.8,1.4l0.8,1.4l0.1,1.6l1.4,0.1l1.1,1.4l1,1.4l-0.1,0.5l-1.2,1.1h-0.5l-0.7-1.8
			l-1.8-1.7l-2-1.5l-1.4-0.8l0.1-2.2l-0.4-1.7l-1.3-1l-1.9-1.4l-0.4,0.4l-0.7-0.8L7.4,18l-1.6-1.8L6,15.9l1.1,0.2l1-1.2l0.1-1.4
			l-2.2-2.3l-1.6-0.9l-1-2l-1-2.1L1.1,3.6L0,0.6l3.2-0.2L6.8,0L6.5,0.6l4.2,1.6l6.4,2.3h5.6h2.2V3.2h4.9l1,1.2l1.4,1l1.7,1.4
			l0.9,1.7l0.7,1.8l1.4,1l2.3,1L41,9.7l2.3-0.1l2,1.3l1.4,2.2l1,1.9l1.6,1.8L50,19l0.8,1.5l2.2,1l2,0.7L56,22z"/>
		<path id="NI" class="st0" d="M88,65.6l-1-0.9l-1.3-1.1l-0.6-1l-1.2-0.9l-1.4-1.3l0.3-0.4l0.5,0.4l0.2-0.2l0.9-0.1l0.4-0.6h0.4
			l-0.1-1.4l0.7-0.1h0.6l0.6-0.8l0.8,0.6l0.3-0.4l0.5-0.3l1-0.8v-0.6h0.3l0.4-0.7l0.3-0.1l0.5,0.4l0.6,0.1l0.6-0.4h0.7l1-0.4
			l0.4-0.4l1,0.1L95,54.6l-0.1,0.6l0.3,1l-0.6,1l-0.3,1.1l-0.1,1.3l0.1,0.7l0.1,1.3L93.9,62l-0.3,1.2l0.2,0.8l-0.6,0.7l0.1,0.8
			l0.4,0.5l-0.7,0.6l-0.8-0.2l-0.5-0.6L91,65.6l-0.6,0.4l-1.9-0.8L88,65.6z"/>
		<path id="PA" class="st0" d="M110,76.5l-0.9-0.8l-0.6-1.5l0.7-0.8l-0.7-0.2l-0.5-0.9l-1.4-0.8l-1.2,0.2l-0.6,1l-1.1,0.7l-0.6,0.1
			l-0.3,0.6l1.3,1.5l-0.8,0.4l-0.4,0.4l-1.3,0.1l-0.5-1.7l-0.4,0.5l-0.9-0.2L99.2,74l-1.1-0.2l-0.7-0.3h-1.2l-0.1,0.6l-0.3-0.4
			l0.1-0.6l0.2-0.6L96,72.1l0.4-0.3l-0.6-0.4v-1.1l1.1-0.2l1,1l-0.1,0.6l1.1,0.1l0.3-0.2l0.8,0.7l1.4-0.2l1.2-0.7l1.7-0.6l1-0.8
			l1.6,0.2l-0.1,0.3l1.6,0.1l1.2,0.5l0.9,0.9l1,0.8l-0.3,0.4l0.6,1.7l-0.5,0.8l-0.9-0.2L110,76.5z"/>
		<path id="PE" class="st0" d="M133.2,146.4l-0.8,1.5l-1.4,0.8l-2.8-1.7l-0.2-1.2l-5.6-2.9l-5-3.2l-2.2-1.8l-1.2-2.4l0.5-0.8
			l-2.4-3.8l-2.8-5.2l-2.6-5.6l-1.1-1.3l-0.9-2.1l-2.2-1.8l-2-1.1l0.9-1.2l-1.4-2.7l0.9-2l2.2-1.8l0.3,1.2l-0.8,0.7l0.1,1l1.2-0.2
			l1.1,0.3l1.2,1.4l1.6-1.1l0.5-1.9l1.7-2.4l3.4-1.1l3.1-2.9l0.9-1.8l-0.4-2.1l0.8-0.3l1.9,1.3l0.9,1.3l1.3,0.7l1.6,2.9l2.1,0.4
			l1.5-0.7l1,0.5l1.7-0.2l2.1,1.3l-1.8,2.8l0.8,0.1l1.4,1.5l-2.5-0.1l-0.4,0.4l-2.3,0.5l-3.2,1.9l-0.2,1.3l-0.7,1l0.3,1.5l-1.7,0.8
			v1.2l-0.7,0.5l1.2,2.5l1.6,1.7l-0.6,1.2l1.9,0.2l1.1,1.5l2.5,0.1l2.3-1.7l-0.2,4.3l1.3,0.3l1.6-0.5l2.4,4.6l-0.6,1l-0.1,2l0,2.4
			l-1.1,1.4l0.5,1.1l-0.6,1l1.2,2.4L133.2,146.4z"/>
		<path id="PR" class="st0" d="M142.5,44.2l1.4,0.3l0.5,0.6l-0.7,0.7h-2.1l-1.6,0.1l-0.2-1.3l0.4-0.4L142.5,44.2z"/>
		<path id="PY" class="st0" d="M152.6,160.2l1.1-3.6l0.1-1.6l1.4-2.6l4.9-0.9h2.6l2.6,1.5v0.9l0.8,1.7l-0.2,4.1l3,0.6l1.1-0.6
			l1.9,0.8l0.5,0.9l0.3,2.8l0.3,1.2l1,0.1l1-0.5l1,0.5v1.7l-0.4,1.8l-0.5,1.8l-0.5,2.7l-2.5,2.4l-2.2,0.5l-3.1-0.5l-2.8-0.8l2.8-4.7
			l-0.4-1.4l-2.9-1.2l-3.4-2.3l-2.3-0.5L152.6,160.2z"/>
		<path id="SR" class="st0" d="M168.1,80l3.4,0.6l0.3-0.5l2.3-0.2l3,0.8l-1.5,2.4l0.2,1.9l1.1,1.6l-0.5,1.2l-0.2,1.3l-0.7,1.2
			l-1.6-0.6l-1.3,0.3l-1.1-0.2l-0.3,0.8l0.5,0.5l-0.2,0.6l-1.5-0.2l-1.7-2.4l-0.4-1.6h-0.9l-1.2-2l0.5-1.4l-0.1-0.7l1.7-0.7
			L168.1,80z"/>
		<path id="TT" class="st0" d="M155.4,66.5l1.6-0.4l0.6,0.1l-0.1,2.1l-2.3,0.3l-0.5-0.3l0.8-0.8L155.4,66.5z"/>
		<path id="UY" class="st0" d="M166.8,185l1.8-0.3l2.8,2.5l1-0.1l2.9,2.1l2.2,1.8l1.6,2.2l-1.2,1.6l0.8,1.9l-1.2,2.1l-3.2,1.9
			l-2.1-0.7l-1.5,0.4l-2.6-1.4l-1.9,0.1l-1.7-1.9l0.2-2.2l0.6-0.7v-3.3l0.8-3.4L166.8,185z"/>
		<path id="VE" class="st0" d="M128.4,63.6l-0.1,0.7l-1.6,0.3l0.9,1.3v1.5l-1.3,1.6l1.1,2.2l1.2-0.2l0.6-2l-0.9-1l-0.1-2.1l3.5-1.1
			l-0.4-1.3l1-0.9l1,2h2l1.8,1.6l0.1,0.9h2.5l3-0.3l1.6,1.3l2.1,0.4l1.6-0.9v-0.7l3.5-0.2h3.4l-2.4,0.8l1,1.3l2.2,0.2l2.1,1.4
			l0.5,2.3l1.5-0.1l1.1,0.7l-2.2,1.6l-0.2,1l1,1l-0.7,0.5l-1.7,0.5l0.1,1.3l-0.8,0.8l1.9,2.1l0.4,0.8l-1,1.1l-3.1,1l-2,0.4l-0.8,0.7
			l-2.2-0.7l-2.1-0.4l-0.5,0.3l1.3,0.7l-0.1,1.9l0.4,1.8l2.4,0.2l0.1,0.6l-2,0.8l-0.3,1.2l-1.1,0.5l-2.1,0.6l-0.5,0.9l-2.2,0.2
			l-1.7-1.4l-0.9-2.8l-0.8-1l-1-0.6l1.4-1.4l-0.1-0.6l-0.8-0.8l-0.6-1.9l0.2-2l0.6-0.9l0.5-1.5l-1-0.5l-1.6,0.3l-2-0.1l-1.1,0.3
			l-2-2.4l-1.6-0.4l-3.6,0.3l-0.7-1l-0.7-0.2l-0.1-0.6l0.3-1l-0.2-1.1l-0.6-0.6l-0.4-1.3l-1.4-0.2l0.8-1.6l0.3-2l0.8-1l1.1-0.8
			l0.7-1.4L128.4,63.6z"/>
	</g>
</g>
</svg>
