<?xml version="1.0" encoding="utf-8"?>
<!-- Generator: Adobe Illustrator 22.1.0, SVG Export Plug-In . SVG Version: 6.00 Build 0)  -->
<svg version="1.1" id="map__indian-ocean" xmlns="http://www.w3.org/2000/svg" xmlns:xlink="http://www.w3.org/1999/xlink" x="0px"
	 y="0px" viewBox="0 0 296.9 202.4" style="enable-background:new 0 0 296.9 202.4;" xml:space="preserve">
<style type="text/css">
	.st0{fill:#C6C4C4;}
	.st1{fill:none;}
</style>
<path id="BN" class="st0" d="M254.6,81.9l1.1-1l2.4-1.5l-0.1,1.4l-0.2,1.8l-1.3-0.1l-0.6,1L254.6,81.9z"/>
<path id="PH" class="st0" d="M288.8,71.1l0.3,1.8l0.2,1.6l-1,2.6l-1-2.8l-1.3,1.4l0.9,2.1L286,79l-3.3-1.6l-0.8-2l0.9-1.3l-1.8-1.3
	l-0.9,1.2l-1.3-0.1l-2.1,1.6l-0.5-0.8l1.1-2.4l1.8-0.8l1.5-1.1l1,1.3l2.1-0.8l0.5-1.3l2-0.1l-0.2-2.2l2.3,1.3l0.2,1.4L288.8,71.1z
	 M282,65.8l-1,0.9l-0.9,1.8l-0.9,0.8l-1.7-2l0.6-0.8l0.7-0.8l0.3-1.8l1.5-0.2l-0.5,1.9l2.1-2.7L282,65.8z M266.7,68.5l-3.8,2.7
	l1.4-2l2-1.7l1.7-2l1.5-2.8L270,65l-1.9,1.6L266.7,68.5z M276.2,61.2l1.7,0.9h1.8v1.2l-1.3,1.2l-1.8,0.8l-0.1-1.3l0.2-1.5
	L276.2,61.2z M286.3,60.5l0.8,3.2L285,63l0.1,1l0.7,1.8l-1.3,0.6l-0.1-2l-0.8-0.2l-0.5-1.8l1.6,0.2v-1.1l-1.7-2.2l2.7,0.1
	L286.3,60.5z M275.2,57.9l-0.7,2.5l-1.2-1.5l-1.4-2.2l2.4,0.1L275.2,57.9z M274.6,42.2l1.7,0.8l0.9-0.8l0.3,0.8l-0.5,1.2l1,2.1
	l-0.7,2.4l-1.6,1l-0.4,2.3l0.6,2.3l1.5,0.3l1.2-0.3l3.5,1.6l-0.3,1.6l0.9,0.7l-0.3,1.3l-2.2-1.4l-1-1.5l-0.7,1l-1.8-1.7l-2.5,0.4
	l-1.4-0.6l0.1-1.2l0.9-0.7l-0.8-0.7l-0.4,1l-1.4-1.7l-0.4-1.3l-0.1-2.8l1.1,1l0.3-4.5l0.9-2.7L274.6,42.2z"/>
<path id="TF" class="st0" d="M90.4,154.2l0.8,0.4l0.2,0.4l0.1,0.4l-0.2,0.3h-0.7l-0.5-0.3l-0.4-0.8L90.4,154.2z"/>
<path id="TL" class="st0" d="M284.8,119.5l0.3-0.7l2.4-0.6l2-0.1l0.9-0.3l1.1,0.3l-1,0.8l-2.9,1.2l-2.4,0.8V120L284.8,119.5z"/>
<path id="ID" class="st0" d="M272.9,123.3h-1.2l-3.7-2l2.6-0.5l1.5,0.8l1,0.9L272.9,123.3z M283.3,123l-2.4,0.6l-0.3-0.3l0.2-1
	l1.2-1.7l2.8-1.1l0.3,0.6v0.8L283.3,123z M265,117.2l1,0.8l1.7-0.2l0.7,1.2l-3.2,0.6l-1.9,0.4h-1.5l1-1.6h1.5L265,117.2z M279,117.2
	l-0.4,1.6l-4.2,0.8l-3.7-0.4v-1l2.2-0.6l1.8,0.8l1.9-0.2L279,117.2z M239,113.5l5.4,0.3l0.6-1.2l5.2,1.3l1,1.8l4.2,0.5l3.4,1.6
	l-3.2,1.1l-3.1-1.1L250,118l-2.9-0.2l-2.6-0.5l-3.2-1.1l-2.1-0.3l-1.2,0.3l-5.1-1.2l-0.5-1.2l-2.6-0.2l1.9-2.7l3.4,0.2l2.3,1.1
	l1.2,0.2L239,113.5z M291.2,104.2l-1,0.9l-1.9-0.5l-0.5-1.2l2.8-0.1L291.2,104.2z M296.6,103.9l-1.6,0.2l-1.9-0.1l0.7-1.5
	 M285.5,90.7l-2.2,2.8l-2.1,0.6l-2.7-0.6l-4.7,0.2l-2.5,0.4l-0.4,2.1l2.5,2.5l1.5-1.3l5.2-0.9l-0.2,1.3l-1.2-0.4l-1.2,1.6l-2.4,1.1
	l2.6,3.6l-0.5,1l2.5,3.2v1.8l-1.5,0.8l-1.1-1l1.4-2.3l-2.8,1.1l-0.7-0.8l0.4-1.1l-2-1.6l0.2-2.7l-1.9,0.8l0.2,3.2l0.1,4l-1.8,0.4
	l-1.2-0.8l0.8-2.6l-0.4-2.7h-1.2l-0.9-1.9l1.2-1.8l0.4-2.2l1.4-4.2l0.6-1.2l2.3-2.1l2.2,0.8l3.5,0.4l3.2-0.1l2.8-2L285.5,90.7z
	 M295.2,91.5l-0.1,2.4l-1.5-0.3l-0.4,1.7l1.2,1.5l-0.8,0.3l-1.1-1.8l-0.8-3.6l0.6-2.2l0.9-1l0.2,1.5l1.7,0.2L295.2,91.5z
	 M264.9,89.5l3.1,2.6l-3.3,0.3l-0.9,1.9l0.1,2.5l-2.7,1.9l-0.1,2.8l-1.1,4.3l-0.4-1l-3.2,1.2l-1.1-1.7l-2-0.2l-1.4-0.9l-3.3,1
	l-1-1.3l-1.8,0.2l-2.3-0.3L243,99l-1.4-0.8l-1.4-2.4l-0.4-2.4l0.3-2.6l1.7-1.9l0.5,1.8l1.9,1.6l1.8-0.6l1.8,0.2l1.6-1.4l1.3-0.2
	l2.6,0.8l2.3-0.6l1.4-3.9l1.1-1l1-3.2h3.2l2.5,0.5l-1.6,2.5l2.1,2.7L264.9,89.5z M231.1,110.9L228,111l-2.4-2.3l-3.6-2.3l-1.2-1.7
	l-2.1-2.3l-1.4-2.1l-2.1-3.9l-2.5-2.3l-0.7-2.4l-1-2.2l-2.5-1.8l-1.5-2.4l-2.1-1.6l-2.9-3.1l-0.2-1.4l1.8,0.1l4.3,0.5l2.5,2.7
	l2.2,1.9l1.4,1.2l2.7,3h2.9l2.4,1.9l1.6,2.3l2.1,1.3l-1.1,2.3l1.6,1l1,0.1l0.5,1.9l1,1.6l2.1,0.2l1.4,1.8l-0.7,3.5L231.1,110.9z"/>
<path id="MY" class="st0" d="M217.8,77.3l0.2,1.4l1.9-0.3l0.9-1.2l0.6,0.3l1.7,1.7l1.2,1.9l0.2,1.9l-0.3,1.3l0.3,1l0.2,1.7l1,0.8
	l1.1,2.5V91l-2,0.2l-2.7-2.1l-3.3-2.2l-0.3-1.4l-1.6-1.9l-0.4-2.3l-1-1.5l0.3-2l-0.7-1.2l0.5-0.5L217.8,77.3z M267,82.1l-2.1,1
	l-2.4-0.5h-3.2l-1,3.2l-1.1,1l-1.4,3.9l-2.3,0.6l-2.6-0.8l-1.3,0.2l-1.5,1.3l-1.8-0.2l-1.8,0.6l-1.9-1.6L242,89l2,1l2.2-0.5l0.6-2.4
	l1.2-0.5l3.4-0.6l2-2.2l1.4-1.8l1.3,1.4l0.6-1l1.3,0.1l0.2-1.8l0.1-1.4l2.2-2l1.4-2.2h1.1l1.4,1.4l0.1,1.2l1.9,0.8l2.3,0.8l-0.2,1.1
	l-1.9,0.1L267,82.1z"/>
<path id="KH" class="st0" d="M224.6,64.8l-1.1-1.5l-1.4-2.9l-0.6-3.5l1.8-2.4l3.6-0.5l2.6,0.4l2.3,1.1l1.3-2l2.5,1.1l0.6,1.9
	l-0.3,3.4l-4.7,2.2l1.2,1.7l-2.9,0.2l-2.5,1.2L224.6,64.8z"/>
<path id="LA" class="st0" d="M229.5,54.4l0.9-1.3l0.1-2.4l-2.3-2.5l-0.2-2.9l-2.1-2.3l-2.1-0.2l-0.6,1l-1.6,0.1l-0.8-0.5l-3,1.8
	l-0.1-2.6l0.7-3.1l-1.9-0.1l-0.2-1.8l-1.2-0.9l0.6-1.1l2.4-1.9l0.2,0.7l1.5,0.1l-0.4-3.4l1.4-0.4l1.6,2.4l1.3,2.7h3.4l1.1,2.6
	l-1.8,0.8l-0.8,1.1l3.4,1.8l2.3,3.5l1.8,2.6l2.1,2l0.7,2l-0.5,2.9l-2.5-1.1l-1.3,2L229.5,54.4z"/>
<path id="AU" class="st0" d="M294,188.6l-3.2,1.1l-2.7-0.2l-3,1.7l-2.4,0.8l-0.5,1.8l-1,1.4l-2.4,0.1l-1.8,0.3l-2.5-0.6l-2,0.4
	l-1.9,0.2l-1.7,1.8l-0.8-0.2l-1.4,1l-1.4,1.1l-2-0.1h-1.9l-3-2.2l-1.5-0.6l0.1-1.9l1.4-0.5l0.6-0.7l-0.1-1.2l0.3-2.3l-0.3-2
	l-1.5-3.3l-0.5-1.9l0.1-1.8l-1.1-2.1l-0.1-0.9l-1.2-1.3l-0.4-2.5l-1.6-2.5l-0.4-1.3l1.2,1.4l-1-2.9l1.4,0.9l0.8,1.2V169l-1.4-2.4
	l-0.3-1l-0.6-0.9l0.3-1.8l0.6-0.8l0.4-1.5l-0.3-1.8l1.2-2.2l0.2,2.3l1.1-2l2.3-1l1.4-1.3l2.1-1.1l1.3-0.2l0.8,0.4l2.2-1.1l1.7-0.3
	l0.4-0.6l0.7-0.3l1.5,0.1l3-0.9l1.5-1.3l0.7-1.6l1.6-1.5l0.1-1.2l0.1-1.6l2-2.5l1.2,2.5l1.2-0.6l-1-1.4l0.9-1.4l1.2,0.6l0.3-2.2
	l1.5-1.4l0.7-1.1l1.4-0.5v-0.8l1.2,0.3v-0.7l1.2-0.4l1.4-0.4l2.1,1.3l1.6,1.7h1.7"/>
<path id="on-desktop-map-indian-ocean" class="st1" d="M83.2,83.2c-2,5.5-5.5,10.3-10,14c-7.1,5.6-13,4.5-16,10
	c-2.7,4.8-2.1,12.7,2,16c6.1,5,16.3-3.3,22,2c2.1,2,2.4,5,3,11c0.8,7.9-0.4,13.1-1,18c-0.9,7.7-0.6,15.4,1,23
	c4.1,17.9,28.6,20.1,45.9,23.7c14.3-0.2,23,1.2,37.9,0.4c13.9-3.6,22.2,0,30.2-8c7.7-7.7,5.1-11.4,16-24c7.2-8.3,10.6-9.4,15-17
	c3.9-6.7,7.9-13.6,6-20c-3.8-12.4-25.6-7.6-35-23c-1.2-1.9-0.2-0.9-5-26c-2.8-14.7-4.3-21.2-10-26c-0.7-0.6-7.4-6.2-12-4
	c-5.7,2.7-5.1,15.6-5,17c0.4,7.1,2.7,9.2,1,12c-2.6,4.4-11.3,4-16,3c-10.9-2.3-16.7-11.5-17-12c-4.2-6.9-1.1-9.5-6-21
	c-2.2-5.3-4.2-9.8-9-13c-1.1-0.8-7.6-5.1-14-3c-2.1,0.7-4.9,2.3-12,16c-3.2,6.2-5.5,11.4-7,15L83.2,83.2z"/>
<path id="IL" class="st0" d="M32.5,0.8l0.7,0.4l-0.7,0.5l-0.1,0.9L33.7,2l0.1,1.3l-1.4,5.2L30.5,3l0.8-1l-0.2-0.2l0.7-1.5"/>
<path id="IQ" class="st0" d="M68.6,1.3l-0.5,2.4H69v1.7l1.6,1.7L68.9,7L67,6.7l-2,3.1l-5.2-0.2L51.9,3l-4.2-2.2l-3.4-0.9"/>
<path id="IR" class="st0" d="M105.1-0.2l0.2,2.1l2.1,0.5l0.2,2.1l-2.5,2.9l1.4,1.7l1.1,1.9l2.7,1.4l0.1,2.8l1.3,0.5l0.2,1.4l-4,1.6
	l-1.1,3.6l-5.3-0.9l-3.1-0.7l-3.2-0.4L94,16.5l-1.4-0.6l-2.2,0.6L87.9,18l-3.4-1l-2.8-2.4L79,13.7l-1.8-3l-2-4.3l-1.5,0.5l-1.9-1.1
	l-1,1.3l-1.6-1.7V3.7h-0.9l0.5-2.4"/>
<path id="KW" class="st0" d="M68.9,6.9l0.6,1.4L69.3,9l0.9,2.4l-2,0.1L67.5,10L65,9.7l2.1-3L68.9,6.9z"/>
<path id="PS" class="st0" d="M34.1,1.1l-0.4,1l-1.3,0.4l0.1-0.9l0.7-0.4l-0.7-0.4"/>
<path id="QA" class="st0" d="M76.9,23.4l-0.2-2.2l0.8-1.6l0.8-0.3l0.8,1V22l-0.6,1.8L77.7,24L76.9,23.4z"/>
<path id="TW" class="st0" d="M275.9,24.5l-1.7,4.9l-1.2,2.5l-1.5-2.5l-0.3-2.3l1.6-3l2.2-2.3l1.3,0.9L275.9,24.5z"/>
<g id="on-desktop-map-arabia">
	<path id="JO" class="st0" d="M44.3-0.2l-0.5,0.5l-5.6,1.6L41,5.2l-0.9,0.6l-0.5,1.1l-2.1,0.5l-0.7,1.2l-1.2,1l-3.1-0.5l-0.1-0.4
		l1.4-5.2l-0.1-1.3l0.4-1"/>
	<path id="AE" class="st0" d="M79.1,24.9l0.5-0.1l0.1,0.8l2.2-0.5l2.3,0.1l1.7,0.1l1.9-2.1l2.1-2l1.8-1.9l0.5,1.1l0.4,2.4h-1.4
		l-0.2,2l0.5,0.4l-1.3,0.6V27l-0.8,1.3l-0.1,1.2l-0.6,0.6l-8.4-1.5l-1.1-3.1L79.1,24.9z"/>
	<path id="OM" class="st0" d="M99.5,34.4l-1,2l-1.3-0.2L96.6,37l-0.4,1.5l0.3,2l-0.3,0.4h-1.3L93.1,42l-0.3,1.4L92.3,44h-1.7
		l-1.1,0.7v1.2l-1.4,0.8l-1.6-0.3l-1.9,1l-1.3,0.2l-0.9-2l-2.2-4.8l8.4-3l1.9-6l-1.3-2.1l0.1-1.2l0.8-1.3V26l1.3-0.6L90.9,25l0.2-2
		h1.4l1.3,2l1.6,1.1l2.1,0.4l1.7,0.5l1.3,1.7l0.8,1l1,0.4v0.7l-1,1.8l-0.4,0.8L99.5,34.4z M92.6,19.9l-0.4,0.6l-0.5-1.1l0.8-1.1
		l0.3,0.3L92.6,19.9z"/>
	<path id="SA" class="st0" d="M54.4,48.4L54,47.2l-0.8-0.9L53,45.2l-1.5-1L50,41.7l-0.8-2.4l-1.9-2L46,36.8l-1.9-2.9l-0.3-2l0.1-2
		l-1.6-3.4L41,25.3l-1.5-0.6L38.6,23l0.2-0.7L38,20.7L37.2,20l-1.1-2.3l-1.7-2.5L33,13.1h-1.4l0.4-1.7l0.1-1.1L32.4,9l3.1,0.5l1.2-1
		l0.7-1.2l2.1-0.4L40,5.8l1-0.6l-2.8-3.3l5.6-1.6l0.5-0.5l3.4,0.9L51.9,3l7.9,6.5l5.3,0.2l2.5,0.3l0.7,1.5l2-0.1l1.1,2.7l1.4,0.7
		l0.5,1.1l1.8,1.3l0.2,1.3l-0.3,1l0.3,1l0.8,0.9l0.4,1l0.4,0.8l0.8,0.6l0.8-0.2l0.5,1.2l0.1,0.7l1.1,3.1l8.4,1.5l0.6-0.6l1.3,2.1
		l-1.9,6l-8.4,3l-8.1,1.1L69.5,43l-2,3.1l-1.3,0.5l-0.7-1l-1.1,0.2l-2.7-0.3l-0.5-0.3H58l-0.8,0.3L56,44.7l-0.7,1.4l0.3,1.2
		L54.4,48.4z"/>
	<path id="YE" class="st0" d="M83.3,47.6l-2,0.8l-0.5,1.3l-0.1,1l-2.8,1.2l-4.5,1.3l-2.5,2l-1.2,0.2l-0.8-0.2l-1.6,1.2L65.5,57
		l-2.3,0.2l-0.7,0.2L61.8,58L61,58.2l-0.4,0.7l-1.4-0.1l-0.9,0.4L56.4,59l-0.7-1.7l0.1-1.6L55.3,55l-0.5-2.1L54,51.7l0.6-0.1
		l-0.3-1.3l0.3-0.6l-0.1-1.3l1.2-0.9l-0.3-1.2l0.7-1.5l1.2,0.8l0.8-0.3l3.2-0.1l0.5,0.3l2.7,0.3l1.1-0.2l0.7,1l1.3-0.5l2-3.1
		l2.6-1.3l8.1-1.1l2.2,4.8L83.3,47.6z"/>
</g>
<g>
	<polygon class="st0" points="74.8,132.7 74.1,130.8 73.4,129.6 71.9,128.6 71,129.9 71,131.6 69.5,133.6 68.3,133.2 68.7,134.4 
		67.9,135.9 65.6,137.7 64,139.3 62.8,139.3 61.8,139.8 60.2,140.4 58.8,140.5 58.4,142.3 57.4,143.9 57.6,146.6 58.1,148.4 
		58.8,149.8 58.6,151.7 57.3,154 57.3,155 56,155.5 55.5,157.7 55.8,159.9 56.8,162.3 57,165 57.8,166.6 60,167.7 61.6,168.5 
		64.1,167.2 66.4,166.5 67.7,162.9 68.8,158.7 70.5,153 71.8,149 72.9,145.6 73.1,143.1 73.9,142.4 74.1,141.2 73.6,139.1 
		74.1,138.2 75.1,139.9 75.6,139 75.9,137.6 75.2,136.2 	"/>
	<path class="st0" d="M77.7,60.9h-1.1l-1.3,1l-1.5,0.3l-1.3,0.4l-0.9,0.1L70,62.8l-1,0.5l-1.4,0.2l-2.5,0.9l-3,0.3l-2.6,0.7h-1.4
		l-1.3-1.2L56.4,63l-0.9-0.5l-1,1.5l-0.6,1l1,1.6l1,1.3l1.1,1l9.1,3.3h2.4l-7.9,8.4l-0.1,0l7.8-8.3h-2.4L56.7,69l-1.1-1l-1-1.3
		l-1-1.6l0.6-1l-0.6-0.5l-0.7,0.2h-1.6v-0.9l-0.2-0.8l1-1.4l1-1.3l-1-0.9l-1.2-1.7l-1.2-0.9l-0.7-1l-2.4-1.2h0.1l2.4,1.2l0.7,1
		l1.2,0.9l1.2,1.7l1,0.9l1.3,0.3l0,0l-1.2-0.2l-1,1.3l-1,1.3l0.2,0.8v0.8h1.6l0.7-0.2l0.6,0.5l1-1.5l-1.2-0.8l1.6-0.7l0.1-1.2
		l-0.6-0.7l0.1-0.1L54,58.1l-0.9-1l-1.6-1.7l-1.6-1.6l-3.8-2.7l-1.5-1.4L43.8,47l-1.6-3.4l-1.4,1.7l-2.1,0.5l-0.9,0.9l-0.3,1.9
		l-1.2,4.2l0.3,1.2l-0.1,0l0,0l-0.3-1.2l1.2-4.2l0.3-1.9l0.9-0.9l2.1-0.5l1.4-1.7l-1.5-1.1l-1.1-0.7l-1-3.5l-0.4-3.1l0.6-0.5
		l-0.9-2.9h-0.2l-0.4-0.5l-3.3-2.7l-0.1-2l0.6-0.5l-2.5-3.4L31,20.9l-1-1.7l-2.1-4.9l-1.7-3.2L25,7.7l0.4-0.4l2,4.6l1.3,1.4l0.9,1
		l0.6-0.5l0.8-1.6l0.6-2.4l0.8-1.3l-2-5.5L29,3.8l-2.2-0.2l-2.2-0.8L24,3.9l-0.8-1.5l-2-0.4l-2.5,0.3l-1.1,0.9l-2.2,1l-1.3-0.5
		l-2.8-1L8.6,1.8H8.3V1.4H4.7L4.3,0.7l0,0.7h-4v194h8v-1.2l0.2,0l2.9-1.3l2.1-1.5l2-2l3.2-3.4l1.5-2.2l0.8-1.7l1.2-1.7l0.5-0.5
		l2-1.7l0.7-1.4l0.3-2.6l0.6-2.1h0.1l0.3-1.7l-0.7-0.2l-0.2-1.3l1.2-1.1l3.3-1.7l2.3-1l1.1-1l0.4-1.3l-0.7-0.5l0.5-1.4l0.1-3
		l-0.5,0.1v-0.9l-0.5-1.8l-1.3-2.3l0.2-2.1l1.1-0.7l2-2.1l1.1-0.5l3.2-3.2l3.2-1.4l2.6-1.1l1.8-1.8l1.1-2l0.8-2l-0.5-1.4l-0.1-4.5
		l-0.3-2.5l0.1-2.8l-0.5-1.3l-2.2,1.6l-3.1,1.1h-1.7l-1,0.8l-2,0.1l-0.7,0.3l-3.4-0.8l-2.1,0.2l-0.2-1.6l0.3,1.5l2.1-0.2l3.4,0.8
		l0.7-0.4l2-0.1l1-0.8h1.7l3.1-1.1l2.2-1.6l-1-0.6l-1.2-2.8l-1-1.8l0.2-1.3l-0.2-0.8l0.8-1.7l-0.1-0.7l-1.8-1l-0.2-1.6l1.3-3.4
		l-4-2.8l-0.2-1.6L30,97.6l-0.5-0.3l-4.3,0.1l4.2-0.4v-3l0.8-1.1l1.4-1.8l1-2l-1.2-3.2l-0.1-0.6l0.3,0.7l1.2,3.2l-1,2L30.4,93
		l-0.8,1.1v3l0.5,0.3l10.2,5.7l0.2,1.6l4,2.8l1.1-0.9l0.5-1.8l0.9-1.1l0.4-2l1-0.2l0.7-1.2l1.9-1l0,0l0.1-0.1l0,0l0,0l0.5-0.6
		l0.7-1.5l3.1-3.4l2.6-2.1l4.1-2.8l2.8-2.3l3.3-3.8l2.4-3.1l2.4-4.1l1.7-3.6l1.3-3.2l0.8-3l0.6-1v-1.5l0.4-1.5L77.7,60.9z M8.7,78
		l2.1,1.1l0.4,0.9l1.8,2.3l1.1,0.3l0,0l-1.3-0.3l-1.6-2.2l0,0l-0.4-0.9L8.7,78L8.7,78z M14.4,178l-1.3,0.6l-1.5,1.2l-1.5,1.9l0,0
		l1.5-2l1.5-1.2L14.4,178l0.7,0.5L14.4,178z M16.7,179.9l-0.5-0.5L16.7,179.9L16.7,179.9z M16.7,129.4l-2-1.1l-0.8-0.5l0-0.1
		l0.7,0.4l2,1.1l0.8-0.5l0,0.3L16.7,129.4z M14.5,121l0.2,0.5v0L14.5,121z M15,82.1L15,82.1l0.2,0L15,82.1z M17.4,102.7l0.9-1.6
		l0.1,0L17.4,102.7L17.4,102.7z M17.6,113l-0.1-0.2l1.5,1.5l0.1,0.2L17.6,113z M22.4,168.6l-0.8,0.2l-0.3,0.9l-0.8,1.2v1l1.7,1.7
		l-0.1,0l-1.7-1.7v-1.1l0.8-1.2l0.3-0.9l0.8-0.2l1.4,0.6l0,0.1L22.4,168.6z M23.5,168.1L23.5,168.1l0.5-3.4l0,0.1L23.5,168.1z
		 M26.1,152.6l-0.4,0.3L25,155l-2.9,3.3l-0.1-0.2l0,0l2.9-3.3l0.7-2.1l0.4-0.3l0.4-1.7l0,0.1L26.1,152.6z M26.5,145.7l-0.5,2l-0.1,2
		l0,0l0.1-2.2l0.5-2V145.7z M32.6,142.1l0.9-2l1.2-0.6l0,0.1l-1.2,0.6l-0.9,2l-1.8-1.8l-0.2-2l0,0l0.2,1.9L32.6,142.1z M26.2,120.3
		l2.8,0.5l0.1,0.2l-2.7-0.5l0,0l-0.8-0.5L26.2,120.3z M27.8,129.6L27.8,129.6l-0.5-2.3L27.8,129.6z M27.5,134.1l-1.5-0.7l0-0.1
		L27.5,134.1l1.6,1.3l0.8-0.3l1.1,0.7l0.2,1.2l0,0l-0.2-1l-1.1-0.7l-0.8,0.3l-1.6-1.4l-8.5,2.4l0-0.1L27.5,134.1z M21.8,88.4
		L21.8,88.4l-0.9-0.3l0,0L21.8,88.4z M21.6,84.3L22,84l0.1,0L21.6,84.3z M21.7,118.5l0.9,0.4l-0.8-0.2l-1.2-0.7l-0.1-0.2L21.7,118.5
		z M20.8,99.4l-1.1-1.6l0.1,0L20.8,99.4L20.8,99.4z M23.8,65.3l-1.4,2L21,67.6l-2.4-1.7l-1.1,0.6l-0.3,0.8l-1.4,0.5l-0.1,0.6h-2.8
		l-0.4-0.6l-2-0.1l-1,0.5L8.7,68l-0.4-0.5v-0.1l0.3,0.4L9.4,68l1-0.5l2,0.1l0.4,0.6h2.8l0.1-0.6l1.4-0.5l0.3-0.8l1.1-0.6l2.4,1.7
		l1.4-0.3l1.4-2l1.5-1.6L25,61.9l0.1,0.1l0.2,1.7L23.8,65.3z M26.9,73L26.9,73l1.3,0.1l0.1,0.1L26.9,73z M29.4,66.8l-0.3-1l-1.5-1.1
		l-0.3-2l0.3-2.1l-1.3-0.2L26.1,61l-1.6,0.2L24.3,61l1.7-0.1l0.4-0.7l1.3,0.2l-0.3,2.1l0.3,2l1.4,1.1l0.3,1V66.8z M42.2,84.6H42
		l0.7-0.1l0,0L42.2,84.6z M44.7,53.7L44,53.1L44.7,53.7L44.7,53.7z M45.4,85l-0.2,0l0.8-1l0.1,0L45.4,85z M51.8,83.6l-2.5,3.2l0-0.1
		L51.8,83.6L51.8,83.6l0.6-0.8h0.1L51.8,83.6z M54.4,82.7L54.4,82.7l2.3-1.9l0.1,0L54.4,82.7z"/>
</g>
<g>
	<polygon class="st0" points="243.7,37.5 240.6,38.3 239.2,39.6 239.2,42.1 241.5,43 243.9,41.6 244.5,39.9 245.7,38.6 245.1,37.5 	
		"/>
	<path class="st0" d="M275.2,6.3l-0.7-1.7l1.6-0.8h0.2V3.7V1.4v-1.6H146.7l-1.2-0.3l0,0l-0.2,0l0,0l0,0l-4,0.3H0.3v4h107.2l0.1,0.8
		l-2.5,2.9l1.4,1.7l1.1,1.9l2.7,1.4l0.1,2.8l1.3,0.5l0.2,1.4l-4,1.6l-1.1,3.6l4-0.4l4.6-0.1l5.2-0.6l2.2,2.3l0.8,2.2l2,0.8l1.9-2
		h6.2l0,0.1h-6.2l-1.9,2l3.3,2.6l0.8,1.2l-1.4,1.1l3.7,3.7l2,0.4l4.1-1.8l0.5,2.8V40l0.8,3.8l1.2,5.7l2.6,4l0.5,1.8l0.7,3.6l1.5,2.7
		l1,1.3l1.1,2.9l1.3,4l2.7,2.6l1.1-0.8l0.9-1.9l2.6-0.8l-0.9-0.9l1.2-2.2l1.4-0.2v-4.8l1.2-2.7l-0.1-2.4l-0.6-3.8l0.8-2.2l1.3-0.2
		l2.5-1l1.4-0.7v-1.3l2.8-1.9l2.1-1.8l3.1-3.5l4-2l1.5-1.8l-0.2-2.2l3.5-0.6h1.9l0.4-1.1l-0.4-2.5l-1-2.3l0.4-1.8l-1.7-0.8L182,23
		l-0.6,0.9l1.7,0.8l-0.5,1.8l1,2.3l0.4,2.5l1.1,0.3l0.8,0.3l0.4-0.5l1.2,0.6l0.9-1.7l-0.3-1.2l2.6,0.1l1.2,1.8l0.5,1.5l0.2,1.5
		l0.8,1.6l-0.2-2.4l0.2,0.1l0.2,2.2l2,2.4l1.6,0.4l-0.3,1.1l2.2,3.4l0.6,2.8l-1,3.6l1.7,0.7l1.6,0.3l3.2-2.1l1.9-1.4l1.2,2.4
		l0.5,3.7l0.9,3.4l1.1,1.5l-0.2,3.1l0.9,1.7l-0.9,2.2l0.3,1.8l-0.3,0.5l-0.8,2.7l-0.3,1.8l0.5,1.6l0.5-1.7l1.4,1.3l1.5,1.5l0.5,1.4
		l1.1,1l0.5-0.5l2.3,1.3l0.2,1.4l1.9-0.3l0.9-1.2l-1.4-1.5l-1.7-0.3l-1.6-1.6l-0.5-2.4l-1.1-2.6l-1.8-0.1l-0.2-2l0.9-2.5l1.5-4.2
		l0.2-3.2h2.5l-0.4,2.2h2.4l2.5,1.3l-0.9-3.3l1.8-2.4l3.6-0.5l2.7,0.3l0.9-1.3l0.1-2.4l-2.3-2.5l-0.2-2.9l-2.1-2.4l-2.1-0.2l-0.6,1
		l-1.6,0.1l-0.8-0.5l-3,1.8l-0.1-2.6l0.7-3.1l-1.9-0.2l-0.2-1.8l-1.2-0.9l0.5-0.2l0.6-1.1l2.3-1.8l0.1,0.5l1.5,0.1l-0.4-3.4l1.3-0.4
		l1.5,2.4l1.3,2.7h3.4l1.1,2.6l-1.8,0.8l-0.8,1.1l3.4,1.8l2.3,3.4l1.8,2.6l2.1,2l0.7,2l-0.5,2.9l0.6,1.9l-0.3,3.4l-4.7,2.2l1.3,1.7
		l-2.9,0.2l-2.4,1.1l2.1,1.7l-0.8,1.9l1,1.8l3.5-2.6l2.3-2.4l3.3-1.8l2.3-1.9l0.4-5l-1.2-5.3l-1.7-2.3l-2.6-1.8l-2.6-3.8l-2.1-3.1
		l0.6-2l2.3-2.8l3.7-2.6l-2.1-0.8l2,0.6l1.3-0.5l3.8,1l-0.7,1.2l0.7,2.2l1.6-0.2l1-3.2l3-0.5l3.9-1.5l1.6-1.5l1,1l1.7-1.3l3.2-0.4
		l3.9-2.5l3.9-2.8l2.6-3.7l2.3-4.1l2-3.4l1.6-0.3l0.7-2.5l0.4-2.6L275.2,6.3z M140.5,7.1l-1.8,3.2l-2.9,3.3l-3.3-0.2l-3,3.2l-0.1,0
		l3.1-3.3l3.3,0.2l2.9-3.3l1.8-3.2l0.9-1.1l0,0.2L140.5,7.1z M152,5.7l-1.2-0.4l-3.2,2.6l-5.8-0.8l0-0.3l5.6,0.9l3.2-2.6l1.2,0.4
		l0.7-0.4l-0.1-1.3h0.2l0.1,1.4L152,5.7z M161.8,6.2L158,4l-0.3-0.2h0.2l0.1,0.1l3.8,2.2L161.8,6.2z M167.9,8.5l-2.8-2.1l-1.9-0.9
		l0,0l2.2,1l2.7,2.1L167.9,8.5z M170.4,10.4L169.6,9l0.2,0.1l0.8,1.4L170.4,10.4z M174.8,12.4l-1.6-1l1.7,1L174.8,12.4z M181.1,13.6
		L181.1,13.6l-1.1-0.2l1.2,0.1L181.1,13.6z M190.5,13.1l0.4,0.3L190.5,13.1L190.5,13.1z M187.8,16.7l2.3,0.2l-0.1,0L187.8,16.7
		L187.8,16.7z M183.4,12.9l0.2,2.1l-0.3,0.3l0.1,0.6l2.5,1.3l-0.1,0l-2.6-1.2l-0.1-0.6l-0.3-2.3L183.4,12.9z M191.5,28.8l-1.5-1.6
		l0.5-0.9l-0.4,0.8l1.4,1.5L191.5,28.8z M191.8,22.2h-2.6l-2.7-0.4l-0.2-2.1l-1.3-0.1l-2.2-1.4l2.2,1.3l1.3,0.1l0.2,2.1l2.7,0.4
		L191.8,22.2l1.6,0.4l0,0.1L191.8,22.2z M194.4,33.6l-0.2-0.1l0.1-1.9l-1.5-4.7h-0.7l0-0.1h0.8l1.5,4.8l0.1,0L194.4,33.6z
		 M196.2,28.5l-0.6,1l0.3,1.3l-0.1,0.1l-0.3-1.3l0.6-1l0.1-3.1l0.1,0L196.2,28.5z M199.8,22.1l-0.1,1.5l-1.2,2.5l0,0l1.1-2.4
		l0.1-1.5l1.6-2.6l-0.1-1.8l0.1-0.1l0.1,1.8L199.8,22.1z M201.9,10l-2.2-0.7l0.1-0.1L201.9,10L201.9,10z M206.8,16.1l-0.2-1.8
		l0.1-0.1l0.2,1.9L206.8,16.1z M206.8,14.1l0.7-0.5l-0.2-1.2l-3-0.5l0.9-1.3l-1.3-2l0.1,0l1.3,2l-0.9,1.3l3,0.5l1.6-0.2l0,0
		l-1.5,0.2l0.2,1.2L206.8,14.1z M208.2,26.1L208.2,26.1l2.9-0.5l0,0L208.2,26.1z M210.5,51.6l-0.7,0.3l0,0L210.5,51.6L210.5,51.6z
		 M211.7,38.6l-1.7,0.1l0-0.1l1.8-0.1L211.7,38.6z M216.2,33.1l-0.5-0.2L216,33l2.1-0.9l0,0.2L216.2,33.1z M230.9,28.6l-1.2-1l0,0
		L230.9,28.6L230.9,28.6z M233.2,30.9l-0.1-0.1l0.4-1.6l0.2,0L233.2,30.9z"/>
	<polygon class="st0" points="161.2,68.7 159.3,67.1 158,71.7 158.5,75.7 159.8,77.9 162.2,77.3 163.4,76.5 163.8,73.6 162.5,70.7 	
		"/>
</g>
<rect x="294" y="136.2" class="st0" width="2.9" height="52.4"/>
<title>map__indian-ocean</title>
<path id="MRT" class="st0" d="M96.6,151.7l0.4,0.2l0.1,0.6l-0.2,0.7l-0.6,0.1l-0.4-0.1v-0.6l0.4-0.4L96.6,151.7z"/>
<a id="MLD">
	<path class="st0" d="M143.3,92.6c0,3-3.8,5.5-3.8,5.5s-3.8-2.6-3.8-5.5c0.1-2.1,1.9-3.7,4-3.6C141.6,89.1,143.2,90.7,143.3,92.6z"
		/>
	<circle class="st0" cx="139.5" cy="92.6" r="1.3"/>
</a>
<a id="MRT-p">
	<path class="st0" d="M100.3,146.9c0,3-3.8,5.5-3.8,5.5s-3.8-2.6-3.8-5.5c0-2.1,1.7-3.8,3.8-3.8C98.6,143,100.3,144.7,100.3,146.9z"
		/>
	<circle class="st0" cx="96.5" cy="146.9" r="1.3"/>
</a>
<a id="SCH">
	<path class="st0" d="M99.1,99.4c0,3-3.8,5.5-3.8,5.5s-3.8-2.6-3.8-5.5c-0.1-2.1,1.5-3.9,3.6-4s3.9,1.5,4,3.6
		C99.1,99.2,99.1,99.3,99.1,99.4z"/>
	<circle class="st0" cx="95.2" cy="99.4" r="1.3"/>
</a>
</svg>
