<?xml version="1.0" encoding="utf-8"?>
<!-- Generator: Adobe Illustrator 21.1.0, SVG Export Plug-In . SVG Version: 6.00 Build 0)  -->
<svg version="1.1" id="map__africa" xmlns="http://www.w3.org/2000/svg" xmlns:xlink="http://www.w3.org/1999/xlink" x="0px"
	 y="0px" viewBox="0 0 192.8 216" style="enable-background:new 0 0 192.8 216;" xml:space="preserve">
<style type="text/css">
	.st0{fill:#c6c4c4;}
</style>
<g>
	<g id="on-desktop-map-africa">
		<path id="AO" class="st0" d="M95.2,128.8l0.7,2.1l0.8,1.7l0.7,0.9l1.1,1.5l1.8-0.2l0.9-0.4l1.5,0.4l0.4-0.7l0.7-1.6l1.7-0.1
			l0.2-0.5h1.4l-0.2,1h3.4l0,1.8l0.6,1.1l-0.4,1.7l0.2,1.7l0.9,1l-0.2,3.4l0.7-0.3l1.2,0.1l1.7-0.4l1.3,0.2l0.3,0.9l-0.3,1.4
			l0.5,1.3l-0.4,1.1l0.2,1h-5.8l-0.1,9.2l1.9,2.4l1.8,1.8l-5.2,1.2l-6.8-0.4l-1.9-1.4l-11.4,0.1l-0.4,0.2l-1.7-1.3l-1.8-0.1
			l-1.7,0.5l-1.4,0.6l-0.3-1.8l0.4-2.5l1-2.6l0.1-1.2l0.9-2.6l0.7-1.2l1.6-1.9l0.9-1.3l0.3-2.1l-0.2-1.6l-0.8-1l-0.8-1.7l-0.7-1.7
			l0.1-0.6l0.9-1.1l-0.9-2.7l-0.6-1.9l-1.4-1.8l0.3-0.5l1.2-0.4l0.8,0l1-0.3L95.2,128.8z M84.3,128.2l-0.7,0.3l-0.8-2.1l1.1-1.2
			l0.9-0.5l1,1l-1,0.6l-0.5,0.7L84.3,128.2z"/>
		<path id="BF" class="st0" d="M41.5,85.4l-1.9-0.7l-1.3,0.1l-1,0.7L36,84.9L35.5,84l-1.3-0.6l-0.2-1.6l0.8-1.2l-0.1-1l2.2-2.4
			l0.4-2l0.8-0.7l1.4,0.4l1.2-0.6l0.4-0.7l2.2-1.3l0.5-0.9l2.6-1.2l1.5-0.4l0.7,0.5h1.8l-0.2,1.4l0.4,1.3l1.6,1.9l0.1,1.4l3.2,0.6
			l-0.1,2l-0.6,0.9L53.5,80l-0.6,1.3l-1,0.3l-2.5-0.1l-1.3-0.2l-0.9,0.5L46,81.5l-4.9,0.1l-0.1,1.6L41.5,85.4z"/>
		<path id="BI" class="st0" d="M131.7,125l-0.2-3.4l-0.7-1.3l1.7,0.2l0.9-1.6l1.5,0.2l0.2,1.1l0.6,0.6v0.9l-0.7,0.6l-1,1.4l-1,1
			L131.7,125z"/>
		<path id="BJ" class="st0" d="M56.9,94.9l-2.3,0.3l-0.7-1.9l0.1-6.5l-0.6-0.6l-0.1-1.4l-1-1l-0.9-0.8l0.4-1.5l1-0.3l0.6-1.2
			l1.4-0.3l0.6-0.9l0.9-0.8h1l2.1,1.6l-0.1,0.9l0.6,1.7l-0.5,1.1l0.3,0.8L58.4,86l-0.9,0.9L57,88.6l0.1,1.8L56.9,94.9z"/>
		<a href="javascript:"><path id="BW" class="enable st0" d="M121.3,165l0.6,0.5l0.9,1.7l3.2,3.3l1.2,0.3v1l0.8,1.9l2.2,0.5l1.8,1.4l-4,2.2l-2.5,2.3l-0.9,2
			l-0.8,1.2l-1.5,0.2l-0.5,1.5l-0.3,1l-1.8,0.7l-2.3-0.2l-1.3-0.9l-1.2-0.4l-1.4,0.7l-0.7,1.5l-1.3,0.9l-1.4,1.4l-2,0.3l-0.6-1.1
			l0.3-1.9l-1.7-3l-0.8-0.5v-8.9l2.8-0.1l0.1-10.6l2.1-0.1l4.3-1l1.1,1.2l1.8-1.2h0.8l1.6-0.7l0.5,0.2L121.3,165z"/></a>
		<path id="CD" class="st0" d="M135.9,102.6l-0.2,3.3l1.1,0.4l-0.9,1l-1.1,0.7l-1.1,1.5l-0.6,1.3l-0.2,2.2l-0.7,1.1v2.1l-0.8,0.8
			l-0.1,1.7l-0.4,0.2l-0.3,1.5l0.7,1.3l0.2,3.4l0.5,2.6L132,129l0.6,1.6l1.6,1.6l1.5,3.5l-1.1-0.3l-3.8,0.5l-0.8,0.3l-0.8,1.8
			l0.6,1.2l-0.5,3.4l-0.3,2.9l0.8,0.5l2,1.1l0.8-0.5l0.2,3.1h-2.2l-1.2-1.6l-1-1.2l-2.2-0.4l-0.6-1.5l-1.7,0.9l-2.2-0.4l-0.9-1.3
			L119,144l-1.3,0.1l-0.2-0.9l-1-0.1l-1.3-0.2l-1.7,0.4l-1.2-0.1l-0.7,0.3l0.2-3.4l-0.9-1l-0.2-1.7l0.4-1.7l-0.6-1.1l0-1.8H107
			l0.2-1h-1.4l-0.2,0.5l-1.7,0.1l-0.7,1.6l-0.4,0.7l-1.5-0.4l-0.9,0.4l-1.8,0.2l-1.1-1.5l-0.7-0.9L96,131l-0.7-2.1l-8.4-0.1l-1,0.3
			l-0.8,0l-1.2,0.4l-0.4-0.9l0.7-0.3l0.1-1.2l0.5-0.7l1-0.6l0.7,0.3l1-1.1h1.5l0.2,0.8l1,0.5l1.7-1.8l1.6-1.4l0.7-0.9l-0.1-2.3
			l1.2-2.7l1.3-1.4l1.8-1.3l0.3-0.9l0.1-1l0.5-1l-0.2-1.6l0.3-2.5l0.5-1.7l0.8-1.5l0.2-1.7l0.2-2l1.1-1.4l1.5-0.9l2.3,1l1.8,1l2,0.3
			l2.1,0.5l0.8-1.7l0.4-0.2l1.3,0.3l3.1-1.4l1.1,0.6l0.9-0.1l0.4-0.7l1-0.2l2.1,0.3l1.8,0.1l0.9-0.3l1.7,2.3l1.3,0.3l0.8-0.5
			l1.3,0.2l1.6-0.6l0.7,1.2L135.9,102.6z"/>
		<path id="CF" class="st0" d="M92.3,91.7l2.3-0.2l0.5-0.7l0.5,0l0.7,0.6l3.5-1.1l1.2-1.1l1.5-1l-0.3-1L103,87l2.7,0.2l2.6-1.3
			l2-3.1l1.4-1.1l1.8-0.5l0.3,1.2l1.6,1.8v1.1l-0.5,1.2l0.2,0.9l1,0.8l2.1,1.2l1.5,1.1v0.9l1.9,1.5l1.2,1.2l0.7,1.7l2.1,1.1l0.5,0.9
			l-0.9,0.3l-1.8-0.1l-2.1-0.3l-1,0.2l-0.4,0.7l-0.9,0.1l-1.1-0.6l-3.1,1.4l-1.3-0.3l-0.4,0.2l-0.8,1.7l-2.1-0.5l-2-0.3l-1.8-1
			l-2.3-1l-1.5,0.9l-1.1,1.4l-0.2,2l-1.8-0.2l-1.9-0.5l-1.7,1.5l-1.5,2.6l-0.3-0.8l-0.1-1.3l-1.3-0.9l-1-1.4l-0.2-1l-1.3-1.5
			l0.2-0.8L90,97.2l0.2-2.2l0.7-0.5L92.3,91.7z"/>
		<a href="javascript:"><path id="CG" class="enable st0" d="M85.9,125.8l-1-1l-0.9,0.5l-1.1,1.2l-2.3-3l2.1-1.5l-1.1-1.8l1-0.7l1.9-0.3l0.2-1.2l1.5,1.3l2.5,0.1
			l0.9-1.3l0.3-1.9l-0.3-2.2l-1.3-1.6l1.2-3.2l-0.7-0.5l-2.1,0.2l-0.8-1.4l0.2-1.2l3.5,0.1l2.3,0.7l2.2,0.7l0.2-1.5l1.5-2.6l1.7-1.5
			l1.9,0.5l1.8,0.2l-0.2,1.7l-0.8,1.5l-0.5,1.7l-0.3,2.5l0.2,1.6l-0.5,1l-0.1,1l-0.3,0.9l-1.8,1.3l-1.3,1.4l-1.2,2.7l0.1,2.3
			l-0.7,0.9l-1.7,1.4l-1.7,1.8l-1-0.5l-0.2-0.8h-1.5l-1,1.1L85.9,125.8z"/></a>
		<path id="CI" class="st0" d="M41.4,98.5h-1.3l-2-0.5h-1.8L33,98.4l-2,0.8l-2.8,1l-0.5-0.1l0.2-2.3l0.3-0.4l-0.1-1.1l-1.2-1.2
			L26.1,95l-0.8-0.8l0.6-1.2l-0.3-1.4l0.1-0.8h0.5l0.2-1.2l-0.2-0.5l0.3-0.4l1-0.3l-0.7-2.3L26,84.9l0.2-1l0.6-0.2l0.4-0.3l0.8,0.4
			h2.2l0.5-0.8l0.5,0.1l0.8-0.3l0.4,1.2l0.6-0.4l1.2-0.4l1.3,0.6l0.5,0.9l1.3,0.6l1-0.7l1.3-0.1l1.9,0.7l0.7,4l-1.1,2.5l-0.7,3.2
			l1.2,2.4L41.4,98.5z"/>
		<path id="CM" class="st0" d="M86.1,106.1l-0.4-0.1l-1.7,0.4l-1.7-0.4l-1.3,0.2l-4.6-0.1l0.4-2.2l-1.1-1.8l-1.3-0.5l-0.6-1.2
			l-0.7-0.4v-0.8l0.7-2l1.3-2.7h0.8l1.7-1.6h1.1l1.6,1.1l1.9-1l0.3-1.2l0.6-1.1l0.4-1.4l1.5-1.2l0.6-2l0.6-0.6l0.4-1.5l0.7-1.8
			l2.4-2.2l0.2-1l0.3-0.5l-1.1-1.1l0.1-0.9l0.8-0.2l1.1,1.8l0.2,1.9l-0.1,1.9l1.5,2.6h-1.6l-0.8,0.2l-1.3-0.3l-0.6,1.3l1.7,1.6
			l1.2,0.5l0.4,1.2l0.9,1.9l-0.4,0.8l-1.4,2.8l-0.7,0.5l-0.2,2.2l0.3,1.2L90,99.3l1.3,1.5l0.2,1l1,1.4l1.3,0.9l0.1,1.3l0.3,0.8
			l-0.2,1.5l-2.2-0.7l-2.3-0.7L86.1,106.1z"/>
		<path id="DJ" class="st0" d="M170.2,76.8l0.7,0.9l-0.1,1.2l-1.6,0.7l1.2,0.8l-1,1.5l-0.6-0.5l-0.7,0.2h-1.6v-0.9l-0.2-0.8l1-1.3
			l1-1.3l1.2,0.2L170.2,76.8z"/>
		<path id="DZ" class="enable st0" d="M83.1,45.1l-9.6,5.8l-8.1,5.9l-4,1.3l-3.1,0.3v-1.9L56.9,56l-1.7-0.9l-0.7-1.4l-9.5-6.5l-9.5-6.6
			L25.1,33l0-0.6v-0.2v-3.8l4.5-2.4l2.8-0.5l2.3-0.9l1.1-1.6l3.3-1.3l0.1-2.4l1.6-0.3l1.3-1.2l3.7-0.5l0.5-1.3l-0.7-0.7l-1-3.5
			l-0.2-2l-1.1-2.2L46,5.7l3-0.6l1.8-1.4l2.7-1.1L58.2,2l4.6-0.3l1.4,0.5l2.6-1.4h3L71,1.7L73,1.5l-0.6,1.8l0.5,3.3l-0.7,2.8
			l-1.7,1.9l0.2,2.5l2.3,2v0.8l1.7,1.3l1.2,5.9l0.9,2.8l0.1,1.5l-0.5,2.6l0.2,1.4l-0.3,1.6l0.2,2l-1.1,1.3l1.7,2.3l0.1,1.3l1,1.7
			l1.3-0.6l2.2,1.4L83.1,45.1z"/>
		<path id="EG" class="st0" d="M147.3,26.3l-0.8,1.3L146,30l-0.8,1.6l-0.7,0.5l-0.9-1l-1.3-1.4l-2-4.6l-0.3,0.3l1.2,3.4l1.7,3.2
			l2.1,4.9l1,1.7l0.9,1.7l2.5,3.4l-0.6,0.5l0.1,2l3.3,2.7l0.5,0.6h-33.2V27.1l-0.8-2.6l0.7-2l-0.5-1.4l1-1.6l3.7,0l2.7,0.9l2.8,1
			l1.3,0.5l2.2-1l1.2-0.9l2.5-0.3l2,0.4l0.8,1.6l0.7-1.1l2.2,0.8l2.2,0.2l1.4-0.8L147.3,26.3z"/>
		<path id="ER" class="st0" d="M168.2,77.2l-1-0.9l-1.2-1.7l-1.2-0.9l-0.7-1l-2.4-1.1h-1.9l-0.7-0.6l-1.6,0.7l-1.7-1.3l-0.9,2.1
			l-3.3-0.6l-0.3-1.1l1.2-4.2l0.3-1.9l0.9-0.9l2.1-0.5l1.4-1.7l1.6,3.4l0.8,2.7l1.5,1.4l3.8,2.7l1.6,1.6l1.5,1.6l0.9,1l1.4,0.9
			l-0.8,0.7L168.2,77.2z"/>
		<a href="javascript:"><path id="ET" class="enable st0" d="M155.7,70.3l1.7,1.3l1.6-0.7l0.7,0.6h1.9l2.4,1.1l0.7,1l1.2,0.9l1.2,1.7l1,0.9l-1,1.3l-1,1.3l0.2,0.8
			v0.9h1.6l0.7-0.2l0.6,0.5l-0.6,1l1,1.6l1,1.4l1.1,1L181,90h2.4l-7.9,8.4l-3.7,0.1l-2.5,2l-1.8,0l-0.8,0.9h-1.9l-1.1-0.9l-2.6,1.2
			l-0.8,1.2l-1.9-0.2l-0.6-0.3l-0.7,0.1h-0.9l-3.5-2.4h-2l-1-0.9v-1.6l-1.5-0.5l-1.7-3l-1.3-0.6l-0.5-1.1l-1.4-1.4l-1.7-0.2l1-1.6
			l1.5-0.1l0.4-0.9v-2.5l0.8-3l1.3-0.8l0.3-1.2l1.2-2.2l1.7-1.4l1.1-2.8l0.5-2.5l3.3,0.6L155.7,70.3z"/></a>
		<path id="GA" class="st0" d="M80.5,123.5l-2.9-2.8l-1.9-2.3l-1.7-2.9l0.1-0.9l0.6-0.9l0.7-2l0.6-2.1l1-0.2h4.1v-3.4l1.3-0.2
			l1.7,0.4l1.7-0.4l0.4,0.1l-0.2,1.2l0.8,1.4l2.1-0.2l0.7,0.5l-1.2,3.2l1.3,1.6l0.3,2.2l-0.3,1.9l-0.9,1.3l-2.5-0.1l-1.5-1.3
			l-0.2,1.2l-1.9,0.3l-1,0.7l1.1,1.8L80.5,123.5z"/>
		<path id="GH" class="st0" d="M52.4,95.9L48,97.5l-1.6,1l-2.5,0.8l-2.5-0.8l0.1-1.1L40.3,95l0.7-3.2l1.2-2.4l-0.7-4l-0.4-2.1
			l0.1-1.6l4.9-0.1l1.2,0.2l0.9-0.5l1.3,0.2l-0.2,0.9l1.2,1.5v2l0.3,2.2l0.7,1l-0.6,2.5l0.2,1.4l0.8,1.8L52.4,95.9z"/>
		<path id="GM" class="st0" d="M2.2,75.4l0.4-1.3l3-0.1l0.6-0.7h0.9l1.1,0.7h0.9l0.9-0.5l0.6,0.8l-1.2,0.6l-1.2,0L7,74.5l-1,0.7H5.5
			l-0.7,0.4L2.2,75.4z"/>
		<path id="GN" class="st0" d="M25.8,90.9L25,90.9L24.4,92h-0.8l-0.5-0.6l0.2-1.1l-1.2-1.7l-0.7,0.3l-0.6,0.1L20,89.1v-1l-0.5-0.7
			l0.1-0.8L19,85.3l-0.8-1H16l-0.6,0.5l-0.8,0.1l-0.5,0.6l-0.3,0.8l-1.5,1.2L11,85.9l-1.1-1.1l-0.7-0.4l-0.7-0.6l-0.3-1.2L7.8,82
			l-0.8-0.5l1.2-1.4l0.9,0l0.7-0.5h0.6l0.4-0.4l-0.2-0.9l0.3-0.3l0-1h1.4l2,0.7l0.6-0.1l0.2-0.3l1.5,0.2l0.4-0.2l0.2,1h0.4l0.7-0.4
			l0.5,0.1l0.8,0.7l1.2,0.2l0.8-0.6l0.9-0.4l0.7-0.4l0.6,0.1l0.6,0.6l0.3,0.8l1.1,1.2l-0.6,0.7l-0.1,0.9l0.6-0.3l0.4,0.3L26,83
			l0.9,0.8L26.3,84L26,85l0.6,1.2l0.7,2.3l-1,0.3l-0.3,0.4l0.2,0.5l-0.2,1.2L25.8,90.9z"/>
		<path id="GQ" class="st0" d="M76,109.6l-0.5-0.4l1-3.1l4.6,0.1v3.4H77L76,109.6z"/>
		<path id="GW" class="st0" d="M7,81.5l-1.5-1.2l-1.2-0.2l-0.6-0.8v-0.4l-0.9-0.6l-0.2-0.6l1.5-0.5l0.9,0.1L5.8,77l5.2,0.1l0,1
			l-0.3,0.3l0.2,0.9l-0.4,0.4H9.8l-0.7,0.5l-0.9,0L7,81.5z"/>
		<a href="javascript:"><path id="KE" class="enable st0" d="M164.4,114.8l1.7,2.3l-2,1.1l-0.7,1.2l-1,0.2l-0.4,2l-0.9,1.1l-0.5,1.9l-1.1,0.9l-4-2.8l-0.2-1.6
			l-10.2-5.7l-0.5-0.3v-3l0.8-1.1l1.4-1.8l1-2l-1.2-3.2l-0.3-1.4l-1.3-1.9l1.7-1.7l1.9-1.8l1.5,0.5v1.6l1,0.9h2l3.5,2.4h0.9l0.7-0.1
			l0.6,0.3l1.9,0.2l0.8-1.2l2.6-1.2l1.1,0.9h1.9l-2.5,3.2L164.4,114.8z"/></a>
		<path id="LR" class="st0" d="M27.8,100.2h-0.7l-2.9-1.3l-2.5-2.1l-2.4-1.5l-1.9-1.8l0.7-0.9l0.1-0.8l1.3-1.5l1.3-1.3l0.6-0.1
			l0.7-0.3l1.2,1.7L23,91.3l0.5,0.6h0.8l0.6-1.1l0.8,0.1l-0.1,0.8l0.3,1.4l-0.6,1.2l0.8,0.8l0.9,0.2l1.2,1.2l0.1,1.1L28,97.9
			L27.8,100.2z"/>
		<path id="LS" class="st0" d="M130.7,196.8l1,1l-0.9,1.6l-0.5,1l-1.6,0.5l-0.5,1l-1,0.3l-2.1-2.5l1.5-2l1.5-1.2l1.3-0.7
			L130.7,196.8z"/>
		<path id="LY" class="st0" d="M91.1,46.9l-2,1.1l-1.6-1.7L83,45.1l-1.2-1.9l-2.2-1.4l-1.3,0.6l-1-1.7l-0.1-1.3L75.5,37l1.1-1.3
			l-0.2-2l0.4-1.7l-0.2-1.4l0.5-2.6l-0.1-1.5L76,23.7l1.4-0.8l0.2-1.4l-0.3-1.4l1.9-1.3l0.9-1l1.4-1l0.2-2.5l3.3,1.2l1.2-0.3
			l2.3,0.5l3.7,1.5l1.3,2.9l2.5,0.6l4,1.4l3,1.6l1.4-0.8l1.3-1.5L105,19l0.9-1.6l2-1.5l1.9-0.5l3.8,0.7l1,1.5h1l0.9,0.6l2.8,0.4
			l0.7,1.1l-1,1.6l0.4,1.4l-0.7,2l0.8,2.6v28.4h-3.2v1.2L105.2,51l-11.2-5.8L91.1,46.9z"/>
		<a href="javascript:"><path id="MA" class="st0" d="M45.5,15.3l-1-3.5l-0.2-2l-1.1-2.2h-1.2l-2.9-0.8l-2.7,0.2l-1.7-1.5h-2.1l-0.9,2.1L30,11.2l-2.1,1.3
			l-2.8,1.5l-1.8,2.2l-0.4,1.7l-1,2.8l0.7,4l-2.3,2.7l-1.4,0.9l-2.2,2.2l-2.6,0.4l-1.4,1.2h0l-1.8,3.2l-1.9,1.2l-1,1.9l-0.1,1.6
			l-0.7,1.8l-0.9,0.5l-1.6,1.9l-1,2.1l0.2,1L2.9,49l-1.1,0.8l-0.1,1.4l-0.1,1.3l0.6-1h11l-0.5-4.3l0.7-1.6l2.6-0.3l-0.1-7.9l9.2,0.2
			v-4.7l0-0.6v-0.2v-3.8l4.5-2.4l2.8-0.5l2.3-0.9l1.1-1.6l3.3-1.3l0.1-2.4l1.6-0.3l1.3-1.2l3.7-0.5l0.5-1.3L45.5,15.3z"/></a>
		<a href="javascript:"><path id="MG" class="enable st0" d="M188.3,147.4l0.7,1.2l0.7,1.9l0.5,3.5l0.7,1.4l-0.3,1.4l-0.5,0.9l-1-1.7l-0.5,0.9l0.5,2.1l-0.2,1.2
			l-0.8,0.7l-0.2,2.5l-1.1,3.4l-1.3,4.1l-1.7,5.7l-1.1,4.2l-1.3,3.5l-2.3,0.7l-2.5,1.3l-1.6-0.8l-2.2-1.1l-0.8-1.6L172,180l-1-2.4
			l-0.3-2.2l0.5-2.2l1.3-0.5v-1l1.3-2.3l0.2-1.9l-0.7-1.4l-0.5-1.8l-0.2-2.7l1-1.6l0.4-1.8l1.4-0.1l1.6-0.6l1-0.5h1.2l1.6-1.6
			l2.3-1.8l0.8-1.5l-0.4-1.2l1.2,0.4l1.5-2l0-1.7l0.9-1.3L188.3,147.4z"/></a>
		<path id="ML" class="st0" d="M15.3,71.2l0.9-0.5l0.5-1.7l0.9-0.1l2,0.8l1.6-0.6l1.1,0.2l0.4-0.6h11.2l0.6-2l-0.5-0.4l-1.4-12.7
			l-1.4-13.1l4.3-0.1l9.5,6.6l9.5,6.5l0.7,1.4L57,56l1.3,0.5v1.9l3.1-0.3v6.7l-1.5,1.9l-0.2,1.8L57.1,69l-3.8,0.2l-1,1l-1.8,0.1
			h-1.8L48,69.8l-1.5,0.4l-2.6,1.2l-0.5,0.9l-2.2,1.3l-0.4,0.7l-1.2,0.6l-1.4-0.4l-0.8,0.7l-0.4,2l-2.2,2.4l0.1,1l-0.8,1.2l0.2,1.6
			l-1.2,0.4l-0.6,0.4L32,83l-0.8,0.3l-0.5-0.1l-0.5,0.8h-2.2l-0.8-0.4l-0.4,0.3l-0.9-0.8l0.1-0.8l-0.4-0.3l-0.6,0.3l0.1-0.9l0.6-0.7
			l-1.1-1.2l-0.3-0.8l-0.6-0.6l-0.6-0.1l-0.7,0.4l-0.9,0.4l-0.8,0.6L19.7,79L19,78.3l-0.5-0.1l-0.7,0.4h-0.4l-0.2-1l0.1-0.9
			l-0.2-1.1l-1-0.8l-0.5-1.6L15.3,71.2z"/>
		<path id="MR" class="st0" d="M15.3,71.2l-1.9-2l-1.7-2.1l-1.8-0.8l-1.3-0.9H7l-1.4,0.6l-1.4-0.2l-1,0.9L3,65.3l0.8-1.4l0.4-2.8
			l-0.3-2.9l-0.3-1.5l0.3-1.5L3,53.8l-1.5-1.3l0.6-1h11l-0.5-4.3l0.7-1.6l2.6-0.3l-0.1-7.9l9.2,0.2v-4.7l10.5,7.5l-4.3,0.1l1.4,13.1
			L34,66.2l0.5,0.4l-0.6,2H22.7l-0.4,0.6l-1.1-0.2l-1.6,0.6l-2-0.8l-0.9,0.1l-0.5,1.7L15.3,71.2z"/>
		<a href="javascript:"><path id="MW" class="enable st0" d="M146.3,144.7l-0.8,2.2l0.8,3.7h1l1,0.9l1.2,2.1l0.2,3.7l-1.2,0.6l-0.9,2l-1.8-1.8l-0.2-2l0.6-1.3
			l-0.2-1.1l-1.1-0.7l-0.8,0.3l-1.6-1.4l-1.5-0.7l0.8-2.7l0.9-1l-0.5-2.4l0.6-2.3l0.5-0.8l-0.7-2.4l-1.3-1.3l2.8,0.5l0.6,0.8l1,1.3
			L146.3,144.7z"/></a>
		<a href="javascript:"><path id="MZ" class="enable st0" d="M146.3,144.7l2.1-0.2l3.4,0.8l0.7-0.4l2-0.1l1-0.9h1.7l3.1-1.1l2.2-1.6l0.5,1.3l-0.1,2.8l0.3,2.5
			l0.1,4.5l0.5,1.4l-0.8,2.1l-1.1,2l-1.8,1.8l-2.6,1.2l-3.2,1.4l-3.2,3.2l-1.1,0.5l-2,2.1l-1.2,0.7l-0.2,2.1l1.3,2.3l0.5,1.8v0.9
			l0.5-0.2l-0.1,3l-0.5,1.4l0.7,0.5l-0.4,1.3l-1.1,1l-2.3,1l-3.4,1.7l-1.2,1.1l0.2,1.3l0.7,0.2l-0.2,1.6h-2.1l-0.2-1.4l-0.4-1.4
			l-0.2-1.1l0.5-3.4l-0.7-2.2l-1.3-4.2l3-3.4l0.7-2.2l0.4-0.3l0.3-1.8l-0.5-0.9l0.1-2.2l0.5-2v-3.7l-1.5-0.9l-1.3-0.2l-0.6-0.7
			l-1.3-0.6l-2.3,0.1l-0.2-1.1l-0.3-2l8.5-2.4l1.6,1.4l0.8-0.3l1.1,0.7l0.2,1.1l-0.6,1.3l0.2,2l1.8,1.8l0.9-2l1.2-0.6l-0.2-3.7
			l-1.2-2.1l-1-0.9h-1l-0.8-3.7L146.3,144.7z"/></a>
		<a href="javascript:"><path id="NA" class="enable st0" d="M95.2,195.6l-2.1-2.4l-1.1-2.3l-0.6-3l-0.7-2.2l-0.9-4.7l-0.1-3.6l-0.4-1.6l-1.1-1.2l-1.5-2.5
			l-1.5-3.6l-0.6-1.9l-2.3-2.9l-0.2-2.2l1.4-0.5l1.7-0.5l1.8,0.1l1.7,1.3l0.4-0.2l11.4-0.1l1.9,1.4l6.8,0.4l5.2-1.2l2.3-0.7l1.8,0.2
			l1.1,0.7v0.2l-1.6,0.7h-0.8l-1.8,1.2l-1.1-1.2l-4.3,1l-2.1,0.1l-0.1,10.6l-2.8,0.1v20.4l-2.5,1.6l-1.5,0.2l-1.8-0.6l-1.3-0.2
			l-0.5-1.4l-1.1-0.9L95.2,195.6z"/></a>
		<path id="NE" class="st0" d="M55.5,78.9l0.1-2l-3.2-0.6l-0.1-1.4L50.6,73l-0.4-1.3l0.2-1.4l1.8-0.1l1-1l3.8-0.2l2.5-0.5l0.2-1.8
			l1.5-1.9V58l4-1.3l8.1-5.9l9.6-5.8l4.4,1.3l1.6,1.7l2-1.1l0.7,4.7l1,0.8v1l1.2,1l-0.6,1.3l-1.1,6l-0.2,3.8l-3.6,2.7l-1.2,3.8
			l1.2,1.1v1.9l1.8,0.1L90,76.3l-0.8,0.2l-0.1,0.9l-0.5,0.1l-1.9-3.1L86,74.2l-2.1,1.6l-2.2-0.8l-1.5-0.2l-0.8,0.4l-1.6-0.1
			l-1.6,1.2l-1.4,0.1l-3.4-1.5L70,75.6h-1.4l-1-1.1l-2.8-1.1l-3,0.3L61,74.4L60.6,76l-0.8,1.1l-0.2,2.5l-2.1-1.6h-1L55.5,78.9z"/>
		<path id="NG" class="st0" d="M73.3,99.1l-2.9,1l-1.1-0.1l-1.1,0.6l-2.2-0.1l-1.5-1.8l-0.9-2l-2-1.9h-2.1h-2.5l0.2-4.5L57,88.6
			l0.5-1.8l0.9-0.9l1.4-1.8l-0.3-0.8l0.5-1.1l-0.6-1.7l0.1-0.9l0.2-2.5l0.8-1.1l0.4-1.6l0.7-0.6l3-0.3l2.8,1.1l1,1.1h1.4l1.3-0.7
			l3.4,1.5l1.4-0.1l1.6-1.2l1.6,0.1l0.8-0.4l1.5,0.2l2.3,0.9l2.2-1.6l0.7,0.1l1.9,3.1l0.5-0.1l1.1,1.1L90,79l-0.2,1l-2.4,2.2
			L86.8,84l-0.4,1.5l-0.6,0.6l-0.6,2l-1.5,1.2l-0.4,1.4l-0.6,1.1l-0.3,1.2l-1.9,1l-1.6-1.1h-1.1l-1.7,1.6h-0.8L74,97.1L73.3,99.1z"
			/>
		<a href="javascript:"><path id="RW" class="enable st0" d="M134.7,115.6l1.1,1.6l-0.2,1.6l-0.8,0.4l-1.5-0.2l-0.9,1.6l-1.7-0.2l0.3-1.5l0.4-0.2l0.1-1.7l0.8-0.8
			l0.7,0.3L134.7,115.6z"/></a>
		<path id="SD" class="st0" d="M144.6,85.9l-0.4-0.1v-1.4l-0.3-1l-1.4-1.1l-0.3-2l0.3-2.1l-1.3-0.2l-0.2,0.6l-1.7,0.1l0.7,0.8
			l0.2,1.7l-1.5,1.6l-1.4,2l-1.4,0.3l-2.4-1.6l-1.1,0.6l-0.3,0.8l-1.4,0.5l-0.1,0.6h-2.8l-0.4-0.6l-2-0.1l-1,0.5l-0.8-0.2l-1.4-1.6
			l-0.5-0.8l-2,0.4l-0.8,1.3l-0.7,2.5l-1,0.5l-0.9,0.3l-0.2-0.1l-1-0.8l-0.2-0.9l0.5-1.2v-1.1l-1.6-1.8l-0.3-1.2v-0.7l-1-0.8V78
			l-0.6-1.1l-1,0.2l0.3-1l0.7-1.3l-0.3-1.2l0.9-0.9l-0.6-0.7l0.7-1.8l1.3-2.1l2.4,0.2l-0.1-11.5v-1.2h3.2v-6h33.3l0.9,2.9L153,53
			l0.4,3.1l1,3.5l1.1,0.7l1.5,1.1l-1.4,1.7l-2.1,0.5l-0.9,0.9l-0.3,1.9l-1.2,4.2l0.3,1.1l-0.5,2.5l-1.1,2.8l-1.7,1.4l-1.2,2.2
			l-0.3,1.2l-1.3,0.8l-0.8,3L144.6,85.9z"/>
		<path id="SL" class="st0" d="M17.3,93.5l-0.8-0.2l-2-1.1l-1.5-1.5l-0.5-1l-0.3-2.1l1.5-1.2l0.3-0.8l0.5-0.6l0.8-0.1l0.6-0.5h2.2
			l0.8,1l0.6,1.2l-0.1,0.8l0.5,0.7v1l0.8-0.2l-1.3,1.3l-1.3,1.5L18,92.6L17.3,93.5z"/>
		<path id="SN" class="st0" d="M2.6,74.2l-1.2-2.2l-1.4-1l1.2-0.5l1.4-2l0.7-1.5l1-0.9l1.4,0.2L7,65.6h1.6l1.3,0.9l1.9,0.8l1.7,2.1
			l1.9,2l0.1,1.8l0.5,1.6l1,0.8l0.2,1.1l-0.1,0.9l-0.4,0.2l-1.5-0.2L15,77.8l-0.6,0.1l-2-0.7H11l-5.2-0.1l-0.8,0.3l-0.9-0.1
			l-1.5,0.5l-0.5-2.2l2.5,0.1l0.7-0.4h0.5l1-0.7l1.2,0.6l1.2,0l1.2-0.6L10,73.7l-0.9,0.5H8.2l-1.1-0.7H6.2l-0.6,0.7L2.6,74.2z"/>
		<path id="SO" class="st0" d="M192.8,79.5l-0.1-0.8h-1.1l-1.3,1l-1.5,0.3l-1.3,0.4l-0.9,0.1l-1.6,0.1l-1,0.5l-1.4,0.2l-2.5,0.9
			l-3,0.3l-2.6,0.7h-1.4l-1.3-1.2l-0.5-1.2l-0.9-0.5l-1,1.5l-0.6,1l1,1.6l1,1.4l1.1,1l9.2,3.3h2.4l-7.9,8.4l-3.7,0.1l-2.5,2l-1.8,0
			l-0.8,0.9l-2.5,3.2v10.1l1.7,2.3l0.6-0.7l0.7-1.5l3.1-3.4l2.6-2.1l4.2-2.8l2.8-2.3l3.3-3.8l2.4-3.1l2.4-4.1l1.7-3.6l1.3-3.1l0.8-3
			l0.6-1v-1.5L192.8,79.5z"/>
		<path id="SS" class="st0" d="M144.6,85.9v2.2l-0.4,0.9l-1.5,0.1l-1,1.6l1.7,0.2l1.4,1.4l0.5,1.1l1.3,0.6l1.7,3l-1.9,1.8l-1.7,1.7
			l-1.7,1.3h-2l-2.3,0.6l-1.8-0.6l-1.2,0.8l-2.4-1.8l-0.7-1.2l-1.6,0.6l-1.3-0.2l-0.8,0.5l-1.3-0.3l-1.7-2.3l-0.5-0.9l-2.1-1.1
			l-0.7-1.7l-1.2-1.2l-1.9-1.5v-0.9l-1.5-1.1l-1.9-1.1l0.9-0.3l1-0.5L119,85l0.8-1.3l2-0.4l0.5,0.8l1.4,1.6l0.8,0.2l1-0.5l2,0.1
			l0.4,0.6h2.8l0.1-0.6l1.4-0.5l0.3-0.8l1.1-0.6l2.4,1.6l1.4-0.3l1.4-2l1.5-1.6l-0.2-1.7l-0.7-0.8l1.7-0.1l0.2-0.6l1.3,0.2l-0.3,2.1
			l0.3,2l1.4,1.1l0.3,1v1.4L144.6,85.9z"/>
		<path id="SZ" class="st0" d="M139.3,189.8l-0.6,1.4l-1.6,0.3l-1.7-1.7v-1.1l0.8-1.2l0.3-0.9l0.8-0.2l1.4,0.6l0.4,1.4L139.3,189.8z
			"/>
		<path id="TD" class="st0" d="M90.1,76.3l0.3-1.4l-1.8-0.1V73L87.4,72l1.2-3.8l3.6-2.7l0.2-3.8l1.1-6l0.6-1.3l-1.2-1v-1l-1-0.8
			l-0.7-4.7l2.8-1.7l11.2,5.8l11.2,5.7l0.1,11.6l-2.4-0.2l-1.3,2.1l-0.7,1.8l0.6,0.7l-0.9,0.9l0.2,1.1l-0.7,1.2l-0.3,1l1-0.2
			l0.6,1.1v1.6l1,0.8v0.7l-1.8,0.5l-1.4,1.2l-2,3.1l-2.6,1.3L103,87l-0.8,0.3l0.3,1l-1.5,1l-1.2,1.1l-3.5,1.1l-0.7-0.6l-0.5,0
			l-0.5,0.7l-2.3,0.2l0.4-0.8L91.8,89l-0.4-1.2l-1.2-0.5l-1.7-1.6l0.6-1.3l1.3,0.3l0.8-0.2h1.6l-1.5-2.6l0.1-1.9l-0.2-1.9L90.1,76.3
			z"/>
		<path id="TG" class="st0" d="M54.6,95.3l-2.3,0.6l-0.6-1L51,93.1l-0.2-1.4l0.6-2.5l-0.7-1l-0.3-2.2v-2.1l-1.2-1.5l0.2-0.9l2.5,0.1
			l-0.4,1.5l0.9,0.8l1,1l0.1,1.4l0.6,0.6L54,93.3L54.6,95.3z"/>
		<path id="TN" class="st0" d="M76,23.7l-1.2-5.9l-1.7-1.3v-0.8l-2.3-2l-0.2-2.5l1.7-1.9l0.7-2.8l-0.5-3.3l0.6-1.8l3-1.4l2,0.4
			L78,2.2l2.4-1.3l0.2,0.7l-1.4,1.7v1.6l1,0.9l-0.4,3L78,10.4l0.5,1.8l1.5,0.1l0.7,1.6l1.1,0.5L81.6,17l-1.4,1l-0.9,1l-1.9,1.3
			l0.3,1.4L77.5,23L76,23.7z"/>
		<a href="javascript:"><path id="TZ" class="enable st0" d="M144.5,115.1l0.5,0.3l10.2,5.7l0.2,1.6l4,2.8l-1.3,3.5l0.2,1.6l1.8,1l0.1,0.7l-0.8,1.7l0.2,0.9
			l-0.2,1.3l1,1.8l1.2,2.8l1,0.6l-2.2,1.6l-3.1,1.1h-1.7l-1,0.9l-2,0.1l-0.7,0.4l-3.4-0.8l-2.1,0.2l-0.8-3.9l-1-1.3l-0.6-0.8
			l-2.8-0.5l-1.6-0.9l-1.8-0.5l-1.1-0.5l-1.2-0.7l-1.5-3.5l-1.6-1.6l-0.6-1.6l0.3-1.5l-0.5-2.6l1.2-0.1l1-1l1.1-1.5l0.7-0.6v-0.9
			l-0.6-0.6l-0.2-1.1l0.8-0.4l0.2-1.6l-1.1-1.6l1-0.3h3.1L144.5,115.1z"/></a>
		<a href="javascript:"><path id="UG" class="enable st0" d="M138.8,115.3h-3.1l-1,0.3l-1.7,0.9l-0.7-0.3v-2.1l0.7-1.1l0.2-2.2l0.6-1.3l1.1-1.5l1.1-0.7l0.9-1
			l-1.1-0.4l0.2-3.3l1.2-0.8l1.8,0.6l2.3-0.6h2l1.7-1.3l1.3,1.9l0.3,1.4l1.2,3.2l-1,2l-1.4,1.8l-0.8,1.1v3L138.8,115.3z"/></a>
		<a href="javascript:"><path id="ZA" class="enable st0" d="M137.8,197.8l-0.5,0.5l-1.2,1.6l-0.8,1.7l-1.6,2.2l-3.2,3.4l-2,2l-2.1,1.5l-2.9,1.3l-1.4,0.2
			l-0.4,0.9l-1.7-0.5l-1.4,0.6l-3-0.7l-1.7,0.4l-1.2-0.2l-2.9,1.3l-2.4,0.5l-1.7,1.3l-1.3,0.1l-1.2-1.2l-1-0.1l-1.2-1.5l-0.2,0.5
			l-0.4-0.9v-2l-0.9-2.2l0.9-0.6l-0.1-2.5l-1.8-3l-1.4-2.7l0,0l-2-4.2l1.3-1.6l1.1,0.9l0.5,1.4l1.3,0.2l1.8,0.6l1.5-0.2l2.5-1.6
			v-11.6l0.8,0.5l1.7,2.9l-0.3,1.9l0.6,1.1l2-0.3l1.4-1.4l1.3-0.9l0.7-1.5l1.4-0.7l1.2,0.4l1.3,0.9l2.3,0.2l1.8-0.7l0.3-1l0.5-1.5
			l1.5-0.2l0.8-1.2l0.9-2l2.5-2.3l4-2.2h1.1l1.4,0.5l1-0.4l1.5,0.3l1.3,4.3l0.7,2.2l-0.5,3.4l0.2,1.1l-1.4-0.6l-0.8,0.2l-0.3,0.9
			l-0.8,1.2v1.1l1.7,1.7l1.6-0.3l0.6-1.4h2.1l-0.7,2.3l-0.3,2.6l-0.7,1.4L137.8,197.8z M130.7,196.8l-1.2-1l-1.3,0.7l-1.5,1.2
			l-1.5,2l2.1,2.5l1-0.3l0.5-1l1.6-0.5l0.5-1l0.9-1.6L130.7,196.8z"/></a>
		<a href="javascript:"><path id="ZM" class="enable st0" d="M141.3,138.2l1.3,1.3l0.7,2.4l-0.5,0.8l-0.6,2.3l0.5,2.4l-0.9,1l-0.8,2.7l1.5,0.7l-8.5,2.4l0.3,2
			l-2.1,0.4l-1.6,1.1l-0.3,1l-1,0.2l-2.4,2.4l-1.5,1.9l-1,0.1l-0.9-0.3l-3.1-0.3l-0.5-0.2v-0.2l-1.1-0.7l-1.8-0.2l-2.3,0.7l-1.8-1.8
			l-1.9-2.4l0.1-9.2h5.8l-0.2-1l0.4-1.1l-0.5-1.3l0.3-1.4l-0.3-0.9l1,0.1l0.2,0.9l1.3-0.1l1.8,0.3l0.9,1.3l2.2,0.4l1.7-0.9l0.6,1.5
			l2.2,0.4l1,1.2l1.2,1.6h2.2l-0.2-3.1l-0.8,0.5l-2-1.1l-0.8-0.5l0.3-2.9l0.5-3.4l-0.6-1.2l0.8-1.8l0.8-0.3l3.8-0.5l1.1,0.3l1.2,0.7
			l1.1,0.5l1.8,0.5L141.3,138.2z"/></a>
		<a href="javascript:"><path id="ZW" class="enable st0" d="M136.9,176l-1.5-0.3l-1,0.4l-1.4-0.5H132l-1.8-1.4l-2.2-0.5l-0.8-1.9v-1.1l-1.2-0.3l-3.2-3.3
			l-0.9-1.7l-0.6-0.5l-1.1-2.3l3.1,0.3l0.9,0.3l1-0.1l1.5-1.9l2.4-2.4l1-0.2l0.3-1l1.6-1.1l2.1-0.4l0.2,1.1l2.3-0.1l1.3,0.6l0.6,0.7
			l1.3,0.2l1.5,0.9v3.7l-0.5,2l-0.1,2.2l0.5,0.9l-0.3,1.8l-0.4,0.3l-0.7,2.2L136.9,176z"/></a>
	</g>
</g>
</svg>
