<svg id="map__south-east-asia" xmlns="http://www.w3.org/2000/svg" viewBox="0 0 128.04 93.27">
  <defs>
    <style>
      .st0 {
        fill: #c6c4c4;
      }
    </style>
  </defs>
  <title>map__south-east-asia</title>
  <g id="on-desktop-map-south-east-asia">
    <a href="javascript:"><path id="ID" class="enable st0" d="M71.28,93,70.1,93l-3.72-2L69,90.46l1.47.86,1,.86Zm10.4-.31-2.4.62-.34-.34.25-1,1.21-1.72,2.77-1.12.28.56,0,.86ZM63.35,86.88l1,.75,1.73-.23.7,1.2-3.24.57-1.94.38H60.09l1-1.62h1.54Zm14,0-.41,1.56-4.21.8L69,88.89v-1l2.23-.58,1.76.84,1.87-.21Zm-40-3.7,5.37.28.62-1.16,5.2,1.35,1,1.82,4.21.51,3.44,1.67L54,88.72l-3.07-1.07-2.54.08-2.91-.21L42.85,87,39.6,85.94l-2.06-.28L36.37,86l-5.09-1.18-.5-1.18-2.57-.21,1.92-2.68,3.4.17L35.79,82l1.16.21Zm73.18-1.53-1.44,1.91-.27-2.11.5-1,.59-1,.64.82Zm-21-7.7-1,.93-1.94-.51L86,73.17,88.88,73Zm9-1,1,2.13-2.25-1.19-2.34-.23-1.58.18-1.94-.1.66-1.53,3.46-.12Zm10.3-5.41.78,4.51,2.9,1.67,2.34-3L118.07,69h2.49l2.4,1L125,71l3,.53V89.83l-2.5-2.31L122.69,87l-.69.8-3.55.09,1.19-2.29,1.77-.78-.73-3-1.35-2.35-5.44-2.37-2.31-.23-4.21-2.58-.83,1.36-1.08.25-.64-1V73.64l-2.14-1.37,3-1,2,0-.23-.74h-4.1l-1.11-1.66-2.51-.51L98.54,67l3.78-.67,1.44-.91,4.5,1.14Zm-25-7.16-2.25,2.76-2.11.54-2.7-.54-4.67.14-2.45.4-.4,2.11,2.51,2.48L73.27,67l5.23-1-.23,1.28-1.22-.4-1.22,1.63-2.47,1.08L76,73.22l-.51,1L78,77.44v1.84l-1.5.82-1.1-1,1.35-2.29L74,77.89l-.7-.77L73.68,76l-2-1.64.21-2.72L70,72.53l.24,3.25.11,4-1.78.41-1.2-.82.8-2.57-.43-2.69H66.58l-.87-1.91,1.16-1.83.4-2.21L68.68,64l.59-1.15,2.38-2.07,2.19.82,3.53.39,3.22-.12,2.77-2Zm9.67.8-.15,2.43-1.45-.27L91.47,65l1.16,1.47-.78.33-1.13-1.76-.83-3.56.56-2.23.93-1,.2,1.52,1.66.24Zm-30.22-2,3.14,2.58-3.32.33L62.16,64l.12,2.52-2.7,1.9-.07,2.77-1.08,4.27-.41-1-3.19,1.26L53.72,74l-2-.16L50.32,73,47,74l-1-1.35-1.84.15-2.31-.32-.43-3.74L40,67.94l-1.35-2.38-.39-2.44.33-2.58,1.68-1.89.47,1.86,1.92,1.57,1.81-.57,1.79.2L47.9,60.3l1.34-.24,2.65.78,2.29-.59,1.44-3.88,1.08-1,1-3.17h3.22l2.43.47-1.59,2.52,2.06,2.64ZM29.48,80.65l-3.1.06L24,78.37l-3.6-2.28-1.2-1.69L17.1,72.13,15.71,70l-2.13-3.9-2.46-2.32-.82-2.39-1-2.17L6.77,57.5,5.28,55.07,3.17,53.51.25,50.43,0,49l1.81.11,4.34.54,2.48,2.73,2.17,1.89,1.48,1.17,2.66,3h2.85l2.35,1.91,1.62,2.33L23.9,64l-1.12,2.27,1.61,1,1,.07.48,1.94,1,1.55,2.06.25,1.36,1.77-.7,3.47Z"/></a>
    <a href="javascript:"><path id="MY" class="enable st0" d="M16.18,47l.22,1.44,1.85-.33.92-1.15.65.26,1.66,1.69,1.18,1.87.16,1.88-.3,1.27.27,1L23,56.55l1,.77,1.1,2.46-.05.94-2,.19L20.4,58.85l-3.32-2.21-.33-1.42-1.62-1.87L14.74,51l-1-1.52.31-2-.62-1.19.49-.5ZM65.37,51.8l-2.06,1-2.43-.47H57.66l-1,3.17-1.08,1-1.44,3.88L51.85,61l-2.65-.78-1.34.24-1.58,1.34-1.79-.2-1.81.57-1.92-1.57-.47-1.86,2.05,1,2.17-.52.56-2.36,1.2-.53,3.36-.6,2-2.21L53,51.72l1.28,1.45.59-1,1.34.09.16-1.79.13-1.38,2.16-2L60.08,45h1.13l1.44,1.42.13,1.22,1.85.78,2.34.84-.2,1.1-1.88.14Z"/></a>
    <a href="javascript:"><path id="KH" class="enable st0" d="M23,34.5,21.83,33l-1.42-2.94-.66-3.45,1.8-2.39,3.63-.55,2.63.41,2.31,1.13,1.27-2,2.48,1.06.65,1.91-.34,3.43-4.71,2.19,1.23,1.72-2.94.21-2.48,1.17Z"/></a>
    <a href="javascript:"><path id="LA" class="enable st0" d="M27.8,24.11l.91-1.3.13-2.44-2.27-2.53L26.4,15l-2.12-2.38-2.12-.2-.57,1L20,13.47,19.11,13l-3,1.75L16,12.07,16.73,9l-1.89-.14-.16-1.78-1.21-.92.6-1.1,2.39-1.94.25.7,1.49.08L17.78.44,19.23,0l1.64,2.38L22.13,5.1h3.45l1.09,2.59-1.79.78-.8,1.06,3.36,1.76,2.33,3.47,1.77,2.57,2.12,2,.71,2-.51,2.88-2.48-1.06-1.27,2Z"/></a>
  </g>
</svg>
