<svg id="map__australia" data-name="Warstwa 1" xmlns="http://www.w3.org/2000/svg" viewBox="0 0 891 856">
  <defs>
    <style>
      .st0 {
        fill: #c6c4c4;
      }
    </style>
  </defs>
  <title>map__australia</title>
  <g id="on-desktop-map-australia">
    <path id="AUS1932" class="st0" d="M814.5,613.1l.5-1.1.8-.6.6-.1.1.1.3.3.4-.1.3-.1.3-.1.1.3v.4l-.1.5-.2.3-.1.1-.4-.1-.3.3-.3.2-.5-.6-1,.1-.5.2Z"/>
    <a href="javascript:"><path id="AUSN" class="enable st0" d="M513.7,144l-.6.9-.2-.2-.3-.2-.3-.2-.2-.4-.1-.4.2-.5.3-.3.4-.1.3-.3.1.4.3.2.3.1.2.2-.1.4-.3.4Zm2.3-2.2.3.3.4.3.1.4-.3.1h-.2l-.2-.4h-.5l-.1.2.3.5.1.2-.1.2-.4.3-.4.3-.3.1-.2-.2.1-.5.1-.5.1-.5-.3-.6.4-.1.8.1.3-.2Zm4.2-1.1.5.1.1.2.1.5.4.3.3-.2.1-.1.1.5.3.1v2l-.1.2v.2l.4.1.2.2-.1.7-.2.4-.4.5-.6-.2-.1-.4v-.3l-.2-.2-.2-.1h-.3l-.2-.1-.3-.8v-.7l-.1-.2h-.6l-.1.4H519l-.1-.2.1-.5v-.3l.1-.4.2-.2.2-.4.3.4.2.1h.1l-.2-.6.3-.1.1-.4Zm-7,.1.2.2v.2l-.2-.1-.2.1-.2-.1-.1-.2.2-.1Zm3.6-.6v.2l-.1.1-.3-.1-.2.1-.4-.2-.2.2-.1-.1.2-.3.4-.1.7-.1v.3Zm-5.1,1-.3.5-.2-.1-.4.1-.3-.2-.1.2-.1.1h-.4l-.2-.1-.2-.2.2-.1.1-.3-.1-.3-.2-.2.4-.3.2-.3v-.3l-.1-.2.1-.1h.4l.4-.2.5-.2h.3l.3.5-.3.6Zm5.6.3-.2.2-.1-.1-.1-.2.1-.1-.2-.4.2-.2.2-.3v-.3l-.3-.2.1-.4.2-.4.3-.3.3-.2-.2.6.1.4.4,1-.3.1-.2.1-.1.3.1.3-.3.1ZM493.6,125v.2h-.4l-.4-.1-.4.4-.3-.1-.1-.1.2-.2.1-.2.3-.1.1-.3v-.2h-.2l-.1-.1.2-.1.1-.2.1-.2.5.1.2.3.2.4-.1.5Zm-132.4-.4-.2.1-.3-.2-.1-.2-.4-.5-.1-.2-.1-.4.1-.1.5.3.2.1.2.3.1.2.1.3v.3Zm2.1-1.4-.3.1-.4-.1-.4-.3-.2-.2h.2l.5.1.5.2.1.2Zm-3.1,2.2v1l-.1-.2-.1-.2-.2-.1-.3-.5-.5-1.1-.3-.5-.3-.8-.1-.1.1-.2h.2l.2.1.2.1,1,1.4.2.5v.6Zm146.3-23.7h-.4l-.2-.2.1-.2.4-.4h.3v.5l-.2.3Zm3.4-1.5-.2.1h-.1l-.8-.9v-.3l.2-.3.6-.1v-.3h.2l.4.3.1.6-.2.2.1.3-.1.2Zm-5.1-1-.3.1h-.2l-.2.1-.1.3h.3l.2.2.1.3.2.3h-.4l-.2.3-.1.4-.1.3-.2.2-.3.1-.3.1-.2-.1.1-.1.1-.4.1-.1-.2-.3-.4-.8-.2-.2-.5.1v.5l.1.6v.4l-.7-.3-.2-.2V99l.8.3.3.1.1-.4.1-.4.2-.5.2-.3.4-.2h.2l.3.1.3.1.1.2.1.2.2.2.3.1.1.1.1.5-.2.1Zm9.6-1.1-.2.5-.7.3-.1.2-.1.3.1.2.3.2h.2l.5.1-.1.1-.4.5.2.3.1.3v.2l.3.2.3.1,1.1.2h.4l.3-.2.2-.4.1-.3v-.2l-.2-.1h-.1v-.1l.3-1,.3.2.7-.1.3.1.2.2.1.3.2.3v.3l-.2.2-.6.7-.3.3-.4,1.2-.7-.2-.7.3-.5.6-.2.7.1.4.2.2.2.1.3.2.2.1.1.2-.3.1h-.2l-.1.2v.2l-.4-.2-.2.2-.1.2.1.4-.3-.3-.2-.1h-.3l-.3.2.2.3-.1.3-.1.6.3.9v.3l.2.1.2.1.4.1.6-.1v-.5l.2-.4.4.3,1.4,1.1h.2l.2-.3.3-.4.2-.3v-.4h.2l.2.2h.3l.4-.1.3-.1-.2.2-.2.2-.2.4H519v.3l.1.4.2.2.1.2-.1.1-.2.1-.1.3.1.3.2.2-.3-.1-.1.1v.1h-.4l-.2.1-.1.3-.7-.4-.4-.1-.3.2-.3-.3-.4-.1-.9-.1-.4-.1-.2-.1-.3.1-.9.6-.9-.1-3.8-1.5h-.1l-.4-.4h-.5l-.8.2-.5.4-.6.2-.1-.1.1-.3.2-.1.5-.3.2-.2.6-.3.3-.2.2-.6.2-.2.2-.2-.1-.2-.3-.5-.1-.7-.1-1.3v-.8l.3-1.2.1-.7-.1-.3-.2-.4-.2-.3.1-.3.3-.2.3.1.6.5.1-.1h.9l.3-.3-.2-.3.3-.5.1.1.3.5.2.2.3-.5.1.1.4.2v-.6l.3.2.3-.1.1-.3-.3-.2-.1.1-.1-.4-.1-.3-.2-.3h-.4l.2-.3v-.2l-.1-.1-.2-.1.1-.2.2-.1h.4l.3.1.1.1-.1.5.1.1h.1l.3-.4h.1l.3.1.4-.6.1-.3.1-.1h.5l.2-.2.2.3v.5Zm5-1.3-.1.2-.2.1-.4.2V97l.3-.1V97l.2-.2.2-.1Zm-18.3-3.6-.1.2h-.3l-.3.1-.1-.1v-.1l.1-.2v-.2l.1-.2.1.2.2.1.2.1.1.1ZM503,93l.1.1-.1.4-.6-.5v.5l-.3-.1v.3l.1.6-.3.5-.1.5-.3-.3.1-.3.3-.4-.1-.3-.2-.1-.2-.5.3-.9-.1-.6-.2-.3-.1-.4-.5-.3h.5l.3.6h.3l.3.5.6.9.2.1ZM369.6,85.9l.1.3.4-.1.5.3.2.4-.4.1-.3.1-.3-.1h-.4v-.8l.1-.8.1.1v.5Zm7.9-11-.2.1h-.2l-.1-.2-.1-.1.2-.2.3-.1.1.2.1.2-.1.1Zm.7-1.1-.2.1-.2-.3v-.2l.5-.1.1.2-.1.2-.1.1Zm123.1-9.3.2.1.1-.1h.3l.1.4.1.1-.5.1-.5.1L501,65v-.2l.1-.1h.1l.1-.2ZM391.6,63.4l-.2.2-.5-.2.2-.3h.5Zm125,.3-.1.1-.2-.1-.4-.6.1-.5.4-.2.1.2v.8l.1.3Zm-95.5,0h-.4l-1.1-.8.1-.3.3-.2.4-.1h.3l.5.3.1.6-.2.5Zm-27.8-1.4-.5.2h-.3l-.6-.2.2-.1.4-.1V62h.9Zm82.2.8-.4.2-.4-.1-.2-.3-.3-.5-.2-.8.5.3.1.1h.5l.2.1.2.1.2.5-.2.4ZM392,61.5l-.6.6-.7-.2.3-.2.3-.2h.7Zm84.8.1-.8.3-.3-.1-.3-.2-.2-.1-.1-.3,1.1-.1.2.2.4.2v.1Zm28.5-.6-.8.6-.7.2-.4.1-.2.2-.2.2-.3.2h-.3l-.4-.1-.4-.2-.1-.2.1-.2v-.2l-.1-.5.3.2.2.1.2.1.3-.2.3-.4.2-.2.3.1-.2.3v.2l.1.1h.2l.4-.1.2-.1.3-.1.5-.7.2-.2.6.2-.3.6Zm-26.4-1.5-.5.2-.3-.3.2-.5.6.1.6.1.2.1-.3.2-.5.1Zm19-1.3-.3.5v-.3l-.2-.2.3-.3.4-.2.3-.3v.1l-.3.4-.1.2-.1.1Zm15.3-1.1-.6.2v-.1l.3-.1.5-.3Zm-4.3,1.5h-.1v-.2l.1-.6v-.6l.1-.6.5-.3v.4l-.5,1.1.1.2.1.3-.2.2Zm-8.3-3.2-.2.4v-.5l.1-.1.2-.1.2.1-.2.1Zm11,.3-.2.3-.1.3-.5-.1-.7.1-.2-.2.3-.3.1-.1.5.1.2-.1.3-.2.5-.4.3-.2h.1v.2l-.2.2-.4.4Zm-31.1-1.9V54h.2l-.2.4-.1-.1-.1-.2v-.2Zm36.2-.6.1.2-.3.2h-.2l.1-.2.1-.2Zm-17.8,1.1-.5.2-.6-.2-.1-.6.6-.5.9-.4.7.2-.7.8Zm-74.1-1.4.3.1,1-.1.1.1.1.4-.1.2-.1.3-.1.2-.2.2-.3.1-.6.1h-.5l-.3-.2-.4-.4-.3-.5-.1-.4.5-.4h.3l.2.1Zm17.7.4-.3.1-.3-.1-.2-.1.1-.1-.2-.6.1-.2.4-.2.6-.4.5-.1.5-.1.5.1.2.3-.3.2-.4.2h-.9l-.3.1v.2l.2.3v.2l-.2.2Zm-27.3-.8h-.3l-.3-.1.1-.3.1-.2v-.2l-.1-.2v-.2l.2-.1.2.2.2.5.1.4-.2.2Zm3.9-.7-.1.1-.2-.1-.2-.2.1-.3.2-.1.3.4-.1.2Zm82.2-.9-.2.3-.1-.4.2-.1.1-.1Zm7.3-.7-1.2.7h-.2l-.1.2-.3.6-1.1.5-.1.2-.2.1-.2-.1v-.1l-.3.1-.3.4-.3.2-.6.2V53l-.8.7h-.2v-.2l.1-.6.2-.1.3-.1.4-.2.3-.3.2-.5.3-.4.3-.2.1.2.3.4.4.3.2-.2.1-.2.8-.9.1.1.1-.3.3-.3.7-.3.6-.5.3-.2.2-.4.2.5-.2.5-.4.4Zm-63.7-.4-.3.1-.4-.1h-.7l-.3.1-.3.2-.3.3h-.1l.1-.2v-.5l-.1-.1-.1-.2h.7l.4-.3.3-.2.4-.2.1.3.2.3.2.3.2.2ZM377.4,49v1.1l.2.3,1.1.8.3.5.1.6V53l-.2.6-.1.4v.1l.2-.1.3-.1.3-.1.2.1.7.2.2.1.2-.1.6.3,1,.8.2.3.1.1-.1.4-.1.4-.2.2-.9.4h-1.2l-.5.2-.6-.3-.6-.3-.8-.3h-.6l-.3-.1-.5-.5-.4-.1-.3.1-.5.2-1,.2-2,.8h-1.3l-.7-.1-.3-.2-.3-.4-.1-.2-.1-.2.2-.3.2-.1.4.1.4-.2v-.4l-.1-1,.1-.4h.4l.6.5.6.1.5-.2.4-.3.3-.5-.1-.5-.2-1.9.2-.3.1-.3v-.3l-.1-.2-.2-.2-.2-.1-.3.1h-.4l.6-.9.2-.3.3-.2.5-.3.2-.2.7-1.2.2-.2.4-.1h.4l.4-.1.4-.3.1.5.3.6.3.6.5.9v.3l-.3.5Zm2.6-4.2.2.4.2-.2.2-.2.3-.1.2-.1.4.1.3.3.2.3v.3l-.2.4-.6.6-.1.4.2.4h.3l.2-.1.2-.1.9-1,.4-.2.2.3-.3.7.1.1.2.2.5.7.1.2.6-1.1,1.3-.3,1.3-.2.6-.6.4-.4.7-.1.7.1.3.3.1.2.7.2.1.2.2,1,.1.3.1-.3.4-1.9.3-.2.4-.1.4-.2.8-.8.4-.1.2.3V45l.1.5.2.4.9,1.4v.2l.3-.2-.1-.5-.3-.7v-.2l.1-.5-.1-.2H395l-.1-.1v-.2l.1-.2.1-.6.2-.5.4-.4.4-.2.5-.2.4.2.2.4.1.6-.3.4v.2l.2.2.3-.1.1-.3.1-.2.1-.2h.3l.3.2.3.1h.2l.5-.3h.2l.3.2.2.3.1.4-.1.4.4.2.1.5v.5l.2.6.1.2.2.1v-.2l.5-.2h.3l.2.2.1.2.1.4v1.1l-.2.2-.2.1-.5-.2-.3.1-.2.4-.3.8v.8l.2.5.1.3-.4.2L400,52l-.2-.1-.1-.1-.4-.3-.3-.1-.1.1-1.2,2.2-.5.4-.2.5-.2.1h-.6l-.6.4-.3.2-.1.3-.2.2-2.2,1.1-2.6,2.2-.4.2-.4-.2-.4-.6-.6-.5-.7-.4-1.2-.4-1-.6h-.2l-.3-.1-.5-.2L384,56l-.4-.2v-.1l.2-.1-.1-.2-.4-.1-1-.8-.6-.4-.2-.2-.2-.4-.2-.1-.4-.2h-.5l-.4-.2-.2-.5V51.1l-.1-.4-.1-.1-.4-.3-.5-.6-.1-.4-.5-2.4v-.4l-.1-.1-.2-.2v-.6l.3-.4-.6-.6-.2-.4-.1-.4v-.6l.1-.5.3-.3.3-.4.8,1.1,1.5,1.7Zm52-2.6v.2l-.3-.1-.5.2-.1-.1-.1-.3-.3-.1h.5l.2-.1h.5l.1.2v.1ZM541.9,162.1V381.9H347.5V124.5h.2l.9.3.9.4.2.1.2.3.1.2v.2l.1.2.1.1.6.1.4.3.2.3.1.6-.1.3-.1.4v.5l.1.4.3.5.1.4-.2.4-.4.8-.4,1.2.4-.1.6-1.2.5.1-.2.3-.1.4v.4l.1.4.6-2.8.4-.1.1-.4-.2-1.4-.1-.2-.2-.3-.1-.5V126l-.3-1.5v-.6l.1-.1.3.2.4.4v.5h.2l.4-.5h.8l.7.4.3.5,2.3.7.4.4v.1l.3,1.1.3.2.6.3.3.2.1.4.3.7.2.4.1.3-.2.8-.1.4,1-.7.3-.1h.4l.1.3v.6l.1.4.1.1.4-.1h.7l.1-.2-.1-.3-.1-.3-1.4-1.5-.1-.3-.5-1.3-.3-1.4-.1-.3.2-.2.3-.6.1-.3.1-1.2.1-.2.3.1.6.3.3.1h.6l.8.1.3.1.4-.1.5-.1.5-.3.4-.1.2-.3.9-.7.2-.1.2-.1.4.2.6.3-.1-.6.3-1.2-.2-.3-.2.6-.4.4-1.3.3-2.1,1.1h-.8l.8-1v-.2h-.2l-.7.4-.4.2h-.3l-.3-.2-.9-.7-.1-.3.2-.4-.4-.2-.6-.4-.4-.5-.4-1v-.3l.1-.1h.3l.8-.2,1,.1.6-.2.2-.4.2-.2.9-.6.2-.2h-.4l-.6.2-.5.2-.7.5-.4.1-.9-.2-.2-.1-.5.1h-.2l-.4-.3-.3-.1-.4-.1-1.3-1.1h-.4l-.2-.4-.4-.2-.1-.1-.1-.3v-.1l-1.1-.6-.2-.3.3-1.7.1-.2.6-.6.1-.2V111l.1-.3.2-.4.2-.3.9-.9.3-.4.1-.4.1-.4v-.8l-.1-.2-.2-.4v-.2l.1-.1.3.2.3.1.3-.2.1.2v.2l.1.2.2.1.3-.1.2-.1h.2l.1.4.4-.6-.1-.7-.1-.6.3-.2v.6l.5.2,1.3-.2.6-.2.4-.6.2-.7.1-.6-.1-.4-.3-.2-.2-.2-.2-.3v-.3l.2-.4.4-.6,1.2-.9.4-.5-.3-.4-.3.5-.1-.2.1-.3V99l-.1-.7v-.4l.6-1.4.3-.7.1-.3v-.7l.1-.3.1-.3.2-.1.2-.1.2-.2.2-.5.1-.4.2-.3.2-.1.2.3V94l.1.2.4.2.8.3.3-.2,1.3-.4.4-.3,1.1-.9.5.2.6-.6,1.1-1.6.5-.6.4-.2.4-.1.4.2.5.3.4.1-.2-.6-.2-.3-.5-.2-.4-.2-.5-.1-.2-.1-.2-.4-.4-.6-1.2-1.4-.1-.1h-.5l-.2-.1-.1-.2V83.9l.1-.3.2-.3.1-.5-.1-.6v-.6l.3-.5h.5l.2-.2.1-.2.2.2.1.3.2.3.4.1.5-.1.8-.4.4-.1.4-.2.3-.5.3-.5.1-.4V78l.2-.7-.1-.4-.2-.4-.1-.4.2-.5h.3l.4.2h.3l.1-.1v-.5l.1-.1.3-.1.3-.3.3-.1.2.1.8.4.4.1-.3-.5-.1-.3v-.3l.2-.2.2.2.9,1.7.2.1.3.1.1.1v.3l.3-.1.2.1.2.1.2.1.2-.3h.1l.4.1h.6l.1-.2.1-.2-1.8-.5v.1l-.3.1-.1-.3-.4-.5-.3-.3.2-.2h.2l.4.1.2-.1.2-.2v-.1l-.1-.3-.1-.1h-.5l-.1-.1v-.3l.5-1.4v-.4l-.3-.5.1-.3.1-.1.5-.2-.1-.2-.4-.3-.4-.2v-.1l.6-.3.7-.1.7.2.5.5.4-.1.5.1.6.2.4.3-.2.4v.3l.2.8v1.3l.1.5.2-.3v-.3l.1-.3.2-.2.7.5.7,1.3.5.5v-.4l-.1-.2.3-.3.5.1.8.5-.2-.6-.6-.4-.5-.4-.5-.4-.2-.5v-.2l.1-.1h.4l.5.1.6.4.4.1-.1-.4-.2-.3-.5-.4-.2-.1h-.4l-.1-.1-.1-.3-.3-.3-.3-.1-.2.2-.3.1-.4-.3-.1-.2.1-.2.1-.2-.1-.4.7-.2-.2-.3.2-.2.6-.4.2-.1.1-.3h.4l.2.2.2.1,1.9.3.6.3v-.4l-.1-.3-.4-.5V66.3l-.1-.4-.5-.6-.1-.3.1-.5.2-.3.3-.2h.4l.2.1.4.3h.3l.3-.4h.2l.2.2.2.3.3.3.5-.2.5.6.4.1.3.2.1.3.2.2h.5l-.4-.6V65l.4-.4v-.1l.1-.5v-.3l.2-.8.1-.7.1-.2.2-.2.2-.1.1.1.1.5.2.3.1.2v1l.2,1,.4.8.6.6.7.5.4.2.5.2.4.2h1l.9-.3h.5l.2.1.5.2.3-.1L406,67l1.6-.3.8-.3.4-.2.6-.5.2-.1.2-.1h.3l.1.1.1.4.1.3.5.3.9.3.5.3.5.1.5.2h.2l.5-.2.8-.5.7-.6.4-.5.1-.1,1-.3.1-.2.2-.6.1-.2.3-.1.3.2.1.3v.4l.2.7.4-.1.5-.3.6-.2h.3l.2.1.2.2.7,1.3.1.4.1.2v.2l-.1.1-.3.2-.1.2-.2.3-.1.2.1.5.3-.5.6-.5.4-.7-.6-1.6.1-.9.3-.7.6-.4.5-.1,1.2-.8.4-.1h.3l.6.4.7.3.9.3h.8l.9-.1-.3-.1H428l-.2-.1-.3-.1-.1-.2-.2-.1-.9-.5-.3-.4-.2-.5v-.9l.6-3v-.4l-.1-.4-.2-.3-.8-.6-.2-.1.2-.4.8-.9.3-.4.3-.8.2-.2.4-.1v-.1l-1-.4-.8-.1-.4-.2-.3-.3-.3-.2-.3-.4v-.1l.1-.2.1-.3-.2-.2-.3-.2-.3-.2.2-.4-.5-.1-.3-.6-1.3-.7-.4-.1-1-.2-.5.1-.8.5h-.5l-.5-.1h-.7l-.5.4-.2.3h-.2l-.3-.1-.1.1-.6.5-.4.2-.4.1-.5-.1-.3-.3-.2-.2-.3-.2-.1-.1-.1-.2-.1-.3v-.2l.1-.1.4-.1v-.2l-.3-.3-.6.1h-.5l-.2-.5h-.1l-.2.1h-.3l-.1-.2V47l.4-.1.2-.2v-.3l-.3-.1-.5.1h-.3l-.1-.2.1-.3v-.2l-.3-.1H410l-.5-.2-.3-.1-.2.1-.5.2h-.2l-1-.1-.1-.1.2-.1.3-.2h.4l-.4-.6h.3l.4.2.4.1.2-.3-.2-.5-.3-.4-.1-.5.1.1h.5l.4.3.2-.1v-.3l-.1-.1.1-.3.1-.3.2.3.3.4.7,1,.1.1h.1l.4-.2.4-.4v-.3l-.2-.4-.1-.5.4.1.1-.1-.2-.5v-.4h.1l.2.1.4.1.2.2.2.4.3.3.7.3-.1.6.2.2.3-.1.2-.2.2-.1.1.3-.1.1-.2.4v.3l.1.4V45l-.1.6V46l.4.2.2-.1V46l-.1-.2v-.2l.2-.3.3.6v1.2l.5.5.6.1v-.4l-.3-.6v-.3h.3l.3.2.2.1.2-.3v-.3l-.2-.2-.4-.4-.1-.1-.2.1-.1-.2.1-.4v-.6l-.1-.3-.2-.3.2-.3-.1-.4-.4-.5-.2-.1-.2-.3v-.4l.3-.3.6.2.2.3.2.4.2.3.3.2.2.2.3,1,.2.3.5.3v-.3l-.2-.8-.1-.9.1-.4.4-.2.3.1.2.1.3-.2v-.1l.1-.3.1-.3.1.2.1.4.7,1.5v.1l-.1.2.1.4-.1.8.2.2.3-.2.2-.4.2-.8.5-.4.7.5.5.9.4.8-.1.3v.1l.1.2h.1l.3-.2.1.1.3.3.1.2.2.4.9.7.5.7.3.9.6.7.9.1.4-.1.5-.4.4-.4.2-.7.6-.2.2-.2.2-.1v-.4h.5l.5.3.3.1.2-.5-.1-.5-.1-.3-.6-.5.2-.2h.3l.5.1h.1l.1.3.3.1.1.1.1.1.2.6.1.1.6.3.5.6.5.8.3.6h.1l.4.2.1.1.1.2-.1.6V51l.5.8.9,1.7.3.3.3.4.4.3.5.1,1.1.2.5-.2.2-.8.4.1.5-.1h.3l.4.2-.1.2-.4.1-.3.2-.2.4-.1.3.2.2.4.1h.5l.1-.1.1-.1.3-.4.2-.2.2-.1.2.1.1.3-.1.2-.3.2.1.2h.1l.2.1.4-.1.5.4.3.1.2-.2.1-.1.3-.1.4-.2.2-.3.2.4v.7l-.2.8-.2.5.2.2.2-.3.2-.7.2-.2.5-.3h.4v.3l.3.4h.1l.4-.2h.4l.1-.1.2-.2.2-.9.4.2h.8l.3-.2.3-.2.8-1h.6l.2.1.2.2.5.1.3.2h.4l.3-.4.4.5.1.3-.1.1-.3.1-.3.1-.1.3-.2.3-.5-.2-.5.4-.3.5.2.5,1.1.7,1.1.6.9-.5.5-.2.1-.3.1-.3.2-.2.3-.1.3.1.3.2.1.4.2.2.1.2-.1.4v.2l.1.2,1-.9.1-.1.1.1.3.8.1.2.1.2h.4l.2.2v.3h-.4l-.1.1-.1.2.1.2.3.2.1.3v.9l-.1.2v.4l.2.1.1-.1.3-.5.7-.6.3-.2.1-.4v-.3l.1-.2.4-.2,1.3,1.2.8.5,1,.3,2,.1.8-.2h.5l.2.2.3-.3.6-.4,1.4-1.4.1-.1.4-.2.6-.1h.4l.1.1v.9l.2.2.2.3.2.5.1.1h.2l.3-.1h.2l.1.2.1.9.1.5.2.3.4.2h1l.3.1h.2l.4.2.5.7.2.5.1.1.8.4.2.3.4.5.2.1.3-.1.5-.2.4-.2h.3l.2.2.3.4.4.2.3.3.3.2.5-.2-.2-.4-.9-.5-.4-.5h.8l.5-.1.6-.1.5.7.4.2.5-.2.3-.1.3-.3v-.2l-.5.2h-.5l-.3-.2-.6-.4h-.5l-.4-.3.3-.3h.6l.9-.5.2-.1.2-.2v-.1l-.3-.1-.1-.1.4-.4.6-.2.3-.3h.5l.6-.1v.1l-.2.4.5.2.7-.1.5-.1.4-.2.3-.4v-.3l.4-.1v.4l.8.4h.3l.8-.7h.1l.4-.3,1.4-.8-.2-.2-1.1.3h-.4l-.9.8h-.2l-.2-.3-.2-.4.1-.7.5-.6.2-.2.5-.1.1.1.1.2h.5l.1-.3.2-.1.3-.2.4-.2h.4l.4.2.8-.5.7-.6.6-.4.1-.1.1-.3.2-.1h.2l.2-.1.3-.4-.1-.4-.2-.4-.1-.5.2-.3.5.1.5.2.3.2-.4.9-.4.7-1.3,1.4-.7.9-.3.2-.8.2-.2.1v.1l-.7.5.2.2.8-.4.5-.1,1.4-.2.3-.1.7-.3h.4V60l-.3.2-1,.3-.6.3-.8.7-.5.8-.8.7-.3.1-.6.5-.4.4-.4.4v.8l.4.8.4.3.3.3.2.2.4.8.5-.9.2-.3.3.2h.2l.2-.7.2-.4.9-.6.7-.8.2-.1.2.1.1.2.2.5.2-.2.2-.4.1-.2h.5l.2-.1,1.3-1.4.6-.4-.1.5-.3.4-.4.4-.3.2-.3.4v.3l-.1.1-.7.4-.2.2-.1.2-.1.3.1.1.2.3.2.5.4.2.4-.1.4-.2.3-.3.4-.2.3.1.2.4-.1.3-.2.1h-.2l-.1.1-.1.2-.2.6-.8,1-.1.2.1.4.1.2h.2l.2-.2.1.2-.1.5.1.5.1.4.3.2.3-.1.1-.3v-.2l.1-.1.3-.1h.1l.1.4h.2l.2-.1.9-.1h.1l.2.1.3.4h.6l.4-.1.8-.3.7-.6.4-.7.6-1.7.7-1.1.1-.4-.1-.3-.3-.3-.4-.2h-.4l-.8.1h-.4l-.5.1-.2-.4-.2-.1-.6.1-.2-.1-.1-.4.2-.2.2-.1.7-.1.1-.5,1.1-1.4.4-.4h.4l.2.1.2-.1.5-.6.5-.4.8-.7.2-.1.2-.1.3-.4.6.1.7-.2.3-.4.6-.1.2-.2v-.4l.2.1.2.3-.1.2-.3.2-.3.3-.5.2-.2.1-.4.1h-.4l-.2.2v.4l.1.4.3.1.3-.3.3-.1.3.1.4,1,.2.9.6.1-.1.6V64l.2.6.4.4.3.3.6.7.2.4.1.2.5.4.7-.1.5-.3.5-.5-.3-.4-.5-.1-.4-.3-.2-.4-.5.4.1-.5h.6l.4-.2.7-.2.4.1.6.5.3.5h.6l.6.2.6.8.4.6.2.8-.1.5.4.2.5-.2h.3l-.3.4-.2.2-.3.1h-.4l-.4.2-1.1,1-1.4,1.8-.3.5-.2.1-.1-.4.3-.3.4-.6.1-.3v-.3l-.1-.2h-.2l-.2.1-.2.2-.7.4V72l.1.8.4.6h-.5l-.2.1-.6.9-.5,1.2.4.6-.2.3-.4-.2h-.9l-.4.3-.2.4.2.4.3.2v.5l-.1.3.1.2v.2l-.3.3h-.3l-.2-.2-.1-.3-.1-.3-.2-.6-.1-.4-.1-.1h-.3l-.3.1-.1.1v.4l.1.2.1.3-.1.2-.4.1-.4-.6-.3-.3-.2.2.1.4.2.7v.4l.1.2.8.6.4-.2v.9h.5l1,.6.5.4.1.4.3.5V83l-.1.2-.2-.1-.5-.5-.1-.2-.3.1-.4.7-.4-.1v-.7l-.2-.3-.3-.1-.2.3h-.1l-.2-.1h-.1l-.3.1-.1.1v.5l.2.3h.1l.3.1v.3l.3.4.7.2-.6.9-.2,1.2-.4-.2-.4.1-.3.4-.1.5v.8l-.1.4-.3.1V88l-.1-.3h-.2l-.2.2-.8.3-.2.5-.4.8-.3.3-.3.2h-.2v-.2l-.2-.1v-.3l.5-.3-.1-.2-.1-.3v-.2h.3l.3.1.4-.2.1-.4-.1-.3-.3-.4v-.7l-.1-.3.1-1.2v-.7l-.1-.2-.5-.2h-.2l-.3.4-.2.3-.1.3v.3l.4.4-.2.3v.4l-.1.2-.4.1-.4-.2-.2-.7-.3.1-.2.2-.2.2.1.4.2.3v.3l-.3.3-.1-.1h-.2l-.1.2-.1.4-.3.1h-.3l-.5.6-.2-.5-.2-.7.4-.8v-.6l-.2-.5-.2.1-.7.7-.4.9V88h-.2l-.3-.2-.2.2v.3l.1,1.1-.1.4h-.2l-.1-.6-.1-.6-.1-.5-.5-.4h-.4l-.3.3-.2,1-.2.3-.1-.6-.2-.1-.4.2-.3.4-.1.4-.5.5V91l.6.2.2.1.1.2v.2l-.2.1.1.3h1l.1.2-.1.6-.5-.1-.1.1-.4.3-.5-.6-.4-.2-.4.2-.1.4.1.5v.6l.2.8v.2l-.1.2-.3.2-.1.2v.5l.1.4.4.8.3.3.7-.3.2.5-.7.3-.1.5.3.6.8.2.7-.1.5-.5.8-1,.1-.2v-.3l.2-.1.2-.1.2.1.2.1.1.2-.1.2-.4.4-.2.3-.3,1-.6,1.1.2.2v.3l-.2.6-.2.3-.1.2.1.6-.1.1-.5.8-.9.5-.5,3.9.2,1.4-.5-.2-.4.1-.3.2-.2.3-.1.1-.5.1-.2.1-.5.3-.6.5-.5.8-1.3,2.4-.2.4-.3.3-.6-.2-.3.5-1.2,2.1-.5.8-.3.8.1.8-.4.2-.5.2-.6.3-.2.3-.1.3-.1.2h-.7l-.2-.2h-.3l-.2.2.3.1.2.3.1.9.1.8,1,2.3.5.7,1.7,1.6.7.4.7.2h.2l.5-.2.1.1.4.5.6.5.2.2.2.4.4-.1.5.1.4.3.2.2.2.2,1.4.7.6.5.7.8.7.7.8.3.3.1.9.4.3.3.7.6.2.1.2.1.6.2.6.5.9.3.4.3.2.2.1.2.4,1,.2,1.7.1.3.3.2,1,.8.3.2,1.1.1.4.1,1.1,1.2.6.3.3.4.4.3.6.1.2-.1.2-.1.2-.1h.3l.1.2.1.6.1.2,1,.7.3.3.7,1.1.3.1.1.2-.1.4-.2.5-.1.3.3.5h.4l.4-.2.1-.4.2-.2h.4l.9.1h.9l.2.2.5.4.1.1.4-.1v-.1l-.1-.3.2-.5.3-.2.9-.4.2-.1.3.7.8.6,1,.6.9.3.4.3.2.1h.4l.4.1,1.1.9.2.1.2.3.5.7,1.5,1.1.4.2h.8l.1.4.2.1.5-.1.5.5.2.2h.3l.4-.2h.3l.4.1,2.4.8.6.5.9.3.3.2.8,1.1.1.4,1.3,1.8.1.3.4.5,1.8,1.7,1,.7ZM434,40.6l-.2.1-.2-.3v-.3l-.3-.3.4.2.4.1v.1l-.1.4Zm81.2-1.5v.4l-.6,2.2-.3.8-.1.7-.3.1-.5.3-.2.7-.7.7-.2.9-.4.1-.4,1-1,1.1-.2.3-.2.1-.1-.2-.1-.1-.2.1-.3.4-.4-.2.4-.2.1-.3-.4-.2.4-.4,1.3-.9.1-.2.4-.4-.1-.5.2-.5.6-1,.8-1.1.8-.2.2-.9.3-.4v-.5l.4-.4.1-.3-.4-.3.5-.5.3.2.1-.3.1-.1ZM430.1,38v.5H430v-.2l-.1-.3.1.1ZM425,39.5l.2.6h-.1l.3.4.1.3v.6h-.4l-.2.2V42l.3.2h.5l.3.3-.5.3V43l.2.5.1.6-.1.6-.4.9-.1.7-.7-.8-.1-.7-.2-.7-.4-.6-.9-1.2v-.1l.1-.2.3-.2.2-.1v-.2l-.2-.9-.1-.2-.2-.1-.2-.2-.1-.3-.2-.3-.1-.2.3.1.4.1.2.2.2-.1.3-.1.4-.1.2-.3v-.4l.1-.4.3-.3h.4v.3l-.3.4-.1.2.1.3.1.3Z"/></a>
    <a href="javascript:"><path id="AUSW" class="enable st0" d="M201.5,586.2h-.1l-.2-.1.1-.7-.1-.3.3-.2.2.1.1.1-.2.4v.4ZM59.6,535.9l.1.6-.5-.2v-.6l-.2-.6-.1-.6.3-.3.1.6Zm-2.7-5.4-.5.3-.3.2-.5-.2-.7.1h-.4l.4-.3h.5l.2-.4h.7l.4.2.2.1ZM16.7,442.3l-.2.1-.1-.9.5-.1.4-.5h.6l-.3.4-.4.5-.3.2ZM.9,369.5l.2.3.3-.1h.3l.2.1v1.4l.3.8.5,1,.1,1.2v.9l.5.7.4,1.2.6,1.2.4,1-.5,1.2v.6l.7.2-.3-.6h.3l.2.3.2.4.2.4.2.2.3.5.1.1.2.3v.5l.3.7v.5l-.1.5-.3.3-.2-.1-.4-.3-.2-.8-.3-.9-.4-.5-.2-.2-1-1.4-.8-.6L2,378.2l-1-1.3-.3-.5.2-.2L1,376l-.2-1.4L0,373v-1.3l.1-.4-.1-.8.3-.4.3-.4.3-.2Zm2.3-5H3.1l-.2-.3-.1-.5.6-1.7.1-.8v-1.8l.2-.8.6-.4-.2.8v.4l.1.2-.2.2v1.5l-.1.4-.4.8-.1.3v1.4Zm1.2-7.2-.1.1-.2-.4.5-3.8.4-1.1.2.5v.6l-.5,2.2v.6l.3.2-.5.7-.1.4Zm49.5-97.1-.1.4-.3.2-.7.3-.1-.3-.2-.2-.3-.1h-.1l-.1.3-.2.2-.2-.1-.2-.3.1-.3.2-.9.4-.7,1.5-1.8.6-.6h.5l.1.3v.8l.2.3.1.4-.1.4-.5.7v.4l-.1.2-.2.1-.3.3Zm24.7-6.1.1.6-.1.4H77.3l-.5-.1-.1-.2.3-.4.7-.1.1.4.3-.1v-.3l.3-.3.2.1ZM229.1,164l-.2.3-.2.1-.4-.1-.2-.1-.2-.1-.2-.2.4-.1h.2l.3.3.2-.4.2-.1.1.1.1.1-.1.2Zm-3-.7v.1h-.2l-.3-.4-.3-.5v-.4l.1-.2.1.1v.1l.2.3.4.4.1.2-.1.3Zm-.8-3.4h-.1v-.5l.1-.1h.1l.1.1v.3l-.2.2Zm-4.8-.3.1.1h-.4l-.2-.1h-.1l-.2-.1.3-.3.3.3.2.1Zm1.9-.3v.1h-.2l-.1-.1.2-.3.2-.3.1.1v.2l-.1.2-.1.1Zm-.4,0-.1.3h-.3l-.2-.1h-.2l.1-.1.2-.2.1-.2-.2-.4h.6l.2.1.1.1-.2.4-.1.1Zm22.6-.8.2-.1.1.2-.1.2-.3-.1-.4-.3v-.7h.2l-.1.3.3.2.1.3Zm-19.2-.7.2.3-.4-.2H225l-.1-.3.2-.2.2.1.1.3Zm6,.1h-.1l-.4-.4-.1-.1.1-.1.3.1v.2l.2.1Zm-1.9-2.1-.1.2-.1.1-.2.1-.2-.5.2.1Zm7.4-.6.8.7.4.2-.1.1h-.5l-.1-.1V156l-.2-.1v-.2l-.5-.2.2-.3Zm5,0,.3.1.1.1.2.1-.4.1h-.5l-.1-.1.1-.2h.2l.1-.1Zm-13.3.2.6.2h-.7l.1.3.1.1-.1.3-.3-.1h-.1l.1-.2-.2-.4-.1-.2-.1-.2h-.1l-.3-.2-.1-.1.2-.2.1-.1.4.1.2.2v.1l.1.3.2.1Zm-3.7-2.1.1.1.2-.1.2.1v.2H225l-.2-.3v-.1l.1.1Zm4,.3h-.1l-.1-.1.1-.3.1-.1h.2v.4l-.2.1Zm12-.6h.1l.3.1v.3l.1.2v.1l-.2-.1-.2-.1-.3-.2.1-.1-.1-.3.2.1Zm-14.4-.4h.2l.2.2-.1.1-.2-.1h-.4v-.2h.1v-.3h.1Zm7-.1h.3l.7.2v-.1l.2-.1h.1v.4l.1.1.1.1-.3.3-.2-.1h-.1l-.2.1-.6-.6-.7-.3h-.2v-.2h.6l.1.1.1.1Zm8-.3v.3h-.2l-.1-.1-.1.2-.1-.1-.2.2-.1-.1.1-.3h-.2l.2-.2.1-.3.3.1.3.3Zm-11-.5.1.1h.2l.2.1h.2l.2.1.2.1-.1.1-.1.1-.5-.2-.4-.3v-.1Zm-4.2-.5.3.2.2.1-.6-.1Zm3.6.3-.1.1-.1.2.1.2-.2.1-.1-.3-.2.2v-.1l-.1-.1-.1-.3v-.1l.1-.2h.2l.2.2.3.1Zm-5.6-.8h.1l-.1.2-.2.1-.2.1-.2-.1.2-.2h.2Zm4.9-.3-.1.1.1.1.1-.1.2.2.2.1v.2h-.2v.1l-.3-.1-.2-.3-.2-.3.2-.2Zm3.4-1.3V149l.1-.1v-.6l.2.3v.2l-.1.1Zm11.2-.6.1.4.5-.1.1.2v.2h-.7l-.1-.3-.2-.7.1-.2.2.1v.4Zm8.3-.7.1.1v.4l-.2.3v.3l-.3-.1-.2.1-.1.2-.3.1-.1-.1-.1.1v-.3l.2-.2v-.2l.3-.2h.1l.1-.1.1-.2.1-.1.2-.1Zm-2.7.2v.1l.1.5-.2.1-.1.3-.1.7-.1-.4.1-.3v-.5l.1-.3-.1-.3.1-.1.1-.1.1.2v.1Zm-4-13.8v.2H245v-.1h-.2l-.3.4-.1-.1-.1-.3.1-.1.8-.4h.1l.1.4Zm3.6,0-.2.2-.3-.1-.2-.1h-.4l-.2.3-.1.1h-.1l-.7-.3-.1-.1V134l1-.3.5-.2.4-.5h.2l.3.1.1.3-.1.2-.2.2-.1.2.2.2Zm2.6-1-.3.9v.2h.3l.2.1.2.2-.1.3.5.3.6.9.5.2-.3.2-1.9.7-.4.1-.2-.1-.1-.3v-.2l.2-.1.2.2.4-.6.3-.3v-.1l-.7-.1h-.2l-.2.2-.2.1.1-.5-.3.4h-.3l-.2-.2-.4-.2.3-.2v-.5l.2-.2.2-.1.3.1v-.4l.2-.2h-.4l.2-.3,1.1-.7.3-.1-.1.3Zm5.8.6-.2.1-.4-.1-.3-.2v-.2l.1-.3.2-.4.1-.1.3.2h.2l.3.2.1.2-.1.4-.2.1Zm72.7-2.4-.2.3-.1-.2-.2-.2-.2-.1-.3-.1-.3-.4-.2-.2-.1-.4v-1.6l.2-.2.4.3.2.8.1.2.4.2.1.1.2.4v1.1Zm-70.5-4.7-.3.4.1.2.3.1v.6l-.2.1-.4-.2-.3-.7h-.1l-.4.1-.1-.1-.1-.4.2-.3.3-.1.4.4.1-.4.3-.4.2.4Zm-4.2-.9v.4l-.1-.5v-.3h.3v.1l-.2.3Zm80,2v.5l-.6-.4-1.2-1.4-.2-.6v-1.1l.1-.3.4.1.3.4.5,1.2.2.3.2.2.2.5Zm-2.8-5.7v.1l-.2-.3-.1-.3.1-.1.2.1.1.1h.1l.3.3-.1.1Zm-71.8-5.3-.2.1v-.2l-.1-.1.1-.2v-.2h.1l.2.1.1.2v.2Zm9.8-.9.6.2.3-.2v.2l-.1.2-.1.2-.3-.1-.2-.2-.2-.3Zm-5.1,0-.1.6-.4.5-.1.2.1.2.3.6.2.3-.3.1-.5.4-.2-.1h-.1l-.2.2v.1l.1.2v.2l-.1.1-.2.1-.2-.5-.2-.2-.1-.1-.4.1H263v-.2l.1-.7v-.6l.1-.3.3.1.3.2.2.2v-1.1h-.1l-.4-.3.2-.3.4-.4.3-.2-.1-.3.2-.1h.2l.2.3v.2l.1.1.1.1h.1l.3.1v.2Zm7.5.1h-.5l-.1-.1-.1-.4-.2-.2V115l.4-.4.2.3-.1.2.2.1v.2l-.1.2v.1l.3.1v.2Zm-12.4-1.4-.2-.3.1-.2-.3-.2.3-.3v.1l.2.3-.1.2Zm21.1-1.2-.2.3-.2-.1-.3-.1.3-.1v-.3l.2-.2.1-.3.1-.1v-.1h.2l.1.4-.2.2Zm1.1-1.5h.3l.4.3.1.2-.1.1h-.3l-.1.1-.1.3h-.1l-.3-.2v-.2l-.1-.3-.1-.1.1-.2v-.3l.2-.1h.1v.4Zm-15.2-.4-.1.2-.1-.2h-.1v-.2l.1-.1h.3v.1l-.1.2Zm8.7-3.3-.2.2-.1-.2.1-.2-.1-.3h.2Zm-1.6-4.3h.3v.1l-.3.1-.1.1V104l-.1-.3.2-.2.1.1-.1.1Zm14.7-.5-.1.1-.1-.2v-.2l.1-.2h.2v.4Zm6.4-.6v.1l-.2.1-.3-.1-.3-.1h-.7l-.3.2h-.2l-.2-.3-.1-.4.4-.1.7.1.7.2.5.3Zm51.7,21.7V522.4l-.3.1-1.2.4-3.5,1.8-.3.4-.7.2-1.5,1.1-9.4,4.4-4.4,1.7-5.4,1-3.9,1.5-.4.1-.2.1-.4.4-.2.1-5.2,1.6-3.9.5-.4.2-.2-.1-.6.2-2.5-.1-2.5.3-.7-.3-.6.3-1.8.1-6.6-.8-2.1-.7-.6-.4-1-.1-.3-.1-.3.1-.8.2-.2.2-.4.4-.1.1-.6.2-1.5-.2-.6.3-1.1.6-1.3.7-1.4,1-2.8,2.2-3,2.3-1.3.4-3,.9-1.7,1-3.5,1.9-1.3.4-.4.1-.4.1-2.1,2.5-1.5.9-1.9.6-.8.3-4.1.6-3.5.7-.9.3-.4.3-.9.9-.2.2-.5.2-.4.3-.8.7-1.1,1.4-.4.9-.3.9-.1,1.1-.2.5-.2.5-.3.3-.8,1.8v.6l-.1.3-.2.6-.1.7-.4,1.1-.1.5-.1,1.2-.2.6-.4.2-.5.1-.4.2-.4.3-.2.4v.3l-.1.2-1,.6-1.2,1.5-.3.6-.2.5v.6l.1.2v.2l-.2.2-.4.3-1,.5-.3.2-.2.2-.3.6-.1.1h-.9l-.3.2-.9,1.4h-.3l-.4-.2-.3-.3-.2-.3-.2-.2-1.7-.2-.9.3-.6.7-1,1.5-.8.3-.3-.2h-.1l-.4.4h-.1l-.7.1-.2-.2-.3-1.7-.4-.9-.6-.6-.9-.4-.5-.1-.3.1-.3.1-.9.1-1.6.6-.8.2h-.5l-.2-.1-.5-.5-.2-.1-.3.1-.6.3-1.9-.1-.9.2-.7.4.2.3v.4l-.2.3-.3.3-.4-.5-.4-.3-.4.4h-.3l-2.2-.8h-.8l-.8.3-.7.5-.3.4-.1.3.1.8-.2.5-.4-.2-.4-.3-.1-.3-.2.2-.3.5-.1.1-2-.1-.5-.1v-.2l.6-.7.1-.4-.5-1-.2-.9-.1-.4-.2-.1-.4-.4-.6-.8-.2-.1h-.2l-.3.2h-.9l-.6.2-.7.8-.3.2-.4.1-.7.4h-.4l-.4-.1-.7-.6-.4-.1-.2-.1-.4-.1h-.5l-.2.2-.4.3h-.4l-.3-.3-.3-.4-.4-.2h-.1l-.6-.3-.4-.3h-.2l-.5.1-3.6-.2-.4.1-.8.4-1.1.1-.3.1-1,.7h-.1l-.1-.1-.5-.3-.6-.2-.2-.1-.4.1-.8.3-.5.2h-.8l-.2.1-.5-.2-.6-.1h-1.2l-.5.2-.6.3-.5.3-.6-.1-.4.2h-4l-.2.1-.1.3v.4l-.1.2-.3.2-2.3.8-.6.1-.3-.3-2.2-.6-2.1-.2-.5.1-.8.4-.4.1-.4-.1-.6-.5-.4-.1-.4-.1-.4.1-.3.1-.3.2-.6.5-.4.2H151l-1.1.1-1.1.4-.3.2-1.3,1.5-.6.4-1.4.5-.6.5.3.2-.2.3-.2.2-.5.1-.3.2-.7,1.8-.1.2-.8.6-.2.5-.2.7-.2.7v.6l.3.6.6.2.5.1.6.4-.3.1h-.3l-.5.2-.7.2-.8-.8-.7-.1-.5.4-.2.7.1.7.5.5-.3.1-.5.5v.4l-.3-.1-.1-.1-.1-.4-.2-.6-.3-.1h-.4l-.4.2-.2.2-.1.1-.1.6v.6l-.1.3-.3.1-.3.1h-.2l-.1-.1-.1-.4-.1-.2-.2-.1-.2-.2h-.3l-.4.1-.2-.1-.2-.1-.3-.3-.2-.1-4-.7h-.2l-.4.3h-.1l-1.1-.1h-.2l.9,1,.2.2-.3.2-1.4.2-.5.1-.7.6-.3.2-.3.2-.1.6.2.5.5.1-.7.9-.4.3-.8.2-.8.6-.4.2-1.9.4-1,.4-.8.6-.2.4-.5.9-.2.4-.2.6v.5l.2.8v.7l-.3.1h-.9l-1.7.1-.4.2-.9.6h-.8l-.1.1-.1.3.2.1.3.2.2.4.2.5v.4l-.4.1-.3-.1-1-.8-.2.2-.1-.2-.3.2-1.1.4-.2.1-.4.1-.1-.1-.5-.1h-.3l-.4.1-.2.1-.1-.1-.3-.1H108l-.2.3-1.3.1-.3.2v.4l.2.4.4.2.6.3h.2v-.2l-.1-.5v-.2l.1-.1.4.1.4.9.3.2.8-.1.3.1-.1.4-.3-.1-.3.1-.4.4h-1.3l-.6-.3-1.1-1-1.4-.5-1.3-.1-.4.1-.6.3-.3.5-.1.7v.8l-.7-.3-1.1-.9-.7-.2-.8-.1-.2-.1-1.2-.8-.3-.2-.7-.4-.4-.2h-.1l-.2.4h-.4l-.9-.4-.4-.1-.2.1-.3.1-.2-.1-.3-.2h-.2l-.4.1-.3.4-.4.9-.3-.2-.4-.4-.3-.1-.3-.1-.6-.2-.3-.1-.2.1-.3.1h-.3l-.4-.2-.4-.2h-.3l-.3.1-.4.6-.4.3-.5.1-.7-.1-.3-.2-.8-.6-.9-.2-.3-.1-.2.2v.3H80.8l-.3.3-.2.3-.4-.2-.7-.6-1.1-.1-.5-.3-.2-.1-.2-.1-.6.1-.1-.1-.5-.6-.9-.7-.4-.4.1-.2,1.9.4.4.1h.2l.1-.1v-.3l-.3-.2-.3-.2-.7-.2-.3-.4-.3-.4-.3-.3-.3-.2h-.1l-.2.2.6,1-.5.4-1-.1-.9-.4-.9-.6-3.3-1-1.6-.2h-.2l-.5.1h-.2l-.1-.1v-.3l.2-.5-.2-.5-.6-.6-.3-.9-.4-.6-.6-.6-3-3.6-2.9-2.5-.9-.6-.8-.1-.2-.1-.1-.3-.1-.2-.2-.3h-.2l-.2-.1-3.3-1.8-1-.3-.6-.1-1.7.1-.4.2-.6,1.1-.4.3-.2-.5-2-2.1-.1-.5-.1-.7.1-1v-.4l-.2-.5-.6-1.4-.1-.2.1-.6v-3.6l-.2-1.1-.1-.5.1-.5.3-1.1.2-.5-.4-.6-.2-1-.1-.9.3-.8.6-.6.1-.3v-.6l-.3-1.4v-.5H45l.9.4.6.7.4.7.6.6.8.5.9.3.9.1h1l.9-.1.9-.4.8-.4.6-.5,1.8-2.2,1.3-2.2.6-1.5.3-1.2.2-.4.2-.2h.2l.3.2h.4l.5-.2.2-.7v-1.6l-.1-.4H60l-.1.3-.1.9-.3,1.2h-.1l.1-4.3v-2.5l-.3-2.2-.7-3.3-.3-2.1-.2-.9-.1-.8.3-1,.4-.8,1-1.5.5-.5-.2,1-1.1,1.4v1.3l.6,1.9.5,1,.5.2.2-.4-.1-.6-.5-.9-.3-.4v-.6l-.2-.6-.2-.2-.1-.2.2-.1h.2l.3.3h.3l.9.1.3-.3.2-.6-.2-.6-.3-.3-.4-.1-.2-.2-.1-.5v-.3l.1-.2.2-.4.1-.3.3-.9v-.9l-.3-.8-.5-.5.5-.6.1-.3-.2-.5-.3-.3-.6-.3-.3-.5h1l.4-.2.1-.6.1-.5.2-.9v-.6l-.1-.2-.3-.4-.1-.2.2-.4V533l-.1-.3-.2-.4v-.5l.3-3.3-.5-3.9-.4-2.1-.4-1.1L58,518.8,56.9,516l-2.1-3.3-1.6-4.3-1.5-3.6-1.6-2.9-1.2-1.3-.3-1.5-.1-.3v-.3l-1.4-2.7v-.2l-.1-.5-.7-2.1-.1-.5v-.9l-.1-.5-.4-1.9-.3-.8-.2-.4-.1-.1.1-.2.2-.2v-.2l.1-.6-.1-.2v-.2l-.2-.2-.5-.3-.1-.1-.2-.5.1-.5.1-.6.1-.6v-.2l-.2-.5-.2-.6-.1-.2-.2-.2-.2-.2-.1-.9.6-3.2-.1-.6-.3-.9-.1-.3-.1-2.2.1-2.1.3-2,.4-1.4.1-.5-.1-.6-.5-1.2-.3-1.1-.1-.5-.1-.5-.1-.4-.3-.9-.4-1.5-1.1-3.1-.3-.4-3.9-4.4v-.3l-.8-1.1-.2-.4-.2-1-.4-.4.4-.9.1-1.1-.2-1.1-1.3-3.3-.5-.8-1.8-2.2-1.2-1.9-.1-.4-.1-.4L30,436.1l-.3-.2-.7-.4-.4-.3-1.7-2.1-.2-.7-.1-.3-.1-.2v-1l-.9-2.8-.1-1-.1-1.1.2-.5.4-.9v-.5l.1-.3.3-.5.1-.2v-.3L25,416.9l-1.4-3.2-1.9-3.5-3.4-6.1-2.4-3.5-1.4-2.4-1.3-1.3-1.4-1.6-2.3-2.4-.3-.3-.7-.7-.3-.4v-.6l-.2-.5.2-.3-.3-.5-.3-.8L7,387.7l-.7-.6-.8-.9-.4-.6.1-.3.6.4.5.4.4.1.6.2.1.6.3.6.1-.9.1-.8.2-.8-.1-.9-.1-.9.1-.8.4-.7.3,3,.2,2.8-.1.9.2.9.2.5.4.6.1.5.3.1-.1-.7-.5-1.1v-.8l.2-1.1.3-.5.1-2.6-.6-1.4.2-.7.5,1.2.2,2.7.4-.5.8.1v1l.2.5v.7l.3.3.1.5.2.4.2.7.1,1.2-.3.5.1.9-.3.9.2.2.4-.3v-1.4l.1-.4.3-1-.4-1,.1-.4v-.5l.4-.2.3.5.1.4.1.5.2.7-.2.8.1.6.2.8-.2.6.2.5v1.8h.3l.3-.3v-.3l.1-.5.1-.3.4-.4-.1-1,.1-.2.5,1v.4l-.1.7v.5l-.2.6.1.4-.2.2.4.1H16l.1.3.1.5v.4l.4.1v-.6l.2-.4.3-.1.5-.2.6-.1.2-.2.2.3h.7v-.9l.9-.5.3-.5.4-.7.1-.7-.2-1-.2-.6.2-.5.1-.8-.4-.6-.6-.6-.6-.7-.7-.6-.7-.1-1.4-.4-.1-.5v-.4l-.6-1-.9-1.1-.7-.2-.2-1.2.2-.7-.3-.2-.2-.7.1-.7-.9-.5.2-.7-.2-.5-.1-.4-.3-.3-.2-.3-.3-.3-.1-.3v-.3l-.2-.4-.3-.3-.6-.8-.1-.7.1-.5.1-.6.2-.5.4-.7.3-.8.5-.6.3-.8.3-.1.1.8.1.9-.1.5.3.4h.3l.2.1.1.2.5.1.2.8.3.9.5.8.6.3.3.7.6.3.6.1-.1.8-.2.4.1.5.2.1.6.3.1.5-.2.4-.4.4.1.4v.7l-.2.6-.2.6.1.4-.2.7v1l-.2.7.5.7v.4h.7l.1.4.6-.1,1.2-2.1.4-1,.2-.9-.3-1v-.3l-.2-.4-.1-.2v-.4h.3l.5.1.5.6-.1.6-.1.8.2,1.3-.1.8.5.4.4.1-.2,1.2.1.9.3.8v.5l.2.6.1.6,1.1,1.4,1,1.1.4.3h.4l.4-.4.5-.4.2-.5.6-.3.5-.2.2-.7.4-.7-.3-1-.3-.7-.1-.6-.2-.6.1-.7.2-.5.2-1,.2-.1V384l.1-.3v-.2l-.2-.6-.6-.9-.1-.6.1-.2.2.1.3.4.1.1h.3l.3-.1.2-.1h.3l-.2-.4-.3-.2-.2-.3-.1-.5.2-.5.2-.5.2-.6-.1-.5-.3-.3-1.1-.7-.8-.3-.1-.4-.1-.3-.3-.2.1-.4-.2-.4-.3-.4-.3-.1v-.1l-.1-.5-.2-.1-.8-.5-.2-.3-.5-1.5-1.4-2-.5-.9-1.4-3.5-.1-.6-.1-.4-.8-1.3-.2-.6-.1-.3-.3-.2-.9-.6-.8-.3-.4-.4-.3-.6-.2-.8-.3-.5-.1-.5-.1-.3v-.4l.3-.4.1-.1v-.5l-.1-.6-.4-.3-.7-.1v-.5l-.1-.5v-.5l.2-.4.2-.4-.1-.6-.1-.6-.2-.4-1.3-2.1-2.3-2.6-.5-.8-.3-1-.2-1-.1-3.9.1-.5.1-.4.6-.5.2-.5v-.5l-.3-1-.1-.9v-.5l.2-.3.3-.3.2-.3.2-.4.1-.6v-.5l-.1-.4.1-.4.7-.9.2-.5.5-2.1.3-.4.4-.1.9-2.6.1-.2.3-.2.2-.1.1-.3.1-.1.5-.2.5-.2.1-.2.1-.3.2-.2.8-.5.2-.4.1-.6.1-.1.2-.3.1-.2v-1.6l.2-1v-.5l-.2-2-.4-1.5-.1-.4.1-.6v-.2l.1-.2.2-.2.3-.1.2-.2.3-.5.2-.6-.1-2.8-.1-.8-.4-.5-.2-.6-.3-1.5-1-1.1-.3-.1-.2-.1-.4-.1H16l.3-.9v-.5l-.3-.4v-1l-.1-.3-.1-.2-.1-.2.1-.4.2-.2.5-.2.2-.2.5-1,.3-.3.1-.2.1-1.1.2-.5.2-.5.8-.8.2-.4,1.8-5.1.1-.5v-.5l.1-.5.6-.8.5-1.4,1.4-2.2.5-.5.7-.4.4-.2.5-.1.4-.1.4-.2.3-.1.3.3.1.4-.3.3-.3.3-.1.3-.1.5-.3,1-.7,4.3-.3.8-.1.8.4.8.2.3.4.9v.3l-.2.9-.1.4.3.2.2-.3.1-.4.2-.3.4.2.2.3-.1.5-.1.4h-.3l-.6.8-.1.2v.3l.2.6-.4.9.3.7.5.4h.7l.4-.3.2-.5.3-.5.7-.2.2-.1.3-.2.2-.1.3.2.2.3.1.3.2.3.3.1.5-.2.2-.1.1-.3v-.8l.2-.4.1-.3v-.5l.1-.6.7-1.3.1-.7.3-.6v-.2l.6-.7v-.3l-.1-.3.1-.2.2-.1h.2l.2-.1.2-.9.3-.8v-.7l-.3-.3-.2-.3v-.7l.1-.2.4.3.4.5.2.3,1.1-2,.3-.8h.2l.1-.2.1-.4.1-.9.2-.4.5-.1.2-.1.3-.4.2-.2,1.7-.6,3.2-2,.9-.3.8.2,1-.3.3-.2.2-.2.3-.2h.2l.1.3,2.6-1.6,5-1.9.5-.3.2-.4.1-.4.3-.4.6-.6,1.5-1.9.5-.5.8-.5,3.1-1.5.2-.2.3-.8.6-.9.4-.9.6-.7.7-.6.5-.2.3-.1,1.1-.6.7-.2.3-.2.3-.2.8-.2.6-.3.5-.7.3-.9.1-1,.1-.3.5-.1.2.1.4.2.4.2h.5l.4-.2.6-.5.3-.1H75l1-.2.3-.1.7-.6.3-.1.2-.1.2-.2.1-.5.2-.1h.5l.7-.3,2.5-1.7.9-1,.8-1.3.4-.3-.1-.3.3-.1.4-.1.2.1.2.1v.1h-.2l-.3.2-.1.5-.1.9-.1.2-.4.4-.1.2v.3l.1.2,1,.9.4.2h.6l.4-.1.5-.2.4-.3.1-.3.2-.1,2.3-1.1h.2l.4.3.1.1.3-.1.2-.1.6-.5.2-.3h.1l.2.2v.5l-.1.3-.1.1.1.1.2.2.2.4.3.2,1.7.7.8.2.9.1,1.8-.1,1.7-.3.6-.4.8-.6.5-.2.4.1.3.3h.3l.3-.4.2.1.1.2v.1l.3-.1.8-.4.2.1.3-.2.8-.3.5-.3h.4l.2-.1.2-.2.3-.6.1-.2.3-.2.1-.1h.6l.1-.1.3-.4.1-.2-.1-.5.1-.2.1-.2,4.2-3,.3-.1.3-.1.3-.1h.3v.4l.1.1.3-.2.5.2.3-.1.4-.3.4-.1h.2l.4-.3h.2l.3.1.2.4.2.1h.3l1-.4,3-.5h.3l.2-.2.7-.1h.5l.4.3h.7l.4-.1.8-.6.5-.1h.5l.5-.2.6-.4.4-.6.6-1.2,1.7-1.8.2-.8.1-.5.3-.2.3-.1.3-.3.7-.2.2-.1.3-.6.6-.4.4.1,1,.8v-.9l.2-.2h.4l.5.1,1.7.5.9.2h.5l.4.1.9.3.4.1.2-.1.3-.2h.1l.2.1.1.2.1.2.1.2.8.5.5.2.4.1h.5l.8-.5.3-.1.1-.1.5-.6h.1l.4.1h.3l.3-.3v-.7l.4-.2h.4l1,.1,2.3-.5,3.5-.5,3.6-.4,2.9-.9,6.1-2.4,3.3-1.5,3.2-1.5,3.8-2.6.8-.8.3-.1.3-.2,2.5-2.7,2.3-3,2.2-3.5.5-1.3.4-.5.1-.3v-.5l.1-.2.1-.2.4-.4.1-.2.3-1.1.5-.9.2-.3.1-.6v-.5l-.2-.2-.2-.1-.2-.2-.1-.6.2-.1.4.2.4-.1.1-.1.3-.1h.8l.1-.1,1-1,.2-.4.1-.5-.2-.3-.2-.2-.7-.4.6-.4.3-.4.5-1.3.3-.6.3-.2.3.1.3.2.3.1.5.1.5-.2,2.4-1.8.5-.6.2-.6.2-.3,1.2-.6.5-.3.3-.4.6-.9v.1l.3.3.3-.7.2-.3.6-.2,1.6-.9.5-.6.4-.8.1-.5v-.9l-.2-.6-.4-.4-.6-.2-.7-.2-.7-.1-.7.2-.4.7h-.2v-.2l-.3-.2-.1-.1.5-.7.3-.8v-.9l-.3-1.5.1-1.4.1-.5v-.3l-.1-.2-.2-.4-.3-.4v-.2l-.1-.6-.3-.7-.1-.2-.2-.4v-2.6l.1-2.6.4-1.1.1-.7.2-.4.2-.3.4-.2.1-.3,1.2-1.3.3-.3-.2-.3h-.2l-.1-.1.2-.5.2-.2,2.9-2.7.9-.5-.2.4.2.3.2.1.3-.3.1-.5-.1-.4-.1-.3.4-.1.3.1.2.2.2.3.2.3.2.2,1.2.2-.3-.3-.5-1.1-.6-.8-.1-.3v-.2l.1-.2.2-.1h.2l.1-.2v-.4l.1-.3.2-.2.3-.2.4-.2.1.3.2.2.2.1h.6l.3-.2.2-.1h.6l.3-.2.3-.2.2-.1.4-.1.3.1,1.1.4-1.3-1.2-.4-.6V165l.3-.5v-1l.1-.2.2-.4.3-.3.2-.1.6.1.3-.1.3-.1.1-.3.1-.3.2-.3.4-.1.1-.4.2-1,.3-.7h.5l1.5-1,.3.2-.1.3-.4.6.9.4.4.3-.1.4-.3.2-.3-.1-.2-.1h-.3l-.3.1-.1.1-.2.6.3.5L217,163l.2.3.1.5.1.2.2.1.4-.3.3-.1.1.3v.5l.1.6.2.4.6-.2.3.4.2.2h.5l.1-.3.1-.2h.2v.5l-.2.2-.2.2-.3.1-.1.3v.5l.2.4.4.3h.3l.3.2.1.4v.7l-.3.8v.5l.4.2.5.1.3.4.4.7.9.9.2.3v.9l.1.4.2.3.7.9.4.5.2.6.2.4.4.5.2.6-.2.6.4.8.3.3.7.3.3.5.2.4.2.2.2.3.3.3.3.3.2.9.6.7.3.4.1.4.2.9v.3l.1.1.1-.1.2-.2v-1.7l-.1-.3-.4-.8-.1-.2.1-1,.1-1,.1-.2.4-.6.1-.3v-1l.2-.2v-.2l.1-.5.1-.3.1-.2.3-.1.2.1v-.5l-.1-.2-.3-.4-1-1.4-.1-1.2.1-.4.3-.6.1-.3.2.3h.2l.2-.1.3-.1.4.1.2.3.1.2.2,1h.1l.3-.3.3.1.5.3.4.4.1.4.1.2.1.2.2.3.3.2.5.2.2.2.3.3.2.5.3.4.4.2h.5l.3-.1v-.4h-.2l-.3-.1h-.2l-.6-.7-.4-.7-.5-1.7-.3-.8-.1-.5.2-.2.3.2.8.5.2.1.1-.5-.2-.2-.4-.3-.1-.4.1-.4.6-.5.2-.2.1-.4.4-.2.4-.2.4-.2.2-.4.1-.5-.1-.5-.4-.2-.1.9-.5.5-1.4.5-1,.2-.5-.3-.7-1.5-.2-.4-.2-.8-.2-.4-.3-.3-.7-.3-.4-.2-.7-.7-.3-.2-1.9-.3v-.1l.1-.1.4-.3.5-.1.3-.2-.3-.5.9-.5.3-.2v-.4l-.3-.2h-.9l-.5-.1.3.7v.1h-.7l-.3-.2-.1-.2-.1-.2-.7-.4-.2-.3-.4-.3-.1-.1,1,.2.2.1.3-.1-.2-.3-.4-.6.5.2.7.6.5.2.5.1.5.3.6.1.5-.1-.2-.2-.3-.1-.7-.1.4-.3.7-.1.4-.1-2.5-1.3-.7-.2v-.2l.6.1h.3l.1-.4,2,.7,1.4.1-.5-.5-.3-.2-.5-.2-.2-.1-.2-.3v-.2l.2-.1h.2l.3.2.3.2.4.1h.3l.1-.2v-.7l-.1-.2-.3-.1H232l-.1-.1-.1-.2-.2-.2-.2-.2-.2-.1H231l-.1.1-.1.1.3.1-.1.3h-.2l-.1-.1-.3-.4-.5-.3-.3-.2-.1-.2.6-.1.2-.5-.2-.4-.3-.3.2-.5.1-.2.3-.2.1.1.2.1.2-.1-.2-.4,2-.2.7.2.1-.4.1.1.2.3.2.2h.5l.1.1.2.3.3.1.2.1v.2l-.1.2H235l-.5-.2-.1.1v.3l.4.2.5.1h.4l-.3.3-.6.2h-.6l-.5.1,1.5,1.1.5.3.6.1.2.1.1.3v.3l-.1.3h-.1l-.2-.2-.3.2.4,1.1.2.3.1-.3h.2v.1l.2.2.2-.5-.1-.9.1-.3-.1-.4h.3l.5.2.3.2.2.1.3.3.4.3.2-.2-.8-1.3-.1-.6.7-.2v-.1l-.4-.3-.5-.3-.4-.4-.3-.4.5.1.8.4.5.1h.5l.3.1.1.3h.3l.4-.1.9.2.4.1.4.4.4.2.1.1.6,1.6.3.4.2.1,1.7.2.7.1h.2l.5-1,.5-.3h.3l.5.5.5.3.6.1,2.5.2h.7l.6-.3.1.2.5-.2,1-.1.9.1.5.3.3.4.8.2.8-.1.6-.4-.5-.1-.9.1-.3-.1-.4-.3-.4-.1-.8-.2-1.2-.7-2.2-.4h-.5l-1.6.2-.3.3h-.2l-.4-.3-.3.2h-.3l-.3-.1-.3-.2-.1-.7-.2-.2-.1-.1.1-.3.2-.5v-.2l-.1-.3-.2-.1-.1-.2.2-.3.1-.3v-.2l.1-.3.5-.1.1-.2.1-.2v-1.6l.1-.3.2-.1h.2l.3.2.1.2v1l.1.1.5.5.3.4.2.4.2-.5.3-.6.5-.4.6.1-.1-.5v-1.5l-.2-.9.2-.2h.5l-.1-.5-.1-.4.1-.9.2-.4.5-.3.5-.1.3.4h.1l.2-.5.1-.5.2-.3.6-.4-.8-.2-.4-.1-1,.1h-.2l-.3.2-.5,1-.6.6-.9,2.1-.7.7v-.3l.1-.5.1-.3-.1-.2-.3-.3-.1-.7-.4-1.2-.3-.4v.5l-.1.1h-.2l-.2.3-.2.2-.1-1.6-.2-.4-.2-.3v-1l.2-.3-.3-.6v-.5h.2l.1.2h.1v-.5l.1-.2.1-.2.3.8.1-.5.1-.6-.2-.4-.5.1.1-1.1-.1-.5-.4-.3h.3l.3.1.3.1.1.1.1-.2.4-.1.1-.1v-.6l.4-.5.7-.1.7.3.6.5.3.1.4.1h.5l.2-.1v-1.7l.1-.3h.3l.1.2-.2.5v.2l.3.3.3.2.3-.1.2-.4-.4-.3v-.6l.2-.6.3-.4.7-.3h.1l-.1-.3h-.5v-.3l-.6.4h-.2l-.1-.2v-.4l.3-.1h.2l.2-.1v-.4l-.2-.1h-.5l-.1-.2v-.2l.1-.5.4.2h.3l.1-.2h.2v.4l.1.1h.1l.8.2.1.2-.2.3-.3.6.1.1.8-.8.4-.2.1.1.2.3.5.2v.2l-.2.3-.1.3h.5l.5-.2h.3l.5.1.3.2.6.7.1.3.1.1h.4l.2.1.2.2v.4l-.4.7.1.2h.3l.3-.3.2-.1.2.1v.6l.5.1.1-.3v-.4l.2-.4.5.1,1.5,1.2.6.3-.2-.4-.9-.7-.2-.2-1.1-1v-.2l.4-1.4.2-.2.3-.2.3-.1.4-.1v-.1h-.4l-.3-.1-.2-.3-.2-.3-.1.5h-.4l-.4-.3-.3-.2h-.3l-.9.6-.7.3-.5.3-.2.1-.3-.2-.1-.2-.1-.5-.2-.1-.1-.2v-.2l.3-.3.2-.2.3-.1.1-.1-.1-.2.1-.2.3-.2.2-.1.4-.1.1-.1h.1l.3.3h.4l.4-.4.6-.9-.2-.1-.4-.1-.3-.1-.1.6-.1.1h-.2l-.2-.1-.1-.1v-.2l-.1.1-.3.4v.1h-.1l-.5.3-1,.8-.4.3v-.4l.2-.2-.2-.2-.1.3h-.2l.1-.2-.1-.6.1-.2.2-.2v-.2l-.2-.1-.3.1-.2-.1.1-.5.3-.1.1-.4.1-.1.2-.1.2-.1.3-.1h.4l.3.3h.5l.2.1.2.4.6-.9.3-.3.2.4.1-.4.1-.5-.1-.4-.3-.2v-.6l-.1-.5-.2-.3h.3l.2.1.4.3.2-.2.2-.2.3-.1.2.2v.4l-.4.5v.4l.1-.2.2.8.2-.2.3-.5.2-.1.1.2.2.1.1.3-.2.2v.2l.3.9v.1l.2.1.3.7.2.3.1-.2-.1-.1v-.2l.1-.2.1-.2v-.1l-.3-1.2-.3-.4v-.4l.4-.4v.5l.2.2.3.2h.3l.3.1.1.3.2.1.4-.2v.3l.2.2h.1l.4.5v.1l-.1.3.3.3.5.2.3.1v-.3l.7-.1,1.3.3.3-.3-.1-.4h-.1l-.7.1-.2-.1-.2-.2-.1-.3v-.2l.4-.1.1-.1-.1-.2-.3-.1-.1-.3v-.1h.3l.1-.1.4-.3.5-.2v-.2l-.2-.2-.8.3-.3-.2-.3-.3-.4.1h-.1l-.1-.3H268l-.2.1h-.1l-.4.1h-.2l-.1-.2-.1-.2.1-.2.2-.2H267l-.3.1-.2.2-.2-.1-.1-.3-.2-.1-.2.1-.1.1h-.2l-.4-.3-.1-.1.2-.1.2-.1.2-.4.1-.1h.2l.4-.2h.2l.1.3.1.1.3.1h.3l.1-.2v-.2l-.2-.2.5-.2-.2-.4-.7-.3-.7.1-.1-.2-.6-.1-.2-.3-.1-1.2-.1-.2-.5.2-.1-.1v-.3h-.2l-.2-.1v-.5l.2-.1h.7v-.2l-.1-.2v-.1l.2-.2.2.1h.4l-.2-.4.1-.4.2-.1.8.2h.2v-.4l.2-.1h.3l.3-.3-.4-.1h-.9l-.1-.4.2-.4.5-.4.5-.3.4.2h.1l.2-.3.2-.4.1-.6.1-.3.1-.1.2.2v1.4l-.1.3-.2.6.3-.5.4-.3.3-.3.1-.5.3.4.7,1.7.1.1.1-.3-.2-.5.1-.2h.4l-.1-.2.1-.3.1-.2.2-.2-.2-.1-.1-.1V117l.1-.2.6.5-.1-.6-.1-.4.2-.2.2-.1h.3l.3.2h.5v.4l-.2.3-.3.2-.1.2.3.2h.4l.4-.1.3-.1-.1-.3-.1-.1.2-.4h.2l.1-.2-.1-.2-.1-.1.2-1.2.2-.5.1-.2-.2-.4-.3-.4-.2-.4.1-.3v-.2l-.1-.4v-.5l.2-.3V111l-.2-.2v-.2l.2-.1h.3l-.1-.3.3-.1.4.2.2.6h.1v-.2h.2l.1.3.6.4.3.2.1-.3.3-.3.2.2-.2.1-.3.6.2.2v.2l-.2.3-.3.1-.2-.1-.1-.1-.2-.1-.3.1.1.2v.2l-.1.2.3,2.2.2.4v.7l-1,2.1v.8l.3-.3,1-2.6.2-.3.1-.5v-1l.2-.5.3-.1.1.3-.1.4.2.1v.2l-.2.6.7-.1.3-.2.2-.4.2-.1.1.1.1.2-.1.3.3.1.1-.1.2-.3h.2l.2.2v.2l-.2.2-.2.1-.3.1.3.8-.2.3v.1l.3.2v.1l-.1.3-.1.2.1.3.2.2.2.1h.1l.8.6.4.3.2-.1.1-.9-.1-.2-.2-.2-.1-.2v-.1l.1-.1.1-.5.1-.3.1-.1h.8l.1.1.1.1.2.3.1.1.3-.1v-.5l.1-.2h.2l.3.2h.2l.1-.2v-.3l-.1-.3-.1-.5-.3-.3v-.2l-.1-.3-.1-.1-.1-.1-.2-.2-.2-.1-.1-.2v-.3l.1.1.3-.2.3-.1v-.1l.5-.3.6-.1v-.7l.1-.1.1-.2.1-.2-.1-.2-.2-.4v-.7l.2-.2.6-.1.4-.2.5-.4h.1v-.4l-.1-.5v-.3l.2-.2-.4-.9-.5-.3h-2.2l-.3-.2-.1-.3-.1-.3-.2-.3v-.4l.1-.3v-.2l.3.2.4.6.2.1.3-.1v-.8l.3-.1.5.9h.5l-.1-.2v-.8l-.1-.3-.1-.1h-.1l-.9-.5-.2-.1-.2-.3.1-.1.2.1.6.2.2-.1v-.4l.2-.2.2-.2.3-.1.1.2-.1.3-.2.2v.2h.6l.2.1h.2l.3-.2v.2l-.1.2-.3.3.4.2v.1l-.3.2-.3.2-.2.4-.1.3.4-.1.3-.2.7-.6.2-.1.2-.2.6-.2-.2.5-.7.4-.3.4h.6l.4.3.1.3-.4.1-.6.1-.1.2.1.3-.1.3.7-.2.3.1.1.4-.6.5-.2.3.5-.2-.2.8.5.3.6.2v.3l-.1.1-.2.1-.1.2.5.2.2-.1.3-.2h.2l.2.4h.1l.1-.3.1-.3.2-.2.7-.2V109l-.2-.3-.4-.4h-.1l-.3-.1H289l.1-.2.2-.4.1-.3.1-.2.2-.2.4-.2-.3-.3.3-.3h.7l.3-.9.7-.5.2-.3.4.5h.4l.4-.2.3-.4.3-.6.2-.2.4.1.5.2-.2.1-.4.2-.3.2-.1.2v.3l-.3.1-.1.2-.1.5-.1.2-.6.6-.3.4.2.2.5-.1.7-.2h.2l-.7.9.2.2.2.5.2.1h.3l.5-.3.2.1.1.3-.1.7v.3l.2.3.3.2.3.2v-.9l.1-.3.3-.1.3-.1.2-.2.1-.3-.1-.4v-.2l.2-.3v-.2l-.2-.4.1-.2.5.3.1.1.1.2.1.5.1.1.3-.1.3-.7.3-.3-.2-.3.2-.3.2-.3.1-.4h-.1l-.1.1-.4.3-.2-.2-.2-.3V105l.1-.3h.2l.4.2h.3l.1-.2.2-.3.3.2.3-.1v-.1l.6.3h.3l.3-.3-.5-.1-.2-.1-.1-.2.2-.2.3.1.6.1-.2-.2-.1-.2-.2-.1h-.3l-.3-.1-.2-.2v-.3l-.1-.4v-.1l-.4-.5-.2-.2-.2-.9-.2-.3h.4l.4-.1.4-.2.1-.3.1.1.2.1.1.4-.1.4.5.2v-.3l.2-.1.2-.1h.3v-.1l-.4-.2-.3-.3v-.4l.4-.2.4.1.3.2.4.2.4-.2-.4-.2-.2-.1.2-.2.3-.1.5-.1.6.6.3.3.4.1.2.2v1l.4-.2h.2l.2.1-.2.4.5-.2v.3l-.2.6-.2.4.7-.1.2.4v.6l.3.6.5.3.2-.3.3-.5.4-.4-.2-.1-.1-.2v-.2l.1-.2.4.2.1.2v1l.2.1.2-.1.2-.2.2-.7.3-.3.3.1.8.9.3.3.6.2v-.3l-.2-.6.2-.4.3.1.2.3.1.2.2.2h.3l.2.2.2.4h.1v-.1l.3-.4.3.3.2.3.1.4.1.4v.2l-.1.8.1.2.4.3.2.2.2-.5.3.2.4.4.2.2.4.1.6.6.3.2h.3l.2.1.2.2.9.7.1.4.3.5.3.4,1.3,1.1.1.2.6,1.6.2.1.4.1.1.1.1.2-.1.8.1.3.2.1h.1l.1-.1v-.3l.1-.2h.2l.3.1.2.4-.6.6.1.4.3-.3.3.1.4.5.8.5.3.3-.3.1-.1.1.1.3v.2l.1.2.2.1h.2l.6-.2.1-.1.2-.1.3.2.5.5.2.2.1.4.2.4.3.1h.3l.3.1.2.1.9.9.3.2.5.1.4-.1h.1l.2.3.1.1v.3l-.1.3-.3-.2-.4-.1-.2.2-.2.3.1.4.2.8.1.4-.1.1-.2.1h-.7l-.3.1-.4.4.4.2-.1.7-.4,1.5-.1.2-.3.6-.1.3v1.1l-.4.6-.1.4v.5l.1.3.2.5.1.3-.2,2.3-.1.2-.2.1h-.4l.6,1.7v.8l-.3.9-.8.8-.1.2.2.2.4-.2.5-.4.4-.3.3-.7.3-1,.1-1v-1l-.4-1.4.2-.1.1-.3-.1-.3.1-.2.3-.2.2.2.2.2.6.3,1.1,1.1.2.3.1.2.4.6.5,1.6.1.5h.1l.2-2-.1-.5-.3-.5-.8-.7-.3-.3-.2-.4-.1-.5.2-.6-.1-.9-.2-.2-.2-.2-.1-1,.4-.8,1.2-1.1.2-.1.1-.2v-.3l.2-.4.4-.5.2.2.2.5.3,1.9.1.4.3.2-.1-.7v-.4l.1-.3.8.9.4.3.6.2.1-.1.1-.2.1-.2v-.5l-.1-.2-.2-.2-.5-1-.1-.5-.2-.5-.1-.2.1-.4.1-.1h.1l.3-.2.1-.1-.1-.2-.1-.1-.4-.2-.1-.1-.3-.4.1-.2,1-.1.8-.3.4-.2.3-.2.5-.2.4.2.8.4,1.9.2.8.2.7.7.4-.1.5.1.5.2.5.1h1.8l.5.1.7.4.6.1Z"/></a>
    <path id="AUS2653" class="st0" d="M787.9,617.4l-.3.2-.4.1-1.6-.3-.3.1-.3.4-.1.2-.2.2-.2-.1-.3-.2h-.1l-.3.1-.1.1-.1.2-.4.6-.2.4-.2.2-.1.2.1.1v.3l-.2.4v.2l.1.3.1.3.1.3v.2l-.1.3-.3.7v.4l-.1.3-.7.2-.1.3-.1.2v.6l.3,1.4.1.8v.5l-.2.7v.5l.2,1v.6l-.1.4-.1.2-.4.4-.1.2-.2.2-.1.4-.1.3-.3.1-.2-.1-.5-.3-1.3-.5-.2-.1-.2-.2-.1-.2-.4-.8-.1-.5-.2-1.5v-.5l-.1-.3-.1-.1h-.3l-.1.2-.2.2-.2.2-.1-.1-.2-.1-.7-.7-.2-.3v-.7l-.1-.3-.2-.2-.1-.3v-.3l.2-.9v-.6l-.2-.9-.1-1.1.1-.4.3-1.2v-.7l.1-.2.3-.7v-.5l-.1-.3v-.3l.2-.4.2-.3.2-.1,2.4-1.8,3.5-2.7.6-.2,1.1.9.2.2.1.3v.7l.1.1.2.1.3.1.3.1h.2v.7l.1.1.2.2,1.1.5.4.1.5.2,1,.6h.1l.1.2-.3.3-.2.2Z"/>
    <a href="javascript:"><path id="AUSNE" class="enable st0" d="M816.4,611.3l-.6.1-.8.6-.5,1.1-.6.2-.7.5-.1.2-.1.5-.1.2-.1.2-.3.3-.5.6-.2.4-.1.5v.7l.1.4.1.2-.2.3-.6.6-.1.1-.1.4-.3.4-.3.4-.2.3-.1.6.1,1.3-.1.3-.4.2-.3.6-.9,1.6-.5,1.6-.4.6-.4.2-.4-.1-.5-.3-.2.1-.6.2.5.7.2.7.1.2.2.4v.9l-.1.3-.4.1-.5.2-.1.1-.8.9v.5l.2.7.1.5-.2,1.8-.2,1-.4-.1-.5-.3-.4.4.1.2v.1l-.2.3.3-.1.1-.1.4.2.4.3.1.5-.4,1-.1.6.1.6.5,1.5v.5l-.3.3v.1l.2.6v.3l-.1.3-.2.2-.4.3-.4.5-.3.5-.1.5-.1.6.1.7v.4l-.3.5-.1.4.2,1.1.1.6-.2.6-.6,1-.8,1.7-.1.4-.1.5v.6l-.1.7-.3.7-.4.5-.4.4.2.6-.1.5-.5,1-.1.6.1.3.3.1.4.3-.2.3-.2.5-.1.5.1.4.3.4.1.3v.5l-.1.2-.3-.2-.4.2-.3.4-.1.2-.2.1.1.3.3.4.4.1h.3l.2-.1h.2l.2.1.9.7.2.2.1.4v.9l.2.4.7,1.3v.2l-.5-.3-.5-.1h-.5l-.4.2-.3.4v.5l.4,1-.3,1.1v1l.2,1,.4,1.2-.3.4-4.5-2.3-9.4-4.8L782,666l-4.7-2.3-9.4-4.8-4.6-2.4-.6-.2-1.2-.1-.6-.2-.2-.1v-.1l1.5-2.5.3-.5.1-.6.1-.6v-.3l-.4-.9-.3-.1h-.3l-.2-.1-.1-.2-.1-.2-.1-.4v-1.3l-.2-.3-.1-.6-.1-.2-.2-.3-.7-.6-.4-.4-.2-.6.1-.3.3-.4v-.5l-.1-.3-.2-.4-.4-1.6-.1-.2-.2-.3.1-.7.2-1.1-.2-.5-.8-.6-.2-.4.1-.7.1-.5-.1-.3-.5-.3-.5-.1h-.2l-.2-.2-.2-.3-.1-.3-.1-.2-.3-.1-.6-.1-2.8-1.4-.2-.1-.4-.1h-.2l-.2.1-.3.4h-.2l-2.5,1-.3-.1-.2-.5-.3-.4-.3-.2-.4-.1h-.2l-.4.3h-1.1l-.2.2-.3.4-.3.4-.2.3-.3,1.5-.1.4-.4-.4-.4-.3-.4-.1h-.3l-1.2.4h-.7l-.4-.1-.3-.3-.2-.2h-.2l-.2.1-.6.8-.1.3-.2.3-.1.2v.2l.2.5.1.7v.3l.2.3.2.3.2.2.3.2.3.1h.9l.1.3-1.9.6-.3-.2-.9-1-.2-.6-.1-1,.2-.8-.6-.4-.3-.1h-.3l-.4.2-.1.2-.1.2-.1.2-.6-.1-.5-.4-.6-.3-.7.2-.4-.4-.2-.2-.1-.1h-.6l-.3-.1-.4-.5-.4-.1h-1l-.4-.3-.7-.9-.3-.1h-1.7l-.2-.1-.5-.4-.2-.1-.2.1-.2.2-.3.1-.4-.2h-.2l-.3.1-1,1.7-.3.1-1.5-.1-.7-.3h-.5l-.5.1-.1.4-.4-.1-.4-.2-.5-.2-1.3-.1-.5-.2-.3-.2-.6-.1-.9.1-.2-.1-.2-.2-.1-.5-.2-.3-.4-.3h-.9l-1.5.5-.9-.1-.9-.4-3.7-3.3-.8-.3h-.9l-1,.2-1.6.9-.9.1-.9-.2-.9-.3-.7-.1h-2.1l-2.4.4-.4.2-.3.3-.1.2-.2,1.6-.5.9-.1.5.2.5.3.4.4.5.2.6-.2.4-.5.1-.9-.5-.5-.1-.4.2-.9.9-.4.3-.9.2-.6-.1-.3-.2v-.3l-.1-.1h-.4v-.1l-.1-.3-.4-.3-.4-.2-.9-.1-.4-.2-2.4-2.9-.8-.3-.4-.4-.3-.5-1-2.6-.5-1-.6-.6-.3-.1h-.5l-.2-.1-.2-.2-.3-.4-.4-.2-.4-.5-.2-.2-.4-.2-.2-.1-.7-.8-1.1-1.7-.7-.5-1-.1-.5-.2-.3-.9-.5-.2-1.3-.6-.9-.6-.5-.5-.4-.3-.5-.1-.1-.1-.1-.2-.1-.2-1-.4-1.8-.3-1.2-.8-.2-.2-.1-.3-.1-.3.1-.2.2-.2.1-.3v-.5l-.1-.5-.2-.4-.3-.5-.4-.2-1.9-.4-.5-.3-.4-.3-.2-.2-.5-.9-.5-1-.3-1.1-.1-1.6-.2-.7-.1-.4.1-.2.2-.5V606l-.1-.4v-.3l.4-.4v-.5l-.1-.3v-.3l.1-.5.1-.2-.1-.2-.6-.4-.3-.1-.4.3h-.3l-.1-.6-.2-.4-.4-.2-.4-.1-.2-.3-1.4-.8-.3-.1-2-.1-.9-.6-.3-.1-.2.4-.1.2-.4-.2-.7-.6h-.2l-.3.2-.6.3v-.1l-.3-.3-.1-.3v-.6l-.2-.2-.1-.2-.7-.3-.2-.3-.2-.2h-.4l-.5.3h-.2l-.4.2-.2.5-.2,1.2-.3.4v.6l.1.2-.1.5-.2.1H643l-.4-.1-.4.1H642v.7l.3.4v.3l-.4.2-.4-.4-.3-.1h-.3l-.5-.1-.4-.2-.3-.2v-1l-.6-1.4-.5-.6-.1-.3v-.8l-.2-.3-1.4-1.2-.2-.3-.3-2.3V593l.1-.5.5-.8.1-.5-.2-.4-.3-.1-.3.1-.5.1-.3-.2-.5-.5-.5-.5-.2-.4-.3-.2-.1-.3v-.6l-.2-.6-.2-.6-.1-.1h-.2l-.5.1-.2-.2-.3-.4-.3-.2-.3-.1-.5-.1-.1.1-.4.2-.2.1-.4-.9-.5-.5-.6-.1-1.2.3h-.4l-.3-.1-.2-.1-.5.2-.4.1h-1l-.5-.1-1-.5-.5-.1-.9.2-.9.4-.7.6-.6.6-.5.8-.3.3-.4.1h-.2l-.2-.2-.1-.3-.1-.6-.2-.1-1.1-.1-.3-.1-.7-.5-.1-.1-.4-.2-.5.1-.5.2h-.3l-.2-.2-.3-.6-.2-.1-.3-.1-.2-.3-.2-.2-.5-.3h-.3l-.3.3-.2.1h-.3l-.2-.2-.2-.2-.3-.2-.5-.1-2-.1-.4-.2-.5-.9V455H779l.6-.5.5-.2.5-.4.4-.4.2-.5.2-1.2.2-.5.4-.2.5-.1.5-.2.5-.2.4-.4.1-.2.2-.3.1-.2.5-.2.2-.2.3-.2.1-.3h.2l2.2-1.2h.4l.4-.2.4-.5.8-1.6.3-.3,2-.3.4-.2.3.3.1.4.1.4.4.1.8-.1.4.1.2.4.6-.4.2-.1.4-.1h2.4l.8.1,1-.2h1.5l.8-.4,1-.3,1.2-.4.3-.1,1.3.1.5-.1.4-.2.5-.2.5.2.8.7,1.3,1.3.6.5,1,.2,2.8.1.9-.1,1.9-.4.9-.1.9.4.8.5.4.2.9.2.3.3.3.4.4.2.4.1h.6l.4.2.2.5v1.4l.2.4.3.2.5.1h.9l.4.1.5.3.8.7,1.4.9.4,1.6.1.3-.1.3v.2l.1.3v.8l.2.9v.2l.4.2.1.2.1.3v.4l.1.3.6.2.1-.1.5-.2.4-.1.1-.3v-.2l.5-.2.2-.2.1-.3.4-.5.2-.2.4-.3.2-.1v-.9l.1-.4.5-1,.1-.4.4-.1.5-.1.3-.3.3-.1h.4l.5-.2.8-.6.3-.2.2-.1.1.1.7,1.5.3.2h.6l.2.3.2.1.2-.1.1-.1.1-.7.2-.3.1-.1.2-.2h.3l.4.1.5.2h.3l.7-.4.2-.1h.6l.3-.3.2-.3v-.9l.3-.6.1-.3v-1.5l.1-.3.1-.2.2-.3.1-.3-.1-.2-.1-.2-.6-.7-.5-.5-.2-.3-.1-.3v-.4l-.2-.3-.6-.6.1-.3.1-.3.3-.1h.3l.4-.2.5-.4.3-.4,2.5-1.3.2-.1h.3l.7.1.3-.1.1-.1.2-.2.4-.4.5-.5.2-.1h.3l1-.1.6-.3.4-.2.2-.3.3-.9.1-.1.3-.2.7-.7.3-.2.2.1h.2l.4.4.1.2.1.2-.1.3.1.2.3.3.2.1h.4l.3-.2.1-.2.1-.4.1-.2h.3l.5.6.2.1,2.1.9h.6l.4-.1.6-.2.1-.1.3-.4h.9l.5.1.5.3h.2l1.3.1h1.6l.3.2h.4l.2-.1.3-.2.5-.8.3-.2.1-.3.1-.3.3-.4h.9l1.7-.4h.3l.6.2.6-.3,2-1.6.7-.6.5.7.7-.1.2.5.2,1.3.2.5v1.3l-.6,3.5v1l.3,2.1.2.5.8.9.2.4-.1.1-.2.5v1.1l-.4.8v.5l.2,1.1-.1,1-.5.7-1.3,1.1-1,1.5-.4.8-.4,1v.5l.2,1.1v.3l-.1.1-.4.1-.1.1-.1.3-.9,1.6-.5,1-.2,1,.2,1,.4.5v.4l-.2.4v.7l.1.5v.2l-.2.5-.2,1.1-.4.8v.2l-.1.6.2.5-.1.1-.2.3v.8l.1.4v.4l-.5.9-.2.4v.8l.1,1.1-.1.2-.3.4v.1l-.1,1.1-.1.6-.1.5-.8,1.1-.1.3-.1.2-.3.4v.6l.1.6v1.4l-.3,1.2-1.2,2,.2.7-.3,1-.9,1.6-.2.5-.1.8-.6.8-.1.6-.4,2-.2,1.5-.2.4.1.1-.5,2,.2.4.2,2.2.4,1,.2.1.2.2.2.1h.2l.2-.3.2.1.1.2.1.3v.5l-.2.5-.4.4-.3.8-.2.9.1.5.3.1.1.2-.1.4-.3.4-.8.8-.6,1.1v.8l-.4,1.1.2.3.2,1.7-1,1.1-.3.8-.1.6.4.5.2.6-.2.5-.6.6-.6.7-.7.9.1.8-.3.6.3.5-.4.3-.4.5-.5.7.3.4v.4l-.6.5-.7,1-.1.9.2.3-.7.5-.5.6-.6.5-1.2,1.1-1.3,2.5.1.7-.5.6-.2.5-.1.5-.1.7.1.4.4.1.2.4.4.2.2.4-.3.3-.2.3-.2.4-.3.5v.8l.3.1.3.2v.1l-.2.2-.1.2-.1.3v.4l-.2.5-.1.5v.5l.4.4-3,1.2-1,.6-1.3,1.2-.2.7-.4.2-.7.3-.5.6-.4.6-.1.4.3.4.4.3h-.3l-.3-.3h-.5l-.5-.5-.2-.1v.1l-.4.4-.2.1-1,.3.5.5h1.8l.2.1.3.1.1.1-.1.2-.1.6-.1.2h-.7l-.2.1-.3.4-.1.1-.3.1-1.1-.2-1.6.3-1.1.4-1.2.7-.5.4-.4.2-.8.8.1.6-.3.3-.4.4-.5.3-.2.4-.1,1.1-.3.1-.4.2-.7.9-.1.3v.3l-.3.6-.1.9-.2.4-.2.4v.4l-.3.4-.5.3-.5.7-.1.5.3.5-.2.2-.8.7-.3.2v-.2l.3-.4.2-.6-.5-.5-.6.4-.8.7v.2l.4.5-.6.1v.3l.2.3.2.1.3.1.3-.4.1-.2.2.1v.4l-.3.4-.1.5-.6.6-.2.5.1.2v.2l-.3.3.1.4.1.2-.1.1-.3.1.1.4-.1.3-.1.1-.2.2h-.6l-.2.1-.3-.1-.2.2-.2.2-.5.1-.3-.1-.6.3h-.3l-.2-.4-.2-.6-.4.3-.1.5.2.5.4.3-.1.2-.1.1-.2.1-.2.1v.1h.5l.7-.9h.4l.2.2-.2.7-.2.8.1.3.3-.3.2-.4.2-.8.3.7-.4,1.3-.3.6-.1.9.2.3.1.2v.3l-.2.6-.1,1.2-.3.1-.2-.1-.3.1-.3.3-.1.4v.3l.1.1.4.1.2-.1.1-.3.1-.1.1.3v.6l-.4,1.2.1.4-.3.7-.1.3-.3.3-.1-.1-.7-.8-.2-.2-.4.1-.1.2-.1.4-.2.3-.4.1-.5-.1h-.4l-.2.4.6.2.2.1.2.2h.2l.2-.4,1.3.2h.3l-.1.4-.1.2h-1.1l-.2.2-.1.2-.1.2-.1.2-.3.1.2.1h.5l.2.1v.2l-.2.3-.4.4-.8.6-.4.4-.6.3-.9.7-1.2,1.6-.6,1-.4.8.1.8-.4,1.2-.2,1.1.4.9-.5.5-.2.7-.3.4-.4-.1.3-.5-.2-.2-.2-.1h-.2l-.1.1-.8.9.1.2.2.1h.6l.3.2.6.6.3.3h.4l-.7.1-.3.5-.4,3.3-.4.8-.5.4-.6.3-.6,1.3-.5.3-.1.1.3.3.3.2.2.2.4.1-.1.2-.3.2h-.4l.2.3.5.2.2.2-.1.2.1.2-.2.7.4.5.7.2.5.1.1.1-.2.9v.6l-.3.4-.5.5-.2-.3-.3-.3-.2-.3.2-.3.2-.4-.3-.6.1-.3-.4-.2h-.4l-.4.2-.7.3-.2.3-.2,1,.4.1.1.3v.7Zm-28.5,6.1.2-.2.3-.3-.1-.2h-.1l-1-.6-.5-.2-.4-.1-1.1-.5-.2-.2-.1-.1v-.7h-.2l-.3-.1-.3-.1-.2-.1-.1-.1v-.7l-.1-.3-.2-.2-1.1-.9-.6.2-3.5,2.7-2.4,1.8-.2.1-.2.3-.2.4v.3l.1.3v.5l-.3.7-.1.2v.7l-.3,1.2-.1.4.1,1.1.2.9v.6l-.2.9v.3l.1.3.2.2.1.3v.7l.2.3.7.7.2.1.1.1.2-.2.2-.2.1-.2h.3l.1.1.1.3v.5l.2,1.5.1.5.4.8.1.2.2.2.2.1,1.3.5.5.3.2.1.3-.1.1-.3.1-.4.2-.2.1-.2.4-.4.1-.2.1-.4v-.6l-.2-1v-.5l.2-.7v-.5l-.1-.8-.3-1.4v-.6l.1-.2.1-.3.7-.2.1-.3v-.4l.3-.7.1-.3v-.2l-.1-.3-.1-.3-.1-.3v-.2l.2-.4v-.3l-.1-.1.1-.2.2-.2.2-.4.4-.6.1-.2.1-.1.3-.1h.1l.3.2.2.1.2-.2.1-.2.3-.4.3-.1,1.6.3.4-.1.3-.2Z"/></a>
    <a href="javascript:"><path id="AUSS" class="enable st0" d="M533.8,623.6l.2.2v.4l-.3.2-.5.1-.3.4v.4l.4.1h.7l.3.1v.1l-.5.8-.9,1,.4.5h.5l.5-.1.9.5.5-.1.9-.2.3-.1.1-.1h.1l.2.2.1.2-.1.8.2.5.4.2.5-.1.4-.1.4-.3.2-.4.2-.4.1-.5.3-.4.5-.1.7.1.9.3.9.5h.3l.1.2.1.9.2.2.3.2h.7l-.1.4.1.5v.4l-.6.2-.3.1-.6.9-.2.3h-.5l-.5-.2-.4-.2-.7-.7-.4-.1h-.4l-.5.1-.4-.1-.6-.2-.5-.1h-.5l-.9.2-1.8.8-1,.2-.3.4-.2.5.1.6v.2l.2.3.1.2-.1.2-.2.5-.2.2-1,.3-1.3.9-.7.3-.4-.3-.6-.4-1-1.2-.7-.2-1-.1-1-.4-.3-.1h-.4l-.5.3-.2.6-.2.5-.6.3-.4-.1-.7-.3h-.4l-.6.2-.3-.1-.2-.3-1.5.7h-.7l-.7-.1-.4-.4h-.4l-.4.3-.2.1-.4-.1h-.3l-.2.1-.2.3-.1.1-.2-.1h-.3l-.3.2h-.3l-.2-.2-.1-.4-.1-.4-.3-.5-.6-.9-.3-.1-.8-.2-.3-.1-1.3-1.2.1-.3v-.5l.1-.3.1-.2.1-.1.2-.2.1-.6.1-.3.2-.3.1-.3-.1-.5.1-.3.3-.2.5-.2,1.6-.2,1-.5h.6l.3-.1.3-.3.2-.1,5.8-.9.5-.2,1-.6,3-.7.3-.2.2-.3.3-.3.4-.1.3.1,1.8.6.2.1.2-.1.4-.3h1.3l.8-.3.4-.1.3.2.5-.2Zm-24.3-10.9-.1.2-.2-.2h-.4l-.4-.1-.2-.2.2-.3.3-.2.3.1.3.3.2.4Zm-6.3-2.7-.1.2-.3-.2-.6-.1-.2-.5v-.6l-.2-.6-.9-.9-.3-.5.5-.2.4.2,1,1.7.2.2.2.1.1.2.1.5.1.3v.2Zm25.1-14.4-.3.4-.3-.3-.1-.3.2-.4.5-.7.1.7-.1.6Zm-62.2-19.5-.2.2-.2-.5.2-.7.1-.2v-.5l.3-.1.9-.3.1.4.1.6-.2.2h-.3l-.3.1Zm-19.3-37.9-.7.4-.5-.3v-.4l.4-.5.4-.4.4-.2.6-.2.6-.1h.5v.1l-1.2.4.2.4.1.1-.3.1-.1.3-.1.3Zm160,44.2-.3-.5-.5-.3v2.1l.1,39.4v67.4l-.4-.1-5.1.4h-.5l-.5-.2-.4-.3-.3-.3-.2-.1h-.5l-.2-.1-.2-.3-.2-.1-.4-.3-1.7-1.6-.5-.3-.8-.3-.4-.2-.2-.6-.4-.1-.3-.3v-.6l-.1-.4-.4-.9-1-1.8-.2-.5-.9-1.8-.5-.6-1.7-1.3-.6-.7v-.2l.6-.1-.1-.6-.4-.5-.4-.3-.3-.1-.4-.3-.4-.1-.3-.2-.1.1-.1.2v.3l-.7-.4-4.2-6-.5-1.3-.6-1.1.1-.2.4-.2.3-.3.2-.8-.3-.6-.5-.6-.3-.6-.1-1.1-.1-.4-.4-.4-.5-.3-.3-.2v-.4l2.4-1.4.7-.6.5-.9.4-1,.1-1.2-.1-3.5-.1-.4-2.7-6.7-2-4.5-1.5-3.5-.4-.4-.7-.6-.9-1.4-.2-.4-.2-.3-4-4.1-1.6-1.5-.8-.5-.6-.8-.7-.3-.8-.8-.7-.3-.7-.8-.6-.3-1.1-.8.9-.2.9.5,7.5,7,2.1,2.1,1.1,1.3,1.5,2,.7,1.6,1.4,3.1h.2l-.2-1.2-1.2-2.8-.2-1.1-.1-.4-2.6-3.3-.4-.4-.8-.3-.4-.4-.5-.7-4.1-3.7-.4-.2-1.4-1.1-.2-.3-.9-.5-.3-.2-.1-.5.1-.3.3-.2.5.2v-.6l.2-.5.6-.6.5-.3.4.1.6.7.4.1.4.2.3.2.1.4-.1.7-.1.4-.1.3.2.4.2.1h.3l-.1.4-.1.2-.3.2-.2.3.1.3.3.2,1.2.1h.4l.4-.3.1-.5-.1-.6.2-.5.3-.5-.1-.4-1.5-1.5-.3-.2-.8-.1-.2-.2-.1-.3.2-.2.7-.2.1-.1.2-.2h.4l1.2.3.2-.1.3-.3.1-.4-.2-.3-.3-.3-.1-.3.3-1v-.4l-.3-.1-.2.1-.5.6-.3-1.1-.8-.7-.9-.3-1-.1.1.2.1.1.2.1-.3.4-1,.6-.4.3-.4.3h-1.1l-.5-.2-1,.5-.4.3-.2.6.1.7.3.3.9.4.4.2.2.3-.2.3-.5.1-.3-.1-.4-.2-1.2-.3-.2-.1-.2-.5-.2-.1-.2-.1-1.7.2-.2.2.3.4.4.2h1.5l.3.1.2.1.3.4.3.2.2-.1.3-.1h.2l.4.2-.1.3-.5.1-.5.1h-.2l-.4-.2h-.3l-.2.1-.3.2h-.3l-.3-.1-.9-.5-.5-.1-.9.1-1.9.6-.5.2-.2.3-.1.4-.4.4-.8.6-.8.4-2,.3-3.4-.2v-.2l-.3.3-.5.2-.5.2-.4.1-.5-.1-.4-.2-1.1-1.1-.1-.3.1-.3.1-.7.2-.4.3-.4.5-.3,2.1-1,.6-.6.6-.8.6-1,.3-.5.4-.2.3-.1.5-.2.4-.3.2-.3.1-.5v-1.1l.1-.5.1-.3.3-.3.1-.3v-.4l-.2-.5v-.2l-.1-.5.2-1.5.2-.5.7-.9.1-.5-.1-1.2-.4-2.1-.1-1.1.2-2.1.2-.6h.3l.4.3.3.5v-1.1l-.3-.5-.4-.2h-.2l-.2-.2-.2-.3-.1-.3-.1-.1-.5-.2-.2-.1-.2-.3v-.8l-.1-.2-.8-.8-.6-.4-.3-.4-.3-1-.2-.5-.8-.4-.3-.5-.4-1.2-.8-3.1-.4-.8-.7-.5-.4-.3v-.2l.2-.6-.1-.4-1.3-1.8-.5-.4-.2.3-.1.6-.2.4-.8,1.3-.2.4.1.5.2.6.3.3.1.3-.9,1.2-1.5,1.6v.4l-.8,2.5v1.1l-.1.3-.1.3.6.9-.3.5-.2.6-.2.6-.1,1.8-.1.4-.1.3-.4.7-.2.5-.4.5-.1.3v.3l-.3,1.2-.5,1.5-.2.9.2.7-.5.3-.1.3.1.9v.9l-.1.2-.6.3-.6.7-.2.2h-.3l-1.1-.3-.8-.7-.4-.3h-.9l-.3-.1-.4-.2h-.2l-.8-.1-.4.1-.5.1-.4.4-.7.8-.4.1-1.5-.2-.5.2-.7.7-.3.7-.5.5-1-.1-1.3-.3h-.5l-1.3.7-.6.8-.8.3h-.9l-.4-.7v-.1l-.3-.3-.1-.2v-.2l.2-.3.1-.3.1-.3.7-.5.3-.2-.1-.2.2-.2.4-.2.1-.1.1-.2.1-.3.5-1v-.4l-.1-.5-.2-.4-.1-.2V609l.2-.4.5-.5.1-.3-.2-.5.9-1.3.2-.4.2-.1,1.4.7h.9l1.9-.5h.9l.4.1.2.3.3.2,1,.2.4.3.4.1.6-.2.6-.7.1-.9v-1l.1-1.2.4-.7.1-.3v-1.3l.7-2.5-.3-.7-.1-1-.3-.7.1-1.1-.1-.5-.4-.5-.4.1-.3.4-.3.2V594l.4-1.1.2-.4h.5l.1-.4.1-.3.2-.6.2-1.9v-.6l-.1-.6-.1-.6-.2-.5-.5-.8V586l.1-.2.1-.2.2-.1.5.3h.3l.3-.3.6-1.3.1-.4v-.3l-.1-.3-.2-.6-.2-.3.2-.4.3-.4.4-.5.4-.3.5-.3.2-.3.1-.3v-.2l-.1-.3-.1-.2-.2-.2-.2-.2.4-.2.3-.3.5-.6,1-1.1.3-.1.8-1.6.5-.9.4.2h.1l1.4-1.9.3-.7.6-.3.1.2-.3.5.2.3.5-.3.1-.3-.1-.7.2-.6v-.7l-.2-.4-.5-1.4-.5-.8-.2-.3-.2-.5v-.5l.1-.4-.2-.4-.3-.6-.6-.7-.2-.9.3-.3.2-.6.2-.5.3-.4.9-.3,1.2-.9h.1l.2.1.1.1.5-.4.2.1.3.2h.2l.2-.2.2-.3v-.1l-.1-.3v-.8l-.1-.4-.1-.4-.2-.4-.2-.3-.2-.1h-.5l-.2-.1-.3-.3-1.2-5.6v-.3l.3-.3.5-.3-.9-.8-.1-.1-.1-.2-.3-.1-.2-.1-.3-.1v-.3l-.1-.2.1-.5V547l-.1-.2-.5-.5-.3-.4-.1-.3v-.4l.4-.3-.2-.2-.4-.1-.2-.1v-.2l-.1-.5-.1-.2-.3.2v.4l-.1.5-.1.3.2.5v1.8l-.2.5v.3l.6.2.2.3.1.4.1.3.2,1v2l-.1.2-.2.3-.2.6-.1.3H537l-.1-.1h-.1l-.2.3v.5l.1.3.4.5v.3l-.1.3h-.8l-.2-.1-.4-.2-.7-.7-.4-.1-.5.3-.5.4-.3.4v.9l-.1.2-1.7,1.9-.4.3-.5.2-.4.3-.2.5v.7l-.1.5-.1.4-1,1.9-.1.4-.1,2.1-.2.6-.2.4-.9,1.3-.3.5-1.1,2.9-.6,1.1-.5.5-.4.1-.6.8-.5.1-1.1.1-1.3.4-.4-.1-.2-.2-.1-.3-.1-.2-.4-.4h-.4l-.4.2-.1.6-.1.3-.2.1-.2.2H518l-.2.2v.2l.1.4,1.3-.5.4.1-1.2.7-.2.3-.5.3h-1l-.5.1-.4.3-.3.3-.3.2-.6.1-.2.1-.3.5-.3.2-.6.3-1.4.5-.3.3-.1.2-.1.2v.5l-.9.6-.6.7-.4.3-.9.2-.5.2-1.3,1.2-.2.3v.3l-.1.5v.3l-.1.2-.4.4-.1.2-.2.8-.5.6-1.4,2.6-.7.6-1.3.6-.5.8.3.3-.2.3-.2.2v.3l.3.4v1.1l-.2.8-.3.5h-.3l-.1-.8-.3-.6-.6.1-1.1.8H498l-.3.1-.3.4-.2.4-.1.8-.2.3.5.8.1.4-.3.4-.4-.5-.4-.1-.4.4-.1.6v.3l-.2.5v.3l.1.2.4.5.1.3-.1.6h-.5l-.5-.1-.2.3-.1.3-.4.3-.1.1.1.3.3.2h.6l.5-.1.4-.2.4-.2.8-.9.1-.1.2.2.2.2.1.1.3-.1.1-.3v-.8l.2-.1h.2l.2.2v1.5l-.1.5-.3.4-.4.4-.2.3v.4l.6,1.8v.6l.3.3-.2.3-.6.2-.2.3-.5-.3-.3-1.1-.4-.3h-.2l-.5-.3-.3-.1-.1-.2v-.2l-.1-.2-.7-.9-.9-.4-.9.1-.8.8-.1.5-.1.1-.2.1.1.5v.3l-.2.1h-1l-.2-.1-.1-.3.1-.7-.4-.8-2-2.2-.8-1.2-.4-.5-.6-.5-1-.4-.3-.2-.2-.1-.6.1-.3-.1.5-.9v-.4l-.4-.4-.8-.8-.8-.6-.4-.1-.4.1-.4.1-.4.1-.4.2-.4.3-.4.2-.3-.2.1-.4.7-1,.1-.4.1-.6.3-.4.2-.2.3-.4.1-.2v-.3l.1-.3.2-.1.2.1v.3l-.2.6.1.6.3.3.3.2,1.6.3.3.1-.4.3-.1.3v.4l.3.3.7.3.1.1-.3.3.2.3.4.4.5.3.3.1.2-.1.4-.2,1.4-.2.1-.4-.5-.1-.9-.2v-.3l.1-.5v-.3l-.1-.3-.2.1-.2.2-.3.4v.2l-.2-.1-.2-.2-.1-.3V596l-.1-.4v-.3l.3-.2v-.2l.1-.6-.2-.6-.5-.7-.1-.4-.3-3.5-.4-1.4-.6-1.1h-.8l-.4-.5-.2-.3-.1-.3.4-.1.3-.2.2-.3-.2-.3.2-.3v-.2l-.2-.6v-1.1l-.1-.5-.3-.5-.6-.7-.6-1.6-.3-.2-.5-.1-.3-.3-1.6-1.9-1.3-1.3-1.3-.9-.2-.2-.5-.4-.1-.2-.4-.6-.1-.2-.7-.3-.2-.2.3-.2-.2-.5.1-.5.2-.5.2-.5-.1-1.2-.1-.5-.1-.5-.7-1.8-.2-1-.3-.4-.8-.8-.7-.8-.2-.2-.6-.3-.2-.2-.2-.4.4-.1h.5l.3-.1-.1-.3-.2-.5-.2-.5-.3-.3H470l-1.4-.5-.5.1-.3.3.1.5.4.2.6-.1.2.1.1.2.1.3.4.3.1.2-.2.1-.2.1-.3.4-.5-.9-.4-.3-1-.2-1.4-.9-.7-.1-.5.2-.4.2-.5.2v-.2l-.2-.3-.2-.1-.1.1v.4l-.1.3-.1.3-.3.2-1.2-1.1-.1-.4-.1-.6-.1-.4-.5-1.3-.1-.3-.3-.1-.5-.1-.6.1-.2-.1-.3-.3.4-.2.7-.2.2-.3.1-.5-.2-.5-.3-.4-.3-.2H459l-.1.1-.2.2h-.2l-.4-.3-.8-.1-.3-.1-.2-.5.2-.1.2-.4.2-.2.6-.5.2-.1.2-.6-.2-.8-.4-.7-.8-1.2-.1-.2.2-.3h.3l.6.1,1.7.1.5.1-.3.4-.2.5v.6l.1.3v.2l.3.1.2-.1.1-.6.1-.3.3-.4.4-.3.2-.2.1-.2.1-.6.3-.6v-.4l-.5-1.9-.4-.9-.5-.8-1.8-1.7-.4-.1h-.2l-.2.1-.2.1-.2.2-.2.1-.4-.2-.3-.1-.4.2-.3.4-.3.4-.2.2-.6-.1-.3-.1-.4.1-.4.4-.1.3-.1.2-.1.1-.3.1-.3.1-.2-.1-.2-.1-.1-.3.1-.1.2-.5-.1-.4v-1l.2-.5.3-.6.3-.2.1.3.2.2h.4l.4-.3v-.5l-.2-.4-.7-.8-.1-.5-.2-.2-1-1.1-.3-.6-.1-.1-.4.1-.2.2-.1.2-.2.1-.2-.1-.2-.2-.1-.2V536l-.1-.1h-.1l-.4-.2-.5-.2-.2-.1-.2-.2v-.7l-.2-.1h-.2l-.2-.1-.1-.3.2-.2.2-.1v-.2l-.2-.3-.5-.3-.5-.1h-.5l-.3.2-.1.5-.1.5-.1.5-.3.2h-.2l-.9-.5-.3-.2-.1-.1-.1-.6-.2-.1-.6.5h-.5l-.2.1v.6l.2.1h.5l.5.3.4.3.1.3-.5.2-.2-.1-.3-.2-.3-.1-.1.1-.2.4h-.2l-1.2-.1-.7-.2-.4-.2-.6.6-.2.1h-.1l-.4-.4-.5-.2-.4-.2h-.5l-.4.3h-.3l-.1-.3-.2-.2-1.7-1.8-.5-.3h-.5l-.1.1-.2.2-.2.1-.2-.1-.1-.2v-.3l-.1-.4-.3-.1-.4-.2-1.4-1.2-.6-.6-1-.9-.4-.1h-2.6l-1.5-.4h-.5l-1.1.2-.4.1-.4.2-.3.3-.2.4.1.4.2.3.3.4-.2.1h-.2l-.5-.2-.4-.2h-1l-1.1.5-1,.1-1-.1-.8-.4-.7-.7-1.2-1.5-.6-.6-3.4-2.1-3-2.5-5.3-3.1-4.2-1.9-3.6-1.3-.9-.1-.9.4-2.2,1.6-3.4,1.2-1,.2-2-.1-3.2-.5h-5.1l-.9-.3h-2.4l-.5.1-1.2.4-2.9-.1-4.2.7-4.6.1-1.5.5-.4.1h-1.8l-1.3.3h-2.3l-1.3.5-.4.1-.6-.1-2,.3V381.9H606.8V582.4Z"/></a>
    <a href="javascript:"><path id="AUSV" class="enable st0" d="M725.4,709.5l1,.2.9-.2h.5l.5.2h.2l.2-.1.4.1-.1.3-.1.1h-1.5l-.2.1-.2.5-.1.2h-.5l-.4-.2-.5-.4-.3-.3-.2-.5Zm-24.8-6.4.1.2.2.3.1.4v.4l-.2.1-.1-.3-.6-.5-.6-.3-.6-.2-.8.1-.3.3-.2.1-.1-.1-.4-.2-.1-.1h-.4l-.6.2h-.4l.2-.3.7-.7.5-.5.2-.3.4-.1,1.3-.2.3-.1h.2l.2.1.5.4-.3.2.2.4.1.1-.1.3v.1h.6v.2Zm.5-5.3h.3l1-.3.3.1.3.1.2.2.7,1-.1.1-.5.1-.9.1-.3.1-.8,1-.5.4-.6-.2-.2-.2-.7-.3v-.4l-.1-.3-.2-.6.6-.9-.1-.2v-.4l.1-.2h.2l.2.1.2.3.9.4Zm99.5-22.3-.4.6-1.2.4-2.6.2.2-.1.1-.1v-.1l-.1-.2.3-.5-.1-.2-.3.1-.2.4-.3-.1-.9-.3,1,1.4.1.5-.2.4-.7.6-.3.8-.7,1.1-.3.3-1.1.3-.2.4-.2.2-.5.2-.9.1-.4.3-.1.1-.2.5-.2.1-.2.1h-3l-.9.4-.6.6-.1-.1-.1-.2-.1-.5-.1-.1h-1.7l-.5-.1-.3-.3-1,.4h-3.2l-.9.2-2.5.1-.5.1-.6.5h-.2l-2.6-.3-6.5.3-3.8,1-4.6,1.6-3.4,1.9-3.7,2.6-4.1,3.8-4.7,4.9-2.1,2.1-2.1,2.7-2,1.8-.2.1-.1.1-.7,1.2-.2-.1-.1-.3.3-.3-.4-.2-3,.7-1-.1-.6.1-.9.7h-.4l-.5-.1h-.6l-1,.3-.6.2-.2.4-.2.2-.5-.4-.4-.5-.1-.2-.3-.2-2.1.2-.4.1-.3.3-.9,1.1.8.8.1.2.2.5.1.3h.6v.4l.1.5v.6l.4.2-.2.5.2.3.3.1.4-.2.3-.3.5-.7.4-.3.2-.1.4.1.2-.1.1-.2.1-.6v-.2l.2-.5.4-.3h.3l.3.5-.1.4-.1.5v.8l.1.3.2.3v.2l.1.2-.1.5-.1.2-.2.2-.3.3-.1.4-.1.3-.2.9v.4l.1.2.1.1h.2l.3-.2.1.1.2,1-.1.2-.3.1-.3.1-.3.3v.2l.1.3-.1.5-.2.3-.3.2-.4.1-.3-.2-.6-.3-.3-.3-.3-.3V719l.1-.2.3-.1.1-.4-.1-.2-1-.5-.2-.3-.5-.9-.3-1.6-1.5-1.9-1.9-1.4-1.6.3-.2.5-.1.5v.8l-.3.1-1.1.3-.4-.1-.1-.3-.4-1.8-.9-2-.8-1.1-1.1-1.2-.2-.4.6.2.8.8.6.1-.4-.9-.5-.5-.7-.3h-1l-.7.2-1.3.9h-.9l-.6-.5-.9-1.9-.3-.4-.3-.1-1.1-.7-1.2-.2-.4-.1v-.2l.4-.1.6-.3.3-.4-.3-.4.2-.3.1-.5-.1-.4-.2-.5.7-.3h.2l.4.3h.5l.4-.4.2-.3.2-.2.3-.2V699l-.3-.4-.5-.2-.1-.2.1-.3.1-.5-.1-.2-.3-.5-.6-1.1-.3-.3-.3-.1-.4-.1-1,.2h-.8l-.2.1-.1.2-.1.1-.3-.3-.4-.1h-.5l-.4.2.2.4-.2.3-.2.2-.1.2-.2.7-.5.2-.1.3v.3l.3.4.1.3v.7l.1.8-2-.4-.5.2-.1.2-.1.3-.2.3-.7.2-.2.3-.3.8.2.1-.5.2-1.5.1-.2.3-.5-.2-.8-.5-3.4-3.7-.4-.2-.4-.1-.3-.2-.1-.2.1-.2.4.3.7.1.4.3.8.8.5.2h.9l1-.2,1.3-.6.6-.2.2-.2.1-.3-.1-.3v-.2l.2-.3.5-.3.1-.2.1-.5.1-.3.2-.2.3-.5.3-.4,1-1.3.2-1-.1-1-.3-1-.6-.8-.2-.1-.6-.3-.3-.2-.1-.1-.6-1-.2-1.1-.2-.6-.4-.5-.6-.3h-.5l-.1.8-1.4-.1-.4.1-.2.4-.1.4-.1.4-.3.1-.3.2-.4.2h-.3l-.3.2-.8.8-.2.2-.3.4-2.5.8-.3.3-.2.3-.2.4v.2l.1.2v.2l-.2.1-.2.1-.3-.1-.2-.2-.1-.1-.6.2h-1.3l-.5.3-.2.8.4.3,1.2.1,1.9.5.7-.2.6-.2,1.5-1.1,1.1.6.5.5-.2.7v.5l-.1.2-.1.1h-.3l-.2.1-.3.4-.2.3-.2.4v.6l-.9.2H683l-.6.3h-.5l-.5-.3h-.2l-.5.1-.4.2-2,1.5-1.1,1.1-.2.1-.5.1-.3.1-.1.1-.3.5-.2.1-1.1.4-.1.1-.2.4-.1.1-1,.2-.4.3-1.1,1.3-.1.2.1.2v.2l-.2.3-.3.2-.5.2-.3.1-.3.4-.5,1.2-.3.3-.2.1-.2.2-.3.5-.3.2-2.1.8-.5.1-.4.2-.3.4-.2.5-.2.5v.2l-.2.1h-.4l-.7.4-.2.3-.6.8-.4.3-.4.1-.4-.2-.8-.8-.3-.2-.3-.4-.1-.1-.8-.4-.8-.5-.4-.2-.5-.1-2,.2-.4-.2-.4-.3-.4-.5-.2-.4-1.3-1.2-.8-.6-.4-.3-2.5-.5-1-.5-.6-.1-.4-.2-.1-.1-.8-.2-1.1-1.1-.5-.3-1.8-1.5-1.4-.8-.8-.7-.3-.1-.2-.2h-.3l-.2-.6v-.2l-.1-.1-.3-.1-.2.1-.1.3-.1.6-.5-.3-.3-.2-.5-.5-.2-.1h-1.9l-.6.2-.3.5-1,.3-1-.1-1.9-1-2.3-1.8-.8-.4-.2-.1-.8.1-.3-.1-.5-.3-2.2-.2-.9.1-1,.5-.9.7-.3.8.1.4.5.5.1.4.1.4-.1.1-.6-.1-.3-.2h-.1l-.2.1-.5.5-.1.1v.4l-.2.2-.3-.2-.2-.3-.3-.7-.3-.3-.2-.1-.3-.2h-.3l-.4-.1-.4.1-.1.2v.2l-.1.4-.3.1-.3-.2-.3-.2-.2-.2.1-.2.3-.6.2-.3v-.7l-.2-.4-.3-.4-3.5-3.3-1.7-1.2-3.2-1.6-.4-.3V623.1l-.1-39.4v-2.1l.5.3.3.5.5.9.4.2,2,.1.5.1.3.2.2.2.2.2h.3l.2-.1.3-.3h.3l.5.3.2.2.2.3.3.1.2.1.3.6.2.2h.3l.5-.2.5-.1.4.2.1.1.7.5.3.1,1.1.1.2.1.1.6.1.3.2.2h.2l.4-.1.3-.3.5-.8.6-.6.7-.6.9-.4.9-.2.5.1,1,.5.5.1h1l.4-.1.5-.2.2.1.3.1h.4l1.2-.3.6.1.5.5.4.9.2-.1.4-.2.1-.1.5.1.3.1.3.2.3.4.2.2.5-.1h.2l.1.1.2.6.2.6v.6l.1.3.3.2.2.4.5.5.5.5.3.2.5-.1.3-.1.3.1.2.4-.1.5-.5.8-.1.5v.6l.3,2.3.2.3,1.4,1.2.2.3v.8l.1.3.5.6.6,1.4v1l.3.2.4.2.5.1h.3l.3.1.4.4.4-.2v-.3l-.3-.4v-.7h.2l.4-.1.4.1h.2l.2-.1.1-.5-.1-.2v-.6l.3-.4.2-1.2.2-.5.4-.2h.2l.5-.3h.4l.2.2.2.3.7.3.1.2.2.2v.6l.1.3.3.3v.1l.6-.3.3-.2h.2l.7.6.4.2.1-.2.2-.4.3.1.9.6,2,.1.3.1,1.4.8.2.3.4.1.4.2.2.4.1.6h.3l.4-.3.3.1.6.4.1.2-.1.2-.1.5v.3l.1.3v.5l-.4.4v.3l.1.4v.5l-.2.5-.1.2.1.4.2.7.1,1.6.3,1.1.5,1,.5.9.2.2.4.3.5.3,1.9.4.4.2.3.5.2.4.1.5v.5l-.1.3-.2.2-.1.2.1.3.1.3.2.2,1.2.8,1.8.3,1,.4.1.2.1.2.1.1.5.1.4.3.5.5.9.6,1.3.6.5.2.3.9.5.2,1,.1.7.5,1.1,1.7.7.8.2.1.4.2.2.2.4.5.4.2.3.4.2.2.2.1h.5l.3.1.6.6.5,1,1,2.6.3.5.4.4.8.3,2.4,2.9.4.2.9.1.4.2.4.3.1.3v.1h.4l.1.1v.3l.3.2.6.1.9-.2.4-.3.9-.9.4-.2.5.1.9.5.5-.1.2-.4-.2-.6-.4-.5-.3-.4-.2-.5.1-.5.5-.9.2-1.6.1-.2.3-.3.4-.2,2.4-.4h2.1l.7.1.9.3.9.2.9-.1,1.6-.9,1-.2h.9l.8.3,3.7,3.3.9.4.9.1,1.5-.5h.9l.4.3.2.3.1.5.2.2.2.1.9-.1.6.1.3.2.5.2,1.3.1.5.2.4.2.4.1.1-.4.5-.1h.5l.7.3,1.5.1.3-.1,1-1.7.3-.1h.2l.4.2.3-.1.2-.2.2-.1.2.1.5.4.2.1h1.7l.3.1.7.9.4.3h1l.4.1.4.5.3.1h.6l.1.1.2.2.4.4.7-.2.6.3.5.4.6.1.1-.2.1-.2.1-.2.4-.2h.3l.3.1.6.4-.2.8.1,1,.2.6.9,1,.3.2,1.9-.6-.1-.3h-.9l-.3-.1-.3-.2-.2-.2-.2-.3-.2-.3v-.3l-.1-.7-.2-.5v-.2l.1-.2.2-.3.1-.3.6-.8.2-.1h.2l.2.2.3.3.4.1h.7l1.2-.4h.3l.4.1.4.3.4.4.1-.4.3-1.5.2-.3.3-.4.3-.4.2-.2h1.1l.4-.3h.2l.4.1.3.2.3.4.2.5.3.1,2.5-1h.2l.3-.4.2-.1h.2l.4.1.2.1,2.8,1.4.6.1.3.1.1.2.1.3.2.3.2.2h.2l.5.1.5.3.1.3-.1.5-.1.7.2.4.8.6.2.5-.2,1.1-.1.7.2.3.1.2.4,1.6.2.4.1.3v.5l-.3.4-.1.3.2.6.4.4.7.6.2.3.1.2.1.6.2.3v1.3l.1.4.1.2.1.2.2.1h.3l.3.1.4.9v.3l-.1.6-.1.6-.3.5-1.5,2.5v.1l.2.1.6.2,1.2.1.6.2,4.6,2.4,9.4,4.8L782,666l4.7,2.4,9.4,4.8,4.5,2.3Z"/></a>
    <a href="javascript:"><path id="AUSQ" class="enable st0" d="M876.6,416.2h1.3l-.4.9-.5,1.2-1.1,5.3-.1.1h-.3l-.6.1-.1-.1-.3-.6v-.3l.2-.7.2-.3v-.4l-.2-.4v-.5l.2-.8V419l-.2-.9.1-.4.4-.7.2-.3v-1.1l.2-.1.4.1.2.2.2.2.2.2Zm-1.3-1.5-.1.1-.3-.5.1-.4-.2-.7-.2-.6-.2-.3-.2-.2-.2-.6-.1-1.5.1-1.4V408l-.2-.3.1-.3.4-.3.8-.1.5-.4.2-.1.3.1.1.4-.1.5-.8,2.9-.2,1.1v1.2l.1.2.1.7.1.3v.4l-.1.4Zm-9.1-48.9-.3.2-.6-.9-.2-.5.1-.2.7.8Zm6-14.1-.1,2.9.1.4.4,1.3.2.2.2.2.8.7.2.3.1.5-.1.4-.3.4-.1.4-.1.5-1.7,4.1-2.3,5-1.6,4.9v.6l.4.7-.1.9-.3.7-.7.2-.8-1-.4-.6V375l.1-.5-.4-1.1.1-.6-.6-.2-.3-.7v-.8l.3-.3.5-.3.2-.7.2-1.5.1-.3.4-.3.2-.2.3-.8.2-.3.2-.6-.2-1.3.2-.6-.1-.3-.2-.1H867l-.5-.2-.1-.1V363l.1-.3.4-.4,2.3-1.6.7-.7.6-.7.4-.7.4-.8.1-.9-.2-1-.3-.8-.7-1-.6-.6-.6.1,1.3-1.7h.2l.6-.6.8-.5.2-.2.1,1.1Zm-41-20.7-.1.3-.4-.2-.1-.5-.2-.4-.5-.7-.1-.7v-.1l.1-.3.1-.1h.2l.1.7.1.4.5.5.2.5.1.6Zm-7.6-9.8.2.1.6-.2.1.1v.4l.1.2.4.1.9.2.2.2.2.2h.4l.3.2-.3.3.4.2.3-.3.3-.5.3-.3v.6l-.3,1.1v.5l.1.6.2.6.3.6.4.2.4.3.1.7.1.6v.3l-.2.1-.1.1-.3.4-.2.1h-.7l-.2.1-.1-.1-.2-.2-.3-.3-.3-.3-.2-.3-.2-.9-.3-.4-.9-1.1-.6-.5-.2-.2-.3-.5-.7-1-.5-.7-.4-.4.8-.3.1-.2v-.1l-.1-.2.2-.2.2.1Zm-1.2-6.6.3.2-.1.2h-.4l-.2.1h-.2l-.3.1-.1-.3.1-.3h.3v.1l.2-.4.2-.1h.1v.3l.1.1Zm-1.6-2.3.1.2-.1.1-.2-.1h-.2l-.1-.2.2-.4.3.4Zm-25.4-15.1-.1.3-.3-.4.1-.2v-.5l-.1-.2.1-.3.1-.5.1-.3h.2l.3.2.4.4-.2.1-.1.2v.5l-.5.7Zm17.9-3.1-.1.2-.4.4-.1.2-.1.1-.3.2-.4.2-.2-.2-.1-.3.3-.3-.4-.3h-.2l-.2.1.2-.4.4-.4.2-.5-.1-.4-.2-.2-.1-.1.1-.2h.5l.2.2.1.3.1.2.1.2.1.4.3.2.2.1.1.1v.2Zm-11.9-4.5.3.1h.2v.1h-.3v.3l-1,.8-.4.2h-.3v-.5l.4-.3h.1l.4-.3.4-.1.1-.2Zm-2.1,2.6-.5.3-.2-.2v-.1l.1-.3v-.2l-.1-.2-.2-.2v-.8l.1-.5.2-.5.3-.4-.2-.2.1-.3.3-.3.2-.1-.1.7v.7l.4.4v.9l-.2.7-.2.6Zm-.7-5v.1l-.3.2h-.4v-.3l.3.1.1-.1.1-.2.2-.1.1.1.1.1-.2.1Zm5.9-.7.2.1h.2l.3-.1v.2l-.1.2v.2l-.3.2v-.4l-.3-.2v-.2Zm4.7-5.7-.2.4-.2.4-.2.3-.3-.1-.7-.5v-.1l.5-.2h.3l.2.2.6-.4Zm-1.4-1.5-.1.4-.1-.2-.1.3h-.1l-.3-.1-.1-.2h-.3l-.2.2v-.5l.2-.1-.1-.3-.1-.4h.2l.3.4.5.2.3.3ZM797,278.1l-.2.1-.1-.1-.1-.1.2-.2h.2v-.1h.2v.1l.1.3Zm-2.5-6.5-.1.1-.2-.4-.1-.1.2-.3v.2l.2.1.1.3-.1.1Zm4.7-7.1H799v-.4h.3v.3ZM789,262.6h-.1l.1-.3-.1-.3h-.1l.1-.2.3-.1.3.2.1.3-.1.1-.3.3Zm-.6-1,.2.1.1.5-.1-.1-.2.1-.3-.2v-.1l-.1-.1.1-.1.3-.1Zm4.7-.7v.1l-.1.2-.2.1h-.2l-.3-.1-.1-.3.2-.1.2.1v-.3l.1-.1h.2l.2.2v.2Zm-7.3-1.2v.2l-.2-.2-.3.3.1-.3-.3-.1.1-.2.3-.1.1.1.1.1.1.2Zm.4-.4-.4.1-.2-.1-.1-.3.3-.2.2.2Zm3.7-1.2v.1l-.2-.3v-.2l.3.1.1.3Zm-6.7-1.6-.1.1-.5.4v-.2h.2v-.4l.2-.1.2.2Zm-1.6-4.4-.2.3-.2.4-.4.2-.2-.2-.1-.2v-.2l.1-.1h.4l.1-.1.3-.5.1-.4v-.4l.2-.4v.8l.2.3.2.3-.5.2ZM777,250h-.1l-.1-.1-.1-.1-.1-.2v-.1l-.1-.1v-1.2h.2l-.1.7.3.4.1.2.1.3v.1l-.1.1Zm-1-3.3.2.2.2-.1-.1.4-.3.2-.1-.2.1-.2-.1-.2.1-.1Zm4.6.5.5.3.1.3-.1.3-.3-.2-.3-.4-.3.7-.2.2-.3-.4-.3.1-.2.2H779v-1l-.4.3h-.5l-.1-.1.2-.2.6-.7.2-.3-.5-.1.2-.5.1-.5.2-.6.3-.3.1.4.3.5v.9l.2.2.4.1v.1l.3.7Zm-1.4-5-.2.4-.4.5-.2.4.1.1.2.4v.2l-.1.1-.6.7v-.7l-.2.2v-.2h-.1l-.2.4-.3-.3-.1-.2V244l.1-.3.6-.8-.2-.2v-.1l.1-.2.2-.1h.1l.1.1h.2l.2-.1.1-.1.2-.4.4.4Zm-10.9-.7-.1.5-.1-.1-.4-.1.1-.7-.1-.3-.1-.3.1-.4.6.4.1.5-.1.5Zm-34.6-21.1v.8l-.1.2-.1.3-.2-.3-.8.5-.4-.2-.2-.3-.1-.3-.1-.2.1-.2.2-.1h.6l.2-.3.2.1.4.2.1-.3h.1Zm-5.2-8.5.4.2h.7v.2l-.2.2-.5.2-.3-.1-.3-.1h-1.2v-.4l.3-.6v-.4l-.1-.3.1-.1.2.1.2.2.2.1.2.3.3.5Zm-8.6-11.7.3.2h.8l.3.1-.1.3-.2.4-.2.5v.4l.1.4.6.6.1.1.4.1.1.1.1.2-.1.2h-.4l.1.2.5.3.1.2v.2l-.1.1-.3.1-.3.8-.2.3-.4.3-.4-.2-.7-.2-.4-.2-.2-.5-.2-1.2-.1-.3-.6-1-.2-.2-.9-.6-.3-.2-.2-.3-.1-.2.1-.5h.5l1.2.5.9.2.1-.3-.1-.8.3-.7.1.6Zm-1.3-1-.3.1-.3-.1.1-.3.2-.3h.1l.3.2.1.2-.2.2Zm-.1-4.9-.2-.2H718l-.2-.3v-.2l.1-.1.5.4.1.4ZM575.8,174.7l-.3.2h-.7l-.1.1-.2.2h-.3l-.2-.1-.1-.4h-.4l-.3.2-.3.3v.5h-.2v-.1l-.1-.2-.3-.7.1-.3.4-.1.5-.4.5-.9.3-.3.1-.2v-.4l.3.2.9.7.3.3-.2.4.1.2.4.4-.2.4Zm139-3.7-.2.2-.2-.2.3-.3.2.1ZM566,169.2l-.1.1h-.2l-.1-.3v-.4l-.1-.1.3-.1.6-.2h.5l.1.3-.2.2h-.6l-.1.2-.1.3Zm12.6-9.2-.1.3.4.2.2-.3.1-.3h.2l.1.2v.9l-.1.3-.3-.5-.2.2-.1.2.1.4-.1.1h-.2l-.4-.1h-.5l-.4.2-.4.2-.2.4-.2-.3-.4-.8-.2-.3-.2-.1-.2-.1-.5.6-.2.1h-.6l-.1.1-.1.2.2.1.3.1h.2l.2.2v.2l-.2.2h-.3l-.2-.2h-.4l-.2.3.2.7v.2l-.1.2-.3.3.1.2-.1.3-.2.3-.2.1-.3-.1-.3-.4-.3-.1-.2.2-.3.8-.3.2-.4.1-.5.4-.3.1h-1.4l-.3-.1-.1-.2-.6-.9-.3-.2.1.5.1.6-.1.5h-.3l-.1.3-.3.2h-.1l-.1-.6-.1-.5v-.2l.4-.6.1-.3v-.5l.1-.4.2-.4.2-.3.6-.4.1-.3.1-.4v-.3l.2-.1.2-.1.3-.1.1-.1.5-.6.2-.2.4-.2.5-.1h.9l2.5-.5,1.2-.8.8-.1.5.1.2.1.1.3.3.3.3.1.3.1.9.1-.1.1Zm124.7-39.6-.4-.1-.1-.1-.1-.1.1-.3v-.2h.2l.1.1.2.2.1.2Zm-10.8-4.2.3.4-.6-.2v-.2l.2.1Zm-15-6.7v.1l-.4-.1-.4-.2-.1-.2.2-.2.1-.1.2-.1.2.1.2.3.1.3-.1.1Zm-1.4-.3-.1-.2.4-.4v-.5h.1l.3.2h.2l.2.2h-.3l-.5.3-.2.1-.1.3ZM655.9,60.6h-.2l-.1-.1v-.3l.2.1Zm4.3-1.5h-.1v-.3l.1.2ZM877,434.1l-.7.6-2,1.6-.6.3-.6-.2h-.3l-1.7.4h-.9l-.3.4-.1.3-.1.3-.3.2-.5.8-.3.2-.2.1H868l-.3-.2h-1.6l-1.3-.1h-.2l-.5-.3-.5-.1h-.9l-.3.4-.1.1-.6.2-.4.1h-.6l-2.1-.9-.2-.1-.5-.6h-.3l-.1.2-.1.4-.1.2-.3.2h-.4l-.2-.1-.3-.3-.1-.2.1-.3-.1-.2-.1-.2-.4-.4h-.2l-.2-.1-.3.2-.7.7-.3.2-.1.1-.3.9-.2.3-.4.2-.6.3-1,.1h-.3l-.2.1-.5.5-.4.4-.2.2-.1.1-.3.1-.7-.1h-.3l-.2.1-2.5,1.3-.3.4-.5.4-.4.2H844l-.3.1-.1.3-.1.3.6.6.2.3v.4l.1.3.2.3.5.5.6.7.1.2.1.2-.1.3-.2.3-.1.2-.1.3v1.5l-.1.3-.3.6v.9l-.2.3-.3.3h-.6l-.2.1-.7.4h-.3l-.5-.2-.4-.1h-.3l-.2.2-.1.1-.2.3-.1.7-.1.1-.2.1-.2-.1-.2-.3h-.6l-.3-.2-.7-1.5-.1-.1-.2.1-.3.2-.8.6-.5.2h-.4l-.3.1-.3.3-.5.1-.4.1-.1.4-.5,1-.1.4v.9l-.2.1-.4.3-.2.2-.4.5-.1.3-.2.2-.5.2v.2l-.1.3-.4.1-.5.2-.1.1-.6-.2-.1-.3v-.4l-.1-.3-.1-.2-.4-.2v-.2l-.2-.9v-.8l-.1-.3v-.2l.1-.3-.1-.3-.4-1.6-1.4-.9-.8-.7-.5-.3-.4-.1H825l-.5-.1-.3-.2-.2-.4V449l-.2-.5-.4-.2h-.6l-.4-.1-.4-.2-.3-.4-.3-.3-.9-.2-.4-.2-.8-.5-.9-.4-.9.1-1.9.4-.9.1-2.8-.1-1-.2-.6-.5-1.3-1.3-.8-.7-.5-.2-.5.2-.4.2-.5.1L805,444l-.3.1-1.2.4-1,.3-.8.4h-1.5l-1,.2-.8-.1H796l-.4.1-.2.1-.6.4-.2-.4-.4-.1-.8.1-.4-.1-.1-.4-.1-.4-.3-.3-.4.2-2,.3-.3.3-.8,1.6-.4.5-.4.2h-.4l-2.2,1.2h-.2l-.1.3-.3.2-.2.2-.5.2-.1.2-.2.3-.1.2-.4.4-.5.2-.5.2-.5.1-.4.2-.2.5-.2,1.2-.2.5-.4.4-.5.4-.5.2-.6.5H606.8V381.9H541.9V162.1l1.4,1.6.8.5,1.2.9.6.5.8.3.4.2.5.1h.2l.1.1.4.4.4.1,1.3-.1.6.3,1,.5,1,.3,1.1-.4h2.2l.2.1.6.6.3.1.3.1.6.4.3.2,1.1.2.8.4.6.2,2.2.1.8.3.6.4.6,1.4.7.6,1.4.7-.4.7v1.2l.2,1.2.3.8,1,1.8.6.9.8.5.8.3,1.9.1.8.2.2.2.6.5.7.4.2.1.3.3,1,.7.9,1,.5.4.6.2h.6l1.8.6h.5l.4.2.2.3,2,.7.2.3.5.8.7.7.2.1,2.6.3,2.6-.4,3.6-.7.4-.2.2-.2.2-.2.4-.1h1l.4-.2.3-.2.6-.5.2-.1.5-.1.2-.1.2-.2.6-.4.6-.6.3-.2,1-.2.2-.2.1-.2.2-.4.3-.3.4-.2.5-.1.5-.1.2-.2.3-.5.5-1.6.3-1.9.2-.9.1-.2.5-.5.1-.7.1-.2.2-.3.2-1.5-.1-.4-.1-.4-.1-.4.2-.4,2.1-2.6.7-2h.1l.4-.1h.2l.1-.2.5-.6,1.2-1.3.1-.3.1-.4.3-.7.2-1.5.2-.4.4.1.5-.9.2-.5.1-.5.1-.5v-.3l-.1-.1-.1-.1-.1-.2V159l.1-.4.5-.6.2-.4v-.4l.4-.9.1-.4v-1l.1-.2.2-.3.1-.5,1.2-2.2.2-.4-.4-.5-.8-2.3v-.2l.2-.3.3-.3.1-.2v-1l.8-4.5,1-3.8,1.8-4.3.1-.4v-.8l.1-.4.2-.2.3-.1-.1-.5.2-.3.4-.2.3-.4-.1-.4-.1-.4.1-.3.5.1-.1-.5.1-.4.1-.5v-1l-.2-.4-.2-.4-.3-.2V126l.1-.2-.5-.7-.2-.4-1.2-5.7-.1-1.5-.1-.3-.3-.8-.1-.5.1-1,.2-.9,1.3-3.4.1-.9.1-1-.1-1-.3-.9-.5-.7-.6-.6-1.1-1.5-.3-1.9.1-2,1.1-4.5.6-1.1.1-.5.1-.2.6-.8.2-.4.6-1.5.1-.5.3.1h.4l.2-.1-.3-.4.1-.3.2-.3.2-.5.2-.5v-.4l-.1-.2v-.3l-.1-.2-.1-.1-.3-.1-.3-.4-.1-.2-.2-.3-.2-.6-.1-.3-.1-1.5-.3-1-.4-.2v-.4l.4-.8.3-.3.2-.4.1-.4.3.3.4-.2.3-.3.8-.4.5-.5.4-.6.1-.3.1-.4.5-1.4.1-.6.2-.4.2-.2h.2v.2l-.1.6h.1l.3-.5.4.1.3.3.3.4.3,1.3-.1,1,.1.5.2.2.2.2.5,1v-.3l.1-.5-.1-.5-.3-.8-.2-.9-.2-.3,1.8-.6.4-.3h-1.2l-.5-.2-.5-.1-.3-.5-.2-.2-1.1-.3-.2-.1.3-.3.8-.5.6-.3.4-.2.2-.1.2-.1.3-.1.5.1-.6-.2-.3-.3h-.3l-.4.5-.3-.2-.3.1-.7.1h-.6l-.3-.1-.3-.2-.3-.3-.3-.5-.2-.3-.2-.2-1-.2.9-.7.4-.3-.1-.1-1,.1-.4-.1-.4-.3-.1.1v1.8h.6l.2.1.1.3h-.8l-.9.4h-.5l-.2-.5.1-.3,2.1-4.8.4-1.4.2-.3.3-.1.8.3h.4l.5-.1-.3-.2-.1-.1-.1-.2v-.3h-.1l-.2.3-.2.1h-.2l-.1-.3.1-.3.2-.9.4-.8.4-1.4.6-1,.9-.9.9-.3-.2.5-.1.3v.4l.4,1.3v.9l.7-1.4.3-.1h.2l1,.7.3-.7-.1-.2-.4-.2-.3-.6-.1-.2-.3-.1h-.4l-.1-.1-.2-.7V58.4l.5-1.8.9-1.2v-.3l-.1-.4.1-.5,2.6-8.1.1-.5-.1-1.2.1-.5.1-.4.3-.7.1-.8V40.1l-.3-1.8.1-.7.5-.5,1-.2.2.2.2-.3.4-.1.5-.1h.4l.6-.1.3-.3.5-.7.8-.8.1-.3.1-.3.3-1.1.2-.3.4-.3.3-.1.9.1.1-.1.4-.3.2-.2h.3l-.1.3v.1l.3.2.8.4.4.3v.1l-.1.2-.2.4-.2.2-.4.1-.1.1-.1.2-.2.5-.2.2-.1.1-.5.1-.1.1-.1.5.1.6V37l-.3.5.5-.1.3-.4.3-.5.1-.4.2-.3.5-.1.5.1.3.3.2,1,.1.1.2-.1.2.1.2.4-.2.7.2.4.2-.4.5-.3.5-.1.4.2.1.2.1.7.2.2.2.3.2.3.2.7.1.6.1.7.2.6h.1l-.1.2-.2.4-.1.5v.6l.2.7.3.4h.3l.2.2.2.5.1.5.3.5.1.2v.2l-.2.2-.2.3-.5.8-.2.6.2.2.2.3v1.4l.1.2.2.5.1.2.2,2.9-.2,1.9.1.3.2.3,1.2,1h.3l.7.7.4.2.6-.1.4-.1.8-.4.6-.1.4.1,1.2,1.2h.5l.6-.2.3.1.2.2-.3.2-.2.1h-.5l-2.1,3.4-.1.1-.3.1-.1.1v.5l.1.6v.5l-.1.2-.2.2.3.3-.1.4-.1.4-.1.9.2.2.4.1.8.1.8-.2.2.1.4.3.1.1.9.6.2.3.2.4.1.3.1,1.4.1.4.2.5.4.3.3.2.8.2.3.1.3.1.4.2.6.6v.1l-.5.7-.2.4.1.2.1.1-.7,1.1-.1.4-.2,1.2-.1,1.3-.1.4.5-.6.2.2.2.1h.3l.2-.1.3-.2h.3l.2.1.3.1.5-.1.3-.2.3-.2.4-.1-1,1.9.3.8v.9l-.2,1.7.6,2.8v2.9l.1.4.8.7.1.2.2.4.1.2.1.3v.2l-.3,1.4.1.4.3.1-.2.5-.5,1.2-.2.7-.2,1.4-.3.8-.1.4.1.4.4.8.1.5.1.2.7,1,.1.2v.6l.1.3.2.4.1.2,1.3,1.1.2.2.2,1.4v.4l.2.5.1,2.1.9,2.9.7,1.4.5.6.5.6.4.2.3.2.3.1.4.1.7.1.2.1.1.4.2-.3.3-.1h.5l.9-.6.8-.3,1-1,.4-.3.3-.1.4-.4.2-.4.2-.3v-1.2l.1-.5.3-.3.3.5.3-.2v-.1h.2l.3.7.1.2.3.1h.5l.2.2,3-1.4.2-.2.4-1,.2-.2v-.6h.2l.3.2.3.1.2.2.1.2.3.3.9,1.3-.2.4v.5l-.1.9.2.4.4.1.5-.3.3-.3.1.4-.1.4-.2.4-.2.2-.1.2.1,1.2.1.4.1.2.6.4.1.2.3.6.1.2.5.2.9-.3h.3l.3.3.3.5.3.3.5.2h1.4l.3.1.2.2.1.4v.2l.2.2.4.3-.1.1.1,1.1.1.2.2.2,1.3.9.4.5.5-.3.5.2.4.4.5.2h.3l.4.2.3.1.3-.1.6-.1h.3l-.2.6.1.5,1.3,1.5h.3l.5-.1h.7l-.3.6-1.6,2.3-.3.5-.2,1.6.1.3.3.7.1.6.2.2.3.2h.6l.2-.3.1-.6.4.3.1.5-.1.4-.9.3-.3.4-.1.4.3.3-.2.2v.5l-.1.2-.1.1-.3.2-.2.1-.1.3-.1.6v.3l.2-.2h.2l.3.9v.5l-.2.2-.1.1v.2l.1.2.1.2.8.6.1.1.1.5.1.2-.1.2-.3.4.1.2.1.1.8,1.9.2.2.1.4-.1,1v.4l.1.2.2.2v.2l-.1.3-.3.4-.1.3.1.4.2.3.4.5,1,1.2.4.8.3.8v.8l-.5,1.5-.1.8.5.3.1.1.1.6v.4l-.1.2-.7.7-.4.7v1.7l-.3.8.1.2.1.3.2.2.2.1.5-.2.3.2.2.5.1.4.1.3.8.8.3.7.4.5v.1l.1.3.2.4.3.3,1,.9.3.2.5.2.2.2.1.1.1.5.1.3.2.2.4.2.2.1.5,1.1.3.3.3.4.1.2-.1.2-.2.1-.2.1-.2.1-.1.3.1.2.3.3.2.3.1.1-.1.4.1.2.2.1.2-.1.1-.1-.2-.5v-.7l.2-.2.1-.1.6-.6.2-.2.4.2.2.3h.3l.5-.4.3-.4h.5l.3.1.1.2-.1.3-.4.4v.2h.1v.2l-.2.4-.1.2-.3.3-.4.8-.1.3-.1.4-.1.5.2.3.3.2.2.2.9,1.6.1.5.1.5v.5l.1.3.8,1.2.5,1.4.3.4.4.3.2.1.1.3v2.3l-.1.2.2.6.6.8.6.5.2.3.1.5-.1.3-.6.5-.2.3-.1.5.1,1.5-.1.1-.2.2-.2.3.3.2v.2l-.1.5.3.4.2.2-.2.3-.2.8v.5l-.6,1.5-1,2-.2.7-.2.5v1l.1.3.2.3-.2.6.3.6,1.7,2,.4.3h.9l.3.1.2.3v.3l.1.7.5,1.5-.1.5.5-.1.4.1.4.1.1.1.3-.1h.4l.7.2v1.1l-.1.9-.3.8-.6,1.4-.3,2.7-.2.5.1.3.1.2.4.6.1.3.3.3.1.2.3.6,1.7,1.2.3.3.4.8.4.3.4.2.8.3.4.2.4.6.1.2.6.1,1.4.9.9.2,1.1-.4.3.2.4.7.6.6.3.2.2.1.5.3.5.5.7.4.8-.2h.3l.4-.3.7-.7.2-.4.1-.4v-.5l-.1-.4h.1l.1.3.4.4.2.6.2.2v.1l-.1.2-.2.8v.2l.2.4.5.6.1.2,1,1.3.3-.3.4.1,1.2.3.5.2h.4l.5-.3,2.9.1.6-.4v-.4l-.2-.5-.2-.3-.5-.4-.2-.3.1-.2.4.2.5.6,1,2.6,1.3,1.6.2.3v.6l.2.6.2.6.3.5-.1.6.3.6v.3l-.8.1.3.1.3.3.5.7,1.5,1.7.8.1,1.4.1-.6-1.4-.1-.2v-.2l-.1-1.5,1.6.5.5.5.3,2,.3.7.5.5.7.5.4.2.4.1h1l.1-.1.1-.4.1-.1.5.1h.1l.4-.3.2.2.7.7.1.3.2.2,1.5.2,1.2.4.5.1-.1.4.1.4.6.7-.4.2-.5.2.3.1v.5l-.3.2.6.2.2.1.6.8.1.1.1.1.8.6.6.2.1.2-.1.3.3.1h.4l.4-.2.2-.2.1-.2-.2-.1h-.4l-.4-.1.3-.3.3-.1h.2l.3-.1.1-.3-.1-.3-.1-.1-.3-.1-.2-.1-.1-.4v-.3l.1-.3.3-.1.3.2.2.2.3.2h.6l.2-.1.2-.3.4-.3.2.1v1.3l.1.8.4.5.5.2-.2.3v.3l.1.2.4-.1.2-.2.1-.2V245l.1-.3.2.1.1.2v.2l-.1.2.4-.2.2-.1v.3l-.1.3-.2.2-.2.2.6.3-.1.1v.7l.8-.4.4-.2.4.1v-.6l.5.3.5.6-.3.5.1.2.3.2.2.4h.3l.2.1.2.5-.1.3-.1.3v.4l.2.7.4.4,1.2.8-.6.1.2.4.4.5.3.4-.2-.1h-.4l-.2.1-.1-.3-.2-.1-.3.1-.1.1-.2-.3-.2-.2-.2-.2-.3-.1.1-.2v-.6l-.1-.3-.1-.1-.3-.2h-.1l-.3.1v.2l-.1.3-.1.2-.1.1-.4.1-.3-.1-.1-.2-.1-.2-.2-.2-.5-.1v.4l.3.5.2.5-.2.5-.4.5-.5.3h-.4l.1.4.2.3.4.5.2.5.1.1h.4l.2.3-.1.2-.3.5.3.2.3.7.5.2.1.1.3.6.1.2.1.1.2-.1.4-.1.3.1.1.1.2.4.2,1.1-.1.1-.2.3v.4l-.1.2-.2.3.4-.1.3-.3.3-.7.3.3.2.2.3.2.3.1.7-.2h.3l.1.3.6.5.2.1h.1l.2-.2h.6l.3.2.1.4-.4-.1-.4-.1-.2.1.2.3.1.4-.2.4-.1.2.4.1.7-.2.4-.1.1.4.2.2.9.1.2.2.1.4.2.3.3.2.2.1.1.1.6.8v.9l-.7,1.2v1l.6,1.2.2.2.2-.1.1-.5.1-.1h.2l.1.2.1.2v.2l.1.1h.3l.2.3v.2l-.1.1v.3l.1.5.4.8-.1.2-.2.1-.2.1-.2.1.2.2.7.2.3.2-.4.3-.3.2-.4.3-.1.6.1.6h.3l.9-.7.2.3.4.2h.5l-.1.7.1.4.3.1.1.2v.3l.3.2.5-.2.1-.2.3-.7.2-.2.1.2.1.2.2.6-1.1,1.1-.1.4.1.6.4.9.2.3.1.1v.2l-.2.3-.4.1-.3.2-.1.4v.5l.2.5.3.4.4.5.1.3-.1.2-.1.6v.3l.1.4.2.6.8,1.4.1.4V289l.2.4.8,1.5-.3.3-.1.1v.2l.4.2.2.4v.2l.6.6-.1.2-.3.5-.1.2.1.1,1,.4.3.2.2.3.2.4.2.2.4-.2.1.5.1.5-.1.9-.1.5-.2.4-.3.3-.2.4.6-.1.8-.4.8-.6.4-.5.3-.8.3-.3.4.3.6.7.2.5.2.4.1.2,1.8,1.6.1.2.2.8.4.7.6.6.4.3-.5-2.2-1.4-3.5-.4-.5-.2-.6v-.4l.5.1-.2-.3-.3-.4-.1-.3.2-.5.2-.3.4-1.1.1-.7.3-.4.2-.2.3-.1.3-.1.8-.3.1.2.4.2.1.1v.2l.4,1.1.2.3.2.3.2.2.4.2.2.1v.5l.1.4.1.1.5.4.1.3-.3.3.3.6.5.4,1.8.6.3.1.6.5.3.2.7.3.3.2.2.2.4.4.3.3.4.2,1.1.3.5.3,1.6,1.5.1-.2-.3-.4-.4-.6-.1-.7.1-.4v-.1l-.8-.7-.2-1.2.2-1.4.5-1.1.2.2.5.3.4-.2.4.2.1.3-.3.2.1.2.1.2-.1.1-.2.1.2.1.3.2.2.2.2.2.1-.2-.1-.3-.1-.3.1-.4.3-.3v.6l.1.5.2.5.3.4.1.1.6.2h.2l.2.1v.6l-.2.1-.5.7-.4.2-.2-.5-.2-.1-.3.1-.1.4.5.3-.3.6.5-.1.3.1.1.4v1.1l.2.1.3-.2.2-.2.1-.3v-.9l.1-.6.2-.1.2.3.1.6-.1,1.3.1.7.5-.1.1.5.3.6v.4l-.1.4-.3.9-.1,1-.2.8-.1,1.2-.1.3.1.3-.2.1-.3-.1-.5.1-.2.1.2.3.2.1.3.3.1.1.1.3-.2.4.1.2.1.2.1.1v.5l-.4,1.9v.9l.8.5-.1.4v.4l.2.3.2.4.2-.4.4.5-.2.7-.4.5-.6.3.6,2.4.6.5.8,1,.1.3-.2.3-.4.1-.9-.1v.2l.5.1.4.1.3.3.1.5.3.5.5-.2.4-.3.2-.2h.4l.6.5h.6l.3.3.3.8.6.3.8.7.2.3.3.2.3.8.2.4.1.6v.2l.1.3.3.4.3.3.5.3.9.2h.5l.1.1.1.4.2.3h.5l.2.1.1.2.2.4.1.2,1.3,1.3.4.6.3.5.1.2.1.1.2-.4.2-.1h.3l.4.1.3.2.4.4.3.2.1.2-.1.2-.2.1v.6l.1.3.2.1.4.2.1-.3V336l.2-.5v-.3l.3.3.6-.1.5.3.4.5.6.3-.2-.8-.2-.4-.2-.4-.3-.2-.6-.4-.2-.2.2-.3.4-.1.4-.1.4.1.3.3.2.2.2.3.5.1v.1l-.5.5.2.4.4.1v-.3l.2-.1.7-.6v.7l.1.9.3.7.3.5.5.5.3.2.6.1.1-.2.1-.1.1-.3.1-.1.1.3v.5l.1.2.2.2.4.4.1.1.1.5,1.3,4.1,1.2,2.5.6.4.8,1.4.6.7,3.4,2.5.4.1h.4l1.3.4.7.6.7.8.5,1,.1,1.1v2l.2.5,1.5,2.4.1.2.2.3.9.5.1.5-.1.2-.1.1h-.5l-.4-.1-.2-.1-.1.1-.1.1.1.2h.5l.5.2.4.3.3.3.3.3.3.3.4.3,1.1.1.5.2.6.2.4.2v-.8l.3-.2.1.1.2.6.2.1,1,.2.3.1.1.2v.7l.3,2.2-.1.2-.9.5-.1.2-.2.5.4-.2,1.1-.7h.4l.2.4-.2.2-.3.2-.2.1.2.3.3.1.1.1-.2.4-.8.7-.3.4-.2.6.3,1.5v.6l-.6.1.3.3.3.3.6.4-.3.1h-.1l.2.5.3.3.4.2h.5l.8,1.5.2.5.1.9v.5l-.2.4-.1.2v1h.2l.6-1.3.1-.3v-1.2l.3-.4-.2-.4.2.1.2.3.1.7.4,1.2.3.4.6.2.7.1.5-.3-.1.4-.4.6-.2.6-.4.8-.2.3-.1.4-.2,1-.1.2-.4,1.3v.3l-.7,2.5V390l.1.4.2.3.3.2h.3l.2.1.2.4-.3.7-.2.8-.1,4.6.1.4.1.3.7.2-.1,1.2v.4l.1.8.1.3.1.1-.2.2-.1.4v1.6l.1.8,1.2,3,.1.7-.4.6-.8-.4-.8.1-.8.5-.6.8-.1.3-.2.5v.5l.4.2h.7l.5-.3.1.1-.1,1.1-.2.3-.3.2-.4.3-.2.5.1.4.2.3.3.2.4.2.9.3.4.3.2.5.1,1.1.2.5.3.4h.7l.3.2.2.2.2.3.2.7.1.6.4.5.1.2.1,1.5.1.4.2.3.4.5.1.3.2.6.1.2.2.2.6.6.2.4v.3l-.2.4.2.1.4-.1.2-.5h.2v.5l-.3,1.2-.1.5.1,1.4-.3-.7-.2.2-.2.4v.5l.1.4.2.2.2-.2.1-.3.2-.2.2.8.1,2.2.3.5.4.4.5,1ZM642.5,31l-.1.1-.2-.5-.1-.1v-.1l.2-.1.1.1.4.1-.1.3h-.1l-.1.2Zm-8,1.4-.1.1-.3-.1h-.3l-.5.2-.2.1-.3.1-.2.2-.1.3-.1.3-.7-.3-.2-.2-.2-.4-.3-.4-.2-.6.1-.7.1-.2h.1l.4-.1.3-.3.4-.2.1-.1.2-.4.5.1.3.5.6,1,.5.5.1.3v.3Zm.4-1.8-.6.2-.5-.4-.1-.6.3-.4.7-.1.6.3.1.5Zm-1.8-1.5-.4.2-.3-.1-.1-.1v-.2l.1-.2.3-.1.3-.3.2-.1.1.1v.2l-.2.6Zm2.2-.7-.3.2-.3-.1-.1-.3h.2l.4-.4.1.3v.3Zm-.1-7-.6,1-.3-.1-.2-.2-.4-.2h-.3l-.3.1-.2-.2-.2-.3-.1-.3-.1-.3.3-.1.1-.1.1-.2V20l.4-.2.5-.1h.8l.5.2.3.5.2.5-.1.2Zm-3.2-.7-.3.1-.2-.1-.1-.2-.3-.4-.4-.2-.2-.3v-.3l.9-1.5h.4l.2.2.5.4.1.3v.2l-.1.9-.3.4-.2.5Zm14.7-3.6h.2l.2.4-.1.1-.2.3-.4-.4-.1-.4Zm-14.3-1.6h.3l-.1.2-.3.2-.1.2-.2-.3-.1-.2.3-.2.2.1Zm16.1-1.8-.4.1h-.2l-.2-.3.4-.2.4.1.3.2Zm-6.1-2-.5.1v-.3h.4Zm24.1-3.8-.2-.4h.3l.2-.2.1.2-.2.4Zm-31.4-.6h-.6l-.4-.2-.1-.2h.6l.5.2v.2ZM645,2.9l.3.3-.3.3-.4.2-.2.2-.2.1-.4.1h-1.9l-.3-.2-.2-.4.2-.4.5-.2h.6l.7.2.5-.1.8-.2.3.1ZM634,1.1h-.8l-.9-.1-.7-.3.3-.5.9-.2,1.6.5.1.3-.1.2-.4.1Z"/></a>
    <a href="javascript:"><path id="AUST" class="enable st0" d="M744.3,842.4v.6l-.1.3-.1.3-.2.3-.1.2-.2.4-.1.9-.3.6-.2.3-.4-.1-.5-.4-.1-.1h-.3l-.2-.1v-.4l.2-.1-.2-.5-.1-.2-.3-.1.4-.4-.4-.4-.3.3-.2,1.3-.2.6-.4.4h-.4l-.3-.5-.2-.6-.3-.4-.4-.4-.1-.3.1-.5.4.1,1.1,1.2.2.1.2-.1V843l-.1-.6-.2-.3.2-.2.1-.2.2-.1.2.2.4.6.2.2.2-.4.1-.2v-.3l-.1-.3-.2-.4.2-.2.4-.4.7-1.1.4-.4.2.2.5,2.2v.1l.5.7.1.3Zm1.6-4.1-.3.3-.5-.2h-.2l-.3.1-.2.2-.2.1-.2-.2-.1-.7.2-.3.4-.2.3-.4-.4-.4-1.1-.2-.5-.3-.1-.4.3-.2,1.1-.2-.2-.2-.3-.2-.1-.2v-.5l.4-.6.3-.2.3.8.5.4.1.5v.7l.1.3.2.3.1.4.2.7.2.8Zm15.9-17.5-.6.5h-.9l-.7.1.3.8.5.6-.1.1-1.3.3-.4.2-.2.4h-.1v-.6l.2-.3.2-.5.3-1-.5-.1-.2-.4v-.6l.2-.5.4-.3.6-.3.2-.4.4.1.4.1.4.1.2.4v.5l.1.4.3.2.3.2Zm3.4-8.5h-.1l-.2-.1-.3-.2-.3-.3-.2-.2-.7-.2-.1-.2-.3-.5.3-.1h.5l.7.3.4.2.1.3.1.4.3.5Zm-77.1-47.1h.2l.3-.3h.1l.8.1,1.4.7.8.1.8-.1h.4l.3.2.3.4.3.2.7.3.3.7.4.1.6.3.4-.1.2-.3-.3-.5,2,.2.5-.2.2-.4.1-.7-.1-.6-.2-.4.4.1.6.5.2.5-.6.3-.2.2v.7l.2.2.9.6.3.3.2.2.3.1h.7l.3.1.9.5.6-.1,1.1-.5.2,1.1.9.7,1,.4,2,.2.3.2.2.6.2.5.3.5.7.7.4.3.4.1.5.1,1.1.1.3.1.1.2.1.3h.6l.5.1.9.7.5.2.8.6.9.1,2,1,3,.4,1.6-.1,1.4-.4,1.2-.5.2.1.1.6.1.3.2.2.3.1.3-.1-.4-.4.2-.4.7-.6.2-.2.3-.6.1-.2.3-.1h.5l.3-.1.2-.1.4-.4h.5l.2.1.5.2.2.4.3.6.1.6-.3.2.2.5.3.1h.4l.4.2.3-.2.1-.2h.6l.2.1.2.1.2.1.3-.1-.3-.3-.3-.3-.3-.3-1-.2-.5-.2-.3-.5-.1-.7.4-1,.9-.4,1.2-.2.8-.5.2-.2.3-.2.3-.2.2-.1h.1l.2.1v.2l.1.1,2.9.5.8-.5,1.7-1.4.2.5,1-.5.2.3.1.4v.2l.2.1.6.1.1.1.1.3.1.3.8.1.9-.6.7-1,1.4-2.3.1-.4.2-.3,1.2-.5.4-.1.3.3.3.5.4.4.8-.3.5.3.5.5.4.2.7-.1.7-.4.7-.6.3-.7v-.3l.4-.7.1-.9.1-.3.2-.2.4-.3.1.2h.1l.6.1h.1l.2.2.1.5h.2l.4-.2.3.1.2.3.5.6.3.8.3.3.5.1.7-.1.2.1,1.7,2.4.6,1.1.3.6.1.5-.2.3-.3.1-.4.3-.3.3-.1.3h.3l.2.2.1.1.1.3-.3,1.1v.2l-.3.4-.2.7v.9l.1.6.1.4.1.1.7,1,.2.4-.1.4-1,.7-.4.5.1.6,1.6-1.5.5-.1-.5.9-1.1,3.7v1l.1.7v.3l-.1.3v.2l.6,1.1.1.3v.6l-.1.7-.2.7-.2.5-.1.5.4,1.8-.2.4-.5.5-.2.6.1.6.1.2.2.7.2.5.5.7.1.5.2.1-.3,1-.3,1.5v1.4l1.4,1.8v.1l-.2.1-.2.3-.6.8-.1.4,1,.4.1.6-.2,1.1-.1.1-.4.5-.1.2-.1.3-.3-.2-.2-.3v-.1l-.8-.3-.1-.1v-.3l.5-.3.2-.3.1-.2.2-.3v-.5l-.3-.3-.2-.3-.2-.1.6-.4.3-.2.1-.5h-.6l-.3-.2-.7-.7-.4-.4-1.4-.4.6-.5.4-.3h.3l.2-.3.2-.4.1-.5-.7-.4-.2-.4v-.4l-.1-.2-.4.1.1.4.3.6-.1.6H762l-.2-.2-.3-.1-.3.2v.4l.1.5.1.5-.4.1-.2.2.1.2.2.2.3.3.2.1,1.1.3-2.1-.1-.6.3-.2.4-.1.7v1.4l-.1.3-.7.8-.1.3v.3l-.1.3-.4.1.1.2-.1.4-.6,1.2-.5.6.3-.2.4-.5.2-.1.4.1.2.4v.5l-.6.6v.8l.2,1.4v1.3l-.2.8-.2.3-.3.1-.3.6-.3.1-.2-.1-.3-.7-.3-.2v.3l-.1.3-.2.1-.3.1,1,1.3.2.6v.5l.1.4.2.3v.8l-.1.4-.1.3.1.5-.3.5-.4.3-.3.1-.4.3-.2.6v.7l.2.5-.1.2-.1.1-.2-.1-.4.7-.1.4v.5l.3.2.4.1h.4l.4-.1v-.2l-.7-.3.2-.6.6-.4.3.6.1.4.2.1.2-.1.2-.1h.2l.1.1.1.1v.5l.3.2.1.3v.1l-.3.4v.3l.4.3.1.1-.1.6-.2.2-.3.1-.2.2-.3.7.1,1.5-.4.3.5.8.1.2v.6l-.3.5h.5l.3.2.1.3-.1.5-.1.2-.2.1-.1.2-.1.3.3.2.1.3.1.3-.5-.1-.3-.1-1.2-1.3-.3-.3-.1-.5v-.4l-.1-.2-.3.3-.3.4v1l.3.4h-.7l-.3.3-.3.5-.4.4-.4-.8-1.6-1.6-.1-.8.3-.2.6-.3.3-.4-1.8-.7-.4-.3-.2-.3-.2-.6-.2-.5.1-.5.2-.2.7-.3.4-.2v-.5l-.1-.3-.1-.3.1-.2.3-.1h.5l.2.1.1.2v.9l-.1.3-.2.5,1,1,.5.3.6.1h.2l.2-.1.2-.1h.4l.3-.1.3-.2.5-.5h-.7l-.4-.3-.3-.6-.3-.7h.4l.2-.2v-.2l-.6-.2v-.3l.1-.5.1-.4-.3-.2-1.4.2-.1-.1-.4-.2-.2-.1H752l-.7.2-.3-.2-.1-.2-.2-.2-.1-.2-.2-.1H750l-.2-.1v-.2l-.1-.6-.2-.2-.2-.2h-.2l-1.2.5-.4.2-.2.3v.8l.3,1.1.9,1.7-.4.8-.3.3-.3.3-1.3.4-.4.2-.2-.2-.3-.4-.2-.4v-.4l.3-.4.3.3.3.5.2.2.3-.2.3-.5.1-.5-.1-.2-.3-.2v-.5l.2-1.1-.4.1-.4.3-.4.1-.1-.4-.1-.7-.4-.3-.4-.2-.5-.3-1.1-2.2-.1-.3h-.3l-.2.2-.3.2.2.3.4.4.4.4.3.6.4,1,.5.8v.5l-.4.9-.2.7-.1.5.1,1.3-.2.2-.4-.4-.7-.7-.4.5.2.5.6.6.2.5-.1.3-.4.3-.4.4-.2.4-.1.5v.4l.3,1.1v1.7l-.2.4-.4.4-.5.2-.3-.2-.2-.1-.5-.2-.2-.2v-.2l.1-.3v-.2l-.3-.1-.9.1-.2-.2.2-.6.4-.5v-.2l-.2-.3-.1-.7-.2.6-.4.5-.4.3-.2-.1-.5-.4-.1-.2v-1.2l-.1-.8-.3-.1-.4.3-.3.4-.1.5-.1.7.1.8.3.3.2.1,1.6,1.2.4.4.3.5.1.5-.2.2-.2.2-.2.3-.2.1h-.2l-.2-.3-.2-.1-.4-.1-.5.2-.4.2-.3.5,1.3-.1.3.1.4.2v.2l-.5.6-.2.3-.4.9-.2.2-.3.2-.4.1-.9-.1.5.5,1.2.3.4.7-1.2-.2-.4.1-.2.6.1.2.2.2.1.3-.1.4-.2.1-.3.1-.3-.1-.2-.1-.2.8.3.2.4.1.4.3v.6l-.4.4-1.5.8h-.5l-.1-.1.1-.2-.1-.2-.5-.4h-.5l-.5.1-1,.5-.3-.2-.1-.4-.4-.7-1.5-.8-.1-.2-.2-.5-.2-1.2-.2-.5-.4-.3-.2.4.1.7.2.6-.4-.1-.1-.1-.5.4-.5.1-2.4-.2-.5-.3-.4-.4-.4.5-.3.2-.3.1-.3-.2-.1-.3v-.4l-.2-.3-.2-.2h-.7l-.3.2-.1.4v.4l-.1.4-.2.2-.2-.5-.2-.3-.2-.2H718l-.7.3-.2.1v.8l-.2.1-.2-.3h-.2l-1.2.4.2-2.1-.2-.9-.5-1-1.2-1-.2-.2.2-.4.4.1.5.3.4.1-.1-.3-.5-.7.4-.1,1.9.3.6.3.4.5.3.6.4.4.1-.3-.2-.6.1-.3.1.1.3.1-.1-.4.1-.1.3.1.3.2.3.5.2.1.1-.3v-1.5l-.1-.4-.2-.2-.6-.4-.3-.5-.3-.2-.2.1-.6,1.3-.4.3-.6-.4v-.2l-.1-.7v-.1l-.2-.2-.2.1-.1.3-.1.3-.2.6h-.4l-.4-.4-.3-.3-.3-.5-.2-.5-.1-.5v-.7l-.1-.1-.4-.4-.5-.4-.1.1v.7l.1.4v.3l-.3.1h-.3l-.2.1-.1.1-.1.5.2.1.8-.2.3.2-.1.4-.3.3-.3.2-.8-.1-.4-.1-.2-.2-.6-1.5v-.9l-.1-.2-.6-.6-.2-.1-.1-.2-.2-.7-.1-.1-.2-.2-.2-.4v-.4l.1-.5-.5.2-.2.1-.2-.1-.3-.2-.1-.2.1-.7.2-.3.1-.2-.3-.2h-.2l-.3-.2-.4-.4-.8-1.5-.3-.3h-1.4l-.2-.1-.8-1.3-.5-1-.4-1.1-.5-1.5-.2-.5-.1-.2-.1-.1-.4-.1-.1-.2v-.2l.1-.2.3-.5v-.3l-.2-.2-.1-.1-.4-1.6-.1-.1h-.5l-.2-.4-.1-.3-.1-.4-.3-.1-.6-.1v-.2l.7-1.1-.5-.6-.6-1-.2-1.2.2-1-.6-1.7-.2-1-.1-.9v-1.7l-.1-.4-.2-.6v-.5l.3.2.3.4.3.5.1.4.1.5.3.2.8.2.3.1.1.1.3.6v.3l.1.2.6.2,1.5,1.2.2.2.1.4.1,1.1.1,1.1.3,1,.2.3.1-.1.1-.6V814l.6.4.2-.1.2-.9.2-.5.4-.8.1-.3-.3.1-.3.1-.1.3-.2.1v-.3l-.1-.3v-.4l-.2-.2h-.3v.4l-.2.2-.4-.4-1.2-1.7-.4-.6-.5-.3-.1-.8-.3-.8-.1-.6.1-.5-.3-.1h-.2l-.4.4-.2.4-.3.2-.1.2v.3l.1.3v.3l-.3.3-.1-.1-.8-.7.8-2.2-.3-2.3-.9-2.2-1.2-1.5-1.7-1.7-.2-.1-.1-.1-.1-.8-.1-.2-.2-.1-.2-.2-.9-1.7-.4-.4-.1-.3-.2-.3-.2-.1h-.5l-.1-.2-.2-.4v-1.1l-1-3.1-1.2-1.9-.4-.9-.1-.1-.2-.1-.3-.2-.3-.5.1-.1v-.3l.6-.3v-.7l-.3-.9-1.5-2.7-.4-.5.2-.7v-.9l-.1-.8-.4-.6.2-1.1-.4-.9-1.1-1.5.3-.1.2-.2.2-.4v-.4l-.4-.6-.1-.2.2-.2.3-.1.4-.6.2-.1.4-.1.2-.2.2-.4.1-.9v-.8l-.4-3.1v-.6l.2-.6.5-.6v.5l.3.4.4.7.1.2.1.5v.2Zm6.1-1.3.2.4.2.4H694l-.5-.5-.7.2-1.2.7-.4-.1-.2.2h-.2l-.1-.1-.3-.2v-1.5l1-1.2.3-.2.1.3.2.4.4.2.3.1.4.4.4.1.4.1.3.3Zm68.3-2.8-.3.3-.5-.3-.2-.4-.3-.1h-.4l-.2-.1-.2-.5-.1-.4.2-.2.3-.3.9-.2.3-.2,1.4-.3-.1.3-.2.3-.1.2v.6l-.1.3-.3.1-.1.3v.6Zm-73.8-4.4v2.1l-.1.2-.5.4v1.7l-.5.2-.2-.4-.1-.2v-1.8l-.4-.3v-.2l.2-.4h.6l.4-.2.1-.2.2-1.4.1-.1.2.4Zm2.5.9-.2.2h-.5l-.4-.3-.2-.5-.4-.3.2-.1.4-.1h.2l.2-.2.1-.3.1-.2-.2-.2.1-.1.2-.2h.7l.2.1.2.1.4.3v.3l-.1.3-.1.5.1.4-.1.1-.5.1h-.2l-.2.1Zm75.5-2.8.4.2.2.1.8,1.2.4.4-.2.2-.2.1-.1-.1-.1-.2-.1.1-.2.4-.5.2-.2.4-.1.2v.4l-.4-.2-.4.1-.3.2-.3.3v-1l-.3-.9-.7-.1-1.4.8-.1-.3-.2-.1-.2-.1-.2-.1-.2.1-.2.3h-.2l-.3-.1-.1-.1-1.5.2-.5-.2-.2-.1-.2-.3-.2-.1h-.4l-.2-.1-.1-.2.1-.8.2-.4,1.3-.7.4-.1,1-.1.5.1.2.1.5.4.2-.2.2-.6.9-.1.6-.1.2-.3h.1l.5-.4h.4l.2.1,1,1.3.2.2Zm-11.8-2,.2.2h.4l.5-.2v.5l-.3.3-.6.1-.3-.3-.3-.2.4-.4Zm-2-5.6-.6.3h-.2l-.1-.4.5-.4.1-1.2.6-.3.1.4-.1.5-.3.5v.6Zm4.1-10.8,4.1,5.3.1.3.4.7,1,.5,1.9.3-.2.6v2.2l-.2.5-.9.8-.3.5.4.2.5-.2.4-.3.3-.5.2.4.2.7.3,1.1v.5l-.2-.1-.7-.6-.1.6.4.3.4.3.1.3-.4.5-.5-.2-.4-.4-.4-.3-.5-.1h-.3l-.2.1-.1.3-.1.8-.2.1-.4.2-.4.2-.5.2-1.1-.4-.5-.4-.2-.6.4-.5-.7-.7-.3-.4v-.4l.1-.4-.1-.5-.2-.5-.3-.3h-.7l-.1-.1-.1-.7-.2-.5-.4-.3-.4-.1h-.4v-.2l.4-.9.2-.4-.1-.4-.3-.9-.1-.4-.2-.6H755l-.7.5-.4-.1-1.1-.9.3-.3.5-.6.4-.2.9-.3.2-.3-.2-.6.1-.1.4-.3-.2-.4-.1-.2-.1-.2.1-.3.2.1.3.2.1.1.4-.2.9-1.1ZM673.1,746l-.3.5-.1.2-.2.1H672l-2.1,1.3h-.4l-.4-.6-.1-.4-.2-1.1h.3l.2-.5v-1.2l-.2-.7-.3-.3-.4-.2-.3-.4v-.5l.1-1.5.1-.3.3-.3.1-.7v-1.1l-.1-.2-.2-.3v-.2l.2-.4.1-.1-.1-.7v-.3l.3-.1.4-.1.5-.3.4-.4.3-.4-.1-.6-.2-.7v-.6l.2-.2h.2l.4-.2h.3l.1.1.7.7.9.4.4.3.2.6.2.3.1.2.1.4-.1,1.2v.7l.3,1.1.1.6-.1.6-.3,1.2v.6l.1.3.5.2.1.1.1.4v.2l-.1.3v1l-.1.3-.3.3-.1.3v.3l-.1.2-.2.2-.5.2-.2.2Zm71-15.9-.2.3-.1-.1h-.2l-.2.4-.1-.1-.1-.4-.1-.2H743v-.1l.1-.2.1-.2.2-.2h.1l.1-.1h.2l.4.4-.2.2.1.3Z"/></a>
  </g>
</svg>
