<svg data-name="Warstwa 1" xmlns="http://www.w3.org/2000/svg" viewBox="0 0 94.41 95"><title>icon__colse</title><path d="M87.2 0c.86.68 1.76 1.31 2.57 2.06 1.15 1.07 2.23 2.21 3.35 3.33 1.72 1.73 1.71 3.31 0 5.05L62.2 41.33l-6.39 6.37a5 5 0 0 1 1 .62l35.98 35.93a9.72 9.72 0 0 1 .83.87 2.81 2.81 0 0 1 0 3.95 123.12 123.12 0 0 1-5.11 5.11 2.83 2.83 0 0 1-4 0c-.19-.16-.37-.34-.54-.51Q62.14 71.86 40.29 50c-1-1-1.64-2.08-1.09-3.47a5.22 5.22 0 0 1 1.22-1.71q14.15-14.15 28.32-28.31C73.6 11.66 78.44 6.8 83.31 2a30.27 30.27 0 0 1 2.4-2z"/><path d="M7.42 0C6.54.68 5.6 1.31 4.78 2.06 3.59 3.13 2.47 4.27 1.33 5.39c-1.77 1.73-1.76 3.31 0 5.05l31.8 30.89 6.58 6.37a5 5 0 0 0-1.07.62q-18.5 18-37 35.93a11.77 11.77 0 0 0-.86.87 2.76 2.76 0 0 0 0 3.95 126.8 126.8 0 0 0 5.26 5.11 3 3 0 0 0 4.07 0c.19-.16.37-.34.55-.51L55.67 50c1-1 1.69-2.08 1.13-3.47a5.37 5.37 0 0 0-1.27-1.71Q41 30.67 26.4 16.51 18.92 9.24 11.42 2C10.66 1.24 9.77.65 9 0z"/></svg>