<svg data-name="Warstwa 1" xmlns="http://www.w3.org/2000/svg" viewBox="0 0 95.02 95.02"><title>icon__image</title><path d="M27.15 13.56v9.85a3.4 3.4 0 0 1-3.76 3.73H3.69A3.39 3.39 0 0 1 0 23.44V3.63A3.39 3.39 0 0 1 3.66 0h19.81a3.39 3.39 0 0 1 3.68 3.7c.01 3.3 0 6.58 0 9.86zM61.09 13.57v9.75c0 2.48-1.32 3.82-3.77 3.83H37.61a3.39 3.39 0 0 1-3.67-3.72V3.72A3.42 3.42 0 0 1 37.71 0h19.6c2.44 0 3.77 1.35 3.77 3.82q.01 4.88.01 9.75zM95 13.63v9.75c0 2.41-1.34 3.77-3.72 3.77H71.47a3.36 3.36 0 0 1-3.61-3.56v-20A3.37 3.37 0 0 1 71.49 0h19.92A3.38 3.38 0 0 1 95 3.67v9.96zM13.58 61.09H3.83C1.36 61.08 0 59.75 0 57.32V37.61a3.41 3.41 0 0 1 3.72-3.67h19.71a3.41 3.41 0 0 1 3.72 3.77V57.1c0 2.74-1.27 4-4 4zM61.09 47.56v9.75c0 2.41-1.34 3.77-3.72 3.77H37.56a3.37 3.37 0 0 1-3.61-3.66V37.61a3.41 3.41 0 0 1 3.72-3.67h19.7a3.4 3.4 0 0 1 3.72 3.77v9.85zM81.39 61.09h-9.75a3.4 3.4 0 0 1-3.77-3.72V37.66a3.4 3.4 0 0 1 3.67-3.72h19.81A3.39 3.39 0 0 1 95 37.66v19.49c0 2.67-1.29 3.93-4 3.93zM13.47 95H3.72A3.39 3.39 0 0 1 0 91.35V71.54a3.4 3.4 0 0 1 3.72-3.67h19.6c2.47 0 3.82 1.33 3.82 3.77v19.28C27.15 93.81 25.92 95 23 95h-9.53zM61.09 81.5v9.75c0 2.41-1.34 3.77-3.72 3.77H37.56a3.36 3.36 0 0 1-3.61-3.56v-20a3.37 3.37 0 0 1 3.61-3.56h19.91a3.38 3.38 0 0 1 3.61 3.66c.01 3.3.01 6.62.01 9.94zM67.87 81.33v-9.64c0-2.46 1.35-3.82 3.78-3.82h19.49c2.55 0 3.87 1.31 3.87 3.83v19.39C95 93.75 93.73 95 91 95H71.64a3.4 3.4 0 0 1-3.76-3.72v-10z"/></svg>