<svg data-name="Warstwa 1" xmlns="http://www.w3.org/2000/svg" viewBox="0 0 96.62 91.38"><title>icon__screen</title><path d="M0 64.34V10a3.6 3.6 0 0 0 .18-.53A11 11 0 0 1 11.31 0h74A11.07 11.07 0 0 1 96.6 11.31v51.71a11.75 11.75 0 0 1-1 4.73c-2 4.4-5.65 6.52-10.47 6.54H59.49v3.39a3.81 3.81 0 0 1-4 4H41.34a3.7 3.7 0 0 1-4-4v-3.36H11.56A11.12 11.12 0 0 1 .31 65.61zm48.32-4.88h36.41a6.94 6.94 0 0 0 1.68-.13c1.86-.47 2.83-1.95 2.83-4.24V11.97c0-3.18-1.43-4.6-4.61-4.6H12C8.81 7.36 7.38 8.79 7.38 12v42.83c0 2.82 1.48 4.72 4.64 4.7 12.08-.12 24.19-.07 36.3-.07zm41 7.37a3.86 3.86 0 1 0-3.85 3.93 3.85 3.85 0 0 0 3.86-3.92zM78 91.38H18.75c-.41-2.42-.18-4.6 1.71-6.35a3.22 3.22 0 0 1 2.28-1h51.34A3.64 3.64 0 0 1 78 87.88v3.5z"/><path d="M21.11 25.59h54.01v4.32H21.11zM21.11 17.59h17.91v4.32H21.11zM21.11 33.58h54.01v4.32H21.11zM21.11 41.58h54.01v4.32H21.11zM21.11 49.58h54.01v4.32H21.11z"/></svg>