<svg data-name="Warstwa 1" xmlns="http://www.w3.org/2000/svg" viewBox="0 0 97.51 91"><title>icon__calendar</title><path d="M12.93 6.5v6.7a6.54 6.54 0 0 0 13.07.37v-7h16.21v5.35a14.32 14.32 0 0 0 .25 3.08 6.54 6.54 0 0 0 12.84-1.57V6.57h16.19v6.52a6.55 6.55 0 0 0 13.08.61c.06-2 0-4 0-6V6.59c3.94-.35 7.56 0 10.36 3.09a9.73 9.73 0 0 1 2.57 6.77v64.44A9.74 9.74 0 0 1 87.38 91H9.92A9.72 9.72 0 0 1 0 81.08V16.53a9.73 9.73 0 0 1 10-10zm-6.47 26V77.95a3.25 3.25 0 0 0 3.5 3.38h77.22c2.71 0 3.91-1.19 3.91-3.89V33.63 32.5z"/><path d="M81.25 8.13v4.57a3.22 3.22 0 1 1-6.42 0V3.46a3.22 3.22 0 1 1 6.41 0V5.8c0 .78.01 1.55.01 2.33zM45.55 8.1V3.43A3.21 3.21 0 1 1 52 3.4v9.34a3.21 3.21 0 1 1-6.41 0V10.4c0-.78-.04-1.52-.04-2.3zM22.69 8.13v4.67a3.21 3.21 0 1 1-6.41 0V3.36a3.21 3.21 0 1 1 6.41 0v4.77zM58.46 74.73H54c-1.32 0-1.93-.6-1.94-1.92v-5.89a1.65 1.65 0 0 1 1.89-1.86h9.14A1.66 1.66 0 0 1 65 66.93v6a1.64 1.64 0 0 1-1.84 1.81c-1.58.01-3.16-.01-4.7-.01zM39 74.73h-4.57a1.65 1.65 0 0 1-1.89-1.86v-6a1.63 1.63 0 0 1 1.83-1.81h9.24a1.64 1.64 0 0 1 1.84 1.81v6a1.66 1.66 0 0 1-1.89 1.87c-1.56 0-3.04-.01-4.56-.01zM19.45 74.73h-4.47c-1.47 0-1.95-.58-2-1.89v-5.89a1.66 1.66 0 0 1 1.87-1.88h9.14c1.32 0 1.9.6 1.91 1.94v5.79c0 1.34-.59 1.92-1.92 1.93-1.48.01-2.98 0-4.53 0zM78.07 52h4.47c1.47 0 1.94.58 2 1.9v5.89a1.67 1.67 0 0 1-1.88 1.88h-9.14c-1.32 0-1.9-.61-1.9-1.95v-5.79c0-1.34.58-1.91 1.92-1.93h4.53zM58.46 61.72h-4.47c-1.33 0-1.93-.61-1.94-1.92v-5.89a1.65 1.65 0 0 1 1.89-1.86h9.14A1.65 1.65 0 0 1 65 53.91v5.89c0 1.32-.61 1.9-1.94 1.91-1.55.02-3.06.01-4.6.01zM39 61.72h-4.45c-1.4 0-2-.58-2-1.94v-5.89a1.63 1.63 0 0 1 1.81-1.83h9.34a1.61 1.61 0 0 1 1.76 1.79v6.09a1.64 1.64 0 0 1-1.86 1.78c-1.53.01-3.06 0-4.6 0zM19.44 61.72H15c-1.34 0-1.94-.58-2-1.9v-5.89a1.65 1.65 0 0 1 1.87-1.88h9.14c1.31 0 1.9.62 1.91 1.95v5.79c0 1.33-.6 1.92-1.92 1.93-1.51.01-3 0-4.56 0zM78.07 48.71H73.5c-1.33 0-1.91-.6-1.92-1.93v-5.89a1.64 1.64 0 0 1 1.8-1.89h9.25a1.65 1.65 0 0 1 1.87 1.88v5.89c0 1.31-.61 1.88-2 1.89zM58.47 48.71H54c-1.47 0-1.93-.59-1.94-1.91v-5.89A1.64 1.64 0 0 1 53.94 39h9.14A1.65 1.65 0 0 1 65 40.9v6a1.65 1.65 0 0 1-1.84 1.81h-4.67zM39 48.71h-4.57a1.66 1.66 0 0 1-1.87-1.88v-5.89c0-1.27.6-1.89 1.85-1.89h9.24a1.63 1.63 0 0 1 1.82 1.82v6c0 1.25-.63 1.83-1.91 1.85-1.56 0-3.06-.01-4.56-.01z"/></svg>