<svg id="Layer_1" data-name="Layer 1" xmlns="http://www.w3.org/2000/svg" viewBox="0 0 188.56 4.1"><defs><style>.cls-1{fill:#e8e6e7}</style></defs><title>icon__underline</title><path class="cls-1" d="M187.32 1.74l-3.19.15v.18l4.43.28v.07l-5.29.21-12.91.45c-1.34 0-2.68 0-4 .09a7.38 7.38 0 0 0-1.42.18 10.91 10.91 0 0 1-3.1.08c-.83 0-1.67.08-2.51.12s-1.9 0-2.85.1c-1.43.09-2.86.25-4.29.3-2.47.09-5 .2-7.43.13-4.34-.12-8.67-.37-13-.57L128 3.32a1.82 1.82 0 0 0-.35 0 27.2 27.2 0 0 1-6-.17 18.9 18.9 0 0 0-4.54 0 9.48 9.48 0 0 1-1.83 0c-2.71 0-5.41-.11-8.12-.15-3.27 0-6.54-.06-9.81-.1a28.36 28.36 0 0 0-3.5-.1 43.94 43.94 0 0 1-6.85.11c-1.93-.08-3.86-.25-5.78-.25-1.76 0-3.52.18-5.28.28-.38 0-.76.06-1.13.06-2.16 0-4.32 0-6.48-.09-1.75 0-3.5-.13-5.24-.19a3.33 3.33 0 0 0-.83.06l.6.14V3c-.87.06-1.75.17-2.62.18q-4.75.09-9.51.12h-10l-23.89.02H7.57c-2.36 0-4.72.06-7.08.09A.78.78 0 0 1 0 3.32h2.8c3.71-.09 7.43-.11 11.13-.33 1.55-.09 3.09-.17 4.64-.14 3 0 5.91.12 8.86.09 6.16-.06 12.32-.16 18.48-.27.72 0 1.44-.21 2.16-.28C49.71 2.23 51.35 2 53 2c4.85-.19 9.7-.32 14.55-.45 3.91-.11 7.82-.23 11.73-.29C85.63 1.12 92 1 98.35 1c6.77 0 13.54.16 20.31.22h8.87c2.95 0 5.65 0 8.47-.1s5.65-.54 8.48-.76a62.27 62.27 0 0 1 10.58-.22 54.48 54.48 0 0 0 8.75 0c2.26-.15 4.55 0 6.82.05 1.65 0 3.3.17 4.94.26l8.35.48a2 2 0 0 1 1.47.45c.16.16.52.13.8.16s.75.05 1.12.08v.13"/></svg>