<svg data-name="Warstwa 1" xmlns="http://www.w3.org/2000/svg" viewBox="0 0 99.76 81.49"><title>img__cta</title><path d="M27.74 36.79h-1.76l3.34 7.93h-.06l-5.57.25a.07.07 0 0 1-.07 0l-1.5-2.23a.08.08 0 0 0-.07 0h-1.07c-.05 0-.07 0-.06.07l.71 2.94a.2.2 0 0 1 0 .11l-.82 2.92h1.11a.07.07 0 0 0 .07 0l.54-.76.53-.75.52-.74a.07.07 0 0 1 .06 0l5.58.22-3.65 7.93h1.79l.64-.83.61-.79.61-.79.61-.8.61-.79.65-.85.61-.79.61-.8.61-.8.33-.43a.07.07 0 0 1 .06 0l3.56-.12a1.7 1.7 0 0 0 1.24-.6l.08-.1.09-.16a.7.7 0 0 0-.17-.84 1.52 1.52 0 0 0-.56-.32 4 4 0 0 0-1.28-.21c-1 0-2 0-2.93.1a.07.07 0 0 1-.07 0L28 37.16l-.27-.37M39.43 62.7l-.6.08v-1.63l.6-.09zm1.17-1.89v1.31c0 .41-.11.49-.46.47h-.31a.43.43 0 0 1 0-.1v-.87c0-.7 0-.7.76-.8m1.47-.44v1.19c0 .77 0 .77-.81.86h-.15v-1c0-.86 0-.86.87-1.06h.09m7.84-.52a.79.79 0 0 1 .72-.82.83.83 0 0 1 .78.85.84.84 0 0 1-.79.88.82.82 0 0 1-.71-.91m6.36 0A.77.77 0 0 1 57 59a.86.86 0 0 1 .79.82.88.88 0 0 1-.77.91c-.42 0-.72-.36-.73-.88M42.54 62v-1.81a.27.27 0 0 1 .1-.21c.34-.17.69-.32 1.09-.5v1.28c0 1.07 0 1.07-1.11 1.26h-.09m1.81-.54v-2.25a.33.33 0 0 1 .07-.23c.35-.31.72-.6 1.13-.94v2.6a.35.35 0 0 1-.13.26c-.35.2-.72.37-1.06.55m1.92-1c0-.77.05-1.46 0-2.14A2 2 0 0 1 47 56.5a7.36 7.36 0 0 0 .65-.7l.09.05c-.05 1.24-.11 2.48-.17 3.72a.38.38 0 0 1-.15.26c-.34.22-.7.41-1.12.66m7.17-5.23h-3.94c-.34 0-.47-.14-.44-.43a4.16 4.16 0 0 1 .16-.77c.2-.67.4-1.34.61-2a.46.46 0 0 1 .48-.37h6.11c.13 0 .33.08.37.18.35.92.67 1.86 1 2.79a.6.6 0 0 1 0 .18c0 .29-.11.42-.45.42h-3.9m-15 5.61v3.21c0 .24.14.38.41.37H56.67a1.71 1.71 0 0 0 1.4-.63 3.29 3.29 0 0 0 .86-2.29c0-1.39-.05-2.78-.07-4.17A14 14 0 0 0 58 53.3c-.2-.64-.43-1.26-.66-1.89s-.46-.83-1.21-.83h-5.76a2 2 0 0 0-2 1.35A14.92 14.92 0 0 1 46.29 56a12.73 12.73 0 0 1-7.43 4.76l-.22.05-.23.06M51.42 65.81v-.88h-13v.88l2.54.1a26.84 26.84 0 0 1 5.31.66 3.56 3.56 0 0 1 .75.23 3.6 3.6 0 0 0 1.74.3h10.09v-1.25h-1.54v-.91h-2.39v.87zM64.49 24.5l1.17-2.26h-.15a6.48 6.48 0 0 0-1.67-.24 5.92 5.92 0 0 0-1.11.12c-.49.1-.67.45-.42.81a3.52 3.52 0 0 0 .61.67 5.61 5.61 0 0 0 1.57.92m-.9 1.8c-.66-.27-1.3-.51-1.93-.8a22 22 0 0 1-4.77-2.84 5.89 5.89 0 0 1-1.38-1.46 1.34 1.34 0 0 1-.25-.84 1 1 0 0 1 .62-.76 4.64 4.64 0 0 1 1.72-.4 19.93 19.93 0 0 1 4.46.23 26.22 26.22 0 0 1 4.43 1h.12l.56-1.09.39-.76a.19.19 0 0 0 0-.15 1.34 1.34 0 0 1-.14-.75 5.68 5.68 0 0 1 .93-2.7 1 1 0 0 1 .63-.49 2.21 2.21 0 0 1 1.64.59.55.55 0 0 1 0 .48 5 5 0 0 1-.8 1.5 5.79 5.79 0 0 1-1.39 1.4 1 1 0 0 1-.29.16.42.42 0 0 0-.29.27L63 28.37a.41.41 0 0 0 0 .3 2.82 2.82 0 0 1 .09.79 5.59 5.59 0 0 1-.92 2.54 2.1 2.1 0 0 1-.23.31.78.78 0 0 1-.65.26 2.66 2.66 0 0 1-1.24-.41.51.51 0 0 1-.23-.68 9.13 9.13 0 0 1 .62-1.24 5.59 5.59 0 0 1 1.38-1.53 5 5 0 0 1 .62-.34.25.25 0 0 0 .09-.08l1.06-2"/><path d="M66.68 22.57l.9-1.73.64.26a26.58 26.58 0 0 1 5.31 3 7.27 7.27 0 0 1 1.7 1.61 2.5 2.5 0 0 1 .31.63.81.81 0 0 1-.52 1 4.44 4.44 0 0 1-1.62.38 18.11 18.11 0 0 1-3.51-.1 32.32 32.32 0 0 1-5.13-1h-.15l.9-1.74c.44 0 .9.11 1.36.15a3.26 3.26 0 0 0 1.27-.12c.48-.16.63-.42.4-.79a2.4 2.4 0 0 0-.58-.65c-.4-.31-.85-.57-1.28-.86M65.89 45.4a3 3 0 1 0-3.23-3 3.13 3.13 0 0 0 3.23 3m-4-3.35c.07-.3.12-.6.22-.88a4 4 0 0 1 4.05-2.56 4 4 0 0 1 3.72 3.05 3.8 3.8 0 0 1-3.21 4.43 4 4 0 0 1-4.74-3.27 1.1 1.1 0 0 0 0-.13z"/><path d="M71.15 35.29l-1.64 1.63 1.05.62 1.18.69a.22.22 0 0 1 .13.21V42.79c0 .55-.32.69-.89.59a.72.72 0 0 1-.66-.79v-1.27-1.69a.26.26 0 0 0-.17-.27c-.85-.44-1.7-.89-2.54-1.35a1.46 1.46 0 0 1-.77-.9 1.13 1.13 0 0 1 .13-1 9 9 0 0 1 .82-1c.59-.6 1.2-1.18 1.82-1.76a2.35 2.35 0 0 1 .49-.34.94.94 0 0 1 1 0 2 2 0 0 1 .69.66c.35.59.7 1.17 1 1.76a.24.24 0 0 0 .28.14 5 5 0 0 1 1.49 0c.38.07.53.23.52.52a.59.59 0 0 1-.57.63 6.91 6.91 0 0 1-.72 0h-1.41a.6.6 0 0 1-.54-.32c-.24-.38-.49-.76-.75-1.16"/><path d="M76.33 39.35a3 3 0 1 0 3.23 3 3.14 3.14 0 0 0-3.23-3m0 6.8a3.78 3.78 0 1 1 4-3.75 3.9 3.9 0 0 1-4 3.75M72.87 30.77a1.35 1.35 0 1 1-1.43 1.34 1.39 1.39 0 0 1 1.43-1.34M4.62 28.74a1.59 1.59 0 0 0 1.52-1.64 1.58 1.58 0 0 0-1.63-1.52 1.58 1.58 0 1 0 .12 3.16m13.45-1.58a1.58 1.58 0 1 0-1.59 1.59 1.59 1.59 0 0 0 1.59-1.59M4 22.87h13v-.07c-.3-.67-.59-1.34-.9-2a1.43 1.43 0 0 0-.61-.64 6.75 6.75 0 0 0-2.07-.68 16.71 16.71 0 0 0-4.66-.16A9.56 9.56 0 0 0 5.9 20a1.71 1.71 0 0 0-.92.74c-.21.41-.43.82-.62 1.24s-.23.59-.36.91m-2.57 1.69H.89a.54.54 0 0 1-.59-.47c-.11-.48-.21-1-.3-1.45A.54.54 0 0 1 .59 22h1.8a.24.24 0 0 0 .27-.18 10.26 10.26 0 0 1 1.15-2.22 3.11 3.11 0 0 1 1.3-1 10.8 10.8 0 0 1 3.16-.81 18.42 18.42 0 0 1 4.06 0 12.73 12.73 0 0 1 3.31.73 3.52 3.52 0 0 1 2 1.77c.27.54.51 1.09.75 1.64a.25.25 0 0 0 .27.18h1.74c.49 0 .71.27.61.75l-.26 1.26a.57.57 0 0 1-.64.52h-.51a8.12 8.12 0 0 1 .56 1 3.62 3.62 0 0 1-.74 4 .47.47 0 0 0-.11.28v1.77a.81.81 0 0 1-.88.88h-1.75a.8.8 0 0 1-.87-.86v-.75H5.22v.74a.8.8 0 0 1-.88.88H2.59a.8.8 0 0 1-.87-.87v-1.83a.43.43 0 0 0-.11-.27 3.71 3.71 0 0 1-.29-4.81l.11-.16M47.14 18.35v23c-3.19-1.91-6.61-1.9-10.17-1.6.21-.46.37-.84.55-1.2l9.35-19.63a4.39 4.39 0 0 0 .18-.53z"/><path d="M40 45.64a14.09 14.09 0 0 1-2.68-3.89l-.32-.8a19.08 19.08 0 0 0 5.43 1.18c1.82.07 3.64 0 5.52 0V18.35h.78V42.2h10.15c-.23.52-.43.95-.62 1.39-.29.68-.58 1.37-.87 2.06z"/><path d="M57.3 37.94h-7.79V18.58h.07l7.72 19.36M55.73 41.36h-6.25c.24-.79.46-1.56.71-2.32a.46.46 0 0 1 .37-.22h4.09a.5.5 0 0 1 .38.27c.25.73.46 1.47.7 2.27M11.6 66.64H8.38v1.89h3.22zm-3.09-1.06h3.13a1.11 1.11 0 0 1 .9 1.21v1.71H15v12.99H5.07V68.54h2.42v-.19-1.6a1 1 0 0 1 .66-1c.12-.05.24-.08.37-.12M1 79.76v-9.53a.34.34 0 0 0 0-.07 1.83 1.83 0 0 1 1.49-1.6 12.74 12.74 0 0 1 1.58 0v12.9H2.52a1.66 1.66 0 0 1-1.41-1.09 4.9 4.9 0 0 1-.11-.61M19 70.23v9.52a.35.35 0 0 0 0 .07 1.75 1.75 0 0 1-1.48 1.6 13.23 13.23 0 0 1-1.6 0V68.53h1.35a1.82 1.82 0 0 1 1.66 1.28c0 .14.08.28.12.42M32.57 70.63h-7.84c-.44 0-.58-.14-.58-.57v-.53a.53.53 0 0 1 .31-.53l6.13-3.38 1.6-.88a.8.8 0 0 1 .8 0 1.45 1.45 0 0 1 .69.68c.26.51.57 1 .84 1.51a.35.35 0 0 0 .34.21l2.26.08a.43.43 0 0 1 .28.14c.32.38.61.78.94 1.16a.86.86 0 0 0 .37.26c.71.22 1.42.42 2.13.62a.21.21 0 0 1 .19.25v.47c0 .35-.17.51-.52.51h-7.94M32.58 80.3H41c.22 0 .43 0 .52.25a.82.82 0 0 1 0 .76.47.47 0 0 1-.45.19H24.15c-.22 0-.43 0-.53-.23a.83.83 0 0 1 0-.74.46.46 0 0 1 .47-.22h8.49zM32.59 79.68h-7.27c-.22 0-.44 0-.51-.26a.73.73 0 0 1 .07-.77.59.59 0 0 1 .4-.16h14.55c.22 0 .43 0 .52.25a.82.82 0 0 1 0 .76.46.46 0 0 1-.43.19h-7.33zM28.37 76.66c.46.12.59.29.59.76s0 .44-.44.44h-2.85c-.3 0-.32 0-.32-.33v-.11c0-.48.13-.64.59-.77v-4.2h-.15a.56.56 0 0 1-.43-.53c0-.7-.08-.63.57-.63h2.75c.24 0 .27 0 .28.27v.17c0 .47-.12.63-.59.77zM31.38 72.46a.8.8 0 0 1-.58-1.08.3.3 0 0 1 .23-.13h3.13c.16 0 .23.07.23.23v.17c0 .53-.09.65-.59.82v4.19a.81.81 0 0 1 .59 1.08c0 .13-.15.13-.26.13H31c-.16 0-.23-.07-.22-.23s0-.11 0-.17c0-.52.1-.66.6-.82zM39.22 72.47v4.19a.8.8 0 0 1 .58 1.08.29.29 0 0 1-.23.13h-3.09c-.23 0-.27 0-.27-.28v-.15c0-.49.12-.65.59-.78V72.5a2.06 2.06 0 0 1-.43-.26c-.24-.25-.16-.58-.14-.88 0 0 .11-.1.17-.1h3.2a.18.18 0 0 1 .2.21v.17c0 .54-.08.66-.6.84M34.78 53.68a3.64 3.64 0 1 0 3.63-3.84 3.74 3.74 0 0 0-3.63 3.84m3.62 4.75a4.76 4.76 0 1 1 4.5-4.73 4.64 4.64 0 0 1-4.5 4.73"/><path d="M38.4 54.2a.5.5 0 0 0 .5-.51.51.51 0 0 0-.48-.52.51.51 0 0 0-.5.51.5.5 0 0 0 .48.52m2.31 1.23h-.14l-1.75-.68a.37.37 0 0 0-.21 0 1 1 0 0 1-1.15-.8.38.38 0 0 0-.09-.19l-1.31-1.46a.28.28 0 0 1-.07-.17c0-.1.09-.13.2-.09l1.46.57.2.08a.73.73 0 0 0 .44.06.93.93 0 0 1 1 .77.52.52 0 0 0 .14.27l1.29 1.43a.26.26 0 0 1 0 .18l-.1.1M35.26 52.84l1.15.31a.13.13 0 0 1 .07.09c0 .24 0 .24-.2.3a2.81 2.81 0 0 0-.43.14l.52.12c.09 0 .13.06.12.16a1.57 1.57 0 0 0 0 .2l-1.22.33v-.3c0-.1 0-.06.07-.07.2-.05.4-.1.6-.17-.17 0-.34-.09-.52-.12s-.17-.07-.16-.21 0-.13.12-.15l.47-.12h.13l-.59-.14c-.1 0-.14-.06-.13-.17a1 1 0 0 0 0-.15M38.93 50.32v1.28h-.24a.15.15 0 0 1-.09-.07l-.38-.67v.79h-.32v-1.34h.3a.15.15 0 0 1 .09.07l.36.63v-.7zM41.6 53.14v1.06h-.27v-.68h-.18v.57h-.27v-.56h-.21v.48c0 .16 0 .2-.2.2h-.07v-1.07zM38.91 55.79a.41.41 0 0 1-.08.36c-.15.2-.3.4-.46.63h.5v.29h-.94a.42.42 0 0 1 .07-.35c.13-.16.25-.34.37-.52l.08-.12h-.53v-.29zM19.73 61.05v-.16a.49.49 0 0 1 .5-.32h.85c.15 0 .19-.07.12-.2L21 60a.38.38 0 0 1 .13-.54.42.42 0 0 1 .57.16l.41.7a.38.38 0 0 0 .35.2h.46c.13 0 .17-.07.1-.19l-.28-.42v-.14a.18.18 0 0 1 .14-.05h.5c.13 0 .17-.07.11-.18l-.22-.38a.42.42 0 0 0-.39-.22H22a.43.43 0 0 1-.41-.41.39.39 0 0 1 .41-.36h.39c.16 0 .2-.07.12-.21l-.41-.7a.49.49 0 0 1 .24-.76h.2a.55.55 0 0 1 .35.32c.13.24.26.48.4.72 0 0 .08.09.11.09s.09-.05.11-.1.12-.24.19-.36a.5.5 0 0 1 .18-.17.42.42 0 0 1 .48.09.41.41 0 0 1 .07.49l-.43.71a.38.38 0 0 0 0 .41l.27.46.07.1.07-.11.29-.49c.07-.11.15-.12.22 0l.25.39c.08.12.16.12.24 0l.22-.36a.39.39 0 0 0 0-.44c-.14-.23-.29-.47-.42-.71a.4.4 0 0 1 .15-.54.42.42 0 0 1 .56.15c.07.11.13.23.2.34a.21.21 0 0 0 .12.1s.09-.05.11-.09c.13-.22.26-.45.38-.68a.56.56 0 0 1 .35-.32h.22a.44.44 0 0 1 .26.69l-.44.74c-.07.12 0 .2.12.2h.45a.38.38 0 0 1 .38.44.43.43 0 0 1-.43.34h-.84a.4.4 0 0 0-.36.21l-.22.39c-.07.13 0 .2.12.2h.46c.15 0 .2.07.12.2l-.23.42c-.07.14 0 .21.12.21h.41a.41.41 0 0 0 .39-.22c.14-.24.27-.48.42-.71a.41.41 0 0 1 .56-.12.38.38 0 0 1 .13.52l-.19.34c-.09.15 0 .22.13.22h.88a.43.43 0 0 1 .39.21l.08.14v.16a.5.5 0 0 1-.5.31h-.86c-.14 0-.18.07-.11.19l.21.36a.39.39 0 0 1-.16.56.38.38 0 0 1-.54-.17l-.42-.73a.39.39 0 0 0-.36-.2h-.44c-.15 0-.19.07-.11.2l.28.4c.08.13 0 .19-.11.19h-.51c-.16 0-.2.07-.13.21l.21.38a.42.42 0 0 0 .4.23h.92a.33.33 0 0 1 .27.11.43.43 0 0 1 .06.48.32.32 0 0 1-.31.2h-.44c-.17 0-.21.07-.13.22l.43.78a.39.39 0 0 1 0 .43.51.51 0 0 1-.31.21h-.14a.55.55 0 0 1-.37-.31c-.12-.23-.26-.46-.4-.69s-.15-.12-.23 0l-.2.34a.42.42 0 0 1-.58.15.37.37 0 0 1-.11-.54l.44-.72a.34.34 0 0 0 0-.38l-.27-.41c-.08-.12-.17-.12-.25 0l-.24.37c-.09.13-.16.13-.25 0l-.23-.38c-.07-.12-.15-.12-.22 0l-.21.39a.41.41 0 0 0 0 .43l.4.71a.43.43 0 0 1 .05.14.37.37 0 0 1-.28.42.41.41 0 0 1-.48-.15l-.19-.33c-.08-.14-.16-.14-.25 0l-.45.74a.46.46 0 0 1-.7.06.48.48 0 0 1-.06-.56c.13-.21.24-.43.37-.63s.08-.29-.17-.27a2 2 0 0 1-.4 0A.39.39 0 0 1 22 63h.86a.38.38 0 0 0 .34-.19l.25-.44c.07-.13 0-.19-.12-.2h-.44c-.15 0-.19-.06-.11-.19l.26-.41c.06-.1 0-.17-.1-.18h-.44a.41.41 0 0 0-.39.22l-.4.69a.44.44 0 0 1-.58.15A.38.38 0 0 1 21 62l.19-.34c.08-.14 0-.21-.12-.21h-.88a.43.43 0 0 1-.4-.22l-.08-.13M68.63 67.92h-4.36a2.44 2.44 0 0 0-.48 0 1.46 1.46 0 0 0-1.24 1.34v3.51a1.63 1.63 0 0 0 .07.48A2.44 2.44 0 0 0 64.54 75a1.73 1.73 0 0 0 2.19-.87l.18-.27a8 8 0 0 1 .49-.65 1.59 1.59 0 0 1 1.6-.55 1.93 1.93 0 0 1 1.16.84c.2.28.4.57.59.85a1.53 1.53 0 0 0 1.55.69 3.87 3.87 0 0 0 .64-.12 2.38 2.38 0 0 0 1.79-2.4v-3.16a1.29 1.29 0 0 0-.52-1.06 1.78 1.78 0 0 0-1.21-.38h-4.4m0-1.43H73a3.06 3.06 0 0 1 2.82 1.58 2.39 2.39 0 0 1 .31 1.21v3.48a3.61 3.61 0 0 1-2.3 3.34 3.92 3.92 0 0 1-2.3.34.26.26 0 0 1-.17-.15 2.88 2.88 0 0 0-5.45 0 .26.26 0 0 1-.17.15 4.06 4.06 0 0 1-4.54-3 4.22 4.22 0 0 1-.07-.85v-3.08a3 3 0 0 1 3-3h4.5"/><path d="M72.45 79.16c.47-.05.91-.11 1.35-.14.06 0 .15.07.2.13a2.46 2.46 0 0 0 3.62.37 2.42 2.42 0 0 0 .81-2.16c-.15-1.38-.29-2.77-.43-4.15L77.56 69l-.38-3.77-.23-2.23 1.34-.14c0 .33.07.65.1 1l.61 5.91.54 5.37c.07.72.15 1.43.23 2.15a3.83 3.83 0 0 1-7.23 2.15l-.11-.23M68.54 75.11a2.29 2.29 0 0 1 2.34 1.75 1.72 1.72 0 0 1 0 .3.56.56 0 0 1-.55.63.57.57 0 0 1-.63-.55 1 1 0 0 0-.73-1 1.11 1.11 0 0 0-1.23.29 1 1 0 0 0-.27.66.59.59 0 0 1-.91.46.54.54 0 0 1-.27-.51 2.16 2.16 0 0 1 1.71-2c.2 0 .4-.06.5-.07M78.34 62.28l-1.66.18c0-.41-.09-.81-.11-1.22a.37.37 0 0 1 .35-.36l.85-.09a.38.38 0 0 1 .44.33c.05.37.08.75.13 1.15"/><path d="M74 78.41l-2.14.24c0-.27 0-.51-.06-.76a.37.37 0 0 1 .35-.39l1.33-.15a.41.41 0 0 1 .45.35 1.23 1.23 0 0 1 0 .16v.56M68.63 68.76H73a1.53 1.53 0 0 1 .46.06.58.58 0 0 1 .45.64v3.06a1.55 1.55 0 0 1-1.32 1.63h-.12a.92.92 0 0 1-1.11-.44 8.05 8.05 0 0 0-.67-.95 2.51 2.51 0 0 0-2.98-.76 2.74 2.74 0 0 0-1.19 1 9 9 0 0 0-.54.81.89.89 0 0 1-1 .48 2.07 2.07 0 0 1-1.17-.52 1.31 1.31 0 0 1-.42-1v-3.18a.66.66 0 0 1 .65-.73h4.6zM11.07 34.49l-.48.1a4 4 0 0 0-2 1.16 3.51 3.51 0 0 1 3.66 1v.07h-.33a2.84 2.84 0 0 0-2.82 1.57 4.91 4.91 0 0 0-.53 2.38v.83h.06c.1-.19.2-.38.3-.56a4.42 4.42 0 0 1 1.89-1.91 3.26 3.26 0 0 1 2.18-.22h.12c-.23.3-.46.58-.66.87a15 15 0 0 0-1.94 4.11 24 24 0 0 0-1 5.08c-.08.89-.11 1.79-.16 2.69v.27a.36.36 0 0 1-.73 0c0-.47-.06-.94-.1-1.4a19 19 0 0 0-2.51-8.13c-.22-.37-.51-.69-.77-1l-.09-.11a1.18 1.18 0 0 1 .8 0 3.2 3.2 0 0 1 2.06 1.68 1.13 1.13 0 0 0 .12.19 3.27 3.27 0 0 0-.84-2.8 1.77 1.77 0 0 0-1.58-.49H5.5c.27-.63 1.34-1 2.51-.73a2.78 2.78 0 0 0-2.68-.86 2.49 2.49 0 0 0-1.92 2 2.24 2.24 0 0 0-2.08.72 2.72 2.72 0 0 0-.67 2 3 3 0 0 1 1.76-1.5 2.88 2.88 0 0 0-1 2.39 3.13 3.13 0 0 0 .72 1.73 3.47 3.47 0 0 1 .81-3 2.5 2.5 0 0 0 .42 2.17 3.5 3.5 0 0 0 2 1.18 3.9 3.9 0 0 1-.84-4l.15.19a14.05 14.05 0 0 1 2.24 5.44 17.63 17.63 0 0 1 .29 3.13c0 .17-.05.21-.21.22a11.42 11.42 0 0 0-3 .54 2.76 2.76 0 0 0-.67.38.37.37 0 0 0 0 .65 3.25 3.25 0 0 0 .81.44 10.32 10.32 0 0 0 2.55.53c.76.08 1.53.12 2.29.17H11.16a21.72 21.72 0 0 0 3.36-.35 6.44 6.44 0 0 0 1.81-.55c.22-.12.48-.24.49-.54s-.26-.46-.49-.55a6.12 6.12 0 0 0-1.21-.42c-.92-.17-1.85-.29-2.78-.42h-.73c.06.37.11.71.17 1a.4.4 0 0 1-.27.51.36.36 0 0 1-.45-.33c-.09-.61-.19-1.21-.23-1.83a17.2 17.2 0 0 1 .17-3.4 17.64 17.64 0 0 1 1.11-4.41 7.92 7.92 0 0 1 1.56-2.56l.28-.27a7 7 0 0 1 .17 3.23 5.06 5.06 0 0 1-1.49 2.81h.09a5.51 5.51 0 0 0 2.17-1.13A3.38 3.38 0 0 0 16.11 42a11.61 11.61 0 0 0-.09-1.3 5 5 0 0 1 .73 1.07 5.12 5.12 0 0 1 .44 3.39 4.67 4.67 0 0 0 1-2.49 4.13 4.13 0 0 0-1.48-3.53 3.84 3.84 0 0 1 1.52.82 4.42 4.42 0 0 1 1.07 1.41 3.89 3.89 0 0 0-.78-2.63 3.7 3.7 0 0 0-3.75-1.3c0-.15-.05-.29-.09-.42a3.41 3.41 0 0 0-2.51-2.4c-.19-.06-.4-.08-.59-.12zM80.85 81.49l.71-.29a20.85 20.85 0 0 0 3.51-1.56c.71-.43 1.35-1 2-1.42a.65.65 0 0 1 .34-.13h5.73a.38.38 0 0 1 .24.07 14.61 14.61 0 0 0 4.66 2.69l1.46.56.21.1zM90.52 56.48c0 2.6.08 5.2.12 7.83h.79l.21 1.33H89l.21-1.31H90c0-2.64.08-5.24.12-7.85zM96.71 74.22H83.9l1.25-.52A10.62 10.62 0 0 0 88 72a.43.43 0 0 1 .26-.09h4.1a.4.4 0 0 1 .25.07A12.27 12.27 0 0 0 96.37 74l.35.14M93.56 77.36H87l.22-1.43c0-.27.1-.54.13-.82s.06-.18.2-.18H93a.22.22 0 0 1 .17.12c.13.76.24 1.52.37 2.31M92.14 68.56l.41 2.59h-4.49l.41-2.59zM86.17 67.84l.27-.12a8.07 8.07 0 0 0 2.18-1.27.44.44 0 0 1 .26-.09h2.81a.4.4 0 0 1 .25.07 8.53 8.53 0 0 0 2.29 1.33l.18.09zM93.2 52.7v-1.07a2.69 2.69 0 0 0-.52-1.63 6.11 6.11 0 0 0-.62-.62 1.35 1.35 0 0 0-.19-.13 2.39 2.39 0 0 0-.28-2.77 5 5 0 0 1 .72-.12h2.38a3 3 0 0 1 2.53 2 3.58 3.58 0 0 1 .2 1.2v2.3a.21.21 0 0 1-.13.22 7.06 7.06 0 0 1-2.2.62 9.43 9.43 0 0 1-1.91.07M88.58 46.34a2.39 2.39 0 0 0-.37 2.85l-.1.08a2.71 2.71 0 0 0-1.22 2.33v1.11l-1.17-.13a13.55 13.55 0 0 1-2.4-.56.18.18 0 0 1-.15-.21v-2.66a3 3 0 0 1 2.49-2.82 9.49 9.49 0 0 1 1.12 0h1.78"/><path d="M93.49 41.26a2.44 2.44 0 1 1-2.3 2.44 2.38 2.38 0 0 1 2.3-2.44M87.11 41.26a2.44 2.44 0 1 1-2.31 2.44 2.37 2.37 0 0 1 2.31-2.44M87.57 52.32a8.83 8.83 0 0 1 .09-1.14 1.81 1.81 0 0 1 1.72-1.46h1.31a1.86 1.86 0 0 1 1.79 1.81v1.59a.21.21 0 0 1-.11.14 4.42 4.42 0 0 1-1.37.38 7.75 7.75 0 0 1-3.28-.36.15.15 0 0 1-.13-.18v-.78M90 49.59A1.47 1.47 0 0 1 88.62 48a1.46 1.46 0 0 1 1.48-1.41 1.47 1.47 0 0 1 1.37 1.59A1.44 1.44 0 0 1 90 49.59M69.74 54a2.14 2.14 0 0 1-.55-.86 1.67 1.67 0 0 1 .67-2L73 49a.41.41 0 0 1 .64.14.38.38 0 0 1-.1.45l-1.84 2-.53.58c-.15.17-.16.32 0 .45a.32.32 0 0 0 .45 0l2.64-2.34a.41.41 0 0 1 .48-.07.38.38 0 0 1 .21.44.62.62 0 0 1-.15.23l-2.37 2.51a.32.32 0 0 0-.1.35.3.3 0 0 0 .49.09l1.15-1 1.55-1.34a.4.4 0 0 1 .68.2.51.51 0 0 1-.1.35c-.7.96-1.4 1.96-2.1 2.88a4.09 4.09 0 0 1-.3.4 1.84 1.84 0 0 1-2.2.29c-.19-.1-.36-.24-.54-.37l-.11.11-5.32 5.91a1.45 1.45 0 0 1-2.38-.3 1.34 1.34 0 0 1 .32-1.62l4-3.37 2.14-1.81.15-.13"/><path d="M68.32 54.23l-1.51 1.27a.19.19 0 0 1-.15 0 7.72 7.72 0 0 1-3-1.82 5.73 5.73 0 0 1-1.49-2.81 7.83 7.83 0 0 1-.17-1.22.63.63 0 0 1 .23-.59.41.41 0 0 1 .54 0 2.64 2.64 0 0 1 .41.32L65.92 52l2.19 2 .21.19M69.22 58.31l1.56-1.74.84.79 2.1 2a1.32 1.32 0 0 1 .34 1.52 1.47 1.47 0 0 1-1.39.87 1.43 1.43 0 0 1-1.13-.54l-2.21-2.76-.11-.15M17.64 61.43a4.25 4.25 0 0 1-1.2 1.57 4.09 4.09 0 0 1-3.64.9 3.8 3.8 0 0 1-1.22-.48l-.14-.1h.4a4.83 4.83 0 0 0 2.51-.84 4.64 4.64 0 0 0 1.55-1.78.66.66 0 0 1 1.1-.33l.29.2a.76.76 0 0 1 .29.37l.07.19zM3.37 61.13a1 1 0 0 1 .45-.63l.4-.24h.13a.62.62 0 0 1 .67.31c.2.32.38.64.59 1a4 4 0 0 0 .87.87 4.68 4.68 0 0 0 2.11.91c.28 0 .57.06.85.08a.18.18 0 0 1 .1 0 2.58 2.58 0 0 1-.23.15 4.21 4.21 0 0 1-3.09.38 4.15 4.15 0 0 1-1.75-1 4.88 4.88 0 0 1-1-1.21 3.09 3.09 0 0 1-.14-.31zM12.6 59.05a4.37 4.37 0 0 1-.55 2 5 5 0 0 1-.94 1.2.82.82 0 0 1-1.18 0 4.56 4.56 0 0 1-1.13-1.57 4.24 4.24 0 0 1-.31-2.48 4.38 4.38 0 0 1 .9-2 6.78 6.78 0 0 1 .59-.63.83.83 0 0 1 1 0 4.75 4.75 0 0 1 1.34 2 5 5 0 0 1 .24 1.55"/><path d="M6.2 57.28a4.35 4.35 0 0 1 1.24.17.76.76 0 0 1 .53.79v1a4.31 4.31 0 0 0 .25 1.31A5 5 0 0 0 9 62c.11.14.22.26.33.39.06.09.15.18.09.3s-.18.11-.28.1a4.31 4.31 0 0 1-1.71-.45A4.08 4.08 0 0 1 6 61.19a4.38 4.38 0 0 1-.86-1.9 5.21 5.21 0 0 1-.08-1.19.83.83 0 0 1 .82-.82h.32M13.12 59v-.64a.81.81 0 0 1 .66-.93 6.21 6.21 0 0 1 1.39-.13.84.84 0 0 1 .8.78 4.74 4.74 0 0 1-.28 2 4.2 4.2 0 0 1-1.19 1.74 4.3 4.3 0 0 1-2.53 1h-.18c-.15 0-.21-.13-.13-.27a1.4 1.4 0 0 1 .21-.27 4.94 4.94 0 0 0 .93-1.46 5.08 5.08 0 0 0 .32-1.82M25.66 30.48c-.16-.4-.34-.83-.51-1.26a2.62 2.62 0 0 1-.09-.31.89.89 0 0 1 .38-1 3.74 3.74 0 0 1 1.16-.58 7.55 7.55 0 0 1 2.16-.33 12 12 0 0 0 1.32-.1 1.37 1.37 0 0 0 .52-.23c.14-.09.13-.22 0-.3a1.54 1.54 0 0 0-.52-.17 7.26 7.26 0 0 0-2.47.27 10.23 10.23 0 0 0-2.32.92 4.46 4.46 0 0 0-.38.26 4.7 4.7 0 0 1 .07-.55c.13-.54.27-1.08.43-1.61a1.84 1.84 0 0 1 1.78-1.27 8 8 0 0 1 1.9.12l1.71.23a1.58 1.58 0 0 0 .47 0c.24 0 .31-.27.13-.42a1.49 1.49 0 0 0-.45-.25 6.93 6.93 0 0 0-1.81-.32 12 12 0 0 0-2.41.07 5.88 5.88 0 0 0-.76.2 2.2 2.2 0 0 1 .1-.25c.22-.43.43-.88.69-1.3a1.73 1.73 0 0 1 1.49-.77 5.13 5.13 0 0 1 2.54.53c.37.18.74.37 1.12.54a5.15 5.15 0 0 0 .68.21.62.62 0 0 0 .22 0c.23 0 .32-.18.2-.36a.86.86 0 0 0-.26-.26 7.07 7.07 0 0 0-5.07-1.1v-.06c.51-.54 1-1.1 1.53-1.61a1.87 1.87 0 0 1 2-.34 3.21 3.21 0 0 1 1.22.77c.34.33.68.66 1 1a1.58 1.58 0 0 0 .38.26c.23.11.37 0 .34-.22a1.83 1.83 0 0 0-.59-1.12A5.21 5.21 0 0 0 31 18.45l-.4-.07a8.39 8.39 0 0 1 2.4-.78 6.73 6.73 0 0 1 1.83 0 1.94 1.94 0 0 1 1.83 2.16 5.45 5.45 0 0 1-.26 1.07c0 .14-.08.27-.13.41h.07a7.61 7.61 0 0 0 2.59-2.43 3.9 3.9 0 0 0 .53-1.32.57.57 0 0 1 .72-.29.24.24 0 0 1 .07.22 7.35 7.35 0 0 1-.37 1 6.71 6.71 0 0 1-2.1 2.36c-.28.21-.57.4-.89.63h.21a10.79 10.79 0 0 1 1.26 0 2 2 0 0 1 1.88 1.81 5.59 5.59 0 0 1-.4 2.78.67.67 0 0 1-.05-.1 3.32 3.32 0 0 0-2.38-2.24 7.48 7.48 0 0 0-.86-.22c-.14 0-.32 0-.4.11s0 .27.16.35.54.37.81.54.84.49 1.23.78a2.68 2.68 0 0 1 .55.58 1.4 1.4 0 0 1 .1 1.61 6.67 6.67 0 0 1-1.18 1.39 6.81 6.81 0 0 0-.07-.87 3.72 3.72 0 0 0-1.86-2.52 1.35 1.35 0 0 0-.39-.14c-.17 0-.26 0-.23.21a.82.82 0 0 0 .12.32 6.72 6.72 0 0 0 .58.74 5.09 5.09 0 0 1 1.1 1.5 1.44 1.44 0 0 1-.52 1.91c-.41.31-.84.61-1.26.91l-.13.07c0-.19.08-.36.1-.53a3 3 0 0 0-.07-1.33c-.18-.64-.38-1.28-.6-1.91a2.12 2.12 0 0 0-.38-.58.3.3 0 0 0-.36-.09.24.24 0 0 0-.14.29 8.29 8.29 0 0 0 .2.89c.19.63.42 1.24.61 1.87a2.15 2.15 0 0 1 .07 1 1.52 1.52 0 0 1-.68 1 7 7 0 0 1-1.55.69c0-.09 0-.14.06-.19a5.62 5.62 0 0 0 .44-2.76 2.25 2.25 0 0 0-.11-.49.63.63 0 0 0-.18-.27.46.46 0 0 0-.29-.11s-.11.15-.12.23v1.73a3.43 3.43 0 0 1-.12 1.35 1.16 1.16 0 0 1-.93.81c-.46.09-.91.19-1.36.29l.06-.13a5.34 5.34 0 0 0 .63-2.35 2.76 2.76 0 0 0-.06-.58l-.09-.12c-.03-.04-.11.05-.13.1a11.39 11.39 0 0 0-.4 1.07 8.68 8.68 0 0 0-.15.9 1.94 1.94 0 0 1-.11.36.87.87 0 0 1-1 .64 6.21 6.21 0 0 0-2 .25h-.2a1.36 1.36 0 0 0 0-1.31c-.08-.19-.14-.38-.2-.57a.68.68 0 0 1 .16-.7 3 3 0 0 1 1.16-.84l.77-.32a1.85 1.85 0 0 0 .33-.21c.11-.08.2-.21.1-.33a.48.48 0 0 0-.32-.1 1 1 0 0 0-.35.08A5.6 5.6 0 0 0 26 30a3.31 3.31 0 0 0-.32.45M57.54 0H38.3A1.34 1.34 0 0 0 37 1.34v10.73a1.34 1.34 0 0 0 1.33 1.34H39a1.34 1.34 0 0 0 1.33-1.34V4.84a1.34 1.34 0 0 1 1.33-1.34h12.52a1.34 1.34 0 0 1 1.33 1.34v7.24a1.34 1.34 0 0 0 1.33 1.34h.69a1.34 1.34 0 0 0 1.33-1.34V1.34A1.34 1.34 0 0 0 57.54 0M47.43 79.71l.1-.4A3.2 3.2 0 0 1 50.84 77a3.12 3.12 0 0 1 2.94 2.51 10.61 10.61 0 0 1 .06 1.69c0 .22-.17.33-.45.33h-5.41a.57.57 0 0 1-.55-.26zM58.88 81.23a.57.57 0 0 1-.55.26h-3.66c-.22 0-.27-.05-.28-.28 0-.65 0-1.3-.09-2a2.58 2.58 0 0 0-.61-1.33c-.13-.16-.11-.26.06-.38a3.19 3.19 0 0 1 3.13-.36 3 3 0 0 1 2 2.37 1 1 0 0 0 0 .14z"/><path d="M57.83 74.48a2.18 2.18 0 1 1-2.18-2.09 2.13 2.13 0 0 1 2.18 2.09M48.47 74.48a2.18 2.18 0 1 1 2.18 2.09 2.12 2.12 0 0 1-2.18-2.09M94.63 28.5a2.93 2.93 0 1 0 2.94 3 2.93 2.93 0 0 0-2.94-3m-15.55 2.94a2.92 2.92 0 1 0 3-2.94 2.9 2.9 0 0 0-3 2.94m-1.71.62v-1.25c.13-.51.23-1 .41-1.53.41-1.2.87-2.38 1.29-3.58.36-1 .7-2 1.05-3.06A2.49 2.49 0 0 1 81 21.4a3.19 3.19 0 0 1 2.31-.51 3 3 0 0 1 1.79.94c.39.38.74.8 1.12 1.19.23.24.4.23.63 0a1.22 1.22 0 0 1 .31-.21 2.71 2.71 0 0 1 1.7-.21 1.83 1.83 0 0 1 1 .43c.21.2.38.22.59 0a10.29 10.29 0 0 0 .77-.82A3.82 3.82 0 0 1 92.89 21a3.27 3.27 0 0 1 1.48-.08 2.43 2.43 0 0 1 2.08 1.61c.33.83.61 1.69.9 2.54L99 29.83c0 .09.06.18.09.28s.11.47.17.7v1.45a4.68 4.68 0 0 1-1.77 2.86 4.65 4.65 0 0 1-6.49-.8 4.63 4.63 0 0 1-1-2.5 4.56 4.56 0 0 1 .16-1.63 4.41 4.41 0 0 1 1.78-2.54 14.93 14.93 0 0 1 1.38-.76h-.22A3.88 3.88 0 0 0 91 28a3.32 3.32 0 0 0-1 1.69A1.64 1.64 0 0 1 88 31a1.58 1.58 0 0 1-1.27-1.09 3.23 3.23 0 0 0-.16-.62 9.11 9.11 0 0 0-.83-1.18 3.33 3.33 0 0 0-1.41-.92c-.33-.12-.68-.19-1-.29a.14.14 0 0 0 .1.09 4.58 4.58 0 0 1 2.32 1.65 4.46 4.46 0 0 1 .9 2.4 5.37 5.37 0 0 1-.08 1.31 4.4 4.4 0 0 1-1.08 2.19 4.65 4.65 0 0 1-6.92 0 4.46 4.46 0 0 1-.95-1.54c-.1-.3-.17-.61-.25-.92"/><path d="M95.93 20.57a4.35 4.35 0 0 0-5.09.69 2.42 2.42 0 0 1 .84-2.42 2.6 2.6 0 0 1 2.91-.28 2.73 2.73 0 0 1 1.34 2M85.74 21.33c-1.5-1.53-3.19-1.56-5-.76a2.84 2.84 0 0 1 1.11-1.8 2.5 2.5 0 0 1 2.76-.07 2.41 2.41 0 0 1 1.17 2.63M83.88 62.58a2.88 2.88 0 1 1 2.86-2.91 2.88 2.88 0 0 1-2.86 2.91"/><path d="M86.53 58a3.82 3.82 0 0 0-1.31-1.14 1.56 1.56 0 0 1 .66-.46 1.2 1.2 0 0 1 .53-.06 1.59 1.59 0 0 0 .38 0 .44.44 0 0 0 .39-.39v-.06a1.66 1.66 0 0 1-.65 2.11M81.21 58a1.7 1.7 0 0 1-.67-2.12v.07a.45.45 0 0 0 .44.4 1.55 1.55 0 0 0 .32 0 1.37 1.37 0 0 1 1.19.52A3.23 3.23 0 0 0 81.21 58M85.22 62.56a3.22 3.22 0 0 0 1.3-1.13 1.68 1.68 0 0 1 .67 2.12 1.43 1.43 0 0 0 0-.15.45.45 0 0 0-.42-.32 3 3 0 0 0-.4 0 1.35 1.35 0 0 1-1.12-.53M81.21 61.43a3.22 3.22 0 0 0 1.31 1.14A1.64 1.64 0 0 1 82 63a1.21 1.21 0 0 1-.71.14 1.76 1.76 0 0 0-.34 0 .45.45 0 0 0-.44.39v.07a1.69 1.69 0 0 1 .67-2.12M85 56.68a4.56 4.56 0 0 0-1.73-.12 1.67 1.67 0 0 1 1-1.95l-.07.1a.43.43 0 0 0 0 .51 1.31 1.31 0 0 0 .24.25 1.38 1.38 0 0 1 .56 1.19M78.79 60.07a1.68 1.68 0 0 1 2-1 3.21 3.21 0 0 0 .12 1.73 1.68 1.68 0 0 1-.63-.07 1.22 1.22 0 0 1-.61-.43l-.12-.13a.5.5 0 0 0-.74-.07M89 59.31a1.69 1.69 0 0 1-2 1 8.27 8.27 0 0 0 0-.87 8.29 8.29 0 0 0-.14-.87 1.73 1.73 0 0 1 .59.08 1.22 1.22 0 0 1 .61.43l.12.13a.51.51 0 0 0 .75.06M84.51 62.8a1.69 1.69 0 0 1-1 2 .48.48 0 0 0 0-.7 5 5 0 0 1-.42-.41 1.44 1.44 0 0 1-.25-1 3.2 3.2 0 0 0 1.73.12"/></svg>