<svg id="world-map-mobile" data-name="Warstwa 1" xmlns="http://www.w3.org/2000/svg" viewBox="0 0 1008.85 651.45"><defs><style>.cls-1{fill:#9e9e9e}.cls-oc{fill:none}</style></defs><path id="AF" class="cls-1" d="M647.13 357.16l2.86 1.3 2.12-.46.58-1.56 2.21-.52 1.58-1.05.56-2.79 2.36-.68.44-1.25 1.32.94.85.11h1.56l2.11.74.86.43 2-1.13.95.68.9-1.61 1.68.07.43-.52.3-1.43 1.21-1.24 1.52.81-.3 1.08.85.17-.26 3 1.11 1.14 1-.73 1.24-.35 1.75-1.57 1.93.26h2.89l.5 1-1.63.39-1.43.65-3.22.4-3 .73-1.64 1.51.66 1.46.32 1.7-1.4 1.43.12 1.3-.77 1.21-2.67-.11 1.1 2.22-1.78.84-1.19 2 .15 2-1.1.92-1-.31-2.14.43-.31.91h-2.09l-1.56 1.84-.1 2.75-3.64 1.33-2-.28-.57.7-1.68-.41-2.8.48-4.7-1.64 2.54-2.93-.23-2.1-2.12-.55-.22-2.08-.92-2.64 1.2-1.83-1.22-.49.77-2.45z"/><path id="AL" class="cls-1" d="M533.23 334.91l-.36 1.27.4 1.59 1.16.9-.06 1-.91.53-.17 1.19-1.3 1.77-.48-.25-.06-.8-1.55-1.22-.24-1.75.24-2.53.38-1.16-.47-.59-.19-1.2 1.22-1.87.18.71.75-.34.6 1 .67.39z"/><path id="AM" class="cls-1" d="M597.7 337.76l3.9-.58.58 1 1.07.64-.56.92 1.49 1.26-.79 1.16 1.19 1 1.26.59.06 2.5-1 .11-1.15-2.08v-.56h-1.24l-.83-1-.58.1-1.1-1.06-2.09-.91.27-1.79z"/><path id="AT" class="cls-1" d="M523.11 310.11l-.21 1.7h-1.58l.54.9-.93 2.65-.54.69-2.45.1-1.41.92-2.32-.31-4-1.05-.63-1.42-2.77.71-.33.78-1.7-.58-1.43-.11-1.27-.75.43-1-.11-.73.85-.23 1.42 1.15.4-1.09 2.47.18 2-.74 1.35.13.87.85.26-.7-.4-2.72 1-.53 1-2 2.08 1.36 1.58-1.73 1-.32 2.18 1.3 1.32-.22 1.29.8-.23.54z"/><path id="AZ" class="cls-1" d="M601.68 342.72l.83 1h1.24v.56l1.15 2.08-1.92-.48-1.42-1.66-.45-1.37zm6.65-5.43l1.24.25.48-.95 1.67-1.51 1.47 2 1.43 2.62 1.31.17.86 1-2.31.29L614 344l-.48 1.26-1 .84.08 1.77-.7.18-1.75-1.87 1-1.78-.83-1.06-1.05.27-3.31 2.66-.06-2.5-1.26-.59-1.19-1 .79-1.16-1.49-1.26.56-.92-1.07-.64-.58-1 .69-.61 2.09 1.07 1.51.22.38-.43-1.38-2 .73-.52.79.13z"/><path id="BA" class="cls-1" d="M528.79 323.36h1l-.7 1.73 1.35 1.5-.44 1.81-.66.17-.52.35-.91.89-.41 2.1-2.48-1.44-1.06-1.6-1.07-.85-1.29-1.45-.61-1.21-1.37-1.83.59-1.64 1 .91.61-.82 1.31-.09 2.41.66 1.94-.05z"/><path id="BE" class="cls-1" d="M484.8 296.16l2.05.35 2.6-.93 1.77 2 1.54 1-.32 3-.73.17-.3 2.43-2.45-2-1.44.34-2-2.06-1.3-1.77-1.3-.07-.41-1.56z"/><path id="BG" class="cls-1" d="M539 325.81l.81 1.6 1.09-.28 2.16.6 4.12.2 1.39-1 3.3-.9 2 1.41 1.65.41-1.46 1.6-1 2.73.9 2.15-2.41-.51-2.82 1.18v1.86l-2.55.35-2-1.3-2.24 1-2.07-.11-.2-2.47-1.4-1.21.46-.53-.3-.45.47-1.21 1.07-1.2-1.36-1.66-.25-1.41z"/><path id="BN" class="cls-1" d="M795.71 451l1.11-1 2.39-1.53-.13 1.38-.16 1.79-1.34-.09-.59 1z"/><path id="BT" class="cls-1" d="M732.61 383l1.14 1-.2 1.92-2.29.09-2.37-.21-1.76.49-2.55-1.19-.06-.63 1.85-2.34 1.52-.8 2 .73 1.48.08z"/><path id="BY" class="cls-1" d="M541.35 284.33h2.71l3-1.8.65-2.72 2.3-1.56-.26-2.21 1.71-.83 3-1.93 3 1.26.4 1.24 1.47-.59 2.74 1.18.27 2.31-.6 1.31 1.76 3.15 1.14.87-.17.86 1.89.83.81 1.25-1.09 1-2.26-.16-.54.43.66 1.54.69 2.94-2.41.27-.86 1-.18 2.26-1.11-.43-2.53.21-.73-1-1.05.78-1.05-.65-2.21-.09-3.15-1.05-2.83-.36-2.17.1-1.54 1.23-1.34.17-.05-2-.86-2.12 1.68-.94v-1.85l-.78-1.78z"/><path id="CA" class="cls-1" d="M199.18 96.49l-.22-5.9 3.63.58 1.63 1 3.35 4.83-.76 5-4.15 2.77-2.28-3.12zm13.21 12.64l.33-1.49-2-2.45-5.65-.19.75 3.68 5.25.83zm36.35 47l3.09 5.1.81.57 3.07-1.27 3 .2 3 .28-.25-2.64-4.83-5.38-6.42-1.08-1.35.67zm-65.43-62.7l-2.71 4.19 6.24.52 4.62 4.44L196 104l-1.09-5.68-2.15-6.73-7.58-5.35-5.5-2 .2 5.69zm25.9-10.24l5.13-.12-2.22 4v5.3l3 5.76 5.81 1.77 5-1L231 88.14l3.85-4.45-3.38-5-2.17-10.62-4.6-3.19-4.7-3.68-3.58-9.56-6.52.94 1.23 4.15-2.9 1.27-1.94 5.32-1.94 7.46 1.77 7.22zm-63.75 53.38l3.92 2 12.67-1.3-5.83 4.73.36 3.43 4.26-.24 7.07-4.58 9.49-1.67 1.71-5.22-.49-5.57-2.94-.5-2.5 1.93-1.1-4.13-.95-5.7-2.9-1.42-2.57 4.41 4 11-4.9-.85-5-6.79-7.89-4-2.64 3.32zM168 94.46l-3.65-2.9-1.5-.66-2.85 4.29v2h4.66zm-1.47 12.36l.93-4-4-2.12-4.09 1.39-2.27 4.26 4.16 4.21zm29.1 33.24l4.62-1.11 1.28-8.25-.09-5.94-2.14-5.56-.22 1.6-3.94-.7-4.22 4.09-3-.37.18 8.92 4.6-.87-.06 6.46zm-3.29 45.6l-5.06-3.93-4.71-4.21-.87-6.18-1.7-8.92-3.14-3.84L174 157l-2.47 1.42 2 9.59-1.41 3.73-2.29-9-2.56-3.1-3.17 4.81-3.9-4.76-6.2 2.92 1.4-4.46-2.87-1.87-7.53 5.83-2 3.71-2.35 6.77 4.9 2.32 4.32-.12-6.5 3.46 1.48 3.13 4 .17 6-.67 5.42 2-3.66 1.45-4-.37-4.33 1.41-1.87.87 3.46 6.35 2.49-.88 3.83 2.15 1.52 3.65 5-.73 7.1-1.16 5.26-2.65 3.26-.48 4.82 2.12 5.07 1.22.95-2.86-1.79-3 4.6-.65zm7.75-1l-2 3.54-2.47 2.49 3.83 3.54 2.28-.85 3.78 2.36 1.74-2.73-1.71-3-.84-1.53-1.61-1.48zm-17.59-29.42l-2.13-2.18-3.76.4-1 1.38 4.37 6.75zm28.69 13.17l3-6.93 3.34-1.85 4.19-8.74-5.36-2.47-5.84-.36-2.78 2.77-1.46 4.23v4.82l1.75 8.19zm17.15-23l5.76-.18 8-1.61 3.59 1.27 4.18-2.26 1.75-2.84-.63-4.52L248 131l-4.56-.8-5.71 1-4.46 2.44-4.09-.94-3.78-.49-1.78-2.7-3.22-2.61.64-4.43-2.42-4h-5.52l-3.11-4-5.78-.8-1.05 5.1 3.25 3.75 5.8 1.45 2.82 5.09.34 5.6 1 6 7.45 3.42zm-89-18.27l5.21-5.05 2.62-.59 2.16-4.23.38-9.77-3.85 1.91-4.3-.18-5.76 8.19-4.76 9 3.8 2.51zm72.18 16.17l1.52-4.14-1-3.46-2.45-3.92-4 3-1.59 4.94 3.4 2.79zm-8.31 11.44l-.73-2.88-5 1.26-3.36-2.13-3.32 4.8 3.09 6.28-5.73-1.17-.06 3 7 7 1.94 3.38 2.7.73 4.6-3.41.5-8.21-4.24-4.07zm-74 153.74l-1.21-2.35-2.8-1.77-1.39-2.05-1-1.51-2.64-.46-1.72-.67-2.94-1-.24 1 1.08 2.38 2.89.78.5 1.23 2.51 1.5.84 1.51 4.6 1.92zm121.69-77.64l-2-2.11-2.06.5-.25-3.06-3.21-2-3.07-2.27-1.63-1.75-1.43 1-.52-3-2-.55-1 6.13-.36 5.11-2.43 3.15 3.8-.6 1 3.65 4-3.23 2.78-3.38 1.57 2.86 4.36 1.51zm-120.53-52.54l7.38-4.18v-3.87l3.48-6.41 6.88-6.69 3.52-2.47-3-4.2-2.72-3-7.16-.57-4-2.16-9.48 1.63 2.74 6.23-2.43 6.43-1.96 6.95-1.2 3.86 6.47 4.69zm134.24 27.3l.32-1v-3.18l-2.19-2.08-2.57 1-1.19 4.17.7 3.56 3.14-.36zm23.82 7.55l4.41 6.6 3.45 2.85 4.92-7.87.87-4.93-4.41-.47-4-6.7-4.48-1.64-6.6-5 5.15-3.63-2.65-7.54-2.44-3.35-6.77-3.35-2.92-5.55-5.21 2-.36-3.86-3.86-4.32-6.22-4.71-2.65 3.71-5.55 2.66.42-6.06-4.83-10-7.1 4-2.59 7.7-2.21-5.92 2.06-6.37-7.24 2.65-2.88 4-2.15 8.42.89 9.05h4l-2.93 3.92 2.33 3 4.55 1.26 5.93 2.42 10.2 1.82 5.08-1 1.5-2.42 2.21 2.79 2.47.46 3 5-1.8 2 5.68 2.63 4.3 3.68 1.08 2.55.77 3.24-3.63 6.93-1 3.44.94 2.42-5.77.86-5.27.12-1.85 4.87 2.37 2.23 8.11-1v-1.89l4.08 3.15 4.18 3.28-1 1.77 3.4 3 6 3.54 7.6 2.39-.46-2.09-2.92-3.67-4-5.37 7 5 3.54 1.66 1-4.44-1.83-6.3-1.15-1.73-3.81-3-2.94-4.05.35-3.94zM222.6 51.59l2.34 7.29 5 5.88 9.81-1.09 6.31 2-4.37 6.05-2.21-1.78-7.66-.71 1.19 8.31 4 6-.79 5.2-5 3.46-2.27 5.47 4.55 2.65 3.82 8.55-7.5-5.7-1.71.94 1.38 9.38-5.18 2.83.35 5.85 5.3.63 4.17 1.44 8.24-1.85 7.33 3.27 7.49-7.19-.06-3-4.79.48-.39-2.84 3.92-3.83 1.33-5.15 4.33-3.83 2.66-4.76-2.32-7.1 1.94-2.65-3.86-1.89 8.49-1.63 1.79-3.15 5.78-2.6L280.72 63l4.57-4.94L291.91 47l-6.1.1 2.54-4.3 6.78-4 6.84-8.9.12-5.73-5.13-6-6-2.93-7.49-1.82-6.07-1.49-6.07-1.5-8.1 4-1.49-2.53-8.57 1-5 2.57-3.76 3.53-2.13 11.74-3-6-3.48-1.14-4.12 8-5.5 3.35-3.27.66-4.17 3.84.61 6.65zm74.4 265l-1-2-1 1.29.7 1.36 3.56 1.71 1-.26 1.38-1.66-2.6.11zm-57-77.87l.61 1.63 2 .14 3.28-3.34.06-1.19-3.85-.06zm62.13 66.44l-2.87-1.8-3.69-1.09-1 .36 2.61 2 3.63 1.34 1.36-.08zM327 310l-.36-2.23-2 .72.87-3.11-2.8-1.32-1.29 1-2.42-1.17 1-1.51-1.88-.93-1.83 1.47 1.86-3.83 1.5-2.8.54-1.22-1.3-.2-2.43 1.55-1.78 2.58-2.9 6.92-2.35 2.56 1.22 1.14-1.75 1.38.43 1.23 5.44.13 3-.25 2.69 1-2 1.93 1.67.14 3.25-3.58.78.53-.61 3.37 1.84.77 1.27-.15 1.18-3.61zm-21.2 4.76l-2.8 4.53-4.63.58-3.64-2-.92-3.07-.89-4.46 2.65-2.83-2.48-2.09-4.2.43-5.89 3.52-4.5 5.45-2.38.67 3.23-3.8 4-5.57 3.58-1.9 2.35-3.11 2.9-.3h4.21l6 .92 4.74-.71 3.53-3.62 4.62-1.59 2-1.58 2-1.71-.2-5.19-1.08-1.75-2.18-.63-1.11-4-1.8-1.55-4.47-1.26-2.44-2.86-3.73-2.83 1.13-3.2-3.1-6.26-3.65-6.89-2.18-5-1.86 2.61-2.68 6.05-4.06 3-2-3.15-2.56-.85-.93-7 .08-4.8-5-.44-.85-2.27-3.45-3.44-2.61-2-2.32 1.58-2.88-.59-4.81-1.65-2 1.4.94 9.18 1.22 5.12-3.31 5.75 3.41 4 1.9 4.44.23 3.42-1.55 3.5-3.18 3.46-4.49 2.28 2 2.53 1.46 7.4-1.52 4.68-2.16 1.46-4.17-4.28-2-5.17-.87-4.76.46-4.19-3.05-.47-4.63-.28-3-2.08-3.51-1.37-2-2.38-2.8-1.93-5.21-2.23-3.92 1-1.31-3.95-1.26-5-4.12-.9.15-6.41 1.09-4.48 3-6.6 3.43-4.9 3.26-.77.19-4 2.21-2.68 4-.42 3.25-4.39.82-2.9 2.7-5.73.8-3.5 2.9 2.11 3.9-1.08 5.49-5 .36-3.54-2-4 2.09-4.06-.17-3.87-3.76-4-4.15-1.19-4-.62-.15 8.71-2 6.55-2.93 5.3-2.71-4.95.84-5.61-3.35-5-3.75 6.09v-8l-5.21-1.63 2.49-4-3.81-9.59-2.84-3.9-3.7-1.44-3.32 6.43-.23 9.34 3.27 3.29 3 4.91L210 201l-2.26-.2-1.74 5.91v-7l-4.35-2.58-2.49 1.34.32 4.67-4.09-.18-4.39 1.17-5-3.35-3.13.6-2.82-4.11-2.26-1.84-2.24.77-3.41.35-1.81 2.61 2.86 3.19-3.05 3.73-3-4.42-2.39 1.3-7.57.87-5.07-1.59 3.95-3.74-3.78-3.9-2.75.5-3.86-1.32-6.56-2.89-4.29-3.37-3.4-.47-1.06 2.36-3.36 1.3-.38-6.15-3.73 5.51-4.74-7.32-1.94-.89-.63 3.9-2.09 1.9-1.93-3.39-4.59 2-4.2 3.55-4.17-1-3.4 2.49-2.46 3.28-2.92-.72-4.41-3.8-5.21-1.87v63.08l2.76.17 2.7 1.55 2 2.44 2.49 3.6 2.68-3.04 2.82-1.79 1.49 2.79 1.86 2.27 2.57 2.42 1.75 3.79 2.87 5.88 4.77 3.2.08 3.12-1.56 2.36.06 2.48L113 286l.49 3.76 3.59 2-.4 2.79 1.56 4 5.08 1.83 2 1.89 5.43 4.23h78v-1.64h.95l.5 2.35.87.72 2 .26 2.86.67 2.72 1.3 2.27-.55 3.45 1.09 1.14-1.66 1.59-.66.62-1 .63-.55 2.61.86 1.93.1.67.57.94 2.38 3.15.63-.49 1.18 1.11 1.21-.48 1.56 1.18.51-.59 1.37.75.13.53-.6.55.9 2.1.5h2.13l2.27.41 2.51.78.91 1.26 1.82 3-.9 1.3-2.28-.54-1.41-2.44.35 2.49-1.34 2.17.15 1.84-.23 1.07-1.82 1.27-1.32 2.09-.62 1.32 1.54.24 2.08-1.2 1.23-1.06.83-.17 1.54.38.75-.59 1.37-.48 2.44-.47-.25-1.15h-.13l-.86.2-1.12-.36.84-1.32.85-.46 2-.57 2.37-.53 1.24.73.78-.85.89-.54.6.29v.06l2.87-2.73 1.27-.73H275l.28-1 .9-.2 1.19-.62 1-1.82.86-3.15 2.14-3.1.93 1.08 1.88-.7 1.24 1.19V320l1.83 2.25 3.12-.48 4.49-.13-4.86 3.27.11 3.29 2.13.28 3.13-2.79 2.78-1.58 6.21-2.35 3.47-2.62-1.83-1.46zm-53.66-71.1l1.1-3.12-.71-1.23-1.15-.13-1.08 1.8-.13.41.74 1.77zM109.5 280.05l1.56-2.35z"/><path id="CH" class="cls-1" d="M502.4 312.6l.11.73-.43 1 1.27.75 1.43.11-.22 1.67-1.24.68-2.08-.51-.61 1.63-1.33.13-.49-.64-1.57 1.36-1.35.19-1.21-.86-1-1.77-1.34.63v-1.84l2-2.3-.09-1.05 1.28.38.77-.71h2.39l.58-.9z"/><path id="CN" class="cls-1" d="M786.13 406.53l.63 1.13-1.23 1.3-.65 1.7-2.42 1.41-2.3-.91-.08-2.54 1.38-1.34 3.06-.83zm63.33-96.67L847 311.5h-4.26l-1.14-3.95-3.32-3-4.88-1.38-1-4.28-1-2.73-1.05-1.94-1.73-4.61-2.46-1.71-4.2-1.39-3.72.13-3.48.85-2.32 2.31 1.54 1.1v2.52l-1.56 1.45-2.53 4.73v1.93l-4 2.74-3.36-1.63-1.36 3.25-2 4.23.72 1.71 1.59-.53 2.77.65 2.16-1.54 2.25 1.33 2.54 2.89-.2 1.37-2.21-.46-4.07.54-2 1.15-2.05 2.66-4.28 1.55-2.79 2.1-2.88-.8-1.58-.36-1.47 2.54.9 1.5.45 1.28-2 1.3-2 2.05-3.28 1.34-4.2.14-4.53 1.31-3.27 2-1.24-1.16h-3.39l-4.11-2.25-2.77-.57-3.73.53-5.79-.85-3.09.09-1.62-2.27-1.28-3.57-1.73-.43-3.39-2.45-3.78-.55-3.33-.68-1-1.73 1.08-4.73-1.93-3.32-4-1.57-2.36-2.23-.74-3-1.1.35-2.13 2.83-2.33.39-.13 4.19-1.56 1.86-5.56-1.35-2 7.26-1.44.89-5.55 1.58 2.52 6.75-1.92 1 .22 2.17-.39.85-4.42 2-1 1.48-3.6.44-1.06 2.35-3-.49-1.94.72-2.68 1.73.39.85-.8.83.71 3.32.92-.36 1.7.81-.1 1.38.42 2 .5 1 2.07 1.63.83 2.66 4.61 1.39 2.31-1.15 1.63-.37 1.66.53 1.16.84-.72 2.81-1.37.81v.81l-.34.56-1.09-.06-.19.22.31.94-.31.94.53.47.69.09v.47l.59 1.41-.69.75-.59.34-.44.16-.48-.69-.85-.19.79 3.63 2.76 2.07 3.9 2.27 1.16-.77 2.25 1 2.83 2.09 1.58.46.94 1.53 2.18.63 2.28 1.39 3.17.73 3.27.31 1.71-.67.23 2.48 1.85-2.34 1.52-.8 2 .73 1.48.08 1.23.85 2.26-.39 2.55-2.36 3.23-2 2.3.78 2-1.35 1.31 2-.95 1.33 3 .47 1.64-.23.94 1.86 1.22.75.08 2.4-.11 2.57-2.66 2.58-.34 3.64 3-.51.67 2.8 1.78.59-.82 2.51 2.08 1.13 1.21.55 2.06-.87.09 1.24.25.7 1.49.08-.42-3.43 1.45-.44 1.51-.74h2.24l2.73-.35 2.39-1.61 1.35 1.14 2.56.55-.44 1.74 1.34 1.22 2.82.78 1.33-.49 3.76 1-.66 1.16.73 2.16 1.55-.17 1-3.15 3-.46 3.92-1.5 1.59-1.5 1 1 1.71-1.34 3.16-.35 3.9-2.55 3.85-2.82 2.6-3.68 2.27-4.09 2-3.41 1.57-.28.71-2.52.43-2.61-1.65-1-.67-1.73 1.76-.89v-2.43l-1.9-2.53-1.71-3-1.1-3.31-3-1.86 1.44-2.39 2.73-1.73 1.31-1.87 4-1-.46-1.84-1.81-.09-2.49-1.37-3.14 2.51-2.22-1-.09-1.58-2.29-.58-1.6-2.48 1.43-1.68 2.75-.17 1.73-2.34 3.16-2.54 2.44-1.3 1.48 1.93-2.22 2.45.59 1.41-1.49 1.67 3-1 2.06-1.69 3.92-1.06 2.28-2.35 3.09-2 1.93-2.64 1.33 1.17 2.42.14-.44-2 4.33-1.62 1.11-2.13 1.81 2.24v-1.93l1.43-.1.4-4.55-.74-3.36 2.41-1.4 3.4.7 1.89-3.89 1-4.46 1.09-1.51 1.47-3.76z"/><path id="CY" class="cls-1" d="M570.56 358.54l1.89-1.46-2.55 1h-2l-.4.83h-.2l-1.33.13.66 1.37 1.37.44 2.87-1.38-.09-.27z"/><path id="CZ" class="cls-1" d="M523.06 308.12l-1.29-.8-1.32.22-2.18-1.3-1 .32-1.58 1.73-2.08-1.36-1.61-1.84-1.43-1-.3-1.82-.49-1.3 2-1 1-1.1 2-.86.7-.85.74.51 1.25-.46 1.33 1.43 2.1.38-.17 1.21 1.52.9.42-1.13 1.92.49.27 1.37 2.08.26 1.29 2.13h-.84l-.43.77-.64.19-.18 1-.54.2-.08.4-1 .44-1.24-.07z"/><path id="DE" class="cls-1" d="M503.32 279.18l.05 1.88 2.83 1.12v1.7l2.8-.88 1.58-1.31 3.17 1.89 1.32 1.51.66 2.39-.73 1.22 1 1.65.69 2.45-.22 1.56 1.15 2.86-1.25.46-.74-.51-.7.85-2 .86-1 1.1-2 1 .49 1.3.3 1.82 1.43 1 1.58 1.84-1 2-1 .53.4 2.72-.26.7-.87-.85-1.35-.13-2 .74-2.47-.18-.4 1.09-1.42-1.15-.85.23-3-1.27-.58.9h-2.39l.36-3 1.42-2.9-4-.79-1.32-1.12.16-1.9-.56-1 .32-3-.47-4.69H494l.71-1.71.7-4.22-.52-1.58.55-1 2.34-.26.52 1 1.9-2.33-.64-1.79-.13-2.74 2.12.64z"/><path id="DK" class="cls-1" d="M511.08 276.1l-1.68 4-2.93-2.76-.39-2.05 4.11-1.66zm-5-4.25l-.68 1.9-.83-.55-2 3.59.76 2.39-1.79.74-2.12-.64-1.14-2.72-.08-5.12.47-1.37.8-1.54 2.47-.32 1-1.43 2.26-1.47-.1 2.68-.83 1.68.34 1.43z"/><path id="EE" class="cls-1" d="M543.67 265l.33-3.12-1 .67-1.78-1.9-.24-3.11 3.55-1.53 3.53-.8 3 .91 2.89-.16.42 1-2 3.13.83 5-1.2 1.66h-2.3l-2.41-1.94-1.23-.65z"/><path id="ES" class="cls-1" d="M450.17 334.82l.14-2.69-1.15-1.65 4-2.77 3.43.7h3.77l3 .66 2.33-.2 4.53.13 1.12 1.49 5.16 1.73 1-.82 3.15 1.71 3.25-.49.15 2.19-2.66 2.49-3.59.78-.25 1.24-1.72 2-1.08 3 1.09 2.05-1.62 1.59-.61 2.3-2.12.7-2 2.69-3.56.05-2.67-.07-1.76 1.23-1.07 1.31-1.37-.29-1-1.17-.79-2-2.62-.54-.23-1.16 1-1.32.39-1-1-1.06.77-2.35-1.12-2.17 1.21-.3.11-1.72.45-.54v-2.87l1.3-1-.78-1.87-1.63-.13-.48.47H453l-.7-1.84-1.15.55z"/><path id="FI" class="cls-1" d="M555.67 193.35l-.41 5.4 4.29 5-2.55 5.48 3.26 8-1.89 5.76 2.52 4.86-1.15 4.14 4.15 4.26-1.05 3.1-2.6 3.45-6 7.41-5.09.45-4.93 2.07-4.56 1.18-1.66-3.11-2.71-1.87.62-5.73-1.36-5.41 1.34-3.58 2.54-3.94 6.41-7 1.87-1.39-.29-2.84-3.9-3.23-.95-2.7-.07-11.11-4.38-5.15-3.74-3.8 1.68-2.09 3.12 4.15 3.66-.38 3 1.87 2.67-3.44 1.38-5.85 4.35-2.77 3.6 3.25z"/><path id="FR" class="cls-1" d="M502.31 333.79l-.93 2.89-1.27-.76-.65-2.53.54-1.39 1.81-1.45zm-16.75-33.35l2 2.06 1.44-.34 2.45 2 .63.37.81-.09 1.32 1.12 4 .79-1.42 2.9-.36 3-.77.71-1.28-.38.09 1-2.05 2.3v1.84l1.34-.63 1 1.77-.12 1.13.83 1.5-1 1.21.72 3 1.52.49-.32 1.68-2.54 2.17-5.53-1-4.08 1.24-.32 2.29-3.25.49-3.15-1.72-1 .82-5.16-1.73-1.19-1.43 1.45-2.32.53-7.88-2.89-4.26-2.07-2.09-4.29-1.6-.28-3.07 3.64-.92 4.71 1.09-.89-4.85 2.65 1.85 6.53-3.37.84-3.61 2.45-.9.41 1.56 1.3.07z"/><path id="GB" class="cls-1" d="M459.63 281.26l-1.5 3.29-2.12-1-1.73.07.58-2.57-.58-2.6 2.35-.2zm7.45-20.76l-3 5.73 2.86-.72h3.07l-.73 4.22-2.52 4.54 2.9.32.22.52 2.5 5.79 1.92.77 1.7 5.43.8 1.84 3.4.88-.34 2.93-1.43 1.33 1.12 2.33-2.55 2.33h-3.75l-4.77 1.21-1.31-.87-1.85 2.06-2.59-.5-2 1.67-1.49-.87 4.11-4.64 2.51-1-4.38-.75-.79-1.8 2.93-1.41-1.54-2.48.53-3.06 4.17.42.41-2.74-1.88-3v-.07l-3.4-.85-.67-1.32 1-2.2-.92-1.37-1.51 2.34-.16-4.8-1.42-2.59 1-5.36 2.18-4.31 2.24.42z"/><path id="GE" class="cls-1" d="M592 336.11l.42-1.6-.7-2.58-1.62-1.4-1.55-.44-1-1.18.34-.46 2.37.66 4.13.62 3.82 1.83.49.71 1.7-.6 2.61.79.86 1.55 1.76.87-.73.52 1.38 2-.38.43-1.51-.22-2.09-1.07-.69.61-3.9.58-2.7-1.83z"/><path id="GL" class="cls-1" d="M344.38 24.16l9.41-13.6 9.84 1.07 3.58-9 9.91-2.38 22.4 3.15L417.06 22l-5.18 8.31-10.73.92-15.09 2 1.41 3.65 9.93-2.24 8.45 6.91 5.44-6.12 2.33 7.15-3.08 11 7.14-6.92 13.61-7.55 8.4 3.81 1.58 8.08-11.43 12.68-1.58 3.89-9 2.87 6.49.79-3.28 11.51-2.26 9.6.09 15.26 3.37 8.33-4.38.51-4.61 3.88 5.17 6.3.66 9.63-3 1 3.63 9.15-6.23.74 3.25 4.14-.92 3.51-4 1.52h-3.91l3.51 6.48v4.13l-5.55-3.83-1.29 2.52 3.79 2.29 3.67 5.48 1.06 7-5 1.62-2.16-3.26-3.47-5 1 5.87-3.31 4.39 7.39.35 3.86.45-7.51 7-7.62 6.2-8.21 2.62h-3.09l-2.9 2.87-3.9 7.63-6 4.89-1.94.28-3.76 1.71-4 1.58-2.4 4.12v4.56l-1.5 4.13-4.57 4.95 1.13 4.71-1.26 4.85-1.44 5.57-4 .34-4.14-4.63h-5.61l-2.65-3.18-1.87-5.81-4.86-7.67-1.42-4.16-.38-5.89-3.93-6.31 1-5.17-1.87-2.53 2.77-8.66 4.22-2.85 1.11-3.26.59-6.26-3.2 2.87-1.53 1.19-2.52 1.13-3.44-2.6-.19-5.55 1.1-4.48 2.6-.12 5.72 2.26-4.82-5.43-2.51-3-2.79 1.24-2.24-2.2 3.13-8.51-1.7-3.52-2.28-6.71-3.37-10.91-3.57-4.18v-4.63l-7.52-6.69-6-.85-7.49.47-6.84.86-3.25-3.75-4.87-7.66 7.36-4 5.64-.68-12-3.37-6.24-5.42.39-5.34L281 90l10.27-7.16 1.08-5.64-7.57-5.76 2.45-6.64 9.71-12.33 4.08-2-1.17-8.57 6.64-5.24 8.62-3.21 8.62-.18 3.06 6.31 7.44-11.32 6.68 7.74 3.94 1.59 5.82 6.41L344 33.26z"/><path id="GR" class="cls-1" d="M542 357l1.53 1.16 2.18-.2 2.09.24-.07.6 1.53-.41-.35 1-4 .29v-.56l-3.42-.67zm8.14-21l-.87 2.33-.67.41-1.71-.1-1.46-.35-3.4 1 1.94 2.06-1.42.59H541l-1.53-1.94-.53.8.63 2.18 1.4 1.7-1.06.79 1.56 1.65 1.39 1v2l-1.31-1.12-1.24.21.83 1.8-.92.19-1-.69 1.2 4h-.58l-.45-1.26h-.57l-.26 1.32-.45-.3.1-.74-.56-1H537l.12.84-.25.27-.62-.54-.38-1 .52-.57-.36-.74-.41-.38-.42-.09-.49-.94.58-.52.36-.48.56.1.25-.41.59-.16.68.46.55.17.39-.62-.94-.08-.55-.19-1.25.28h-1.22l-1.09-1.64-.18-.25.17-.64-1.42-1.15-.19-1 1.3-1.77.17-1.19.91-.53.06-1 1.83-.33 1.07-.81 1.52.07.46-.65.53-.12 2.07.11 2.24-1 2 1.3 2.55-.35v-1.86z"/><path id="HN" class="cls-1" d="M230.68 427.16l-.48-.89-.85-.25.2-1.15-.38-.31-.58-.2-1.23.34-.1-.39-.85-.46-.6-.57-.81-.28.58-.73-.22-.57.2-.55 1.33-.81 1.28-1.1.29.11.62-.51h.8l.26.24.43-.14 1.3.26 1.3-.08.9-.32.33-.32.89.15.67.2.73-.07.56-.25 1.28.4.45.06.86.54.81.65 1 .44.74.79-1-.06-.39.39-1 .38h-.71l-.62.37-.56-.13-.48-.44-.29.08-.36.69h-.27v.59l-1 .79-.52.34-.29.36-.83-.58-.61.77h-.58l-.66.07.06 1.41h-.41l-.35.65z"/><path id="HR" class="cls-1" d="M528.3 319.19l.68 1.55.89 1.13-1.08 1.49-1.27-.87-1.94.05-2.41-.66-1.31.09-.61.82-1-.91-.59 1.64 1.37 1.83.61 1.21 1.29 1.45 1.07.85 1.06 1.6 2.48 1.44-.31.65-2.64-1.41-1.59-1.36-2.56-1.14-2.44-2.86.57-.29-1.28-1.65-.05-1.33-1.8-.62-.86 1.71-.83-1.32.06-1.38.1-.06 2 .14.51-.67 1 .65 1.1.08v-1.14l1-.41.27-1.63 2.23-1.08.89.5 2.1 1.73 2.32.77z"/><path id="HU" class="cls-1" d="M520.93 315.37l.93-2.65-.54-.9h1.58l.21-1.7 1.43 1.07 1 .45 2.35-.51.23-.84 1.11-.12 1.36-.65.3.27 1.32-.52.66-1 .92-.26 3 1.28.6-.43L539 310l.2 1.12-1.71.87-1.33 2.8-1.7 2.76-2.25.76-1.75-.18-2.15 1.06-1 .6-2.32-.77-2.1-1.73-.89-.5-.54-1.37z"/><path id="IE" class="cls-1" d="M458.13 284.54l.46 3.36-2.12 4.1-5 2.68-4-.68 2.27-4.78-1.46-4.77 3.81-3.75 2.12-2.27.58 2.6-.58 2.57 1.74-.06z"/><path id="IL" class="cls-1" d="M575.66 367.08l-.49 1-1-.46-.59 2.2.7.37-.72.45-.12.86 1.32-.44.07 1.27-1.4 5.17-1.85-5.5.82-1.08-.19-.19.74-1.54.57-2.49.4-.84h1.02l.26-.58h.75v1.36l-.38.51z"/><path id="IQ" class="cls-1" d="M602.85 356l1.84 1 .21 2-1.41 1.17-.65 2.64 1.94 3.18 3.43 1.82 1.44 2.5-.46 2.37h.9v1.73l1.55 1.7L610 376l-1.89-.27-2.06 3.08-5.21-.25-7.84-6.48-4.18-2.29-3.38-.89-1.13-4 6.21-3.5 1.06-4.12-.27-2.52 1.53-.86 1.44-2.18 1.2-.55 3.26.45 1 .89 1.34-.59z"/><path id="IR" class="cls-1" d="M626.69 351.78l2.46-.68 2-2 1.88.1 1.23-.66 2 .33 3.1 1.79 2.24.38 3.2 3.1 2.09.13.25 2.91-1.14 4.22-.77 2.45 1.22.49-1.2 1.83.92 2.64.22 2.08 2.12.55.23 2.1-2.54 2.93 1.39 1.69 1.13 1.93 2.68 1.4.08 2.78 1.34.51.23 1.44-4 1.61-1.06 3.6-5.27-.93-3.06-.71-3.16-.4-1.2-3.82-1.4-.57-2.15.56-2.83 1.51-3.43-1-2.83-2.41-2.7-.9-1.87-3-2.09-4.3-1.51.52-1.78-1.07-1 1.26-1.55-1.7v-1.73h-.9l.46-2.37-1.44-2.5-3.43-1.82-1.94-3.18.65-2.64 1.41-1.17-.21-2-1.84-1-1.92-4.18-1.53-2.82.55-1.1-.87-4.11 1.92-1 .44 1.36 1.42 1.66 1.92.48 1-.11 3.31-2.66 1.05-.27.83 1.06-1 1.78 1.75 1.87.7-.18.89 2.61 2.66.73 1.95 1.76 4 .6 4.38-.92z"/><path id="IS" class="cls-1" d="M434.82 212.68l-.65 4.48 3.17 4.6-3.64 5-8.09 4.38-2.42 1.15-3.69-.93-7.82-2 2.76-2.84-6.1-3.2 5-1.28-.12-2-5.89-1.57 1.89-4.47 4.25-1 4.37 4.68 4.26-3.75 3.53 2 4.57-3.71z"/><path id="IT" class="cls-1" d="M519 348.14l-1 2.78.42 1.09-.59 1.8-2.15-1.31-1.43-.38-3.91-1.79.39-1.82 3.28.32 2.86-.39zm-17.69-10.82l1.68 2.62-.39 4.81-1.27-.23-1.14 1.2-1.06-1-.11-4.38-.64-2.11 1.54.18zm8.88-21.61l4 1.05-.3 2 .67 1.71-2.23-.58-2.28 1.42.15 2-.34 1.12.92 2 2.63 2 1.41 3.17 3.12 3h2.2l.68.83-.79.74 2.51 1.35 2.06 1.12 2.4 1.92.29.68-.52 1.31-1.56-1.7-2.44-.6-1.18 2.36 2 1.34-.33 1.88-1.17.21-1.5 3.06-1.17.27v-1.17l.57-1.91.61-.77-1.09-2.09-.85-1.83-1.16-.45-.83-1.58-1.8-.67-1.21-1.49-2.08-.24-2.19-1.68-2.51-2.49-1.88-2.16-.87-3.8-1.39-.45-2.28-1.29-1.29.53-1.62 1.8-1.17.28.32-1.68-1.52-.49-.72-3 1-1.21-.83-1.5.12-1.13 1.21.86 1.35-.19 1.57-1.36.49.64 1.33-.13.61-1.63 2.08.51 1.23-.68.22-1.67 1.7.58.33-.78 2.77-.71z"/><path id="JP" class="cls-1" d="M853 362.26l.36 1.15-1.58 2-1.15-1.07-1.44.78-.74 1.95-1.83-.95v-1.58l1.55-2 1.59.39 1.15-1.42zM870.78 352l-1.06 2.78.49 1.73-1.46 2.42-3.58 1.6-4.93.21-4 3.84-1.88-1.29-.12-2.52-4.88.75-3.32 1.59-3.28.06 2.84 2.46-1.87 5.61-1.81 1.37-1.36-1.27.69-3-1.77-1-1.14-2.28 2.65-1 1.47-2.11 2.82-1.75 2.06-2.33 5.58-1 3 .7 2.93-6.17 1.87 1.67 4.11-3.51 1.59-1.38 1.76-4.38-.48-4.1 1.18-2.33 3-.68 1.53 5.11-.08 2.94-2.59 3.6zm8.22-26l2 .83 2-1.65.62 4.35-4.16 1-2.46 3.86-4.41-2.58-1.59 4.12-3.12.06-.39-3.74 1.39-2.94 3-.21.82-5.38.83-3.09 3.29 4.12z"/><path id="KG" class="cls-1" d="M674.47 333.37l.63-1.66 1.84-.54 4.61 1.31.43-2.25 1.59-.79 4 1.61 1-.42 4.65.11 4.16.4 1.41 1.37 1.73.55-.39.85-4.42 2-1 1.48-3.6.44-1.06 2.35-3-.49-1.94.72-2.68 1.73.39.85-.8.83-5.3.55-3.46-1.17-3 .28.27-2.1 3.05.61 1-1.13 2.13.36 3.59-2.65-3.32-2-2 .93-2.07-1.4 2.35-2.43z"/><path id="KP" class="cls-1" d="M841.8 332.88l.39.66-1.07-.23-1.22 1.28-.84 1.27.11 2.67-1.45.82-.5.65-1.06 1.08-1.87.6-1.22 1-.09 1.57-.33.4 1.12.58 1.59 1.57-.4.86-1.19.23-2 .17-1.09 1.6-1.25-.13-.18.32-1.36-.67-.34.66-.82.29-.1-.66-.73-.32-.75-.57.77-1.57.66-.42-.25-.65.71-1.94-.18-.59-1.64-.39-1.32-1 2.28-2.35 3.09-2 1.93-2.64 1.33 1.17 2.42.14-.44-2 4.33-1.62 1.11-2.13z"/><path id="XK" class="cls-1" d="M533.72 334.17l-.13.77h-.36l-.19-1.36-.67-.39-.6-1 .52-.85.71-.34.39-1.27.5-.21.4.54.52.24.37.61.46.18.54.7h.4l-.31.92-.34.45.09.28-.63.14z"/><path id="KW" class="cls-1" d="M610 376l.58 1.42-.25.73.9 2.4-2 .08-.7-1.52-2.5-.31 2.06-3.08z"/><path id="KZ" class="cls-1" d="M674.47 333.37l-1.61.7-3.7 2.61-1.23 2.65h-1l-.77-1.75-3.57-.12-.57-3.06h-1.37l.21-3.8-3.36-2.81-4.81.3-3.29.56-2.68-3.5-2.29-1.48-4.35-2.84-.52-.35-7.22 2.35.11 14.13-1.44.18-2-2.93-1.9-1.06-3.18.79-1.24 1.25-.16-.92.69-1.57-.54-1.32-3.25-1.3-1.27-3.46-1.55-1-.09-1.28 2.73.37.11-2.88 2.38-.65 2.45.59.51-3.91-.5-2.51-2.81.2-2.38-1-3.25 1.8-2.62.85-1.42-.66.29-2.1-1.79-2.76-2.08.12-2.35-2.8 1.62-3.21-.82-.87 2.24-4.77 2.88 2.53.35-3.19 5.79-4.85 4.38-.12 6.18 3.1 3.32 1.79 3-1.87 4.45-.09 3.59 2.29.82-1.31 3.94.19.7-2.11-4.54-3.1 2.69-2.22-.52-1.25 2.69-1.2-2-3.21 1.29-1.62 10.49-1.66 1.37-1.19 7-1.79 2.52-2 5 1.06.88 5 2.93-1.17 3.6 1.63-.23 2.58 2.69-.27 7-4.49-1 1.5 3.58 3.66 6.27 11.58 1.49-2.33 3.86 2.57 4-1.14 1.55.8 1.35 2.55 2 .85 1.19 1.84 3.61-.58 1.49 2.63-2.13 2.83-2.33.39-.13 4.19-1.56 1.86-5.56-1.35-2 7.26-1.43.89-5.55 1.58 2.52 6.75-1.92 1 .22 2.17-1.73-.55-1.41-1.37-4.16-.4-4.65-.11-1 .42-4-1.61-1.59.79-.43 2.25-4.61-1.31-1.84.54z"/><path id="LB" class="cls-1" d="M575.94 365.19h-.75l-.26.58H574l1-2.73 1.39-2.38.05-.12 1.26.17.46 1.33-1.53 1.27z"/><path id="LT" class="cls-1" d="M539.24 282.35l-.22-1.23.3-1.33-1.24-.77-2.94-.86-.6-4.16 3.21-1.54 4.7.32 2.75-.5.39 1 1.49.32 2.7 2.42.26 2.21-2.3 1.56-.65 2.72-3 1.8h-2.71l-.67-1.47z"/><path id="LU" class="cls-1" d="M492.45 301.54l.56 1-.16 1.9-.81.09-.63-.37.3-2.43z"/><path id="LV" class="cls-1" d="M534.54 274l.1-3.81L536 267l2.64-1.78 2.23 3.88 2.25-.1.54-4 2.39-.93 1.23.65 2.41 1.94H552l1.35 1.19.24 2.49.9 3-3 1.93-1.71.83-2.7-2.42-1.49-.32-.39-1-2.75.5-4.7-.32z"/><path id="MD" class="cls-1" d="M550.14 309.7l.67-.62 1.86-.42 2.07 1.31 1.15.16 1.27 1.12-.2 1.41 1 .68.4 1.72 1 1-.2.61.52.41-.74.3-1.65-.12-.28-.56-.59.32.2.72-.77 1.29-.49 1.38-.71.43-.5-1.83.29-1.72-.09-1.78-1.62-2.44-.89-1.75-.87-1.24z"/><path id="ME" class="cls-1" d="M531 332.48l-.18-.71-1.22 1.87.19 1.2-.59-.29-.79-1.23-1.21-.75.31-.64.41-2.1.91-.89.52-.35.74.66.41.53.92.41 1.07.79-.23.33-.52.85z"/><path id="MK" class="cls-1" d="M533.23 334.91h.36l.13-.77 1.66-.58.63-.14 1-.22 1.3-.06 1.4 1.21.2 2.47-.53.12-.46.65-1.52-.07-1.07.81-1.83.33-1.16-.9-.4-1.59z"/><path id="MN" class="cls-1" d="M721.54 305.13l3-.74 5.35-3.74 4.26-2.07 2.44 1.35 2.92.07 1.87 2 2.8.16 4.05 1.09 2.73-3-1.14-2.6 2.9-4.66 3.14 1.87 2.55.53 3.3 1.15.53 3.32 4 1.84 2.65-.81 3.55-.57 2.81.58 2.75 2.09 1.7 2.2h2.6l3.53.7 2.58-1.06 3.69-.71 4.11-3.06 1.68.47 1.47 1.46 3.35-.36-1.36 3.25-2 4.23.72 1.71 1.59-.53 2.77.65 2.15-1.54 2.25 1.33 2.54 2.89L811 316l-2.21-.46-4.07.54-2 1.16-2.05 2.66-4.28 1.55-2.79 2.1-2.88-.8-1.58-.36-1.47 2.54.9 1.5.45 1.28-2 1.3-2 2.05-3.28 1.34-4.2.14-4.53 1.31-3.26 2-1.24-1.16h-3.39l-4.12-2.27-2.77-.57-3.73.53-5.79-.85-3.09.09-1.62-2.26-1.28-3.57-1.73-.43-3.39-2.45-3.78-.55-3.33-.68-1-1.73 1.08-4.73-1.93-3.32-4-1.57-2.36-2.23z"/><path id="NL" class="cls-1" d="M492.53 286.23l2.33.13.52 1.58-.7 4.22-.71 1.71h-1.68l.47 4.69-1.54-1-1.77-2-2.6.93-2.05-.35 1.45-1.23 2.45-6.74z"/><path id="NO" class="cls-1" d="M554.47 175.86l8.77 6.24-3.61 2.23 3.07 5.12-4.77 3.19-2.27.72 1.19-5.59-3.6-3.25-4.35 2.77-1.37 5.85-2.67 3.44-3-1.87-3.66.38-3.12-4.15-1.69 2.06-1.74.32-.41 5.08-5.24-1.19-.74 4.22h-2.69l-1.85 5.24-2.8 7.87-4.35 9.5 1 2.23-1 2.55-2.78-.11-1.79 5.88.17 8 1.79 3-.93 6.73-2.33 3.81-1.24 3.14-1.88-3.35-5.58 6.29-3.74 1.24-3.88-2.71-1-5.86-.89-13.26 2.58-3.87 7.4-5.18L505 226l5.13-9.3 6.74-13.76 4.7-5.67 7.71-9.89 6.15-3.59 4.61.44 4.27-7 5.11.38z"/><path id="PH" class="cls-1" d="M829.84 440.12l.28 1.87.16 1.58-1 2.57-1-2.86-1.28 1.41.9 2.07-.8 1.31-3.3-1.62-.79-2 .85-1.33-1.78-1.33-.88 1.17-1.32-.11-2.08 1.57-.46-.82 1.1-2.37 1.77-.79 1.53-1.06 1 1.27 2.13-.77.46-1.26 2-.08-.17-2.18 2.27 1.34.23 1.42zm-6.71-5.26l-1 .93-.88 1.79-.88.83-1.73-2 .58-.76.7-.79.31-1.76 1.55-.17-.45 1.91 2.08-2.74zm-15.36 2.72l-3.77 2.67 1.38-2 2-1.74 1.68-2 1.47-2.82.5 2.31-1.85 1.56zm9.47-7.3l1.68.88h1.78l-.05 1.19-1.3 1.2-1.78.85-.1-1.32.2-1.45zm10.15-.77l.79 3.17-2.16-.75.06 1 .69 1.75-1.33.63-.12-2-.84-.15-.48-1.76 1.65.23v-1.08l-1.71-2.18 2.69.06zm-11.15-2.59l-.74 2.47-1.2-1.39-1.43-2.18 2.4.11zm-.58-15.74l1.73.84.86-.76.26.75-.46 1.21 1 2.09-.74 2.42-1.65 1-.44 2.33.63 2.29 1.49.32 1.24-.34 3.5 1.59-.27 1.56.91.69-.29 1.32-2.18-1.4-1-1.5-.72 1.05-1.78-1.71-2.55.42-1.4-.63.14-1.19.88-.73-.84-.67-.36 1-1.38-1.65-.42-1.26-.1-2.77 1.13 1 .29-4.55.91-2.66z"/><path id="PL" class="cls-1" d="M517.61 297.23l-1.15-2.86.22-1.56-.69-2.45-1-1.65.78-1.24-.66-2.39 1.92-1.4 4.38-2.22 3.53-1.64 2.8.82.21 1.18 2.7.06 3.45.55 5.16-.07 1.44.51.67 1.47.12 2.09.78 1.78v1.85l-1.68.94.86 2.12.05 2 1.41 3.89-.3 1.24-1.39.51-2.55 3.61.72 1.92-.61-.25-2.66-1.65-2 .61-1.32-.44-1.66.92-1.47-1.48-1.15.58-.16-.26-1.29-2.13-2.08-.26-.27-1.37-1.92-.56-.42 1.13-1.52-.9.14-1.23-2.1-.38z"/><path id="PK" class="cls-1" d="M681.63 365.82l-.56-4.44 2-2.31-4.5-2.69 1.69-2.44 2.52-.84-2.81.35-3 .73-1.64 1.51.66 1.46.32 1.7-1.4 1.43.12 1.3-.77 1.21-2.67-.11 1.1 2.22-1.78.84-1.19 2 .15 2-1.1.92-1-.31-2.14.43-.31.91h-2.09l-1.56 1.84-.1 2.75-3.64 1.33-2-.28-.57.7-1.68-.41-2.8.48-4.7-1.64 1.39 1.69 1.13 1.93 2.68 1.4.08 2.78 1.34.51.23 1.44-4 1.61-1.06 3.6 3.95-.43 4.56-.06 5.17-.58 2.17 2.34.84 2.2 2.05.77 1.87-2h6.17l-.56-2.64-1.58-1.57-.32-2.39-1.83-1.4 3.09-3.29 3.26.24 2.93-3.33 1.76-3.25 2.72-3.25v-2.33l2.39-1.9-2.26-1.63h-.05z"/><path id="PS" class="cls-1" d="M575.17 368.12v2l-.41 1-1.32.44.12-.86.72-.45-.7-.37.59-2.2z"/><path id="PT" class="cls-1" d="M450.17 334.82l1-1 1.15-.55.7 1.84h1.66l.48-.47 1.63.13.78 1.87-1.3 1v2.88l-.45.54-.11 1.72-1.21.3 1.12 2.17-.77 2.35 1 1.06-.39 1-1 1.32.23 1.16-1.13.91-1.48-.49-1.45.39.43-2.74-.26-2.18-1.26-.33-.67-1.35.13-2.35 1.12-1.32.2-1.47.58-2.21-.06-1.57-.56-1.34z"/><path id="QA" class="cls-1" d="M618 392.42l-.19-2.24.76-1.62.77-.33.85 1v1.81l-.61 1.81-.78.22z"/><path id="RO" class="cls-1" d="M539.18 311.12l1.21-.89 1.73.46h1.8l1.3 1 1-.64 2.07-.4.71-1h1.18l.85.41.87 1.24.89 1.75 1.62 2.44.09 1.78-.29 1.72.5 1.83 1.25.73 1.32-.64 1.27.68.07 1-1.36.85-.85-.37-.78 4.71-1.65-.41-2-1.41-3.3.9-1.39 1-4.12-.2-2.16-.6-1.09.28-.81-1.6-.51-.68.65-.66-.69-.49-.88.88-1.68-1.07-.22-1.63-1.71-.93-.31-1.27-1.52-1.58 2.25-.76 1.7-2.76 1.33-2.8z"/><path id="RS" class="cls-1" d="M534 321.16l1.71.93.22 1.63 1.63 1.14.88-.88.69.49-.65.66.51.68-.69.88.25 1.41 1.36 1.66-1.07 1.2-.47 1.21.3.45-.46.53-1.3.06-1 .22-.09-.28.34-.45.31-.92h-.4l-.54-.7-.46-.18-.37-.61-.52-.24-.4-.54-.5.21L533 331l-.67.27.23-.33-1.07-.79-.92-.41-.41-.53-.74-.66.66-.17.41-1.82-1.35-1.5.7-1.73h-1l1.08-1.49-.89-1.13-.68-1.55 2.15-1.06 1.75.18 1.52 1.58z"/><path id="RU" class="cls-1" d="M1008.52 216l-2.78 3-4.6.7-.07 6.46-1.12 1.35-2.62-.19-2.14-2.32-3.73-1.92-.63-2.89-2.85-1.1-3.19.88-1.52-2.37.61-2.55-3.36 1.63 1.27 3.19-1.59 2.83-3.6 2.88-3.63-.48 2.53 3.44 1.67 5.2 1.29 1.67.33 2.53-.72 1.6-5.23-1.32-7.84 4.6-2.49.69-4.29 4.1-4.07 3.51-1 2.55-4-3.9-7.31 4.42-1.28-2.08-2.7 2.39-3.75-.76-.9 3.63-3.36 5.22.1 2.14 3.19 1.17-.38 7.46-2.6.19-1.2 4.15 1.17 2.1-4.9 2.47-1 5.4-4.23 1.13-.84 4.66-4 4.18-1-3.08-1.2-6.69-1.56-10.65 1.35-7 2.25-3.02.15-2.44 4.36-1.18 5-6.78 4.83-5.73 5-4.57 2.25-8.37-3.41.51-1.68 4.92-7.11 6.36-2.3-7.14-7.24 2-7 9.56 2.32 3.38-6.17 1.43-4.34.56.2-3.95-4.36-.84-3.47 2.7-8.57-.94-9.22 1.62-9.08 10.33-10.74 11.78 4.42.61 1.38 3 2.72 1.05 1.79-2.38 3.08.31 4 5.19.09 3.92-2.19 4.51-.24 5.27-1.27 6.85-4.23 6-.94 2.82-3.81 4.66-3.78 4.53-1.78 2.25-3.74 2.24h-1.77l-1.76-1.86-3.76 2.79-.44 1.26-.39-.66v-1.93l1.43-.1.4-4.55-.74-3.36 2.41-1.4 3.4.7 1.89-3.89 1-4.46 1.09-1.51 1.47-3.76-4.63 1.24-2.52 1.75h-4.26l-1.14-3.95-3.32-3-4.88-1.38-1-4.28-1-2.73-1.05-1.94-1.73-4.61-2.46-1.71-4.2-1.39-3.72.13-3.48.85-2.32 2.31 1.54 1.1v2.52l-1.56 1.45-2.53 4.73v1.93l-4 2.74-3.36-1.63-3.35.36-1.47-1.46-1.68-.47-4.03 3-3.69.71-2.58 1.06-3.53-.7h-2.6l-1.7-2.2-2.75-2.09-2.81-.58-3.55.57-2.65.81-4-1.84-.53-3.32-3.3-1.15-2.54-.53-3.08-1.81-2.9 4.66 1.14 2.6-2.73 3-4.05-1.09-2.8-.16-1.87-2-2.92-.07-2.44-1.35-4.27 2.07-5.35 3.74-3 .74-1.1.35-1.4-2.64-3.61.58-1.19-1.84-2-.85-1.35-2.55-1.55-.8-4 1.14-3.9-2.53-1.49 2.33-6.27-11.58-3.58-3.66 1-1.5-7 4.49-2.69.27.23-2.58-3.6-1.63-2.93 1.17-.88-5-5-1.06-2.52 2-7 1.79-1.37 1.19-10.49 1.66-1.28 1.62 2 3.21-2.69 1.2.53 1.25-2.69 2.22 4.54 3.1-.7 2.11-3.94-.19-.81 1.31-3.59-2.29-4.45.09-3 1.87-3.32-1.79-6.18-3.1-4.38.12-5.79 4.85-.35 3.19-2.88-2.53-2.24 4.77.82.87-1.62 3.23 2.38 2.84 2.08-.12 1.79 2.76-.28 2.1 1.42.66-1.28 2.39-2.72.66-2.79 4.09 2.55 3.7-.28 2.59 3.06 4.46-1.67 1.51-.48.95-1.24-.25-1.93-2.34-.79-.13-1.76-.87-.86-1.55-2.61-.79-1.7.6-.49-.71-3.82-1.83-4.13-.62-2.37-.66-.34.45-3.53-3.25-3.2-1.48-2.42-2.32 2-.64 2.33-3.35-1.57-1.61 4.13-1.67-.07-.9-2.52.66.09-1.83 1.45-1.16 2.71-.31.44-1.39-.62-2.33 1.14-2.23v-1.26l-4.13-1.41h-1.64l-1.73-2-2.15.69-3.56-1.54.06-.87-1-1.93-2.24-.22-.23-1.39.7-.91-1.79-2.58-2.91.44-.85-.23-.71 1-1-.18-.69-2.94-.66-1.54.54-.43 2.26.16 1.09-1-.81-1.25-1.89-.83.17-.86-1.14-.87-1.84-3.13.6-1.31-.27-2.31-2.74-1.18-1.47.59-.4-1.24-3-1.26-.9-3-.24-2.49-1.32-1.17 1.2-1.66-.83-5 2-3.13-.42-1 3.19-3.07-2.94-2.68 6-7.4 2.6-3.45 1.05-3.1-4.15-4.26 1.15-4.15-2.52-4.85 1.89-5.76-3.26-8 2.59-5.48-4.29-5 .41-5.4 2.27-.72 4.77-3.19 2.89-2.81 4.61 4.86 7.68 1.88 10.59 8.74 2.15 3.51.18 4.8-3.11 3.69-4.58 1.85-12.52-5.31-2.06.9 4.57 5.1.18 3.15.18 6.75 3.61 2 2.19 1.66.36-3.11-1.69-2.8 1.78-2.51 6.78 4.1 2.36-1.59-1.86-4.9 6.53-6.74 2.59.4 2.62 2.43 1.63-4.81-2.37-4.29 1.37-4.41-2.06-4.69 7.84 2.44 1.6 4.18-3.55.91v4l2.21 2.44 4.33-1.54.69-4.61 5.86-3.52 9.78-6.54 2.11.38-2.71 4.68 3.48.79 2-2.58 5.26-.21 4.16-3.19 3.2 4.62 3.19-5.09-2.94-4.58 1.46-2.66 8.28 2.44 3.88 2.49 10.16 8.8 1.88-4-2.85-4.11-.08-1.68-3.38-.78.92-3.83-1.5-6.49-.09-2.74 5.17-8 1.84-8.42 2.09-1.88 7.42 2.51.59 5.18-2.61 7.32 1.74 2.78.9 5.94-.64 11.07 3.09 4.73-1.2 5-5.49 10.2 3.21 1 1.11-2.51 3.09-1.82.74-3.55 2.43-3.49-1.68-4.26 1.31-5.08-3.07-.64-.67-4.42 2.24-8.28-3.64-7 5-6-.65-6.62 1.4-.22 1.47 5.19-1.1 8.67 3 1.59-1.28-6.37 4.69-3.58 5.82-.49 5.18 5.18-2.49-7.62-.27-10.31 4.88-2 6.74.44 6.08-1.32-2.28-5.38 3.24-7 3.22-.3 5.45-5.51 7.4-1.51.94-3.15 7.36-1.08 2.29 2.61 6.29-6.24 5.15.2.77-5.24 2.68-5.33 6.62-5.31 4.83 4.12-3.82 3.13 6.35 1.92.76 6 2.56-2.94 8.2.16 6.32 5.84 2.25 4.35-.7 5.85-3.1 3.24-7.37 5.92-2.11 3.08 3.48 1.43 4.15 2.55 2.52-1.91 1.43 6.39 1.23-2.56 4.48-1.57 9 1.65.68 4.58 11.72 1.43.16-7.47 6 1.74 4.48-.05 4.53 5.14 1.29 6-1.66 3.84 3.52 7 4.41 3.49 2.71-9.18 4.5 4 4.78-2.38 5.43 2.72 2.07-2.48 4.59 1.24-2-8.4 3.7-4.07 25.32 6.06 2.39 5.35 7.34 6.65 11.32-1.62 5.58 1.41 2.33 3.5-.34 6 3.45 2.29 3.75-1.64 5-.21 5.29 1.57 5.31-.89 4.88 7 3.47-2.48-2.27-5.07 1.25-3.62 8.95 2.29 5.83-.49 8.06 3.84 3.92 3.44 6.87 5.86 7.35 7.34-.24 4.44 1.89 1.74-.65-5.15 7.61 1.07zm-127.43 90.5l-2.82-7.68-1.16-4.51.07-4.5-1-4.5-.73-3.15-1.25.67 1.11 2.2-2.59 2.17-.25 6.3 1.64 4.41-.12 5.85-.65 3.24.32 4.54-.31 4 .52 3.4 1.84-3.13 2.13 2.45.08-2.84-2.73-4.23 1.72-6.11zM538.07 279l-2.94-.86-3.87 1.58-.64 2.13 3.45.55 5.16-.07-.22-1.23.3-1.33zM980.2 178.9l3.66-.52 2.89-2.07.24-1.19-4.06-2.51h-2.38l-.36.37-3.57 3.65.5 2.73zm-109.88-27.09l-2.66 3.91.49.52 5.75 1.08 4.25-.07-.34-2.57-4-3.81zm24.57-9.53l3.24-4.25-7-2.87-5.23-1.68-.67 3.59 5.21 4.27zm-25.13-1.69l10.34.3 2.21-8.15-10.14-6.07-7.4-.51-3.7 2.18-1.51 7.75 5.55 7zm-247.11 25.95l-2.87 2 .41 4.83 5.08 2.35.74 3.82 9.16 1.1 1.66-.74-5.36-7.11-.57-7.52 4.4-9.14 4.18-9.82 8.71-10.17 8.56-5.34 9.93-5.74 1.88-3.71-1.95-4.83-5.46 1.6-4.8 4.49-9.35 2.2-9.26 7.41-6.27 5.85.76 4.87-6.71 9 2.58 1.22-5.56 8.27zm147.47-67.95l.83-5.72-7.11-8.34-2.11-1-2.3 1.7-5.12 18.6zM605.89 69.28l3 3.88 3.28-2.69.39-2.72 2.52-1.27 3.76-2.24 1.16-2.63-4.16-3.85-2.64 2.9-1.61 4.13-.59-4.65-4.26.21-5.47 3.15 6.24.52zm131.25 13l4.65 5.73 7.81 4.2 6.12-1.8.69-13.62-6.46-16-5.45-9-6.07 4.11-7.28 11.83L735 71z"/><path id="SE" class="cls-1" d="M537.7 217.74l-2.7 4.69.44 4-4.44 5.16-5.42 5.34-2 8.41 2 4.07 2.68 3.14-2.58 6.23-2.99 1.22-1.07 8.84-1.62 4.79-3.4-.48-1.6 3.95-3.25.23-.89-4.71-2.35-5.81-2.13-7.5 1.24-3.14 2.33-3.81.93-6.73-1.79-3-.17-8 1.82-5.91 2.78.11 1-2.55-1-2.23 4.35-9.5 2.8-7.87 1.85-5.24h2.69l.74-4.22 5.28 1.22.41-5.08 1.74-.32 3.74 3.8 4.38 5.16.07 11.12.95 2.7z"/><path id="SI" class="cls-1" d="M514.21 316.76l2.32.31 1.41-.92 2.45-.1.54-.69h.47l.54 1.38-2.23 1.08-.27 1.63-1 .41V321l-1.1-.08-1-.65-.51.67-2-.14.62-.36-.67-1.71z"/><path id="SJ" class="cls-1" d="M544.83 104.74l-6.26 5.36-4.95-3 1.93-3.42-1.69-4.34 5.81-2.78 1.11 5.18zm-18.15-26.67l9.23 11.29-7.06 5.64-1.56 10.09-2.46 2.49-1.34 10.5-3.38.48-6-7.64 2.54-4.62-4.2-3.86L507 90.63l-2.18-11.79 7.64-5.69 1.54 5.56 4-.22 1-5.43 4.12-.56zm20.18-11.46l5.49 5.8-4.16 8.52-8.13 1.81-8.27-2.56-.5-4.32-4-.28-3.07-7.48 8.66-4.72 4.07 4.07 2.84-5.09z"/><path id="SK" class="cls-1" d="M528.36 304.28l.16.26 1.15-.58 1.41 1.52 1.66-.92 1.32.44 2-.61 2.66 1.65-.78 1.11-.55 1.7-.6.43-3-1.28-.92.26-.66 1-1.32.52-.3-.27-1.36.65-1.11.12-.23.84-2.35.51-1-.45-1.43-1.07-.28-1.46.23-.54.4-.93 1.24.07 1-.44.08-.4.54-.2.18-1 .64-.19.43-.77z"/><path id="SV" class="cls-1" d="M229.34 426l-.31.67h-1.62l-1-.27-1.16-.57-1.56-.18-.79-.62.09-.42 1-.73.53-.32-.15-.34.63-.22.83.24.6.57.85.46.1.39 1.23-.34.58.2.38.31z"/><path id="SY" class="cls-1" d="M584.27 364.85l-5.49 3.54-3.12-1.31h-.05l.38-.51v-1.36l.69-1.83 1.53-1.27-.46-1.33-1.26-.17-.26-2.61.69-1.41.75-.76.75-.76.15-1.94.92.68 3.09-1 1.49.66h2.31l3.23-1.31 1.51.06 3.19-.55-1.44 2.18-1.53.86.27 2.52-1.06 4.12z"/><path id="TF" class="cls-1" d="M668.1 622.05l1.81 1.34 2.65.53.1.81-.79 2-4.3.28-.07-2.29.41-1.76z"/><path id="TJ" class="cls-1" d="M674.62 340.88l-1 1.13-3.05-.61-.27 2.1 3-.28 3.46 1.17 5.3-.55.71 3.32.92-.36 1.7.81-.1 1.38.42 2h-2.89l-1.93-.26-1.75 1.57-1.24.35-1 .73-1.11-1.14.26-3-.85-.17.3-1.08-1.52-.81-1.21 1.24-.3 1.43-.43.52-1.68-.07-.9 1.61-.95-.68-2 1.13-.86-.43 1.58-3.57-.61-2.66-2.06-.86.73-1.59 2.34.17 1.33-2 .89-2.35 3.75-.86-.58 1.71.4 1z"/><path id="TL" class="cls-1" d="M825.9 488.51l.33-.67 2.41-.63 2-.1.88-.35 1.06.35-1 .76-2.92 1.23-2.35.81-.05-.86z"/><path id="TM" class="cls-1" d="M647.13 357.16l-.25-2.91-2.09-.12-3.2-3.1-2.24-.38-3.1-1.79-2-.33-1.23.66-1.87-.1-2 2-2.46.68-.52-2.49.41-3.73-2.19-1.22.72-2.48-1.86-.21.62-3.09 2.64.9 2.46-1.18-2-2.23-.8-2.15-2.26 1-.29 2.73-.88-2.42 1.24-1.25 3.18-.79 1.9 1.06 2 2.93 1.44-.18 3.16-.05-.46-1.88 2.4-1.3 2.36-2.2 3.78 2 .3 3 1.07.76 3-.17.94.67 1.38 3.79 3.21 2.51 1.83 1.7 2.93 1.75 3.73 1.52-.08 2.16-.85-.11-1.32-.94-.44 1.25-2.36.68-.56 2.79-1.58 1.05-2.21.52-.63 1.53-2.12.46z"/><path id="TR" class="cls-1" d="M579 336.85l4 1.43 3.27-.57 2.41.33 3.31-1.94 3-.18 2.7 1.83.48 1.3-.27 1.79 2.09.91 1.1 1.06-1.92 1 .88 4.11-.55 1.1 1.53 2.82-1.34.59-1-.89-3.26-.45-1.2.55-3.19.54-1.51-.06-3.23 1.31H584l-1.49-.66-3.09 1-.92-.68-.15 1.94-.75.76-.75.76-1-1.57 1.06-1.3-1.71.3-2.34-.8-1.93 2-4.26.39-2.27-1.86-3-.12-.65 1.44-1.94.41-2.71-1.85-3.06.06-1.66-3.48-2-2 1.36-2.78-1.78-1.72 3.11-3.48 4.32-.15 1.18-2.81 5.34.49 3.37-2.42 3.27-1.06 4.64-.08zm-27.26 2.39l-2.34 2-.88-1.71v-.76l.67-.41.87-2.33-1.37-1 2.86-1.18 2.41.51.33 1.44 2.45 1.2-.51.91-3.33.2z"/><path id="TW" class="cls-1" d="M817 393.52l-1.69 4.88-1.2 2.47-1.48-2.55-.32-2.25 1.65-3 2.24-2.33 1.28.92z"/><path id="UA" class="cls-1" d="M564.63 292.75l1 .18.71-1 .85.23 2.91-.44 1.79 2.57-.7.91.23 1.39 2.24.22 1 1.93-.06.87 3.56 1.54 2.15-.69 1.73 2h1.64l4.13 1.41v1.26l-1.14 2.23.62 2.33-.44 1.39-2.71.31-1.45 1.16-.09 1.83-2.24.33-1.79 1.29-2.62.21-2.42 1.51-1.32 1 1.49 1.47 1.37 1 2.86-.24-.55 1.42-3.07.68-3.81 2.27-1.56-.8.62-1.85-3.06-1.16.49-.76 3.16-1.64-.39-.82-.45.41-.45-.21-4.36-1-.19-1.51-2.6.5-1 2.23-2.17 3-1.27-.68-1.32.64-1.25-.73.71-.43.49-1.37.77-1.29-.2-.72.59-.32.28.56 1.65.12.74-.3-.52-.41.2-.61-1-1-.4-1.72-1-.68.2-1.41-1.27-1.12-1.15-.16-2.07-1.31-1.86.42-.67.62H549l-.71 1-2.07.4-1 .64-1.3-1h-1.8l-1.73-.46-1.21.89L539 310l-1.56-1.14.55-1.7.78-1.11.61.25-.72-1.92 2.55-3.61 1.39-.51.3-1.24-1.41-3.89 1.34-.17 1.54-1.23 2.17-.1 2.83.36 3.13 1.08 2.21.09 1.05.65 1.05-.78.73 1 2.53-.21 1.11.43.18-2.26.86-1z"/><path id="US" class="cls-1" d="M109.5 280.05l-1.5-1.83-2.47-1.57-.79-4.36-3.61-4.13-1.51-4.94-2.69-.34-4.46-.13-3.29-1.54-5.8-5.64-2.68-1.05-4.9-2-3.88.48-5.51-2.59L63 248l-3.1 1.2.58 3.93-1.55.36-3.24 1.16-2.47 1.86-3.11 1.16-.4-3.24L51 248.9l3-1.77-.77-1.46-3.57 3.22-1.91 3.77-4 3.95 2.05 2.65-2.65 3.85-3 2.21-2.81 1.59-.69 2.29-4.38 2.63-.89 2.36-3.38 2.12-1.92-.38-2.62 1.38-2.85 1.69-2.33 1.63-4.81 1.37-.44-.81 3.07-2.27 2.74-1.51 3-2.71 3.48-.57 1.38-2.06 3.88-3.07.63-1 2.07-1.83.48-4 1.42-3.17-3.23 1.64-.9-.93-1.52 2-1.83-2.73-.76 1.94-1-2.7-2.8 2.17h-1.77l-.24-3.23.51-2-1.81-2-3.65 1.07-2.37-2.63-1.92-1.36v-3.25l-2.16-2.48 1.09-3.4 2.29-3.37 1-3.15 2.27-.45 1.92 1 2.26-3 2 .54 2.14-2-.52-2.92-1.57-1.16 2.1-2.6-1.72.07-3 1.43-.85 1.43-2.21-1.43-4 .73-4.11-1.56L7.7 222l-3.55-3.91 3.94-2.87 6.25-3.41h2.31l-.38 3.48 5.92-.27-2.28-4.34-3.45-2.68-2-3.64-2.69-3.17-3.85-2.39 1.57-4 5-.25 3.51-3.62.67-3.92 2.86-3.91 2.73-1 5.32-3.76 2.58.57 4.31-4.61 4.24 1.83 2 3.87 1.29-1.59 4.74.51-.17 2 4.29 1.43 2.86-.84 5.91 2.63 5.39.78 2.16 1.07 3.73-1.34 4.25 2.46 3 1.13v63.08l2.76.17 2.74 1.51 2 2.44 2.49 3.6 2.68-3.04 2.82-1.79 1.49 2.79 1.86 2.27 2.57 2.42 1.75 3.79 2.87 5.88 4.77 3.2.08 3.12zm175.93 34.43l-1.24-1.19-1.88.7-.93-1.08-2.14 3.1-.86 3.15-1 1.82-1.19.62-.9.2-.28 1h-9.43l-1.27.73-2.87 2.73.29.54.17 1.51-2.1 1.27-2.3-.32-2.2-.14-1.33.44.25 1.15.05.37-2.42 2.27-2.12 1.09-1.44.51-1.66 1-2 .5-1.4-.19-1.73-.77 1-1.45.62-1.32 1.32-2.09-.14-1.57-.51-2.24-1-.39-1.74 1.7h-.56l-.14-1 1.54-1.56.26-1.79-.23-1.79-2.07-1.55-2.38-.8-.39 1.52-.62.4-.5 2-.26-1.33-1.12.95-.7 1.32-.73 1.92-.14 1.64.93 2.38-.08 2.51-1.14 1.84-.57.52-.76.41h-1l-.26-.25-.76-2v-1l.07-.94-.44-1.83.53-2.18.63-2.71 1.46-3h-.42l-2.06 2.54-.38-.46 1.1-1.42 1.67-2.57 1.91-.36 2.19-.8 2.21.42h.09l2.47-.36-1.4-1.61-.75-.12-.85-.16-.59-1.14-2.76.36-2.49.9-2-1.55-1.59-.52.9-2.17-2.48 1.36-2.25 1.33-2.16 1-1.72-1.4-2.81.85v-.6l1.9-1.73 2-1.65 2.86-1.37-3.45-1.09-2.27.55-2.72-1.3-2.86-.67-2-.26-.87-.72-.5-2.35h-.95v1.64h-77.51l1 3.47.45 3.41-.69 1.09-1.49-3.91-4.11-1.44-.34.82.82 1.94.89 3.52.51 5.42-.34 3.59-.34 3.54-1.1 3.61.89 2.9.1 3.2-.61 3.05 1.49 2 .39 2.95 2.17 3 1.24 1.17-.1.82 2.34 4.85 2.72 3.45.34 1.87.71.55 2.6.33 1 .91 1.57.17.31 1 1.31.4 1.82 1.92.47 1.7 3.19-.26 3.56-.36-.26.65 4.23 1.6 6.4 2.31H172v-1.35h4.86l1 1.16 1.43 1 1.67 1.43.93 1.69.7 1.77 1.45 1 2.33 1 1.77-2.53 2.29-.06 2 1.28 1.41 2.18 1 1.86 1.65 1.8.62 2.2.79 1.47 2.19 1 2 .68 1.09-.09-.53-1.05-.14-1.49v-2.16l.65-1.42 1.53-1.51 2.79-1.37 2.55-2.37 2.36-.75 1.74-.23 2 .74 2.45-.4 2.09 1.69 2 .1 1.05-.61 1 .47.53-.42-.6-.63v-1.3l-.51-.86 1.16-.5 2.14-.22 2.49.36 3.17-.41 1.76.8 1.36 1.5.5.16 2.83-1.46 1.09.49 2.19 2.68.79 1.75-.58 2.1.42 1.23 1.3 2.4 1.49 2.67 1.07.71.44 1.35 1.38.37.84-.39.7-1.89.12-1.21.09-2.1-1.33-3.65v-1.37l-1.25-2.25-.94-2.74-.5-2.25.43-2.32 1.32-1.95 1.58-1.57 3.08-2.16.4-1.12 1.42-1.23 1.4-.21 1.84-2 2.9-1 1.78-2.53-.39-3.45-.29-1.2-.8-.24-.12-3.35-1.93-1.14 1.85.56-.6-2.26.54-1.55.33 3 1.43 1.36-.87 2.4.26.14 1.58-2.82.9-1.38v-1.35l-.7-.64-.58-1.94.92.9.62.19.21.92 2-2.78.61-2.62-.83-.17.85-1-.08.45h1.79l3.92-1.11-.83-.7-4.12.7 2.34-1.07 1.63-.18 1.22-.19 2.07-.65 1.35.07 1.89-.61.22-1.07-.84-.83.29 1.37-1.16-.09-.92-2v-2l.48-.86 1.64-2.39 3-1.15 2.88-1.34 3-1.9-.48-1.3-1.88-2.31zM45.87 264l-1.5.8-2.55 1.86.43 2.42 1.43 1.32 2.8-2 2.44-2.4-1.19-1.63zM.25 235.48l2-1.26.23-.68-2.27-.68zm8.5 15.36l-2.77 1 1.7 1.52 1.84 1 1.72-.87-.24-2.14zm97.34 32.5l-2.69.38-1.32-.62-.17 1.52.52 2.07 1.42 1.46 1 2.13 1.69 2.1h1.12l-2.44-3.7zM37.38 404l-1-.28-.27.26v.19l.32.24.48.63.94-.21.23-.36zm-3-.54l1.5.09.09-.32-1.38-.13zm5.89 3.29l-.5-.26-1.07-.49-.21-.05-.16.28.19.58-.49.48-.14.33.46 1.08-.08.83.7.42.41-.49.9-.46 1.1-.63.07-.16-.71-1zm-7.85-5.14l-.75.41.11.12.36.68 1 .11h.2l.15-.17-.81-1zM28 400.07l-.43.3-.15.22.94.55.33-.3-.06-.7z"/><path id="UZ" class="cls-1" d="M662 351.21l.08-2.16-3.73-1.52-2.93-1.75-1.83-1.7-3.21-2.51-1.38-3.79-.94-.67-3 .17-1.07-.76-.3-3-3.78-2-2.36 2.2-2.4 1.3.46 1.88-3.16.05-.11-14.13 7.22-2.35.52.35 4.35 2.84 2.29 1.48 2.68 3.5 3.29-.56 4.81-.3 3.36 2.81-.21 3.8h1.37l.57 3.06 3.57.12.77 1.75h1l1.23-2.65 3.7-2.61 1.61-.7.83.37-2.3 2.44 2.07 1.4 2-.93 3.32 2-3.59 2.65-2.13-.36-1.16.1-.4-1 .58-1.71-3.75.86-.89 2.35-1.33 2-2.34-.17-.73 1.59 2.06.86.61 2.66-1.63 3.53-2.11-.74z"/><path id="KR" class="cls-1" d="M835.38 346.78l2.42 4.22.69 2.27v4l-1.06 1.88-2.54.65-2.24 1.41-2.53.29-.31-1.85.52-2.57-1.24-3.6 2.08-.59-1.92-3 .18-.32 1.25.13 1.09-1.6 2-.17 1.19-.23z"/><a id="on-mobile-map-south-east-asia"><title>South East Asia</title><path id="ID" class="cls-1" d="M814 492.31l-1.18.05-3.72-2 2.61-.55 1.47.86 1 .86zm10.4-.31l-2.4.62-.34-.34.25-1 1.21-1.72 2.77-1.12.28.56.05.86zm-18.33-5.77l1 .75 1.73-.23.7 1.2-3.24.57-1.94.38h-1.51l1-1.62h1.54zm14 0l-.41 1.56-4.21.8-3.73-.35v-1l2.23-.58 1.76.84 1.87-.21zm-40-3.7l5.37.28.62-1.16 5.2 1.35 1 1.82 4.21.51 3.44 1.67-3.2 1.07-3.07-1.07-2.54.08-2.91-.21-2.62-.51-3.25-1.07-2.06-.28-1.17.35-5.09-1.18-.5-1.18-2.57-.21 1.92-2.68 3.4.17 2.26 1.1 1.16.21zm73.18-1.53l-1.44 1.91-.27-2.11.5-1 .59-.95.64.82zm-21-7.7l-1 .93-1.94-.51-.55-1.2 2.84-.13zm9-1l1 2.13-2.25-1.19-2.34-.23-1.58.18-1.94-.1.66-1.53 3.46-.12zm10.3-5.41l.78 4.51 2.9 1.67 2.34-3 3.22-1.68h2.49l2.4 1 2.08 1 3 .53V489.18l-2.5-2.31-2.85-.57-.69.8-3.55.09 1.19-2.29 1.77-.78-.73-3-1.35-2.35-5.44-2.37-2.31-.23-4.21-2.58-.83 1.36-1.08.25-.64-1v-1.21l-2.14-1.37 3-1 2 .05-.23-.74h-4.1l-1.11-1.66-2.51-.51-1.19-1.38 3.78-.67 1.44-.91 4.5 1.14zm-25-7.16l-2.25 2.76-2.11.54-2.7-.54-4.67.14-2.45.4-.4 2.11 2.51 2.48 1.51-1.26 5.23-.95-.23 1.28-1.22-.4-1.22 1.63-2.47 1.08 2.65 3.57-.51 1 2.52 3.22v1.84l-1.5.82-1.1-1 1.35-2.29-2.75 1.08-.7-.77.36-1.08-2-1.64.21-2.72-1.87.85.24 3.25.11 4-1.78.41-1.2-.82.8-2.57-.43-2.69h-1.18l-.87-1.91 1.16-1.83.4-2.21 1.41-4.2.59-1.15 2.38-2.07 2.19.82 3.53.39 3.22-.12 2.77-2zm9.67.8l-.15 2.43-1.45-.27-.43 1.7 1.16 1.47-.78.33-1.13-1.76-.83-3.56.56-2.23.93-1 .2 1.52 1.66.24zM806 458.55l3.14 2.58-3.32.33-.94 1.9.12 2.52-2.7 1.9-.07 2.77-1.08 4.27-.41-1-3.19 1.26-1.11-1.71-2-.16-1.4-.89-3.33 1-1-1.35-1.84.15-2.31-.32-.43-3.74-1.4-.77-1.35-2.38-.39-2.44.33-2.58L783 458l.47 1.86 1.92 1.57 1.81-.57 1.79.2 1.63-1.41 1.34-.24 2.65.78 2.29-.59 1.44-3.88 1.08-1 1-3.17h3.22l2.43.47-1.59 2.52 2.06 2.64zM772.2 480l-3.1.06-2.36-2.34-3.6-2.28-1.2-1.69-2.12-2.27-1.39-2.09-2.13-3.9-2.46-2.32-.82-2.39-1-2.17-2.53-1.76-1.49-2.43-2.11-1.56-2.92-3.08-.25-1.42 1.81.11 4.34.54 2.48 2.73 2.17 1.89 1.48 1.17 2.66 3h2.85l2.35 1.91 1.62 2.33 2.14 1.27-1.12 2.27 1.61 1 1 .07.48 1.94 1 1.55 2.06.25 1.36 1.77-.7 3.47z"/><path id="MY" class="cls-1" d="M758.9 446.32l.22 1.44 1.85-.33.92-1.15.65.26 1.66 1.69 1.18 1.87.16 1.88-.3 1.27.27 1 .21 1.65 1 .77 1.1 2.46-.05.94-2 .19-2.65-2.06-3.32-2.21-.33-1.42-1.62-1.87-.39-2.31-1-1.52.31-2-.62-1.19.49-.5zm49.19 4.83l-2.06 1-2.43-.47h-3.22l-1 3.17-1.08 1-1.44 3.88-2.29.59-2.65-.78-1.34.24-1.58 1.34-1.79-.2-1.81.57-1.92-1.57-.47-1.86 2.05 1 2.17-.52.56-2.36 1.2-.53 3.36-.6 2-2.21 1.38-1.77 1.28 1.45.59-1 1.34.09.16-1.79.13-1.38 2.16-1.95 1.41-2.19h1.13l1.44 1.42.13 1.22 1.85.78 2.34.84-.2 1.1-1.88.14z"/><path id="KH" class="cls-1" d="M765.69 433.85l-1.14-1.48-1.42-2.94-.66-3.45 1.8-2.39 3.63-.55 2.63.41 2.31 1.13 1.27-2 2.48 1.06.65 1.91-.34 3.43-4.71 2.19 1.23 1.72-2.94.21-2.48 1.17z"/><path id="LA" class="cls-1" d="M770.52 423.46l.91-1.3.13-2.44-2.27-2.53-.17-2.87-2.12-2.38-2.12-.2-.57 1-1.64.08-.84-.52-3 1.75-.07-2.63.69-3.1-1.89-.14-.16-1.78-1.21-.92.6-1.1 2.39-1.94.25.7 1.49.08-.42-3.43 1.45-.44 1.64 2.38 1.26 2.72h3.45l1.09 2.59-1.79.78-.8 1.06 3.36 1.76 2.33 3.47 1.77 2.57 2.12 2 .71 2-.51 2.88-2.48-1.06-1.27 2z"/></a><a id="on-mobile-map-latin-america"><title>Latin America</title><path id="AR" class="cls-1" d="M291.85 649.16l-2.66.24-1.43-1.73-1.69-.13h-3V637l1.08 2.15 1.4 3.53 3.64 2.86 3.92 1.21zm1.5-122.44l1.65 2.18 1.09-2.43 3.2.13.45.64 5.15 4.95 2.29.46 3.43 2.26 2.89 1.2.4 1.36-2.76 4.73 2.83.85 3.15.48 2.22-.51 2.54-2.4.46-2.74 1.39-.59 1.41 1.79-.06 2.49-2.36 1.73-1.88 1.28-3.17 3.08-3.74 4.34-.7 2.59-.75 3.36v3.3l-.61.74-.22 2.16-.19 1.76 3.56 2.91-.38 2.37 1.75 1.51-.14 1.7-2.67 4.6-4.16 1.91-5.62.75-3.08-.36.59 2.15-.57 2.72.52 1.85-1.68 1.3-2.87.51-2.7-1.35-1.08 1 .39 3.71 1.89 1.14 1.54-1.19.83 2-2.58 1.08-2.25 2.38-.41 3.91-.66 2.11H289l-2.2 2-.8 3 2.76 3 2.68.83-1 3.73-3.31 2.38-1.82 5-2.56 1.72-1.15 2.06.9 4.64 1.87 2.63-1.18-.23-2.6-.72-6.77-.61-1.16-2.63.05-3.33-1.87.28-1-1.6-.24-4.6 2.15-1.88.89-2.68-.33-2.11 1.49-3.52 1-5.35-.3-2.33 1.22-.75-.3-1.48-1.3-.78.92-1.63-1.27-1.46-.65-4.4 1.13-.77-.47-4.54.66-3.75.75-3.22 1.68-1.3-.85-3.46v-3.22l2.12-2.26-.07-2.87 1.6-3.31v-3.09l-.73-.61-1.29-5.69 1.73-3.34-.27-3.11 1-2.9 1.84-3 2-2-.84-1.22.58-1-.09-5.14 3.05-1.51 1-3.16-.34-.76 2.34-2.72z"/><path id="BO" class="cls-1" d="M299.29 526.6l-3.2-.12-1.09 2.42-1.65-2.18-3.67-.73-2.34 2.72-2 .42-1.1-4.15-1.51-3.35.88-2.87-1.47-1.25-.37-2.12-1.37-2 1.77-3.15-1.21-2.44.64-1-.5-1.07 1.1-1.44.05-2.44.14-2 .6-1-2.42-4.58 2.08.24 1.44-.06.63-.86 2.45-1.15 1.48-1.06 3.67-.48-.3 2.12.35 1.09-.23 1.9 3 2.55 3.14.47 1.1 1.07 1.9.57 1.16.83h1.76l1.63.85.17 1.65.55.84v1.24h-.82l1.08 3.37 5.38.12-.41 1.68.3 1.15 1.53.82.66 1.82-.5 2.32-.77 1.29.27 1.69-.88.61v-.91l-2.61-1.51h-2.6l-4.89.86-1.37 2.61-.07 1.6-1.1 3.59z"/><path id="BR" class="cls-1" d="M313.93 552l3.74-4.37 3.17-3.08 1.88-1.28 2.36-1.73.06-2.49-1.41-1.79-1.39.59.55-1.78.38-1.82v-1.68l-1-.55-1.05.49-1-.14-.33-1.17-.26-2.78-.53-.9-1.89-.82-1.14.59-3-.58.19-4.07-.83-1.65.88-.61-.27-1.69.77-1.29.5-2.32-.66-1.82-1.53-.82-.3-1.15.41-1.68-5.37-.12-1.08-3.37h.82v-1.24l-.6-.88-.12-1.66-1.63-.85h-1.76l-1.16-.83-1.9-.57-1.1-1.07-3.14-.47-3-2.55.23-1.9-.35-1.09.3-2.12-3.67.48-1.48 1.06-2.45 1.15-.62.86-1.44.06-2.08-.24-1.58.49-1.27-.33.19-4.3-2.3 1.67-2.48-.07-1.19-1.44-1.86-.16.59-1.21-1.56-1.71-1.17-2.53.74-.51V483l1.69-.81-.28-1.52.71-1 .2-1.31 3.21-1.9 2.3-.54.38-.42 2.53.13 1.26-7.65.07-1.21-.44-1.6-1.24-1v-2l1.58-.46.56.29.1-1.07-1.64-.29v-1.74l5.46.06.93-1 .78.88.55 1.64.53-.34 1.54 1.47 2.18-.18.54-.85 2.08-.65 1.15-.46.33-1.18 2-.79-.15-.59-2.38-.24-.39-1.76.11-1.87-1.26-.72.53-.26 2.08.36 2.23.7.81-.66 2-.43 3.14-1 1-1.07-.37-.79 1.46-.12.65.64-.37 1.23 1 .42.64 1.3-.78 1-.45 2.37.72 1.41.2 1.29L310 460l1.38.14.31-.54.89-.12 1.27-.49.91-.74 1.55.24.68-.1 1.52.23.25-.57-.47-.55.28-.81 1.13.25 1.33-.29 1.61.59 1.22.57.87-.76.63.12.38.79 1.34-.2 1.08-1.06.86-2.05 1.66-2.55 1-.13.69 1.54 1.57 4.88 1.5.46.08 1.92-2.17 2.23.87.84 5 .44.1 2.79 2.13-1.83 3.53 1 4.66 1.7 1.37 1.63-.46 1.54 3.26-.86 5.46 1.48 4.19-.11 4.14 2.31 3.58 3.13 2.16.81 2.4.11 1 .88 1 3.57.46 1.7-1.2 4.67-1.43 1.84-4 3.94-1.79 3.21-2.08 2.48-.7.06-.78 2.11.2 5.4-.78 4.48-.3 1.93-.89 1.16-.5 3.94-2.84 3.88-.48 3.09-2.27 1.3-.66 1.81h-3l-4.41 1.16-2 1.35-3.14.89-3.3 2.44-2.37 3.06-.41 2.32.47 1.73-.52 3.18-.64 1.55-2 1.75-3.11 5.68-2.46 2.59-1.81 1.54-1.28 3.15-1.85 1.91-.78-1.89 1.24-1.58-1.64-2.26-2.2-1.82-2.89-2.09-1 .1-2.81-2.5z"/><path id="BS" class="cls-1" d="M258.11 395.46l-.69.15-.71-1.76-1.05-.89.61-2 .84.12 1 2.55zm-.8-8.69l-3.06.5-.2-1.15 1.32-.25 1.85.09zm2.3 0l-.48 2.21-.52-.4v-1.62l-1.26-1.23v-.36z"/><path id="BZ" class="cls-1" d="M225.56 413.21v-.43l.34-.13.51.35 1-1.77h.53v.43h.53v.8l-.45 1.27.24.45-.29 1 .18.28-.32 1.47-.55.77-.51.09-.56 1h-.84l.22-3.28z"/><path id="CL" class="cls-1" d="M283.06 637v10.57h3l1.69.13-.93 2-2.4 1.53L283 651l-1.66-.4-2-1.48-2.94-.71-3.53-2.71-2.87-2.53-3.86-5.25 2.31 1 3.94 3.13 3.72 1.7 1.45-2.17.91-3.2 2.58-1.91zm1.16-112l1.1 4.15 2-.41.34.76-1 3.16-3.05 1.51.09 5.14-.58 1 .84 1.22-2 2-1.84 3-1 2.9.27 3.11-1.73 3.34 1.29 5.69.73.61v3.09l-1.6 3.31.07 2.87-2.12 2.26v3.22l.85 3.46-1.68 1.3-.75 3.22-.66 3.75.47 4.54-1.13.77.65 4.4 1.27 1.46-.92 1.63 1.3.78.3 1.48-1.22.75.3 2.33-1 5.35-1.49 3.52.33 2.11-.89 2.68-2.15 1.88.24 4.6 1 1.6 1.87-.28-.05 3.33 1.16 2.63 6.77.61 2.6.72h-2.49l-1.35 1.13-2.53 1.67-.45 4.38-1.19.11-3.16-1.53-3.21-3.25-3.49-2.63-.88-2.87.79-2.62-1.41-2.94-.36-7.34 1.19-4 3-3.19-4.26-1.19 2.67-3.57 1-6.56 3.12 1.37 1.46-8-1.88-1-.88 4.75-1.77-.54.88-5.42 1-6.84 1.29-2.48-.81-3.49-.23-4 1.18-.11 1.72-5.6 1.94-5.43 1.19-5-.65-4.91.84-2.67-.34-4 1.64-3.87.51-6 .9-6.37.88-6.75-.2-4.87-.58-4.15 1.44-.75.75-1.5 1.37 2 .38 2.12 1.47 1.25-.88 2.87z"/><path id="CO" class="cls-1" d="M264.17 464.06l-1.2-.66-1.38-.92-.8.44-2.38-.39-.68-1.2h-.52l-2.81-1.59-.38-.86 1-.21-.12-1.4.66-1 1.39-.19 1.18-1.75 1.07-1.46-1-.66.53-1.62-.63-2.56.6-.74-.44-2.37-1.13-1.49.36-1.37.9.2.53-.83-.65-1.66.34-.41 1.45.09 2.1-2 1.15-.3v-.93l.52-2.39 1.61-1.32 1.77-.05.22-.59 2.19.24 2.21-1.43 1.09-.64 1.36-1.37 1 .17.74.75-.54 1-1.8.48-.68 1.43-1.08.81-.82 1.05-.34 2L270 438l1.45.19.36 1.3.62.62.22 1.13-.33 1 .1.59.69.24.67 1 3.61-.27 1.63.36 2 2.41 1.13-.3 2 .15 1.6-.32 1 .48-.5 1.51-.63.94-.22 2 .56 1.86.8.83.1.63-1.42 1.39 1 .61.75 1 .86 2.78-.53.34-.55-1.64-.78-.88-.93 1-5.46-.06v1.74l1.64.29-.1 1.07-.56-.29-1.58.46v2l1.24 1 .44 1.6-.07 1.21-1.26 7.65-1.4-1.48-.84-.07 1.81-2.84-2.12-1.3-1.68.24-1-.48-1.54.74-2.09-.35-1.69-2.93-1.3-.72-.89-1.31-1.86-1.32z"/><path id="CR" class="cls-1" d="M242.88 440.65l-1.52-.62-.57-.59.32-.49-.1-.62-.78-.67-1.1-.56-1-.36-.18-.83-.74-.51.18.82-.56.67-.64-.78-.9-.28-.38-.57v-.86l.37-.89-.79-.4.64-.55.42-.37 1.85.75.64-.37.89.24.46.58.83.19.67-.6.71 1.54 1.08 1.14 1.32 1.21-1.09.25v1.14l.58.42-.42.33.11.51-.23.57z"/><path id="CU" class="cls-1" d="M244.84 397.19l2.42.22h2.2l2.63 1 1.12 1.11 2.62-.34 1 .71 2.38 1.86 1.74 1.35h.92l1.67.61-.2.84 2.07.12 2.12 1.22-.33.7-1.86.38-1.89.15-1.93-.23-4 .29 1.88-1.66-1.14-.77-1.81-.2-1-.86-.67-1.7-1.58.12-2.61-.8-.84-.63-3.65-.47-1-.59 1.05-.75-2.75-.15-2 1.57h-1.16l-.4.73-1.39.33-1.2-.28 1.48-.93.61-1.09 1.27-.67 1.43-.59 2.12-.29z"/><path id="DO" class="cls-1" d="M274.43 407.6l.35-.51H277l1.66.76.74-.07.51 1 1.54-.06-.09.88 1.25.11 1.38 1.08-1 1.2-1.33-.64-1.29.12-.92-.14-.51.54-1.08.18-.43-.71-.93.42-1.12 2-.72-.46-.14-.84.06-.8-.72-.88.68-.5.21-1.13z"/><path id="EC" class="cls-1" d="M250.35 473.13l1.49-2.08-.61-1.22-1.07 1.29-1.68-1.22.57-.79-.47-2.53 1-.42.52-1.74 1.06-1.79-.2-1.14 1.54-.6 1.93-1.11 2.81 1.59h.52l.68 1.2 2.38.39.8-.44 1.38.92 1.2.66.39 2.12-.87 1.81-3.06 2.92-3.37 1.1-1.72 2.43-.53 1.88-1.58 1.15-1.18-1.41-1.13-.3-1.15.2-.08-1 .8-.67z"/><path id="FK" class="cls-1" d="M303.91 633.39l3.36-2.7 2.38 1.12 1.68-1.79 2.24 2-.84 1.58L309 635l-1.26-1.59-2.38 2z"/><path id="GF" class="cls-1" d="M328.14 456.66l-1.08 1.06-1.34.2-.38-.79-.63-.12-.87.76-1.23-.58.71-1.19.24-1.27.48-1.2-1.04-1.63-.22-1.91 1.46-2.4 1 .31 2.07.66 3 2.36.46 1.14-1.77 2.55z"/><path id="GT" class="cls-1" d="M222.89 425l-1.44-.5-1.75-.05-1.28-.57-1.51-1.19.07-.84.32-.68-.4-.54 1.35-2.36h3.6l.07-1-.45-.18-.31-.63-1-.67-1-1h1.27v-1.64h5.16v2.32l-.22 3.28h.84l.91.52.24-.43.82.37-1.28 1.1-1.33.81-.2.55.22.57-.59.76-.66.18.15.34-.53.32-1 .73z"/><path id="GY" class="cls-1" d="M308 440.25l1.84 1 1.73 1.83.08 1.45 1.06.07 1.5 1.37 1.11 1-.45 2.52-1.7.73.15.66-.52 1.44 1.24 2h.9l.37 1.57 1.71 2.42-.68.1-1.55-.24-.91.74-1.27.49-.89.12-.31.54L310 460l-1.73-1.31-.2-1.29-.72-1.41.45-2.37.78-1-.64-1.3-1-.42.37-1.23-.65-.64-1.46.12-1.9-2.12.76-.77-.06-1.29 1.73-.45.7-.53-1-1 .24-1z"/><path id="HT" class="cls-1" d="M270.29 407l1.71.13 2.43.47.24 1.61-.21 1.13-.68.5.72.88-.06.8-1.86-.5-1.32.2-1.71-.21-1.31.55-1.5-.91.25-.95 2.58.41 2.11.24 1-.65-1.28-1.28v-1.13l-1.77-.46z"/><path id="JM" class="cls-1" d="M258 411.21l1.89.26 1.49.7.47.8-2 .05-.85.49-1.57-.47-1.6-1.07.34-.67 1.18-.2z"/><path id="MX" class="cls-1" d="M203.14 389l-1.14 2.69-.49 2.21-.2 4.08-.27 1.48.49 1.64.87 1.46.56 2.32 1.86 2.21.66 1.69 1.1 1.45 3 .78 1.16 1.23 2.46-.82 2.14-.3 2.1-.53 1.76-.51 1.78-1.2.67-1.73.23-2.5.49-.87 1.9-.78 3-.69 2.48.1 1.7-.25.67.64-.1 1.44-1.53 1.76-.67 1.8.52.51-.42 1.28-.7 2.3-.71-.75h-1.12l-1 1.77-.51-.35-.34.13v.43h-5.21v1.64h-1.27l1 1 1 .67.31.63.45.18-.07 1h-3.6l-1.35 2.36.4.54-.32.68-.07.84-3.17-3.11-1.45-.94-2.19-.71-1.57.21-2.25 1.09-1.41.29-2-.76-2.1-.55-2.62-1.33-2.1-.41-3.17-1.35-2.35-1.4-.71-.78-1.57-.18-2.87-.93-1.17-1.34-3-1.67-1.4-1.87-.67-1.45.93-.29-.29-.85.64-.77v-1l-.95-1.35-.25-1.2-.94-1.52-2.47-3-2.79-2.49-1.36-1.91-2.41-1.26-.51-.76.43-1.92-1.43-.73-1.64-1.47-.7-2.19-1.51-.26-1.63-1.67-1.31-1.55-.12-1-1.51-2.42-1-2.48v-1.25l-2-1.3-.94.14-1.6-.9-.45 1.33.46 1.57.27 2.43 1 1.33 2.08 2.21.46.75.43.23.37 1.09h.5l.56 2 .85.8.6 1.11 1.76 1.59.93 2.89.83 1.35.78 1.44.15 1.62 1.35.1 1.12 1.39 1 1.36-.07.54-1.18 1.11h-.5l-.74-1.84-1.83-1.74-2-1.48-1.43-.78.09-2.25-.43-1.68-1.34-1-1.93-1.39-.37.4-.71-.81-1.73-.76-1.65-1.82.21-.24 1.15.18 1-1.18.11-1.43-2.16-2.27-1.65-.89-1-2-1-2.12-1.3-2.61-1.14-3 3.19-.25 3.56-.36-.26.65 4.23 1.61 6.4 2.31H172v-1.35h4.86l1 1.16 1.43 1 1.67 1.43.93 1.69.7 1.77 1.45 1 2.33 1 1.77-2.53 2.29-.06 2 1.28 1.41 2.18 1 1.86 1.65 1.8.62 2.2.79 1.47 2.19 1 2 .68z"/><path id="NI" class="cls-1" d="M235.18 432.56l-1-.89-1.31-1.15-.62-1-1.18-.9-1.41-1.29.31-.44.46.43.21-.2.87-.12.35-.65h.41l-.06-1.41.66-.07h.58l.61-.77.83.58.29-.36.52-.34 1-.79v-.59h.27l.36-.69.29-.08.48.44.56.13.62-.37h.72l1-.38.39-.39 1 .06-.24.28-.14.64.29 1.05-.65 1-.3 1.15-.09 1.26.15.74.07 1.29-.43.28-.26 1.22.19.75-.57.73.13.77.43.47-.67.6-.83-.19-.46-.58-.89-.24-.64.37-1.85-.75z"/><path id="PA" class="cls-1" d="M257.14 443.47l-.94-.81-.6-1.52.69-.75-.71-.19-.52-.93-1.4-.78-1.23.18-.57 1-1.13.71-.61.1-.27.59 1.34 1.53-.77.36-.4.42-1.31.14-.49-1.68-.37.48-.92-.17-.57-1.13-1.15-.19-.73-.33h-1.2l-.09.61-.32-.43.15-.56.23-.57-.11-.51.42-.33-.58-.42v-1.14l1.09-.25 1 1-.06.6 1.12.13.27-.23.77.69 1.38-.2 1.19-.71 1.7-.57 1-.84 1.55.17-.1.28 1.56.1 1.25.49.92.85 1.05.78-.34.41.65 1.66-.53.83-.9-.2z"/><path id="PE" class="cls-1" d="M280.38 513.4l-.75 1.5-1.44.75-2.81-1.65-.24-1.2-5.56-2.92-5-3.17-2.16-1.78-1.16-2.37.46-.83-2.37-3.75-2.76-5.24-2.65-5.62-1.15-1.28-.88-2.07-2.18-1.83-2-1.13.91-1.25-1.36-2.67.87-2 2.24-1.76.33 1.16-.8.67.08 1 1.16-.22 1.13.3 1.18 1.41 1.58-1.15.53-1.88 1.72-2.43 3.37-1.1 3.06-2.92.87-1.81-.39-2.12.75-.26 1.86 1.32.89 1.31 1.3.72 1.65 2.92 2.09.35 1.54-.74 1 .48 1.68-.24 2.15 1.31-1.81 2.84.84.07 1.4 1.48-2.53-.13-.38.42-2.3.54-3.21 1.9-.2 1.31-.71 1 .28 1.52-1.69.81v1.18l-.74.51 1.17 2.53 1.56 1.71-.59 1.21 1.86.16 1.06 1.51 2.48.07 2.3-1.67-.19 4.3 1.27.33 1.58-.49 2.42 4.58-.6 1-.14 2-.05 2.44-1.1 1.44.5 1.07-.64 1 1.21 2.44z"/><path id="PR" class="cls-1" d="M289.66 411.14l1.43.26.51.58-.72.74h-2.11l-1.64.1-.16-1.26.4-.43z"/><path id="PY" class="cls-1" d="M299.74 527.24l1.1-3.59.07-1.6 1.35-2.61 4.89-.86h2.6l2.61 1.51v.91l.83 1.65-.19 4.07 3 .58 1.14-.59 1.89.82.53.9.26 2.78.33 1.17 1 .14 1.05-.49 1 .55v1.68l-.38 1.82-.55 1.78-.46 2.74-2.54 2.4-2.22.51-3.15-.48-2.83-.85 2.76-4.73-.4-1.36-2.89-1.2-3.43-2.26-2.29-.46z"/><path id="SR" class="cls-1" d="M315.27 447l3.36.56.3-.51 2.27-.2 3 .75-1.46 2.4.22 1.91 1.1 1.65-.49 1.2-.25 1.27-.71 1.17-1.61-.59-1.33.29-1.13-.25-.28.81.47.55-.25.57-1.52-.23-1.71-2.42-.37-1.57H314l-1.24-2 .52-1.44-.15-.66 1.7-.73z"/><path id="TT" class="cls-1" d="M302.56 433.49l1.61-.37.59.1-.11 2.11-2.34.31-.51-.26.81-.78z"/><path id="UY" class="cls-1" d="M313.93 552l1.82-.34 2.81 2.5 1-.1 2.89 2.09 2.2 1.82 1.62 2.25-1.24 1.58.78 1.89-1.21 2.12-3.17 1.89-2.07-.68-1.52.36-2.55-1.38-1.9.11-1.71-1.87.22-2.16.61-.74v-3.3l.75-3.37z"/><path id="VE" class="cls-1" d="M275.5 430.61l-.08.67-1.65.33.91 1.29v1.48l-1.26 1.62 1.06 2.24 1.21-.18.63-2-.87-1-.14-2.15 3.49-1.15-.39-1.34 1-.9 1 2h2l1.82 1.58.11.94h2.52l3-.29 1.61 1.27 2.14.35 1.57-.88v-.71l3.47-.17h3.36l-2.38.84 1 1.34 2.24.21 2.13 1.39.45 2.26 1.46-.06 1.1.66-2.22 1.65-.24 1 1 1-.7.53-1.73.45.06 1.29-.76.77 1.9 2.12.37.79-1 1.07-3.14 1-2 .43-.81.66-2.23-.7-2.08-.36-.53.26 1.26.72-.11 1.87.39 1.76 2.38.24.15.59-2 .79-.33 1.18-1.15.46-2.08.65-.54.85-2.18.18-1.69-1.35-.86-2.78-.75-1-1-.61 1.42-1.39-.1-.62-.8-.83-.56-1.86.22-2 .63-.94.5-1.51-1-.48-1.6.32-2-.15-1.13.3-2-2.41-1.63-.36-3.61.27-.67-1-.69-.24-.1-.59.33-1-.22-1.13-.62-.62-.36-1.3-1.4-.22.78-1.65.34-2 .82-1.05 1.08-.81.71-1.42z"/></a><a id="on-mobile-map-india-beyond"><title>India - Beyond</title><path id="BD" class="cls-1" d="M735.34 400.66l-.06 2.15-1-.45.18 2.4-.8-1.56-.16-1.52-.53-1.45-1.17-1.76-2.58-.12.26 1.24-.88 1.67-1.19-.61-.41.55-.79-.33-1.09-.27-.44-2.48-1-2.28.48-1.84-1.72-.82.62-1.12 1.75-1.15-2-1.64 1-2.11 2.22 1.34 1.34.15.25 2.15 2.67.42h2.6l1.62.53-1.29 2.59-1.25.18-.87 1.73 1.54 1.57.46-1.94h.77z"/><path id="IN" class="cls-1" d="M748.6 382.68l-.21-1.2-3-.47.95-1.34-1.31-2L743 379l-2.35-.79-3.23 2-2.55 2.36-2.26.39 1.14 1-.2 1.92-2.29.09-2.37-.21-1.76.49-2.55-1.19-.06-.63-.24-2.48-1.71.66-.22 1.36.37 2-.32 1.23-2.34.05-3.37-.73-2.17-.3-1.62-1.59-3.84-.41-3.66-1.77-2.62-1.45-2.72-1.2 1.09-3 1.78-1.46-3.9-2.26-2.75-2.08v-.12l-.12.11.88 1.38-1.94-.62-1.5 1.13.13 1.38-.69.44-1.25-.44-3.19 2.56-5.75-.87-.25-1.25-1.15 1.3-1.76 3.25-2.93 3.33-3.26-.24-3.09 3.29 1.83 1.4.32 2.39 1.58 1.57.56 2.64h-6.17l-1.87 2 3.29 2.57.83 1.19-1.35 1.09 3.66 3.63 2 .36 4.08-1.79.54 2.79v3.59l.84 3.76 1.16 5.65 2.55 4 .48 1.8.7 3.58 1.49 2.74 1 1.35 1.07 2.86 1.3 4 2.65 2.63 1.13-.81.94-1.92 2.56-.8-.85-.93 1.28-2.16 1.45-.14v-4.83l1.19-2.71-.15-2.38-.58-3.74.84-2.2 1.31-.15 2.53-1 1.4-.72v-1.34l2.79-1.91 2.11-1.85 3.1-3.54 4-2 1.5-1.76-.16-2.25 3.46-.62h1.91l.4-1.1-.44-2.48-1-2.28.48-1.84-1.72-.82.62-1.12 1.75-1.15-2-1.64 1-2.11 2.22 1.34 1.34.15.25 2.15 2.67.42h2.6l1.62.53-1.29 2.59-1.25.18-.87 1.73 1.54 1.57.46-1.94h.77l1.48 4.8 1.38-.71-.3-1.28.63-1 .11-3.15 2.19.7 1.25-2.52.14-1.5 1.55-2.59-.09-1.78 3.63-2.16 2 .57-.23-1.93z"/><path id="KA" class="cls-1" d="M698 362.54l.34-.56v-.81l1.38-.81.72-2.81-1.16-.84-1.66-.53-1.62.38-2.32 1.16-4.61-1.39-.83-2.66-2.01-1.67-1.63.39-1.43.65-.4.05-2.52.84-1.69 2.44 4.5 2.69-2 2.31.56 4.44 2.56 1.06h.05l2.26 1.63-2.39 1.9v2.33l-1.61 1.92.25 1.25 5.75.88 3.19-2.56 1.25.44.69-.44-.12-1.37 1.5-1.12 1.94.63-.87-1.37.12-.11-.76-3.51.85.19.48.69.44-.16.59-.34.69-.75-.59-1.41v-.47l-.69-.09-.53-.47.31-.94-.31-.94.19-.22z"/><path id="LK" class="cls-1" d="M704.82 442.63l-.42 2.92-1.17.8-2.44.64-1.34-2.23-.5-4 1.27-4.58 1.94 1.57 1.31 2z"/><path id="MM" class="cls-1" d="M754.61 406.2l-1.61 1.29-2 .13-1.28 3.19-1.18.53 1.36 2.57 1.78 2.13 1.15 1.92-1 2.52-1 .53.67 1.45 1.87 2.28.32 1.6v1.33l1.1 2.6-1.54 2.65-1.36 2.91-.27-2.1.86-2.17-.94-1.68.23-3.11-1.14-1.48-.91-3.44-.51-3.65-1.21-2.41-1.85 1.46-3.19 2.07-1.57-.26-1.74-.68 1-3.6L740 412l-2.2-3.39.34-1.07-1.64-.38-2-2.42-.18-2.4 1 .45.06-2.15 1.38-.71-.3-1.28.63-1 .11-3.15 2.19.7 1.25-2.52.14-1.5 1.55-2.59-.09-1.78 3.63-2.16 2 .57-.23-1.93 1-.58-.21-1.2 1.64-.24.94 1.86 1.22.75.08 2.4-.11 2.57-2.66 2.58-.34 3.64 3-.51.67 2.8 1.77.59-.82 2.51 2.08 1.13 1.21.55 2.06-.87.09 1.24-2.39 1.94-.6 1.1z"/><path id="NP" class="cls-1" d="M722.58 382.7l-.22 1.36.37 2-.32 1.23-2.34.05-3.37-.73-2.17-.3-1.62-1.59-3.84-.41-3.66-1.77-2.63-1.54-2.72-1.2 1.09-3 1.78-1.46 1.16-.77 2.25 1 2.83 2.09 1.57.46.94 1.53 2.18.63 2.28 1.39 3.17.73z"/><path id="TH" class="cls-1" d="M763.14 429.44l-2.52-1.31-2.4.05.41-2.25h-2.47l-.22 3.14-1.51 4.15-.91 2.5.19 2 1.83.09 1.14 2.57.5 2.43 1.56 1.61 1.7.33 1.45 1.46-.92 1.15-1.85.33-.22-1.44-2.29-1.23-.49.5-1.12-1-.48-1.39-1.49-1.59-1.36-1.34-.46 1.65-.53-1.56.31-1.76.83-2.71 1.36-2.91 1.54-2.65-1.1-2.6v-1.33l-.32-1.6-1.87-2.28-.67-1.45 1-.53 1-2.52-1.1-1.95-1.78-2.13-1.36-2.57 1.18-.53 1.28-3.19 2-.13 1.64-1.29 1.61-.69 1.21.92.16 1.78 1.89.14-.69 3.1.07 2.63 3-1.75.84.52 1.64-.08.57-1 2.12.2 2.13 2.38.17 2.88 2.27 2.53-.12 2.44-.91 1.3-2.63-.41-3.62.55-1.8 2.39z"/><path id="VN" class="cls-1" d="M778.46 402.13l-3.74 2.56-2.34 2.81-.62 2.05 2.14 3.1 2.62 3.82 2.54 1.79 1.7 2.32 1.28 5.32-.38 5-2.34 1.87-3.21 1.83-2.26 2.4-3.5 2.63-1-1.81.79-1.91-2.14-1.64 2.43-1.14 2.94-.21-1.23-1.72 4.71-2.19.34-3.43-.65-1.91.51-2.88-.71-2-2.12-2-1.77-2.57-2.33-3.47-3.36-1.76.8-1.06 1.79-.78-1.09-2.59h-3.45l-1.26-2.72-1.55-2.46 1.51-.74h2.24l2.72-.35 2.39-1.61 1.35 1.14 2.56.55-.44 1.74 1.34 1.22z"/></a><a id="on-mobile-map-australia"><title>Australia</title><path id="AU" class="cls-1" d="M883.18 588.41l2.71 1.28 1.53-.51 2.19-.71 1.68.25.2 4.42-1 1.3-.29 3.06-1-1-1.95 2.67-.58-.21-1.72-.12-1.73-3.28-.38-2.5-1.62-3.25.07-1.7zM878 502.35l1 2.25 1.8-1.08.93 1.22 1.35 1.13-.29 1.28.6 2.48.43 1.45.71.36.76 2.49-.27 1.52.91 2 3 1.54 2 1.41 1.88 1.29-.37.72 1.6 1.87 1.09 3.25 1.12-.66 1.14 1.31.69-.46.48 3.21 2 1.87 1.3 1.17 2.19 2.49.79 2.49.07 1.77-.19 1.94 1.34 2.68-.16 2.81-.48 1.48-.76 2.87.06 1.86-.55 2.34-1.24 3-2.08 1.63-1 2.59-.94 1.67-.83 2.93-1.08 1.68-.71 2.58-.36 2.4.14 1.11-1.61 1.22-3.14.13-2.59 1.45-1.29 1.38-1.68 1.53-2.32-1.58-1.72-.63.44-1.85-1.53.67-2.46 2.58-2.42-1-1.59-.56-1.6-.25-2.71-1-1.85-2.16-.52-2.66-.65-1.75-1.38-1.4-2.7-.41.92-1.66-.68-2.52-1.37 2.35-2.49.63 1.47-1.89.42-2 1.08-1.65-.22-2.47-2.28 2.85-1.75 1.15-1.07 2.69-2.19-1.4.09-1.79-1.75-2.43-1.48-1.25.53-.77-3.6-2-2-.09-2.7-1.6-5 .31-3.63 1.17-3.19 1.1-2.68-.22-3 1.7-2.43.77-.54 1.75-1 1.36-2.38.08-1.76.3-2.48-.61-2 .37-1.92.15-1.67 1.8-.82-.15-1.41 1-1.35 1.08-2-.13h-1.92l-3-2.17-1.51-.64.06-1.93 1.39-.46.56-.78-.1-1.2.34-2.3-.31-1.95-1.48-3.29-.46-1.84.12-1.83-1.12-2.08-.07-.93-1.24-1.26-.35-2.47-1.6-2.48-.39-1.33 1.23 1.35-.95-2.88 1.39.9.83 1.2v-1.59l-1.39-2.43-.27-1-.65-.92.3-1.77.57-.75.38-1.52-.3-1.77 1.16-2.16.21 2.29L797 526l2.28-1 1.37-1.28 2.14-1.09 1.27-.23.77.37 2.21-1.11 1.7-.33.42-.65.74-.27 1.55.07 2.95-.87 1.52-1.31.72-1.58 1.65-1.49.13-1.17.07-1.59 2-2.47 1.18 2.51 1.19-.58-1-1.37.88-1.41 1.24.63.34-2.2 1.53-1.42.68-1.14 1.41-.49v-.8l1.23.33v-.72l1.23-.41 1.35-.39 2.07 1.32 1.56 1.7h1.76l1.78.27-.59-1.58 1.34-2.3 1.26-.75-.44-.71 1.22-1.63 1.7-1 1.43.34 2.35-.54-.05-1.45-2.05-.94 1.49-.41 1.86.7 1.49 1.17 2.36.73.8-.29 1.74.88 1.64-.82 1.05.25.66-.55 1.29 1.41-.75 1.53-1.04 1.13-1 .1.33 1.15-.82 1.43-1 1.41.2.81 2.23 1.6 2.16.93 1.44 1 2 1.72h.79l1.47.75.43.9 2.68 1 1.85-1 .55-1.57.57-1.29.35-1.59.85-2.3-.39-1.39.2-.84-.32-1.64.37-2.16.54-.58-.44-1 .68-1.51.53-1.56.07-.81 1-1.06.79 1.39.19 1.78.7.34.12 1.2 1 1.45.21 1.62z"/><path id="FJ" class="cls-1" d="M980.78 508.86l-.35 1.4-.23.15-1.78.72-1.79.61-.36-1.08 1.4-.6.89-.16 1.65-.9zm-5.84 4.32l-1.27-.36-1.08 1 .27 1.29 1.55.36 1.74-.4.46-1.53-1-.84z"/><path id="NC" class="cls-1" d="M940.33 523.74l2.3 1.86 1.46 1.38-1.07.72-1.54-.81-2-1.35-1.81-1.59-1.85-2.1-.39-1h1.21l1.57 1 1.23 1z"/><path id="NZ" class="cls-1" d="M960.63 588.88l.64 1.53 2-1.5.81 1.57V592l-1 1.74-1.83 2.8-1.43 1.54 1 1.86h-2.16l-2.4 1.47-.75 2.57-1.59 4-2.2 1.8-1.4 1.16-2.62.06-1.82-1.34-3-.28-.47-1.48 1.51-3 3.48-3.9 1.81-.73 2-1.47 2.4-2 1.68-2 1.25-2.81 1.06-.95.4-2.04 2-1.7zm4.46-17l2 3.66.06-2.38 1.27.95.42 2.65 2.26 1.15 1.9.28 1.6-1.35 1.42.41-.68 3.15-.85 2.09-2.14-.07-.75 1.1.26 1.56-.41.68-1.06 2-1.39 2.5-2.17 1.49-.48-1-1.17-.54 1.62-3-.92-2-3-1.45.08-1.31 2-1.25.47-2.74-.13-2.28-1.14-2.34.08-.61-1.34-1.43-2.21-3-1.17-2.41 1-.27 1.53 1.89 2.18.89z"/><path id="PG" class="cls-1" d="M912.57 482.68l-.78.28-1.21-1.08-1.23-1.78-.6-2.13.39-.27.3.83.85.64 1.36 1.77 1.32 1zm-10.93-3.76l-1.47.23-.44.79-1.53.68-1.44.65h-1.49l-2.3-.81-1.6-.78.23-.87 2.51.41 1.53-.22.42-1.34.4-.07.27 1.48 1.6-.21.79-1 1.57-1-.31-1.65 1.68-.05.57.46-.06 1.55zm-13.43 5.35l2.5 1.84 1.82 3 1.61-.09-.11 1.25 2.16.48-.84.53 3 1.19-.31.82-1.86.2-.69-.73-2.41-.32-2.83-.43-2.25-1.81-1.59-1.55-1.41-2.47-3.66-1.18-2.37.8-1.71.93.36 2.08-2.2 1-1.57-.47-2.9-.12V470.96l4.86 1.92 5.18 1.6 1.93 1.43 1.56 1.4.43 1.65 4.67 1.73.68 1.49-2.58.3zm16.68-8.09l-.88.74-.53-1.65-.65-1.08-1.27-.92-1.56-1.17-2-.82.78-.67 1.51.78 1 .61 1.18.67 1.12 1.17 1.07.89z"/><path id="SB" class="cls-1" d="M930.06 493l.78 1h-2l-1.07-1.74 1.67.68zm-3.55-1.73l-1.09.06-1.72-.29-.59-.44.18-1.12 1.85.44.91.59zm2.32-.77l-.42.52-2.08-2.45-.58-1.68h1l1 2.25zm-5.06-3.56l.12.57-2.2-1.19-1.53-1-1.05-.94.42-.29 1.29.67 2.3 1.29zm-6.55-2.78l-.56.16-1.23-.64-1.15-1.15.15-.47 1.67 1.18z"/><path id="VU" class="cls-1" d="M946.11 510.15l-.92.38-.94-1.27.1-.78zm-2.11-4.43l.46 2.33-.75-.36-.58.16-.4-.8-.06-2.21z"/></a><a id="on-mobile-map-arabia"><title>Arabia</title><path id="AE" class="cls-1" d="M620.12 394l.5-.15.1.84 2.19-.48 2.32.08 1.69.09 1.92-2.07 2.09-2 1.77-1.91.53 1.06.38 2.44h-1.41l-.23 2 .5.42-1.27.6v1.24l-.82 1.26-.07 1.22-.57.64-8.43-1.52-1.08-3.08z"/><path id="OM" class="cls-1" d="M640.54 403.44l-1 2-1.27-.16-.58.71-.45 1.5.34 2-.27.36H636l-1.75 1.1-.27 1.43-.64.62h-1.74l-1.1.74v1.18l-1.36.81-1.55-.27-1.87 1-1.3.17-.91-2-2.19-4.84 8.41-3 1.87-6-1.28-2.14.07-1.22.82-1.26v-1.24l1.27-.6-.5-.42.23-2h1.43l1.26 2.1 1.57 1.11 2.06.4 1.66.55 1.27 1.74.76 1 1 .38v.67l-1 1.79-.45.84zm-6.92-14.54l-.36.56-.53-1.06.82-1.06.35.27z"/><path id="SA" class="cls-1" d="M595.45 417.47l-.36-1.24-.85-.88-.22-1.16-1.45-1-1.49-2.46-.79-2.4-1.94-2-1.25-.49-1.86-2.84-.32-2.08.08-1.92-1.61-3.36-1.32-1.19-1.51-.63-.92-1.76.15-.7-.78-1.6-.82-.69-1.09-2.31-1.71-2.52-1.39-2.13h-1.4l.44-1.74.12-1.11.35-1.28 3.12.51 1.21-1 .67-1.16 2.14-.45.46-1.08.93-.55-2.8-3.26 5.62-1.65.53-.5 3.38.89 4.18 2.29 7.91 6.49 5.21.25 2.5.31.7 1.52 2-.08 1.1 2.73 1.38.72.48 1.1 1.91 1.31.17 1.29-.28 1 .35 1 .81.86.37 1 .42.75.85.61.78-.22.53 1.17.11.71 1.08 3.08 8.43 1.52.57-.64 1.28 2.13-1.87 6-8.41 3-8.09 1.13-2.62 1.32-2 3.07-1.31.49-.7-1-1.08.15-2.71-.29-.51-.29-3.24.07-.76.26-1.15-.76-.74 1.43.29 1.23z"/><path id="YE" class="cls-1" d="M624.41 416.59l-2 .78-.54 1.29-.07 1-2.8 1.21-4.48 1.35-2.51 2-1.23.16-.84-.17-1.64 1.19-1.79.55-2.35.15-.71.16-.61.75-.73.21-.43.73-1.39-.06-.9.39-1.94-.14-.73-1.67.08-1.57-.46-.85-.55-2.13-.81-1.19.56-.14-.29-1.32.34-.56-.12-1.26 1.23-.93-.29-1.23.74-1.43 1.15.76.76-.26 3.24-.07.51.29 2.71.29 1.08-.15.7 1 1.31-.49 2-3.07 2.62-1.32 8.09-1.13 2.19 4.84z"/><path id="JO" class="cls-1" d="M575.17 368.12l.49-1 3.12 1.31 5.49-3.54 1.13 4-.53.5-5.62 1.61 2.8 3.26-.93.55-.46 1.08-2.14.45-.67 1.16-1.21 1-3.12-.51-.09-.46 1.4-5.17-.07-1.27.41-1z"/></a><a id="on-mobile-map-africa"><title>Africa</title><path id="AO" class="cls-1" d="M521.28 480l.69 2.09.8 1.68.65.91 1.07 1.47 1.85-.23.92-.4 1.55.4.42-.7.7-1.64 1.74-.11.15-.49h1.43l-.24 1h3.4l.05 1.77.57 1.09-.41 1.7.21 1.73.93 1-.15 3.37.69-.26 1.22.07 1.74-.42 1.28.17.3.88-.32 1.38.49 1.33-.42 1.07.24 1h-5.84l-.13 9.16 1.89 2.38 1.83 1.82-5.15 1.19-6.79-.41-1.94-1.4-11.37.13-.42.21-1.67-1.32-1.82-.09-1.68.5-1.35.56-.26-1.83.39-2.55 1-2.64.15-1.24.91-2.59.67-1.17 1.61-1.87.9-1.27.29-2.11-.15-1.61-.84-1-.75-1.72-.69-1.69.15-.59.86-1.12-.85-2.72-.57-1.88-1.4-1.77.27-.54 1.16-.38.81.05 1-.34zm-10.91-.54l-.71.3-.75-2.1 1.13-1.21.85-.47 1.05 1-1 .59-.46.72z"/><path id="BF" class="cls-1" d="M467.58 436.66l-1.92-.73-1.31.11-1 .71-1.26-.6-.49-.94-1.26-.62-.19-1.65.76-1.2-.06-1 2.23-2.36.41-2 .77-.7 1.36.39 1.18-.58.38-.74 2.17-1.29.54-.9 2.62-1.2 1.54-.41.7.55h1.8l-.22 1.4.38 1.31 1.58 1.87.09 1.39 3.23.65-.06 2-.61.85-1.37.27-.57 1.26-1 .32-2.45-.06-1.3-.23-.9.46-1.24-.21-4.87.13-.07 1.61z"/><path id="BI" class="cls-1" d="M557.77 476.19l-.18-3.37-.71-1.27 1.7.22.86-1.59 1.49.18.16 1.1.6.63v.91l-.69.58-1.05 1.42-1 1z"/><path id="BJ" class="cls-1" d="M483 446.17l-2.32.33-.69-1.93.13-6.46-.57-.58-.11-1.39-1-1-.86-.84.36-1.49 1-.32.57-1.24 1.37-.27.61-.85.94-.83h1l2.14 1.64-.11.94.63 1.68-.55 1.14.3.76-1.36 1.75-.86.86-.53 1.78.07 1.79z"/><path id="BW" class="cls-1" d="M547.42 516.2l.56.53.88 1.71 3.17 3.26 1.2.32v1.05l.83 1.9 2.17.46 1.79 1.36-4 2.22-2.52 2.27-.93 2-.84 1.15-1.53.24-.49 1.47-.28 1-1.79.72-2.28-.15-1.34-.87-1.18-.37-1.37.72-.69 1.48-1.33.93-1.4 1.39-2 .32-.62-1.1.26-1.89-1.69-2.95-.76-.46V526l2.76-.11.08-10.57 2.09-.1 4.32-1 1.07 1.21 1.79-1.15h.85l1.58-.66.5.22z"/><path id="CD" class="cls-1" d="M562 453.86l-.17 3.26 1.12.38-.9 1-1.08.74-1.07 1.45-.59 1.3-.16 2.24-.65 1.06v2.1l-.81.78-.1 1.66-.39.21-.26 1.52.71 1.27.18 3.37.5 2.57-.28 1.46.56 1.63 1.63 1.57 1.51 3.54-1.1-.29-3.77.48-.75.34-.8 1.8.63 1.25-.5 3.35-.35 2.85.76.51 2 1.11.77-.52.23 3.08h-2.15l-1.15-1.57-1-1.22-2.15-.4-.63-1.49-1.71.9-2.25-.4-.94-1.29-1.78-.26-1.31.07-.16-.88-1-.07-1.28-.17-1.74.43-1.22-.07-.69.26.15-3.37-.93-1-.21-1.73.41-1.7-.57-1.09-.05-1.77h-3.4l.24-1h-1.43l-.15.49-1.74.11-.7 1.64-.42.7-1.55-.4-.92.39-1.85.23-1.07-1.47-.65-.91-.8-1.68-.69-2.09L513 480l-1 .34-.81-.05-1.16.38-.39-.87.71-.3.09-1.22.46-.72 1-.59.74.28 1-1.07h1.53l.18.79 1 .49 1.65-1.75 1.63-1.36.71-.89-.09-2.3 1.22-2.71 1.29-1.43 1.85-1.34.32-.89.07-1 .46-1-.15-1.58.35-2.47.55-1.74.84-1.49.17-1.68.25-1.95 1.09-1.42 1.5-.9 2.31.95 1.79 1 2.05.27 2.09.54.84-1.69.39-.21 1.28.28 3.12-1.39 1.11.59.91-.08.42-.68 1-.24 2.11.29 1.8.06.92-.3 1.7 2.31 1.26.34.75-.47 1.3.18 1.56-.59.67 1.19z"/><path id="CF" class="cls-1" d="M518.34 442.91l2.32-.21.52-.72.46.05.7.64 3.53-1.08 1.19-1.1 1.46-1-.28-1 .79-.26 2.71.18 2.64-1.31 2-3.09 1.42-1.15 1.78-.48.32 1.21 1.62 1.77v1.15l-.46 1.18.18.88 1 .81 2.14 1.23 1.54 1.14v.91l1.89 1.46 1.17 1.21.71 1.68 2.1 1.11.45.89-.92.3-1.8-.06-2.11-.29-1 .24-.42.68-.91.08-1.11-.59-3.12 1.39-1.28-.28-.39.21-.84 1.69-2.09-.54-2.05-.27-1.79-1-2.31-.95-1.5.9-1.09 1.42-.25 1.95-1.8-.16-1.9-.47-1.67 1.48-1.47 2.6-.3-.81-.13-1.27-1.28-.9-1-1.44-.24-1-1.32-1.46.23-.83-.28-1.18.22-2.17.67-.51z"/><path id="CG" class="cls-1" d="M511.94 477l-1-1-.85.47-1.13 1.21-2.3-3 2.14-1.54-1.06-1.84 1-.7 1.89-.34.22-1.24 1.5 1.34 2.47.12.86-1.32.35-1.85-.31-2.17-1.33-1.65 1.21-3.23-.7-.55-2.09.23-.78-1.44.2-1.22 3.54.11 2.27.74 2.23.66.2-1.51 1.47-2.6 1.67-1.48 1.9.47 1.8.16-.17 1.68-.84 1.49-.55 1.74-.35 2.47.15 1.58-.46 1-.07 1-.32.89-1.85 1.34-1.29 1.43-1.22 2.71.09 2.3-.71.89-1.72 1.4-1.65 1.75-1-.49-.18-.79h-1.53l-1 1.07z"/><path id="CI" class="cls-1" d="M467.49 449.71h-1.28l-2-.55h-1.8l-3.32.49-1.95.81-2.78 1-.54-.07.22-2.3.27-.35-.09-1.1-1.19-1.17-.89-.19-.82-.77.61-1.24-.28-1.36.13-.82h.45l.17-1.23-.22-.54.27-.39 1-.34-.69-2.26-.65-1.17.22-1 .56-.22.37-.26.78.43h2.17l.52-.83.48.06.81-.32.43 1.21.65-.36 1.16-.42 1.26.62.49.94 1.26.6 1-.71 1.31-.11 1.92.73.74 4-1.1 2.48-.73 3.17 1.22 2.41z"/><path id="CM" class="cls-1" d="M512.17 457.32l-.35-.15-1.66.36-1.7-.37-1.33.18-4.56-.06.41-2.2-1.1-1.84-1.28-.47-.57-1.25-.72-.4v-.77l.72-2 1.33-2.7h.81l1.67-1.64h1.06l1.57 1.15 1.93-.95.26-1.17.63-1.13.43-1.42 1.5-1.16.57-2 .59-.63.4-1.47.74-1.81 2.36-2.2.15-.95.3-.51-1.11-1.14.09-.91.79-.16 1.12 1.83.19 1.89-.1 1.89 1.53 2.58h-1.57l-.79.2-1.28-.28-.61 1.33 1.66 1.65 1.22.48.39 1.17.89 1.94-.44.76-1.41 2.84-.67.51-.22 2.17.28 1.18-.23.83 1.32 1.46.24 1 1 1.44 1.28.9.13 1.27.3.81-.2 1.51-2.23-.66-2.27-.74z"/><path id="DJ" class="cls-1" d="M596.3 428l.66.88-.09 1.18-1.6.68 1.2.78-1 1.52-.62-.51-.67.2h-1.57v-.86l-.22-.78.95-1.34 1-1.26 1.2.25z"/><path id="DZ" class="cls-1" d="M509.15 396.34l-9.61 5.75-8.12 5.85-4 1.32-3.11.29v-1.88l-1.3-.48-1.74-.85-.67-1.39-9.46-6.55-9.46-6.65-10.55-7.52.05-.61v-3.96l4.53-2.36 2.8-.49 2.29-.86 1.07-1.62 3.28-1.28.12-2.42 1.62-.29 1.27-1.22 3.67-.55.51-1.29-.74-.7-1-3.53-.17-2.05-1.06-2.18 2.7-1.87 3-.6 1.77-1.42 2.7-1.06 4.75-.62 4.64-.28 1.41.52 2.64-1.38h3l1.14.81 1.92-.21-.57 1.79.45 3.29-.66 2.81-1.73 1.89.25 2.53 2.29 2v.8l1.73 1.33 1.19 5.86.91 2.84.15 1.48-.49 2.59.2 1.44-.26 1.64.24 2-1.11 1.3 1.66 2.26.11 1.32 1 1.71 1.31-.56 2.21 1.42z"/><path id="EG" class="cls-1" d="M573.42 377.53l-.79 1.29-.6 2.4-.76 1.65-.65.55-.93-1-1.28-1.42-2-4.58-.29.29 1.16 3.37 1.72 3.18 2.12 4.87 1 1.68.9 1.74 2.52 3.39-.56.53.09 2 3.27 2.71.49.62H545.6v-22.42l-.84-2.59.72-2-.48-1.39 1-1.57 3.73-.05 2.7.86 2.78 1 1.3.51 2.16-1 1.15-.94 2.47-.27 2 .41.76 1.62.65-1.07 2.25.77 2.19.18 1.38-.82z"/><path id="ER" class="cls-1" d="M594.25 428.42l-1-.92-1.15-1.68-1.24-.92-.72-1-2.44-1.15h-1.92l-.68-.6-1.64.68-1.7-1.31-.88 2.15-3.26-.6-.3-1.15 1.21-4.25.28-1.93.88-.89 2.07-.48 1.42-1.67 1.63 3.38.77 2.67 1.54 1.41 3.83 2.72 1.56 1.64 1.52 1.65.88 1 1.38.86-.85.7z"/><path id="ET" class="cls-1" d="M581.79 421.49l1.7 1.31 1.64-.68.68.6h1.92l2.44 1.15.72 1 1.24.92 1.15 1.68 1 .92-1 1.26-.95 1.34.22.78v.86h1.57l.67-.2.62.51-.61 1 1 1.56 1 1.36 1.07 1 9.17 3.34h2.36l-7.92 8.42-3.65.12-2.5 2-1.8.05-.77.88h-1.92l-1.13-.94-2.56 1.17-.83 1.16-1.87-.22-.62-.32-.66.08h-.89l-3.55-2.37h-2l-1-.92v-1.57l-1.46-.47-1.66-3-1.28-.65-.49-1.12-1.42-1.37-1.72-.2 1-1.6 1.49-.07.42-.86v-2.54l.83-3 1.33-.79.28-1.16 1.2-2.17 1.69-1.41 1.14-2.82.45-2.47 3.26.6z"/><path id="GA" class="cls-1" d="M506.61 474.73l-2.88-2.82-1.85-2.3-1.7-2.88.09-.93.61-.89.68-2 .57-2.07.95-.16h4.08v-3.35l1.33-.18 1.7.37 1.66-.36.35.15-.2 1.22.78 1.44 2.09-.23.7.55-1.21 3.23 1.33 1.65.31 2.17-.35 1.85-.86 1.32-2.47-.12-1.5-1.34-.22 1.24-1.89.34-1 .7 1.06 1.84z"/><path id="GH" class="cls-1" d="M478.48 447.1l-4.4 1.64-1.56 1-2.53.81-2.5-.79.13-1.1-1.22-2.41.73-3.17 1.18-2.36-.74-4-.38-2.13.07-1.61 4.87-.13 1.24.21.9-.46 1.3.23-.21.88 1.17 1.46v2.05l.27 2.22.7 1-.62 2.53.22 1.4.75 1.78z"/><path id="GM" class="cls-1" d="M428.28 426.68l.36-1.27 3.05-.08.63-.68h.89l1.11.71h.87l.92-.48.57.83-1.21.64-1.22-.05-1.2-.6-1 .66h-.5l-.67.4z"/><path id="GN" class="cls-1" d="M451.84 442.17l-.79-.07-.57 1.13h-.79l-.55-.6.19-1.13-1.17-1.72-.73.32-.6.06-.77.16v-1l-.45-.74.09-.82-.61-1.19-.78-1h-2.24l-.65.53-.77.06-.48.61-.32.78-1.5 1.24-1.23-1.67L436 436l-.72-.37-.7-.56-.32-1.25-.41-.62-.82-.47 1.25-1.38.85.05.73-.48h.62l.44-.38-.24-.94.31-.3.05-1h1.35l2 .7.62-.06.21-.32 1.53.23.4-.16.16 1h.44l.73-.38.46.1.78.72 1.2.23.77-.62.91-.38.67-.4.56.08.62.63.33.79 1.15 1.19-.58.73-.11.92.6-.28.35.33-.15.84.86.82-.56.22-.22 1 .65 1.17.69 2.26-1 .34-.27.39.22.54-.17 1.23z"/><path id="GQ" class="cls-1" d="M502.12 460.83l-.52-.42 1-3.13 4.56.06v3.35h-4.08z"/><path id="GW" class="cls-1" d="M433.08 432.7l-1.5-1.19-1.18-.19-.64-.8v-.43l-.85-.61-.18-.61 1.48-.46.93.09.75-.32 5.18.12-.05 1-.31.3.24.94-.44.38h-.62l-.73.48-.85-.05z"/><path id="KE" class="cls-1" d="M590.44 466l1.66 2.3-2 1.11-.69 1.16-1 .2-.4 2-.9 1.13-.55 1.86-1.13.92-4-2.79-.19-1.62-10.24-5.68-.47-.31v-3l.8-1.13 1.38-1.84 1-2-1.23-3.2-.33-1.4-1.33-1.94 1.72-1.67 1.9-1.84 1.46.47v1.57l1 .92h2l3.55 2.37h.89l.66-.08.62.32 1.87.22.83-1.16 2.56-1.17 1.13.94h1.92l-2.45 3.17z"/><path id="LR" class="cls-1" d="M453.88 451.47h-.73l-2.89-1.33-2.55-2.14-2.39-1.53-1.89-1.81.67-.9.15-.82 1.27-1.53 1.3-1.31.6-.06.73-.32 1.17 1.72-.19 1.13.55.6h.79l.57-1.13.79.07-.13.82.28 1.36-.61 1.24.82.77.89.19 1.19 1.17.09 1.1-.27.35z"/><path id="LS" class="cls-1" d="M556.75 548l1 1-.86 1.56-.48 1-1.56.5-.52 1-1 .32-2.1-2.48 1.49-2 1.52-1.25 1.31-.65z"/><path id="LY" class="cls-1" d="M517.14 398.18l-2 1.12-1.58-1.66-4.43-1.31-1.23-1.91-2.2-1.42-1.31.56-1-1.71-.11-1.32-1.66-2.26 1.11-1.3-.24-2 .36-1.72-.2-1.44.49-2.59-.15-1.48-.91-2.84 1.37-.75.24-1.37-.3-1.35 1.92-1.26.86-1.05 1.37-.95.16-2.55 3.3 1.18 1.18-.29 2.34.55 3.72 1.48 1.31 2.92 2.52.63 4 1.36 3 1.61 1.37-.84 1.34-1.49-.65-2.5.88-1.6 2-1.55 1.93-.45 3.79.68 1 1.48h1l.89.56 2.79.39.68 1.08-1 1.57.43 1.39-.72 2 .84 2.59v28.37h-3.22v1.24l-11.18-5.7-11.24-5.76z"/><path id="MA" class="cls-1" d="M471.61 366.57l-1-3.53-.17-2.05-1.06-2.18h-1.22l-2.9-.76-2.67.24-1.69-1.46h-2.06l-.88 2.1-1.87 3.51-2.09 1.34-2.81 1.53-1.8 2.25-.39 1.74-1 2.82.7 4-2.34 2.68-1.41.85-2.21 2.17-2.61.35-1.41 1.21h-.05l-1.78 3.2-1.89 1.2-1 1.92-.07 1.64-.74 1.79-.94.49-1.56 1.94-1 2.14.18 1-.92 1.57-1.08.82-.13 1.39-.12 1.26.61-1h11l-.53-4.34.69-1.56 2.63-.27-.09-7.85 9.2.16v-4.73l.05-.61v-3.96l4.53-2.36 2.8-.49 2.29-.86 1.07-1.62 3.28-1.28.12-2.42 1.62-.29 1.27-1.22 3.67-.55.51-1.29z"/><path id="MG" class="cls-1" d="M614.42 498.65l.74 1.21.69 1.89.45 3.46.72 1.35-.28 1.39-.5.85-1-1.7-.53.86.54 2.15-.25 1.23-.77.67-.18 2.48-1.1 3.43-1.32 4.08-1.73 5.67-1.07 4.21-1.27 3.55-2.28.73-2.45 1.3-1.61-.79-2.23-1.1-.77-1.62-.18-2.71-1-2.42-.26-2.17.5-2.16 1.29-.52v-1l1.34-2.26.25-1.89-.65-1.4-.51-1.82-.22-2.7 1-1.63.38-1.84 1.4-.11 1.56-.59 1-.52h1.23l1.6-1.65 2.31-1.78.84-1.45-.38-1.23 1.19.35 1.54-2 .05-1.72.93-1.27z"/><path id="ML" class="cls-1" d="M441.38 422.48l.94-.52.47-1.7.89-.07 2 .8 1.58-.57 1.08.19.42-.64h11.25l.62-2-.49-.36-1.35-12.69-1.35-13.06 4.29-.06 9.46 6.65 9.46 6.55.67 1.39 1.74.85 1.3.48v1.88l3.11-.29V416l-1.53 1.94-.24 1.79-2.49.46-3.83.25-1 1-1.8.11h-1.8l-.7-.55-1.54.41-2.62 1.2-.54.9-2.17 1.29-.38.74-1.18.58-1.36-.39-.77.7-.41 2-2.23 2.36.06 1-.76 1.2.19 1.65-1.16.42-.65.36-.43-1.21-.81.32-.48-.06-.52.83h-2.17l-.78-.43-.37.26-.86-.82.15-.84-.35-.33-.6.28.11-.92.58-.73-1.15-1.19-.33-.79-.62-.63-.56-.08-.67.4-.91.38-.77.62-1.2-.23-.78-.72-.46-.1-.73.38h-.44l-.16-1 .13-.89-.24-1.11-1-.8-.55-1.64z"/><path id="MR" class="cls-1" d="M441.38 422.48l-1.85-2-1.7-2.13-1.83-.75-1.34-.85h-1.57l-1.37.63-1.39-.25-1 .93-.24-1.57.78-1.44.35-2.75-.31-2.91-.34-1.47.28-1.48-.72-1.41-1.48-1.29.61-1h11l-.53-4.34.69-1.56 2.63-.27-.09-7.85 9.2.16v-4.73l10.55 7.52-4.29.06 1.35 13.06 1.35 12.69.49.36-.62 2h-11.25l-.42.64-1.08-.19-1.58.57-2-.8-.89.07-.47 1.7z"/><path id="MW" class="cls-1" d="M572.4 495.94l-.78 2.16.78 3.72h1l1 .93 1.17 2.08.24 3.71-1.21.61-.86 2-1.83-1.8-.21-2 .59-1.34-.16-1.15-1.11-.73-.77.26-1.61-1.38-1.47-.74.85-2.66.88-1-.54-2.36.56-2.3.48-.77-.71-2.4-1.32-1.26 2.75.53.56.78 1 1.32z"/><path id="MZ" class="cls-1" d="M572.4 495.94l2.11-.23 3.37.8.73-.36 2-.07 1-.85h1.68l3.07-1.1 2.23-1.64.45 1.27-.12 2.83.35 2.5.11 4.48.49 1.41-.84 2.06-1.09 2-1.78 1.8-2.6 1.16-3.16 1.42-3.17 3.15-1.08.54-2 2.1-1.15.69-.2 2.1 1.33 2.26.55 1.76v.9l.5-.15-.08 3-.46 1.41.66.52-.42 1.27-1.13 1.03-2.31 1-3.37 1.67-1.23 1.14.24 1.31.72.21-.24 1.64h-2.13l-.24-1.38-.42-1.39-.24-1.11.5-3.43-.73-2.17-1.3-4.24 3-3.4.74-2.15.42-.27.32-1.75-.45-.88.12-2.2.55-2v-3.7l-1.46-.93-1.33-.21-.61-.72-1.3-.61-2.34.06-.18-1.08-.27-2.05 8.51-2.37 1.61 1.38.77-.26 1.11.73.16 1.15-.59 1.34.21 2 1.83 1.8.86-2 1.21-.61-.24-3.71-1.17-2.08-1-.93h-1l-.78-3.72z"/><path id="NA" class="cls-1" d="M521.33 546.79l-2.08-2.39-1.1-2.29-.62-3-.69-2.24-.94-4.72-.06-3.63-.36-1.64-1.09-1.24-1.45-2.47-1.47-3.56-.61-1.86-2.28-2.87-.17-2.24 1.35-.55 1.68-.5 1.82.09 1.67 1.32.42-.21 11.37-.13 1.94 1.4 6.79.41 5.15-1.19 2.3-.66 1.82.17 1.11.66v.24l-1.58.66h-.85l-1.79 1.15-1.07-1.21-4.32 1-2.09.1-.08 10.57-2.76.11v20.38l-2.5 1.63-1.51.23-1.76-.6-1.26-.23-.47-1.36-1.11-.87z"/><path id="NE" class="cls-1" d="M481.54 430.14l.06-2-3.23-.65-.09-1.39-1.58-1.87-.38-1.31.22-1.4 1.8-.11 1-1 3.83-.25 2.49-.46.24-1.79 1.53-1.94v-6.75l4-1.32 8.12-5.85 9.61-5.75 4.43 1.31 1.58 1.66 2-1.12.69 4.68 1 .78v.95l1.17 1-.61 1.28-1.08 6-.15 3.8-3.58 2.74-1.21 3.8 1.17 1.06v1.85l1.8.07-.28 1.35-.79.16-.09.91-.52.06-1.9-3.13-.66-.11L510 427l-2.17-.83-1.51-.17-.81.4-1.64-.09-1.65 1.22-1.43.07-3.39-1.48-1.33.7h-1.43l-1.05-1.08-2.81-1.07-3 .34-.73.62-.39 1.65-.8 1.15-.2 2.54-2.14-1.64h-1z"/><path id="NG" class="cls-1" d="M499.34 450.33l-2.91 1-1.07-.15-1.08.63-2.24-.06-1.5-1.75-.92-2-2-1.85H483l.16-4.52-.07-1.79.53-1.78.86-.86 1.36-1.75-.3-.76.55-1.14-.63-1.68.11-.94.2-2.54.8-1.15.39-1.65.73-.62 3-.34 2.81 1.07 1.05 1.08h1.43l1.33-.7 3.39 1.48 1.43-.07 1.65-1.22 1.64.09.81-.4 1.51.17 2.26.87 2.19-1.6.66.11 1.9 3.13.52-.06 1.11 1.14-.3.51-.15.95-2.36 2.2-.74 1.81-.4 1.47-.59.63-.57 2-1.5 1.16-.43 1.42-.64 1.13-.26 1.17-1.93.95-1.57-1.15h-1.06l-1.67 1.64h-.81l-1.33 2.7z"/><path id="RW" class="cls-1" d="M560.79 466.8l1.11 1.57-.16 1.64-.81.35-1.49-.18-.86 1.59-1.7-.22.26-1.52.39-.21.1-1.66.81-.78.68.28z"/><path id="SD" class="cls-1" d="M570.73 437.16l-.39-.06v-1.41l-.34-1-1.44-1.12-.34-2 .34-2.1-1.3-.2-.19.64-1.68.15.67.83.24 1.71-1.54 1.56-1.4 2-1.44.29-2.36-1.65-1.06.58-.29.83-1.44.53-.1.58h-2.79l-.39-.58-2-.1-1 .48-.77-.24-1.44-1.65-.48-.78-2 .39-.77 1.31-.72 2.52-1 .53-.86.31-.23-.13-1-.81-.18-.88.46-1.18v-1.15l-1.62-1.77-.32-1.21v-.69l-1-.84v-1.65l-.59-1.1-1 .16.28-1L538 426l-.32-1.19.92-.88-.59-.67.74-1.78 1.28-2.13 2.42.2-.11-11.55v-1.24h3.22v-6h33.27l.9 2.94-.61.54.41 3.06 1 3.52 1.07.72 1.53 1.08-1.42 1.67-2.07.48-.88.89-.28 1.93-1.21 4.25.3 1.15-.45 2.47-1.14 2.82-1.69 1.41-1.2 2.17-.28 1.16-1.33.79-.83 3z"/><path id="SL" class="cls-1" d="M443.43 444.7l-.76-.21-2-1.13-1.46-1.51-.49-1-.34-2.08 1.5-1.24.32-.78.48-.61.77-.06.65-.53h2.24l.78 1 .61 1.19-.09.82.45.74v1l.77-.16-1.3 1.31-1.31 1.55-.15.82z"/><path id="SN" class="cls-1" d="M428.64 425.41l-1.16-2.24-1.4-1 1.23-.55 1.36-2 .67-1.49 1-.93 1.39.25 1.37-.63h1.57l1.34.85 1.86.77 1.7 2.13 1.85 2 .13 1.79.55 1.64 1 .8.24 1.11-.13.89-.4.16-1.53-.23-.21.32-.62.06-2-.7h-1.35l-5.18-.12-.75.32-.93-.09-1.48.46-.46-2.19 2.55.06.67-.4h.5l1-.66 1.2.6 1.22.05 1.21-.64-.57-.83-.92.48h-.87l-1.11-.71h-.89l-.63.68z"/><path id="SO" class="cls-1" d="M618.88 430.69l-.06-.79h-1.06l-1.33 1-1.49.29-1.29.42-.9.06-1.6.1-1 .52-1.39.19-2.47.88-3.05.34-2.64.73h-1.4l-1.27-1.19-.55-1.17-.91-.52-1 1.52-.61 1 1 1.56 1 1.36 1.07 1 9.17 3.34h2.36l-7.92 8.42-3.65.12-2.5 2-1.8.05-.77.88-2.45 3.17v10.15l1.66 2.3.63-.66.65-1.47 3.07-3.37 2.61-2.12 4.2-2.77 2.8-2.26 3.3-3.81 2.39-3.13 2.41-4.11 1.73-3.59 1.35-3.15.79-3.05.59-1v-1.49z"/><path id="SS" class="cls-1" d="M570.73 437.16v2.2l-.42.86-1.49.07-1 1.6 1.72.2 1.42 1.37.49 1.12 1.28.65 1.66 3-1.9 1.84-1.72 1.67-1.72 1.28h-2l-2.26.65-1.78-.62-1.15.76-2.37-1.81-.67-1.19-1.56.59-1.3-.18-.75.47-1.26-.34-1.7-2.31-.45-.89-2.1-1.11-.71-1.68-1.17-1.21-1.89-1.46v-.91l-1.54-1.14-1.91-1.1.86-.31 1-.53.72-2.52.77-1.31 2-.39.48.78 1.44 1.65.77.24 1-.48 2 .1.39.58h2.79l.1-.58 1.44-.53.29-.83 1.06-.58 2.36 1.65 1.44-.29 1.4-2 1.54-1.56-.24-1.71-.67-.83 1.68-.15.19-.64 1.3.2-.34 2.1.34 2 1.44 1.12.34 1v1.41z"/><path id="SZ" class="cls-1" d="M565.43 541l-.57 1.39-1.64.34-1.67-1.7v-1.08l.77-1.17.27-.9.81-.22 1.41.57.42 1.39z"/><path id="TD" class="cls-1" d="M516.15 427.52l.28-1.35-1.8-.07v-1.85l-1.17-1.06 1.21-3.8 3.58-2.74.15-3.8 1.08-6 .61-1.28-1.17-1v-.95l-1-.78-.69-4.68 2.83-1.66 11.18 5.78 11.18 5.7.14 11.61-2.42-.2-1.28 2.13-.74 1.78.59.67-.92.88.21 1.15-.73 1.19-.28 1 1-.16.59 1.1v1.65l1 .84v.69l-1.78.48-1.39 1.21-2 3.09-2.64 1.31-2.71-.18-.79.26.28 1-1.46 1-1.19 1.1-3.53 1.08-.7-.64-.46-.05-.52.72-2.32.21.44-.76-.89-1.94-.39-1.17-1.22-.48-1.66-1.65.61-1.33 1.28.28.79-.2h1.57l-1.53-2.58.1-1.89-.19-1.89z"/><path id="TG" class="cls-1" d="M480.73 446.5l-2.26.6-.63-1-.75-1.78-.22-1.4.62-2.53-.7-1-.27-2.22v-2.07l-1.17-1.46.21-.88 2.45.06-.36 1.49.86.84 1 1 .11 1.39.57.58-.13 6.46z"/><path id="TN" class="cls-1" d="M502.09 374.94l-1.19-5.86-1.73-1.33v-.8l-2.29-2-.25-2.53 1.73-1.89.66-2.81-.45-3.29.57-1.79 3.05-1.41 2 .42-.08 1.77 2.38-1.29.2.67-1.4 1.71v1.6l1 .86-.37 3-1.85 1.7.53 1.84 1.45.06.7 1.59 1.07.52-.16 2.55-1.37.95-.86 1.05-1.92 1.26.3 1.35-.24 1.37z"/><path id="TZ" class="cls-1" d="M570.56 466.29l.47.31 10.17 5.68.19 1.62 4 2.79-1.29 3.45.17 1.59 1.79 1 .08.73-.77 1.7.16.85-.18 1.34 1 1.77 1.16 2.79 1 .62-2.23 1.64-3.07 1.1h-1.68l-1 .85-2 .07-.73.36-3.37-.8-2.11.23-.78-3.86-1-1.32-.56-.78-2.75-.53-1.59-.85-1.78-.47-1.12-.47-1.17-.72-1.51-3.54-1.63-1.57-.56-1.63.28-1.46-.5-2.57 1.16-.13 1-1 1.09-1.46.69-.58v-.91l-.6-.63-.16-1.1.81-.35.16-1.64-1.11-1.57 1-.33h3.07z"/><path id="UG" class="cls-1" d="M564.85 466.5h-3.07l-1 .33-1.68.86-.68-.28v-2.1l.65-1.06.16-2.24.59-1.3 1.07-1.45 1.08-.74.9-1-1.12-.38.17-3.26 1.15-.76 1.78.62 2.26-.65h2l1.72-1.28 1.33 1.94.33 1.4 1.23 3.2-1 2-1.38 1.84-.8 1.13v3z"/><path id="ZA" class="cls-1" d="M563.88 549l-.55.46-1.19 1.63-.78 1.66-1.58 2.25-3.17 3.38-2 2-2.12 1.51-2.93 1.3-1.43.17-.36.93-1.7-.5-1.39.64-3-.65-1.7.41-1.16-.18-2.89 1.33-2.39.53-1.73 1.28-1.28.08-1.19-1.21-.95-.06-1.21-1.51-.18.55-.37-.91v-2l-.91-2.23.91-.6-.07-2.53-1.84-3.05-1.37-2.68-2-4.15 1.34-1.57 1.11.87.47 1.36 1.26.23 1.76.6 1.51-.23 2.5-1.63V534.9l.76.46 1.66 2.93-.26 1.89.63 1.1 2-.32 1.4-1.39 1.33-.93.69-1.48 1.37-.72 1.18.38 1.34.86 2.28.15 1.79-.72.28-1 .49-1.47 1.53-.25.84-1.15.93-2 2.52-2.27 4-2.22h1.14l1.36.51.95-.36 1.49.3 1.34 4.26.73 2.17-.5 3.43.24 1.11-1.41-.57-.81.22-.27.9-.77 1.17v1.08l1.67 1.7 1.64-.34.57-1.39h2.13l-.7 2.28-.33 2.62-.73 1.43zm-7.13-1l-1.22-1-1.31.65-1.52 1.25-1.49 2 2.1 2.48 1-.32.52-1 1.56-.5.48-1 .86-1.56z"/><path id="ZM" class="cls-1" d="M567.35 489.46l1.32 1.26.71 2.4-.48.77-.56 2.3.54 2.36-.88 1-.85 2.66 1.47.74-8.51 2.37.27 2.05-2.12.4-1.6 1.15-.34 1-1 .23-2.44 2.4-1.55 1.89-.95.07-.91-.34-3.13-.32-.5-.22v-.24l-1.11-.66-1.82-.17-2.3.66-1.83-1.82-1.91-2.4.13-9.16h5.84l-.24-1 .42-1.07-.49-1.34.32-1.38-.3-.88 1 .07.16.88 1.31-.07 1.78.26.94 1.29 2.25.4 1.71-.9.63 1.49 2.15.4 1 1.22 1.15 1.57h2.15l-.23-3.08-.77.52-2-1.11-.76-.51.35-2.85.5-3.35-.63-1.25.8-1.8.75-.34 3.77-.48 1.1.29 1.17.72 1.12.47 1.78.47z"/><path id="ZW" class="cls-1" d="M563 527.25l-1.49-.3-.95.36-1.36-.51h-1.14l-1.79-1.36-2.17-.46-.83-1.9V522l-1.2-.32-3.17-3.26-.88-1.71-.56-.53-1.08-2.34 3.13.32.91.34.95-.07 1.55-1.89 2.44-2.4 1-.23.34-1 1.6-1.15 2.12-.4.18 1.08 2.34-.06 1.3.61.61.72 1.33.21 1.46.93v3.7l-.55 2-.12 2.2.45.88-.32 1.75-.42.27-.74 2.15z"/></a><a id="on-mobile-map-indian-ocean"><title>Indian Ocean</title><path class="cls-oc" d="M624.25 452.25a32.24 32.24 0 0 1-10 14c-7.13 5.56-12.95 4.55-16 10-2.71 4.84-2.07 12.68 2 16 6.12 5 16.32-3.26 22 2 2.14 2 2.43 5 3 11 .75 7.86-.42 13.07-1 18a71.59 71.59 0 0 0 1 23c4.14 17.89 25.67 30.41 43 34 13.67 2.83 24.41 0 40-4 13.93-3.61 23-6 31-14 7.67-7.71 5.13-11.4 16-24 7.16-8.3 10.55-9.35 15-17 3.9-6.7 7.94-13.64 6-20-3.78-12.38-25.61-7.6-35-23-1.16-1.9-.19-.93-5-26-2.83-14.72-4.33-21.18-10-26-.73-.62-7.39-6.16-12-4-5.71 2.68-5.07 15.64-5 17 .35 7.09 2.69 9.21 1 12-2.65 4.39-11.34 4-16 3-10.92-2.32-16.69-11.49-17-12-4.21-6.91-1.14-9.54-6-21-2.25-5.32-4.22-9.79-9-13-1.12-.76-7.63-5.13-14-3-2.08.69-4.92 2.34-12 16-3.19 6.15-5.49 11.38-7 15z"/></a></svg>