<svg id="map__latin-america" xmlns="http://www.w3.org/2000/svg" viewBox="0 0 231.1 284.2"><style>.st0{fill:#c6c4c4}</style><g id="on-desktop-map-latin-america"><path id="AR" class="st0" d="M144.7 282.2l-2.7.2-1.4-1.7-1.7-.1h-3V270l1.1 2.2 1.4 3.5 3.6 2.9 3.9 1.2-1.2 2.4zm1.5-122.5l1.6 2.2 1.1-2.4 3.2.1.5.6 5.1 5 2.3.5 3.4 2.3 2.9 1.2.4 1.4-2.8 4.7 2.8.8 3.1.5 2.2-.5 2.5-2.4.5-2.7 1.4-.6 1.4 1.8-.1 2.5-2.4 1.7-1.9 1.3-3.2 3.1-3.7 4.3-.7 2.6-.8 3.4v3.3l-.6.7-.2 2.2-.2 1.8 3.6 2.9-.4 2.4 1.8 1.5-.1 1.7-2.7 4.6-4.2 1.9-5.6.8-3.1-.4.6 2.2-.6 2.7.5 1.8-1.7 1.3-2.9.5-2.7-1.3-1.1 1 .4 3.7 1.9 1.1 1.5-1.2.8 2-2.6 1.1-2.2 2.4-.4 3.9-.7 2.1h-2.7l-2.2 2-.8 3 2.8 3 2.7.8-1 3.7-3.3 2.4-1.8 5-2.6 1.7-1.1 2.1.9 4.6 1.9 2.6-1.2-.2-2.6-.7-6.8-.6-1.2-2.6v-3.3l-1.9.3-1-1.6-.2-4.6 2.1-1.9.9-2.7-.3-2.1 1.5-3.5 1-5.3-.3-2.3 1.2-.8-.3-1.5-1.3-.8.9-1.6-1.3-1.5-.6-4.4 1.1-.8-.5-4.5.7-3.8.8-3.2 1.7-1.3-.9-3.5v-3.2l2.1-2.3-.1-2.9 1.6-3.3V195l-.7-.6-1.3-5.7 1.7-3.3-.3-3.1 1-2.9 1.8-3 2-2-.8-1.2.6-1-.1-5.1 3-1.5 1-3.2-.3-.8 2.3-2.7 4.3.8z"/><path id="BO" class="st0" d="M152.2 159.6l-3.2-.1-1.1 2.4-1.6-2.2-3.7-.7-2.3 2.7-2 .4-1.1-4.2-1.5-3.3.9-2.9-1.5-1.2-.4-2.1-1.4-2 1.8-3.1-1.2-2.4.6-1-.5-1.1 1.1-1.4V135l.1-2 .6-1-2.4-4.6 2.1.2 1.4-.1.6-.9 2.5-1.1 1.5-1.1 3.7-.5-.3 2.1.4 1.1-.3 1.9 3 2.5 3.1.5 1.1 1.1 1.9.6 1.2.8h1.8l1.6.9.2 1.6.5.8v1.2h-.8l1.1 3.4 5.4.1-.4 1.7.3 1.1 1.5.8.7 1.8-.5 2.3-.8 1.3.3 1.7-.9.6v-.8l-2.6-1.5H160l-4.9.9-1.4 2.6-.1 1.6-1.1 3.6-.3-.6z"/><a><path id="BR" class="enable st0" d="M166.8 185l3.7-4.4 3.2-3.1 1.9-1.3 2.4-1.7.1-2.5-1.4-1.8-1.4.6.5-1.8.4-1.8v-1.7l-1-.5-1 .5-1-.1-.3-1.2-.3-2.8-.5-.9-1.9-.8-1.1.6-3-.6.2-4.1-.8-1.7.9-.6-.3-1.7.8-1.3.5-2.3-.7-1.8-1.5-.8-.3-1.1.4-1.7-5.4-.1-1.1-3.4h.8v-1.2l-.6-.9-.1-1.7-1.6-.9h-1.8l-1.2-.8-1.9-.6-1.1-1.1-3.1-.5-3-2.5.2-1.9-.4-1.1.3-2.1-3.7.5-1.5 1.1-2.5 1.1-.6.9-1.4.1-2.1-.2-1.6.5-1.3-.3.2-4.3-2.3 1.7-2.5-.1-1.2-1.4-1.9-.2.6-1.2-1.6-1.7-1.2-2.5.7-.5V116l1.7-.8-.3-1.5.7-1 .2-1.3 3.2-1.9 2.3-.5.4-.4 2.5.1 1.3-7.6.1-1.2-.4-1.6-1.2-1v-2l1.6-.5.6.3.1-1.1-1.6-.3V92l5.5.1.9-1 .8.9.5 1.6.5-.3 1.5 1.5 2.2-.2.5-.9 2.1-.6 1.1-.5.3-1.2 2-.8-.1-.6-2.4-.2-.4-1.8.1-1.9-1.3-.7.5-.3 2.1.4 2.2.7.8-.7 2-.4 3.1-1 1-1.1-.4-.8 1.5-.1.6.6-.4 1.2 1 .4.6 1.3-.8 1-.5 2.4.7 1.4.2 1.3 1.8 1.3 1.4.1.3-.5.9-.1 1.3-.5.9-.7 1.5.2.7-.1 1.5.2.2-.6-.5-.5.3-.8 1.1.2 1.3-.3 1.6.6 1.2.6.9-.8.6.1.4.8 1.3-.2 1.1-1.1.9-2 1.7-2.5 1-.1.7 1.5 1.6 4.9 1.5.5.1 1.9-2.2 2.2.9.8 5 .4.1 2.8 2.1-1.8 3.5 1 4.7 1.7 1.4 1.6-.5 1.5 3.3-.9 5.5 1.5 4.2-.1 4.1 2.3 3.6 3.1 2.2.8 2.4.1 1 .9 1 3.6.5 1.7-1.2 4.7-1.4 1.8-4 3.9-1.8 3.2-2.1 2.5-.7.1-.8 2.1.2 5.4-.8 4.5-.3 1.9-.9 1.2-.5 3.9-2.8 3.9-.5 3.1-2.3 1.3-.7 1.8h-3l-4.4 1.2-2 1.3-3.1.9-3.3 2.4-2.4 3.1-.4 2.3.5 1.7-.5 3.2-.6 1.5-2 1.8-3.1 5.7-2.5 2.6-1.8 1.5-1.3 3.2-1.9 1.9-.8-1.9 1.2-1.6-1.6-2.3-2.2-1.8-2.9-2.1-1 .1-2.8-2.5-1.4.5z"/></a><path id="BS" class="st0" d="M111 28.5l-.7.1-.7-1.8-1.1-.9.6-2 .8.1 1 2.5v2zm-.8-8.7l-3.1.5-.2-1.1 1.3-.2 1.8.1.2.7zm2.3 0L112 22l-.5-.4V20l-1.3-1.2v-.4l2.3 1.4z"/><path id="BZ" class="st0" d="M78.4 46.2v-.4l.3-.1.5.4 1-1.8h.5v.4h.5v.8l-.4 1.3.2.5-.3 1 .2.3-.3 1.5-.6.8-.5.1-.6 1h-.8l.2-3.3.1-2.5z"/><path id="CL" class="st0" d="M135.9 270v10.6h3l1.7.1-.9 2-2.4 1.5-1.4-.2-1.7-.4-2-1.5-2.9-.7-3.5-2.7-2.9-2.5-3.9-5.2 2.3 1 3.9 3.1 3.7 1.7 1.5-2.2.9-3.2 2.6-1.9 2 .5zm1.2-112l1.1 4.2 2-.4.3.8-1 3.2-3 1.5.1 5.1-.6 1 .8 1.2-2 2-1.8 3-1 2.9.3 3.1-1.7 3.3 1.3 5.7.7.6v3.1l-1.6 3.3.1 2.9-2.1 2.3v3.2l.9 3.5-1.7 1.3-.8 3.2-.7 3.8.5 4.5-1.2.7.6 4.4 1.3 1.5-.9 1.6 1.3.8.3 1.5-1.2.8.3 2.3-1 5.3-1.5 3.5.3 2.1-.9 2.7-2.1 1.9.2 4.6 1 1.6 1.9-.3v3.3l1.2 2.6 6.8.6 2.6.7h-2.5l-1.4 1.1-2.5 1.7-.5 4.4-1.2.1-3.2-1.5-3.2-3.2-3.5-2.6-.9-2.9.8-2.6-1.4-2.9-.4-7.3 1.2-4 3-3.2-4.3-1.2 2.7-3.6 1-6.6 3.1 1.4 1.5-8-1.9-1-.9 4.8-1.8-.5.9-5.4 1-6.8 1.3-2.5-.8-3.5-.2-4 1.2-.1 1.7-5.6 1.9-5.4 1.2-5-.6-4.9.8-2.7-.3-4 1.6-3.9.5-6 .9-6.4.9-6.8-.2-4.9-.6-4.2 1.4-.8.8-1.5 1.4 2 .4 2.1 1.5 1.2-.9 2.9 1.4 3.3z"/><path id="CO" class="st0" d="M117 97.1l-1.2-.7-1.4-.9-.8.4-2.4-.4-.7-1.2h-.5l-2.8-1.6-.4-.9 1-.2-.1-1.4.7-1 1.4-.2 1.2-1.8 1.1-1.5-1-.7.5-1.6-.6-2.4.6-.7-.4-2.4-1.1-1.5.4-1.4.9.2.5-.8-.6-1.7.3-.4 1.5.1 2.1-2 1.1-.3v-.9l.5-2.4 1.6-1.3h1.8l.2-.6 2.2.2 2.2-1.4 1.1-.6 1.4-1.4 1 .2.7.8-.5 1-1.8.5-.7 1.4-1.1.8-.8 1-.3 2-.8 1.6 1.5.2.4 1.3.6.6.2 1.1-.3 1 .1.6.7.2.7 1 3.6-.3 1.6.4 2 2.4 1.1-.3 2 .1 1.6-.3 1 .5-.5 1.5-.6.9-.2 2 .6 1.9.8.8.1.6-1.4 1.4 1 .6.8 1 .9 2.8-.5.3-.5-1.6-.8-.9-.9 1-5.5-.1v1.7l1.6.3-.1 1.1-.6-.3-1.6.5v2l1.2 1 .4 1.6-.1 1.2-1.3 7.6-1.4-1.5-.8-.1 1.8-2.8-2.1-1.3-1.7.2-1-.5-1.5.7-2.1-.4-1.7-2.9-1.3-.7-.9-1.3-1.9-1.3-1 .6z"/><path id="CR" class="st0" d="M95.7 73.7l-1.5-.7-.6-.6.4-.4-.1-.6-.8-.7-1.1-.6-1-.4-.2-.8-.7-.5.2.8-.6.7-.6-.8-.9-.3-.4-.6v-.9l.4-.9-.8-.4.6-.5.4-.4 1.9.8.6-.4.9.2.5.6.8.2.7-.6.7 1.5 1.1 1.1 1.3 1.2-1.1.2V71l.6.4-.5.6.1.5-.2.6-.1.6z"/><path id="CU" class="st0" d="M97.7 30.2l2.4.2h2.2l2.6 1 1.1 1.1 2.6-.3 1 .7 2.4 1.9 1.7 1.4h.9l1.7.6-.2.8 2.1.1 2.1 1.2-.3.7-1.9.4-1.9.1-1.9-.2-4 .3 1.9-1.7-1.1-.8-1.8-.2-1-.9-.7-1.7-1.6.1-2.6-.8-.8-.6-3.6-.4-1-.6 1.1-.8-2.8-.1-2 1.6h-1.2l-.4.7-1.4.3-1.2-.3 1.5-.9.6-1.1 1.3-.7 1.4-.6 2.1-.3.7-.2z"/><path id="DO" class="st0" d="M127.3 40.6l.4-.5h2.2l1.7.8.7-.1.5 1 1.5-.1-.1.9 1.2.1 1.4 1.1-1 1.2-1.3-.6-1.3.1-.9-.1-.5.5-1.1.2-.4-.7-.9.4-1.1 2-.7-.5-.1-.8.1-.8-.7-.9.7-.5.2-1.1-.5-1.6z"/><path id="EC" class="st0" d="M103.2 106.1l1.5-2.1-.6-1.2-1.1 1.3-1.7-1.2.6-.8-.5-2.5 1-.4.5-1.7 1.1-1.8-.2-1.1 1.5-.6 1.9-1.1 2.8 1.6h.5l.7 1.2 2.4.4.8-.4 1.4.9 1.2.7.4 2.1-.9 1.8-3.1 2.9-3.4 1.1-1.7 2.4-.5 1.9-1.6 1.1-1.2-1.4-1.1-.3-1.2.2-.1-1 .8-.7-.2-1.3z"/><path id="FK" class="st0" d="M156.8 266.4l3.4-2.7 2.4 1.1 1.7-1.8 2.2 2-.8 1.6-3.7 1.4-1.3-1.6-2.4 2-1.5-2z"/><path id="GF" class="st0" d="M181 89.7l-1.1 1.1-1.3.2-.4-.8-.6-.1-.9.8-1.2-.6.7-1.2.2-1.3.5-1.2-1-1.6-.2-1.9 1.5-2.4 1 .3 2.1.7 3 2.4.5 1.1-1.8 2.5-1 2z"/><path id="GT" class="st0" d="M75.8 58l-1.4-.5h-1.8l-1.3-.6-1.5-1.2.1-.8.3-.7-.4-.5 1.4-2.4h3.6l.1-1-.4-.2-.5-.6-1-.7-1-1h1.3v-1.6h5.2v2.3l-.2 3.3h.8l.9.5.2-.4.8.4-1.3 1.1-1.3.8-.2.5.2.6-.5.7-.7.2.1.3-.5.3-1 .7v.5z"/><path id="GY" class="st0" d="M160.9 73.3l1.8 1 1.7 1.8.1 1.5 1.1.1 1.5 1.4 1.1 1-.5 2.5-1.7.7.1.7-.5 1.4 1.2 2h.9l.4 1.6 1.7 2.4-.7.1-1.5-.2-.9.7-1.3.5-.9.1-.3.5-1.4-.1-1.7-1.3-.2-1.3-.7-1.4.5-2.4.8-1-.6-1.3-1-.4.4-1.2-.6-.6-1.5.1-1.9-2.1.8-.8-.1-1.3 1.7-.5.7-.5-1-1 .2-1 2.3-1.7z"/><path id="HT" class="st0" d="M123.2 40l1.7.1 2.4.5.2 1.6-.2 1.1-.7.5.7.9-.1.8-1.9-.5-1.3.2-1.7-.2-1.3.5-1.5-.9.2-1 2.6.4 2.1.2 1-.6-1.3-1.3v-1.1l-1.8-.5.9-.7z"/><path id="JM" class="st0" d="M110.9 44.2l1.9.3 1.5.7.5.8h-2l-.9.5-1.6-.5-1.6-1.1.3-.7 1.2-.2.7.2z"/><path id="MX" class="st0" d="M56 22l-1.1 2.7-.5 2.2-.2 4.1-.3 1.5.5 1.6.9 1.5.6 2.3 1.9 2.2.7 1.7 1.1 1.5 3 .8 1.2 1.2 2.5-.8 2.1-.3 2.1-.5 1.8-.5 1.8-1.2.7-1.7.2-2.5.5-.9 1.9-.8 3-.7 2.5.1 1.7-.2.7.6-.1 1.4-1.8 1.7-.7 1.8.5.5-.4 1.3-.7 2.3-.7-.8h-1.1l-1 1.8-.5-.4-.3.1v.4h-5.2v1.6H72l1 1 1 .7.3.6.4.2-.1 1H71l-1.4 2.4.4.5-.3.7-.1.8-3.2-3.1-1.4-.9-2.2-.7-1.6.2-2.2 1.2-1.4.3-2-.8-2.1-.5-2.6-1.3-2.1-.4-3.2-1.4-2.4-1.4-.7-.8-1.5-.2-2.9-.9-1.1-1.3-3-1.7-1.4-1.9-.7-1.5.9-.3-.3-.9.6-.8v-1l-.9-1.4-.2-1-1-1.5-2.5-3-2.7-2.5-1.4-1.9-2.4-1.3-.5-.8.4-1.9-1.4-.7-1.6-1.4-.7-2.2-1.5-.3-1.7-1.7-1.3-1.5-.1-1-1.5-2.4-1-2.5V5.1l-2-1.3-1 .2-1.6-.9-.4 1.3.5 1.6.3 2.4 1 1.3 2.1 2.2.5.8.4.2.4 1.1h.5l.6 2 .9.8.6 1.1 1.8 1.6.9 2.9.8 1.4.8 1.4.1 1.6 1.4.1 1.1 1.4 1 1.4-.1.5-1.2 1.1H20l-.7-1.8-1.8-1.7-2-1.5-1.4-.8.1-2.2-.4-1.7-1.3-1-1.9-1.4-.4.4-.7-.8-2.1-.8-1.6-1.8.2-.3 1.1.2 1-1.2.1-1.4L6 11.2l-1.6-.9-1-2-1-2.1-1.3-2.6L0 .6 3.2.4 6.8 0l-.3.6 4.2 1.6 6.4 2.3h7.8V3.2h4.9l1 1.2 1.4 1 1.7 1.4.9 1.7.7 1.8 1.4 1 2.3 1L41 9.7l2.3-.1 2 1.3 1.4 2.2 1 1.9 1.6 1.8.7 2.2.8 1.5 2.2 1 2 .7 1-.2z"/><path id="NI" class="st0" d="M88 65.6l-1-.9-1.3-1.1-.6-1-1.2-.9-1.4-1.3.3-.4.5.4.2-.2.9-.1.4-.6h.4l-.1-1.4.7-.1h.6l.6-.8.8.6.3-.4.5-.3 1-.8v-.6h.3l.4-.7.3-.1.5.4.6.1.6-.4h.7l1-.4.4-.4 1 .1-.4.3-.1.6.3 1-.6 1-.3 1.1-.1 1.3.1.7.1 1.3-.5.4-.3 1.2.2.8-.6.7.1.8.4.5-.7.6-.8-.2-.5-.6-.7-.2-.6.4-1.9-.8-.5.4z"/><path id="PA" class="st0" d="M110 76.5l-.9-.8-.6-1.5.7-.8-.7-.2-.5-.9-1.4-.8-1.2.2-.6 1-1.1.7-.6.1-.3.6 1.3 1.5-.8.4-.4.4-1.3.1-.5-1.7-.4.5-.9-.2-.6-1.1-1.1-.2-.7-.3h-1.2l-.1.6-.3-.4.1-.6.2-.6-.1-.4.4-.3-.6-.4v-1.1l1.1-.2 1 1-.1.6 1.1.1.3-.2.8.7 1.4-.2 1.2-.7 1.7-.6 1-.8 1.6.2-.1.3 1.6.1 1.2.5.9.9 1 .8-.3.4.6 1.7-.5.8-.9-.2-.4 1z"/><path id="PE" class="st0" d="M133.2 146.4l-.8 1.5-1.4.8-2.8-1.7-.2-1.2-5.6-2.9-5-3.2-2.2-1.8-1.2-2.4.5-.8-2.4-3.8-2.8-5.2-2.6-5.6-1.1-1.3-.9-2.1-2.2-1.8-2-1.1.9-1.2-1.4-2.7.9-2 2.2-1.8.3 1.2-.8.7.1 1 1.2-.2 1.1.3 1.2 1.4 1.6-1.1.5-1.9 1.7-2.4 3.4-1.1 3.1-2.9.9-1.8-.4-2.1.8-.3 1.9 1.3.9 1.3 1.3.7 1.6 2.9 2.1.4 1.5-.7 1 .5 1.7-.2 2.1 1.3-1.8 2.8.8.1 1.4 1.5-2.5-.1-.4.4-2.3.5-3.2 1.9-.2 1.3-.7 1 .3 1.5-1.7.8v1.2l-.7.5 1.2 2.5 1.6 1.7-.6 1.2 1.9.2 1.1 1.5 2.5.1 2.3-1.7-.2 4.3 1.3.3 1.6-.5 2.4 4.6-.6 1-.1 2v2.4l-1.1 1.4.5 1.1-.6 1 1.2 2.4-2.1 3.1z"/><path id="PR" class="st0" d="M142.5 44.2l1.4.3.5.6-.7.7h-2.1l-1.6.1-.2-1.3.4-.4h2.3z"/><path id="PY" class="st0" d="M152.6 160.2l1.1-3.6.1-1.6 1.4-2.6 4.9-.9h2.6l2.6 1.5v.9l.8 1.7-.2 4.1 3 .6 1.1-.6 1.9.8.5.9.3 2.8.3 1.2 1 .1 1-.5 1 .5v1.7l-.4 1.8-.5 1.8-.5 2.7-2.5 2.4-2.2.5-3.1-.5-2.8-.8 2.8-4.7-.4-1.4-2.9-1.2-3.4-2.3-2.3-.5-5.2-4.8z"/><path id="SR" class="st0" d="M168.1 80l3.4.6.3-.5 2.3-.2 3 .8-1.5 2.4.2 1.9 1.1 1.6-.5 1.2-.2 1.3-.7 1.2-1.6-.6-1.3.3-1.1-.2-.3.8.5.5-.2.6-1.5-.2-1.7-2.4-.4-1.6h-.9l-1.2-2 .5-1.4-.1-.7 1.7-.7.2-2.7z"/><path id="TT" class="st0" d="M155.4 66.5l1.6-.4.6.1-.1 2.1-2.3.3-.5-.3.8-.8-.1-1z"/><path id="UY" class="st0" d="M166.8 185l1.8-.3 2.8 2.5 1-.1 2.9 2.1 2.2 1.8 1.6 2.2-1.2 1.6.8 1.9-1.2 2.1-3.2 1.9-2.1-.7-1.5.4-2.6-1.4-1.9.1-1.7-1.9.2-2.2.6-.7V191l.8-3.4.7-2.6z"/><path id="VE" class="st0" d="M128.4 63.6l-.1.7-1.6.3.9 1.3v1.5l-1.3 1.6 1.1 2.2 1.2-.2.6-2-.9-1-.1-2.1 3.5-1.1-.4-1.3 1-.9 1 2h2l1.8 1.6.1.9h2.5l3-.3 1.6 1.3 2.1.4 1.6-.9v-.7l3.5-.2h3.4l-2.4.8 1 1.3 2.2.2 2.1 1.4.5 2.3 1.5-.1 1.1.7-2.2 1.6-.2 1 1 1-.7.5-1.7.5.1 1.3-.8.8 1.9 2.1.4.8-1 1.1-3.1 1-2 .4-.8.7-2.2-.7-2.1-.4-.5.3 1.3.7-.1 1.9.4 1.8 2.4.2.1.6-2 .8-.3 1.2-1.1.5-2.1.6-.5.9-2.2.2-1.7-1.4-.9-2.8-.8-1-1-.6 1.4-1.4-.1-.6-.8-.8-.6-1.9.2-2 .6-.9.5-1.5-1-.5-1.6.3-2-.1-1.1.3-2-2.4-1.6-.4-3.6.3-.7-1-.7-.2-.1-.6.3-1-.2-1.1-.6-.6-.4-1.3-1.4-.2.8-1.6.3-2 .8-1 1.1-.8.7-1.4 1.7-.9z"/></g></svg>