<svg id="map__india-beyond" xmlns="http://www.w3.org/2000/svg" viewBox="0 0 115.38 95.69"><defs><style>.st0{fill:#c6c4c4}</style></defs><title>map__india-beyond</title><g id="on-desktop-map-india-beyond"><path id="BD" class="st0" d="M68.68 48.66l-.06 2.15-1-.45.18 2.4-.8-1.56-.16-1.52-.53-1.45-1.17-1.76-2.58-.12.26 1.24-.88 1.67-1.19-.61-.41.55-.79-.33-1.09-.27-.46-2.48-1-2.28.5-1.84-1.72-.82.62-1.12 1.75-1.15-2-1.64 1-2.11 2.22 1.34 1.34.15.29 2.15 2.67.42h2.6l1.62.53-1.29 2.59-1.25.18-.87 1.73L66 45.82l.46-1.94h.77z"/><a><path id="IN" class="enable st0" d="M81.94 30.68l-.21-1.2-3-.47 1-1.34-1.31-2-2 1.33-2.42-.79-3.23 2-2.55 2.36L66 31l1.14 1-.2 1.92-2.34.08-2.37-.21-1.76.49-2.55-1.19-.06-.63-.24-2.46-1.71.66-.22 1.34.37 2-.32 1.23H53.4l-3.4-.71-2.17-.3-1.62-1.59-3.84-.41-3.66-1.77L36.12 29l-2.72-1.2 1.09-3 1.78-1.46-3.9-2.26L29.62 19v-.12l-.12.12.88 1.38-1.94-.62-1.5 1.13.13 1.38-.69.44-1.25-.44-3.19 2.56-5.75-.83-.25-1.25L14.79 24 13 27.25l-2.9 3.33-3.26-.24-3.09 3.29L5.58 35l.32 2.39L7.48 39 8 41.63H1.87l-1.87 2 3.29 2.57.83 1.19-1.35 1.09 3.66 3.63 2 .36 4.08-1.79.54 2.79v3.59l.84 3.76 1.16 5.65 2.55 4 .48 1.8.7 3.58 1.49 2.74 1 1.35 1.07 2.86 1.3 4 2.65 2.63 1.13-.81.94-1.92 2.56-.8-.85-.9 1.28-2.16 1.45-.14v-4.86l1.2-2.71-.15-2.38-.59-3.75.84-2.2 1.31-.15 2.53-1 1.4-.72V63.6l2.79-1.91 2.11-1.85 3.1-3.54 4-2 1.5-1.76-.16-2.25 3.46-.62h1.91l.4-1.1-.45-2.48-1-2.28.49-1.81-1.72-.82.62-1.18 1.75-1.15-2-1.64 1-2.11 2.22 1.34 1.34.15.3 2.18 2.67.42h2.6l1.62.53-1.29 2.59-1.25.18-.87 1.73L66 45.79l.46-1.94h.77l1.48 4.8 1.38-.71-.3-1.28.63-1 .11-3.15 2.19.7 1.25-2.52.14-1.5 1.55-2.59-.09-1.78 3.63-2.16 2 .57-.23-1.93z"/></a><a><path id="KA" class="enable st0" d="M31.34 10.54l.34-.56v-.81l1.38-.81.72-2.81-1.16-.84L31 4.18l-1.62.38L27 5.72l-4.59-1.39-.83-2.66L19.57 0l-1.63.39-1.43.61-.4.05-2.52.84-1.69 2.48 4.5 2.69-2 2.31.6 4.44 2.56 1.06h.05l2.26 1.63-2.39 1.9v2.33l-1.61 1.92.25 1.25 5.75.88L25 22.22l1.25.44.69-.44-.12-1.37 1.5-1.12 1.94.63-.85-1.36.12-.11-.76-3.51.85.19.48.69.44-.16.59-.34.69-.75-.59-1.41v-.47l-.69-.13-.54-.44.31-.94-.31-.94.19-.22z"/></a><a><path id="LK" class="enable st0" d="M38.16 90.63l-.42 2.92-1.17.8-2.44.65-1.34-2.23-.5-4 1.27-4.58 1.94 1.57 1.31 2z"/></a><path id="MM" class="st0" d="M88 54.2l-1.61 1.29-2 .13-1.28 3.19-1.18.53 1.36 2.57L85 64l1.17 2-1 2.52-1 .53.67 1.45 1.87 2.28.32 1.6v1.33l1.1 2.6-1.54 2.65-1.36 2.91-.23-2.14.86-2.17-.94-1.68.23-3.11L84 73.29l-.91-3.44-.51-3.65-1.21-2.41-1.85 1.46-3.22 2.07-1.57-.26-1.73-.68 1-3.6-.66-2.78-2.2-3.39.34-1.07-1.64-.38-2-2.42-.18-2.4 1 .45.06-2.15 1.38-.71-.3-1.28.63-1 .11-3.15 2.19.7L74 40.68l.14-1.5 1.55-2.59-.09-1.78 3.63-2.16 2 .57-.23-1.93 1-.58-.21-1.2 1.64-.24.94 1.86 1.22.75.08 2.4-.11 2.57-2.66 2.58-.34 3.64 3-.51.67 2.8L88 46l-.82 2.51 2.08 1.13 1.21.55 2.06-.87.09 1.24-2.39 1.94-.6 1.1z"/><a><path id="NP" class="enable st0" d="M55.92 30.7l-.22 1.36.37 2-.32 1.23-2.34.05-3.41-.73-2.17-.3-1.62-1.59-3.84-.41-3.66-1.77L36.12 29l-2.72-1.2 1.09-3 1.78-1.46 1.16-.77 2.25 1 2.83 2.09 1.57.46.92 1.53 2.18.63 2.28 1.39 3.17.73z"/></a><path id="TH" class="st0" d="M96.48 77.44L94 76.13l-2.4.05.4-2.25h-2.5l-.22 3.14-1.51 4.15-.91 2.5.19 2 1.83.09L90 88.38l.5 2.43 1.56 1.61 1.7.33 1.45 1.46-.92 1.15-1.85.33-.22-1.44L90 93l-.49.5-1.12-1-.48-1.39-1.49-1.59L85 88.2l-.46 1.65-.54-1.56.31-1.76.83-2.71 1.36-2.91 1.54-2.65-1.04-2.6v-1.33l-.32-1.6-1.87-2.28L84.1 69l1-.53 1-2.52L85 64l-1.78-2.13-1.36-2.57 1.14-.53 1.28-3.19 2-.13L88 54.16l1.61-.69 1.21.92.16 1.78 1.89.14-.69 3.1.03 2.59 3-1.75.84.52 1.64-.08.57-1 2.12.2 2.13 2.38.17 2.88 2.32 2.57-.12 2.44-.91 1.3-2.63-.41-3.62.55-1.85 2.4z"/><path id="VN" class="st0" d="M111.8 50.13l-3.74 2.56-2.34 2.81-.62 2 2.14 3.1 2.62 3.82 2.54 1.79 1.7 2.32 1.28 5.32-.38 5-2.34 1.87-3.21 1.83-2.26 2.45-3.5 2.63-1-1.81.79-1.91-2.14-1.64 2.43-1.14 2.94-.21-1.23-1.72 4.71-2.2.34-3.43-.65-1.91.51-2.88-.71-2-2.12-2-1.77-2.57-2.33-3.47L100.1 57l.8-1.06 1.79-.78-1.09-2.59h-3.45l-1.26-2.72-1.55-2.46 1.51-.74h2.24l2.72-.35 2.39-1.61 1.35 1.14 2.56.55-.44 1.74 1.33 1.21z"/><a><path id="BT" class="enable st0" d="M66 31l1.14 1-.2 1.92-2.34.08-2.37-.21-1.76.49-2.55-1.18-.06-.63 1.85-2.34 1.52-.8 2 .73 1.48.08z"/></a><a><path id="TIB" class="enable st0" d="M83.21 13.17zm0 0l-2.33-.78-.42 1.2-.38 1.5L79 16.33l-3.33-.68-1-1.73-.75-.25-.84.17-2.83.41-1-.25-.58-.5-1 .75-2.07-1.08h-1.72l-.75-.42h-1.59l-1.16-2.16-1.17-.92-.25-2 1.09-.15-.76-1 .5-2.66-.79-.19.79-.82-.54-.43-1.07.76-1.33-.79-1.08-.55-1.23.16-1.54.25-.66.5-2.34.59L48.33 5l-1.12-.45-2.52 1.16-.69-.29-.83.08-.92-.66-.92-.09-1 .17-.66-.25L38.72 6l-1.09.57-.24-.52-1.39.12-2.19-.71-.72 2.81-1.37.81v.81l-.34.56-1.09-.06-.19.22.31.94-.31.94.53.47.69.09v.47l.59 1.41-.69.75-.59.34-.44.16-.48-.69-.85-.19.79 3.63L32.37 21l3.9 2.27 1.16-.77 2.25 1 2.83 2.09 1.58.46.91 1.53 2.18.63 2.28 1.39 3.17.74 3.27.31 1.74-.65.23 2.49 1.85-2.34 1.52-.8 2 .73 1.48.08L66 31l2.26-.39 2.55-2.36 3.23-2 2.3.77 2-1.35 1.31 2-1 1.33 3 .47 1.71-.18 2.83-.15 2.6-5.87-1.66-5.08-3.92-5z"/></a></g></svg>