<?xml version="1.0" encoding="utf-8"?>
<!-- Generator: Adobe Illustrator 22.1.0, SVG Export Plug-In . SVG Version: 6.00 Build 0)  -->
<svg version="1.1" id="map__indian-ocean" xmlns="http://www.w3.org/2000/svg" xmlns:xlink="http://www.w3.org/1999/xlink" x="0px"
	 y="0px" viewBox="0 0 296.9 202.4" style="enable-background:new 0 0 296.9 202.4;" xml:space="preserve">
<style type="text/css">
	.st0{fill:#C6C4C4;}
</style>
<path id="TF" class="st0" d="M90.4,154.2l0.8,0.4l0.2,0.4l0.1,0.4l-0.2,0.3h-0.7l-0.5-0.3l-0.4-0.8L90.4,154.2z"/>
<g id="NORTH">
	<polygon class="st0" points="276.5,64 276.6,65.3 278.4,64.5 279.7,63.3 279.7,62.1 277.9,62.1 276.2,61.2 276.7,62.5 	"/>
	<polygon class="st0" points="271.9,56.7 273.3,58.9 274.5,60.4 275.2,57.9 274.3,56.8 	"/>
	<polygon class="st0" points="289.1,72.9 288.8,71.1 288.5,70 288.3,68.6 286,67.3 286.2,69.5 284.2,69.6 283.7,70.9 281.6,71.7 
		280.6,70.4 279.1,71.5 277.3,72.3 276.2,74.7 276.7,75.5 278.8,73.9 280.1,74 281,72.8 282.8,74.1 281.9,75.4 282.7,77.4 286,79 
		286.9,77.8 286,75.7 287.3,74.3 288.3,77.1 289.3,74.5 	"/>
	<polygon class="st0" points="279.1,63.9 278.8,65.7 278.1,66.5 277.5,67.3 279.2,69.3 280.1,68.5 281,66.7 282,65.8 282.2,62.9 
		280.1,65.6 280.6,63.7 	"/>
	<polygon class="st0" points="284.7,62.6 283.1,62.4 283.6,64.2 284.4,64.4 284.5,66.4 285.8,65.8 285.1,64 285,63 287.1,63.7 
		286.3,60.5 285.7,59.4 283,59.3 284.7,61.5 	"/>
	<polygon class="st0" points="273,53.1 273.8,53.8 272.9,54.5 272.8,55.7 274.2,56.3 276.7,55.9 278.5,57.6 279.2,56.6 280.2,58.1 
		282.4,59.5 282.7,58.2 281.8,57.5 282.1,55.9 278.6,54.3 277.4,54.6 275.9,54.3 275.3,52 275.7,49.7 277.3,48.7 278,46.3 277,44.2 
		277.5,43 277.2,42.2 276.3,43 274.6,42.2 273,42.1 272.1,44.8 271.8,49.3 270.7,48.3 270.8,51.1 271.2,52.4 272.6,54.1 	"/>
	<polygon class="st0" points="268,65.5 266.3,67.5 264.3,69.2 262.9,71.2 266.7,68.5 268.1,66.6 270,65 269.5,62.7 	"/>
	<polygon class="st0" points="264.5,77.7 264.4,76.5 263,75.1 261.9,75.1 260.5,77.3 258.3,79.3 258.2,80.7 258,82.5 256.7,82.4 
		256.1,83.4 254.8,82 253.4,83.8 251.4,86 248,86.6 246.8,87.1 246.2,89.5 244,90 242,89 242.6,90.8 244.5,92.4 246.3,91.8 
		248.1,92 249.6,90.7 250.9,90.5 253.5,91.3 255.8,90.7 257.2,86.8 258.3,85.8 259.3,82.6 262.5,82.6 264.9,83.1 267,82.1 
		266.6,80.5 268.5,80.4 268.7,79.3 266.4,78.5 	"/>
	<polygon class="st0" points="244.5,39.9 245.7,38.6 245.1,37.5 243.7,37.5 240.6,38.3 239.2,39.6 239.2,42.1 241.5,43 243.9,41.6 	
		"/>
	<polygon class="st0" points="77.5,19.6 76.7,21.2 76.9,23.4 77.7,24 78.5,23.8 79.1,22 79.1,20.3 78.3,19.3 	"/>
	<polygon class="st0" points="272.8,24.1 271.2,27.1 271.5,29.4 273,31.9 274.2,29.4 275.9,24.5 276.3,22.7 275,21.8 	"/>
	<polygon class="st0" points="161.2,68.7 159.3,67.1 158,71.7 158.5,75.7 159.8,77.9 162.2,77.3 163.4,76.5 163.8,73.6 162.5,70.7 	
		"/>
	<path class="st0" d="M238.1,49.2l-2.6-1.8l-2.6-3.8l-2.1-3.1l0.6-2l2.3-2.8l3.7-2.6l-2.1-0.8l2,0.6l1.3-0.5l3.8,1l-0.7,1.2l0.7,2.2
		l1.6-0.2l1-3.2l3-0.5l3.9-1.5l1.6-1.5l1,1l1.7-1.3l3.2-0.4l3.9-2.5l3.9-2.8l2.6-3.7l2.3-4.1l2-3.4l1.6-0.3l0.7-2.5l0.4-2.6l-1.6-1
		l-0.7-1.7l1.8-0.9V1.4l-121,0.5l2.8,2l3.8,2.2l-0.1,0.1L158,4l-2.8-2.1l0,0l-0.1-0.1l0.1-0.1l-9.6-2.2l0,0l-0.2,0l0,0l0,0
		l-16.6,1.2l-23.7-0.8l0.2,2.1l2.1,0.5l0.2,2.1l-2.5,2.9l1.4,1.7l1.1,1.9l2.7,1.4l0.1,2.8l1.3,0.5l0.2,1.4l-4,1.6l-1.1,3.6l4-0.4
		l4.6-0.1l5.2-0.6l2.2,2.3l0.8,2.2l2,0.8l1.9-2h6.2l0,0.1h-6.2l-1.9,2l3.3,2.6l0.8,1.2l-1.4,1.1l3.7,3.7l2,0.4l4.1-1.8l0.5,2.8V40
		l0.8,3.8l1.2,5.7l2.6,4l0.5,1.8l0.7,3.6l1.5,2.7l1,1.3l1.1,2.9l1.3,4l2.7,2.6l1.1-0.8l0.9-1.9l2.6-0.8l-0.9-0.9l1.2-2.2l1.4-0.2
		v-4.8l1.2-2.7l-0.1-2.4l-0.6-3.8l0.8-2.2l1.3-0.2l2.5-1l1.4-0.7v-1.3l2.8-1.9l2.1-1.8l3.1-3.5l4-2l1.5-1.8l-0.2-2.2l3.5-0.6h1.9
		l0.4-1.1l-0.4-2.5l-1-2.3l0.4-1.8l-1.7-0.8L182,23l-0.6,0.9l1.7,0.8l-0.5,1.8l1,2.3l0.4,2.5l1.1,0.3l0.8,0.3l0.4-0.5l1.2,0.6
		l0.9-1.7l-0.3-1.2l2.6,0.1l1.2,1.8l0.5,1.5l0.2,1.5l0.8,1.6l-0.2-2.4l0.2,0.1l0.2,2.2l2,2.4l1.6,0.4l-0.3,1.1l2.2,3.4l0.6,2.8
		l-1,3.6l1.7,0.7l1.6,0.3l3.2-2.1l1.9-1.4l1.2,2.4l0.5,3.7l0.9,3.4l1.1,1.5l-0.2,3.1l0.9,1.7l-0.9,2.2l0.3,1.8l-0.3,0.5l-0.8,2.7
		l-0.3,1.8l0.5,1.6l0.5-1.7l1.4,1.3l1.5,1.5l0.5,1.4l1.1,1l0.5-0.5l0.1,0l-0.5,0.5l0.7,1.2l-0.3,2l1,1.5l0.4,2.3l1.6,1.9l0.3,1.4
		l3.3,2.2l2.7,2.1l2-0.2v-0.7l-1.1-2.5l-1-0.8l-0.2-1.7l-0.3-1l0.3-1.3l-0.2-1.9l-1.2-1.9l-1.7-1.7l-0.6-0.3l0,0.1l-1.4-1.5
		l-1.7-0.3l-1.6-1.6l-0.5-2.4l-1.1-2.6l-1.8-0.1l-0.2-2l0.9-2.5l1.5-4.2l0.2-3.2h2.5l-0.4,2.2h2.4l2.5,1.3l-0.9-3.3l1.8-2.4l0.2,0
		l-1.7,2.2l0.6,3.5l1.4,2.9l1.1,1.5l2.4,0.4l0,0l2,1.6l-0.8,1.9l1,1.8l3.5-2.6l2.3-2.4l3.3-1.8l2.3-1.9l0.4-5l-1.2-5.3L238.1,49.2z
		 M140.5,7.1l-1.8,3.2l-2.9,3.3l-3.3-0.2l-3,3.2l-0.1,0l3.1-3.3l3.3,0.2l2.9-3.3l1.8-3.2l0.9-1.1l0,0.2L140.5,7.1z M154.1,2.7
		l-1.5,1.1l0.1,1.4L152,5.7l-1.2-0.4l-3.2,2.6l-5.8-0.8l0-0.3l5.6,0.9l3.2-2.6l1.2,0.4l0.7-0.4l-0.1-1.4l1.6-1.1l1.9,0.6l-0.1-0.3
		l0.2,0.4L154.1,2.7z M230.4,53.1l-0.9,1.3l-0.1,0l0.8-1.2l0.1-2.4l-2.3-2.5l-0.2-2.9l-2.1-2.4l-1.9-0.2l0,0l2.1,0.2l2.1,2.3
		l0.2,2.9l2.3,2.5L230.4,53.1z M231.2,45.1l1.8,2.6l2.1,2l0.7,2l0,0.1l-0.6-1.6l-2.1-2l-1.8-2.6l-2.3-3.5l-3.4-1.8l0.2-0.3l3.1,1.7
		L231.2,45.1z M233.2,30.9l-0.1-0.1l0.4-1.6l0.2,0L233.2,30.9z M231,28.6L231,28.6l-1.3-1l0,0L231,28.6z M220.8,30.3l1.5,2.4
		l1.3,2.7h3.4l1.1,2.6l-0.1,0l-0.9-2.2h-3.4l-1.3-2.7l-1.6-2.4l-1.3,0.4l0-0.4L220.8,30.3z M218.3,33.5l0.1,0.5l1.4,0.1l0,0.4
		l-1.5-0.1l-0.2-0.7l-2.2,1.7l0.1-0.1L218.3,33.5z M218.1,32.1l0,0.2l-1.9,0.8l-0.5-0.2L216,33L218.1,32.1z M209.8,51.9l0.7-0.4
		l0,0.1L209.8,51.9L209.8,51.9z M208.2,26.1l2.9-0.5l0,0L208.2,26.1L208.2,26.1z M210,38.6l1.8-0.1l-0.1,0.1H210L210,38.6z
		 M201.9,10L201.9,10l-2.2-0.7l0.1-0.1L201.9,10z M187.8,16.7l2.3,0.2l-0.1,0L187.8,16.7L187.8,16.7z M190.9,13.4l-0.4-0.3l0,0
		L190.9,13.4z M183.6,15l-0.3,0.3l0.1,0.6l2.5,1.3l-0.1,0l-2.6-1.2l-0.1-0.6l-0.3-2.3l0.6-0.2L183.6,15z M173.2,11.4l1.7,1l-0.1,0
		L173.2,11.4z M181.1,13.6L181.1,13.6l-1.1-0.2l1.2,0.1L181.1,13.6z M170.6,10.5l-0.2-0.1L169.6,9l0.2,0.1L170.6,10.5z M165.4,6.5
		l2.7,2.1l-0.2-0.1l-2.8-2.1l-1.9-0.9l0,0L165.4,6.5z M186.5,21.8l-0.2-2.1l-1.3-0.1l-2.2-1.4l2.2,1.3l1.3,0.1l0.2,2.1l2.7,0.4h2.6
		l1.6,0.5l0,0.1l-1.6-0.5h-2.6L186.5,21.8z M190,27.2l0.5-0.9l-0.4,0.8l1.4,1.5l0,0.2L190,27.2z M194.2,33.5l0.1-1.9l-1.5-4.7h-0.7
		l0-0.1h0.8l1.5,4.8l0.1,0l-0.1,2L194.2,33.5z M195.9,30.8l-0.1,0.1l-0.3-1.3l0.6-1l0.1-3.1l0.1,0l-0.1,3l-0.6,1L195.9,30.8z
		 M199.8,22.1l-0.1,1.5l-1.2,2.5l0,0l1.1-2.4l0.1-1.5l1.6-2.6l-0.1-1.8l0.1-0.1l0.1,1.8L199.8,22.1z M206.8,16.1l-0.2-1.8l0.1-0.1
		l0.2,1.9L206.8,16.1z M206.8,14.1l0.7-0.5l-0.2-1.2l-3-0.5l0.9-1.3l-1.3-2l0.1,0l1.3,2l-0.9,1.3l3,0.5l1.6-0.2l0,0l-1.5,0.2
		l0.2,1.2L206.8,14.1z M216.1,37.5l-1.2-0.9l0.3-0.1l-0.1,0.2l1.2,0.9l0.2,1.7l-0.2,0L216.1,37.5z M217.5,42.6l0.7-3.1l-0.2,0l0.4,0
		l-0.7,3.1l0.1,2.5l-0.2,0.1L217.5,42.6z M220.7,43.5l0.1-0.1l0.8,0.5l-0.2,0L220.7,43.5z"/>
</g>
<g id="WEST">
	<polygon class="st0" points="74.8,132.7 74.1,130.8 73.4,129.6 71.9,128.6 71,129.9 71,131.6 69.5,133.6 68.3,133.2 68.7,134.4 
		67.9,135.9 65.6,137.7 64,139.3 62.8,139.3 61.8,139.8 60.2,140.4 58.8,140.5 58.4,142.3 57.4,143.9 57.6,146.6 58.1,148.4 
		58.8,149.8 58.6,151.7 57.3,154 57.3,155 56,155.5 55.5,157.7 55.8,159.9 56.8,162.3 57,165 57.8,166.6 60,167.7 61.6,168.5 
		64.1,167.2 66.4,166.5 67.7,162.9 68.8,158.7 70.5,153 71.8,149 72.9,145.6 73.1,143.1 73.9,142.4 74.1,141.2 73.6,139.1 
		74.1,138.2 75.1,139.9 75.6,139 75.9,137.6 75.2,136.2 	"/>
	<path class="st0" d="M276.3-0.2H0.3v1.6v2.4v191.6h8v-1.2l0.2,0l2.9-1.3l2.1-1.5l2-2l3.2-3.4l1.5-2.2l0.8-1.7l1.2-1.7l0.5-0.5
		l2-1.7l0.7-1.4l0.3-2.6l0.6-2.1h0.1l0.3-1.7l-0.7-0.2l-0.2-1.3l1.2-1.1l3.3-1.7l2.3-1l1.1-1l0.4-1.3l-0.7-0.5l0.5-1.4l0.1-3
		l-0.5,0.1v-0.9l-0.5-1.8l-1.3-2.3l0.2-2.1l1.1-0.7l2-2.1l1.1-0.5l3.2-3.2l3.2-1.4l2.6-1.1l1.8-1.8l1.1-2l0.8-2l-0.5-1.4l-0.1-4.5
		l-0.3-2.5l0.1-2.8l-0.5-1.3l-2.2,1.6l-3.1,1.1h-1.7l-1,0.8l-2,0.1l-0.7,0.3l-3.4-0.8l-2.1,0.2l-0.2-1.6l0.3,1.5l2.1-0.2l3.4,0.8
		l0.7-0.4l2-0.1l1-0.8h1.7l3.1-1.1l2.2-1.6l-1-0.6l-1.2-2.8l-1-1.8l0.2-1.3l-0.2-0.8l0.8-1.7l-0.1-0.7l-1.8-1l-0.2-1.6l1.3-3.4
		l-4-2.8l-0.2-1.6L30,97.6l-0.5-0.3l-4.3,0.1l4.2-0.4v-3l0.8-1.1l1.4-1.8l1-2l-1.2-3.2l-0.1-0.6l0.3,0.7l1.2,3.2l-1,2L30.4,93
		l-0.8,1.1v3l0.5,0.3l10.2,5.7l0.2,1.6l4,2.8l1.1-0.9l0.5-1.8l0.9-1.1l0.4-2l1-0.2l0.7-1.2l1.9-1l0,0l0.1-0.1l0,0l0,0l0.5-0.6
		l0.7-1.5l3.1-3.4l2.6-2.1l4.1-2.8l2.8-2.3l3.3-3.8l2.4-3.1l2.4-4.1l1.7-3.6l1.3-3.2l0.8-3l0.6-1v-1.5l0.4-1.5l-0.1-0.8h-1.1l-1.3,1
		l-1.5,0.3l-1.3,0.4l-0.9,0.1L70,62.8l-1,0.5l-1.4,0.2l-2.5,0.9l-3,0.3l-2.6,0.7h-1.4l-1.3-1.2L56.4,63l-0.9-0.5l-1,1.5l-0.6,1
		l1,1.6l1,1.3l1.1,1l9.1,3.3h2.4l-7.9,8.4l-0.1,0l7.8-8.3h-2.4L56.7,69l-1.1-1l-1-1.3l-1-1.6l0.6-1l-0.6-0.5l-0.7,0.2h-1.6v-0.9
		l-0.2-0.8l1-1.4l1-1.3l-1-0.9l-1.2-1.7l-1.2-0.9l-0.7-1l-2.4-1.2h0.1l2.4,1.2l0.7,1l1.2,0.9l1.2,1.7l1,0.9l1.3,0.3l0,0l-1.2-0.2
		l-1,1.3l-1,1.3l0.2,0.8v0.8h1.6l0.7-0.2l0.6,0.5l1-1.5l-1.2-0.8l1.6-0.7l0.1-1.2l-0.6-0.7l0.1-0.1L54,58.1l-0.9-1l-1.6-1.7
		l-1.6-1.6l-3.8-2.7l-1.5-1.4L43.8,47l-1.6-3.4l-1.4,1.7l-2.1,0.5l-0.9,0.9l-0.3,1.9l-1.2,4.2l0.3,1.2l-0.1,0l0,0l-0.3-1.2l1.2-4.2
		l0.3-1.9l0.9-0.9l2.1-0.5l1.4-1.7l-1.5-1.1l-1.1-0.7l-1-3.5l-0.4-3.1l0.6-0.5l-0.9-2.9h-0.2l-0.4-0.5l-3.3-2.7l-0.1-2l0.6-0.5
		l-2.5-3.4L31,20.9l-1-1.7l-2.1-4.9l-1.7-3.2L25,7.7l0.4-0.4l2,4.6l1.3,1.4l0.9,1l0.6-0.5l0.8-1.6l0.6-2.4l0.8-1.3l-1.7-4.7h0.1
		l1.6,4.7l1.3-4.7h0.1l-1.3,4.9L32.5,9l-0.1,0l-0.3,1.3L32,11.4l-0.4,1.7H33l1.4,2.1l1.7,2.5l1.1,2.3l0.8,0.7l0.8,1.6L38.6,23
		l0.9,1.7l1.5,0.6l1.3,1.2l1.6,3.4l-0.1,2l0.3,2l1.9,2.9l1.3,0.5l1.9,2l0.8,2.4l1.5,2.5l1.5,1l0.2,1.1l0.8,0.9l0.4,1.2l1.2-1.1
		l-0.3-1.2l0.7-1.4l1.2,0.8l0.8-0.3h3.2l0,0l-3.1,0.1l-0.8,0.3l-1.2-0.8l-0.7,1.5l0.3,1.2l-1.2,0.9l0.1,1.3l-0.3,0.6l0.3,1.3
		L54,51.7l0.8,1.2l0.5,2.1l0.5,0.7l-0.1,1.6l0.7,1.7l1.9,0.2l0.9-0.4l1.4,0.1l0.4-0.7l0.8-0.2l0.7-0.6l0.7-0.2l2.3-0.2l1.8-0.6
		l1.6-1.2l0.8,0.2l1.2-0.2l2.5-2l4.5-1.3l2.8-1.2l0.1-1l0.5-1.3l2-0.8l1.3-0.2l1.9-1l1.6,0.3l1.4-0.8v-1.2l1.1-0.7h1.7l0.5-0.6
		l0.3-1.4l1.8-1.1h1.3l0.3-0.4l-0.3-2l0.4-1.5l0.6-0.8l1.3,0.2l1-2l1.4-1l0.4-0.8l1-1.8v-0.7l-1-0.4l-0.8-1L99.2,27l-1.7-0.5
		l-2.1-0.4L93.8,25l-1.3-2h-1.3l0-0.2h1.4l-0.4-2.3l0.4-0.6l0.2-1.3l-0.3-0.3l-0.8,1.1l0-0.1l-1.8,1.9l-2.1,2l-1.9,2.1l-1.7-0.1
		l-2.3-0.1l-2.2,0.5l-0.1-0.8l-0.5,0.1l0.1,0.6l1.1,3.1l8.3,1.5l0,0l-8.4-1.5l-1.1-3.1L79,24.8l-0.5-1.2l-0.8,0.2l-0.8-0.6l-0.4-0.8
		l-0.4-1l-0.8-0.9l-0.3-1l0.3-1l-0.2-1.3l-1.8-1.3l-0.5-1.1l-1.4-0.7l-1.1-2.7l-2,0.1l0,0l1.9-0.1L69.3,9l0.2-0.7L68.9,7l1.7,0.1
		L69,5.4V3.8h0.2v1.6l1.6,1.7l1-1.3l1.9,1.1l1.5-0.5l2,4.3l1.8,3l2.7,0.9l2.8,2.4l3.4,1l2.5-1.5l2.2-0.6l1.4,0.6l1.2,3.8l3.2,0.4
		l3.1,0.7l5.3,0.9l1.1-3.6l4-1.6l-0.2-1.4l-1.3-0.5l-0.1-2.8l-2.7-1.4l-1.1-1.9l-1.4-1.7l2.5-2.9l-0.1-0.7h168.8V-0.2z M10.1,181.7
		l1.5-2l1.5-1.2l1.3-0.6l0.7,0.6l-0.7-0.5l-1.3,0.6l-1.5,1.2L10.1,181.7L10.1,181.7z M27.7,64.5l1.4,1.1l0.3,1v0.2l-0.3-1l-1.5-1.1
		l-0.3-2l0.3-2.1l-1.3-0.2L26.1,61l-1.6,0.2L24.3,61l1.7-0.1l0.4-0.7l1.3,0.2l-0.3,2.1L27.7,64.5z M26.9,73l1.3,0.1l0.1,0.1L26.9,73
		L26.9,73z M25.2,63.5L25,61.9l0.1,0.1l0.2,1.7l-1.5,1.6l-1.4,2L21,67.6l-2.4-1.7l-1.1,0.6l-0.3,0.8l-1.4,0.5l-0.1,0.6h-2.8
		l-0.4-0.6l-2-0.1l-1,0.5L8.7,68l-0.4-0.5v-0.1l0.3,0.4L9.4,68l1-0.5l2,0.1l0.4,0.6h2.8l0.1-0.6l1.4-0.5l0.3-0.8l1.1-0.6l2.4,1.7
		l1.4-0.3l1.4-2L25.2,63.5z M21.8,88.4l-0.9-0.3l0,0L21.8,88.4L21.8,88.4z M17.5,102.7L17.5,102.7l0.8-1.6l0.1,0L17.5,102.7z
		 M19,114.3l0.1,0.2l-1.5-1.5l-0.1-0.2L19,114.3z M14.7,121.5l-0.2-0.5L14.7,121.5L14.7,121.5z M14.1,82.6l-1.3-0.3l-1.6-2.2l0,0
		l-0.4-0.9l-2.1-1.1l0-0.1l2.1,1.1l0.4,0.9l1.8,2.3L14.1,82.6L14.1,82.6z M16.7,129.4l-2-1.1l-0.8-0.5l0-0.1l0.7,0.4l2,1.1l0.8-0.5
		l0,0.3L16.7,129.4z M15,82.1L15,82.1l0.2,0L15,82.1z M20.8,99.4l-1.1-1.6l0.1,0L20.8,99.4L20.8,99.4z M21.6,84.3L22,84l0.1,0
		L21.6,84.3z M20.6,118l-0.1-0.2l1.2,0.7l0.9,0.4l-0.8-0.2L20.6,118z M24.1,3.8L24.1,3.8h-0.1H24.1z M16.3,3.8l-0.9,0.4l-1-0.4H16.3
		z M16.7,179.9l-0.5-0.5L16.7,179.9L16.7,179.9z M20.4,171.9v-1.1l0.8-1.2l0.3-0.9l0.8-0.2l1.4,0.6l0,0.1l-1.3-0.5l-0.8,0.2
		l-0.3,0.9l-0.8,1.2L20.4,171.9l1.8,1.7l-0.1,0L20.4,171.9z M23.5,168l0.5-3.3l0,0.1L23.5,168L23.5,168z M26.1,152.6l-0.4,0.3
		L25,155l-2.9,3.3l-0.1-0.2l0,0l2.9-3.3l0.7-2.1l0.4-0.3l0.4-1.7l0,0.1L26.1,152.6z M26.5,145.7l-0.5,2l-0.1,2l0,0l0.1-2.2l0.5-2
		V145.7z M29.9,135.3l-0.8,0.3l-1.6-1.4l-8.5,2.4l0-0.1l8.5-2.4l-1.5-0.7l0-0.1l1.5,0.7l1.6,1.4l0.8-0.3l1.1,0.7l0.2,1.2l0,0l-0.2-1
		L29.9,135.3z M27.8,129.6L27.8,129.6l-0.5-2.3L27.8,129.6z M33.5,140.2l-0.9,2l-1.8-1.8l-0.2-2l0,0l0.2,1.9l1.8,1.8l0.9-2l1.2-0.6
		l0,0.1L33.5,140.2z M29,120.8l0.1,0.2l-2.7-0.5l0,0l-0.8-0.5l0.6,0.3L29,120.8z M42,84.6l0.7-0.1l0,0l-0.5,0.1H42z M45.4,85l-0.2,0
		l0.8-1l0.1,0L45.4,85z M56.7,80.8L56.7,80.8l-2.3,1.9h-0.1L56.7,80.8z M52.5,82.8l-0.7,0.8l-2.5,3.2l0-0.1l2.5-3.2h0l0.6-0.7H52.5z
		 M44.8,53.7L44.8,53.7L44,53.1L44.8,53.7z M64.5,45.8L64.5,45.8l1-0.2l0,0L64.5,45.8z M91.3,25.3l0.1,0.1L90.2,26v-0.2L91.3,25.3z
		 M90.1,27.2L90.1,27.2l-0.7,1.2l0,0L90.1,27.2z M69.5,43l2.6-1.3l8.1-1.1l8.4-3l1.9-5.9l0,0.1l-1.9,6l-8.2,2.9l-0.1-0.1l-8.1,1.1
		L69.5,43l-1.9,3.1l-1.3,0.5l0,0l1.2-0.5L69.5,43z M65.8,8.5L67,6.7l0.1,0L65.8,8.5z"/>
</g>
<g id="EAST">
	<polygon class="st0" points="256.5,82.5 257.8,82.6 258,80.8 258.1,79.4 255.7,80.9 254.6,81.9 255.9,83.5 	"/>
	<polygon class="st0" points="284.8,119.5 284.8,119.5 282,120.6 280.8,122.3 280.6,123.3 280.9,123.6 283.3,123 285.1,120.9 
		285.1,120.1 284.8,119.5 285.2,120 285.2,120.9 287.6,120.1 290.5,118.9 291.5,118.1 290.4,117.8 289.5,118.1 287.5,118.2 
		285.1,118.8 	"/>
	<polygon class="st0" points="268.2,104.4 269.4,104.4 269.8,107.1 269,109.7 270.2,110.5 272,110.1 271.9,106.1 271.7,102.9 
		273.6,102.1 273.4,104.8 275.4,106.4 275,107.5 275.7,108.3 278.5,107.2 277.1,109.5 278.2,110.5 279.7,109.7 279.7,107.9 
		277.2,104.7 277.7,103.7 275.1,100.1 277.5,99 278.7,97.4 279.9,97.8 280.1,96.5 274.9,97.4 273.4,98.7 270.9,96.2 271.3,94.1 
		273.8,93.7 278.5,93.5 281.2,94.1 283.3,93.5 285.5,90.7 284.9,90.1 282.1,92.1 278.9,92.2 275.4,91.8 273.2,91 270.9,93.1 
		270.3,94.3 268.9,98.5 268.5,100.7 267.3,102.5 	"/>
	<polygon class="st0" points="272.9,123.3 273.1,122.5 272.1,121.6 270.6,120.8 268,121.3 271.7,123.3 	"/>
	<polygon class="st0" points="293.6,97.1 294.4,96.8 293.2,95.3 293.6,93.6 295.1,93.9 295.2,91.5 295.1,90.2 293.4,90 293.2,88.5 
		292.3,89.5 291.7,91.7 292.5,95.3 	"/>
	<polygon class="st0" points="293.1,104 295,104.1 296.6,103.9 293.8,102.5 	"/>
	<polygon class="st0" points="290.2,105.1 291.2,104.2 290.6,103.3 287.8,103.4 288.3,104.6 	"/>
	<polygon class="st0" points="255.6,118.9 258.8,117.8 255.4,116.2 251.2,115.7 250.2,113.9 245,112.6 244.4,113.8 239,113.5 
		238.6,112.4 237.4,112.2 235.1,111.1 231.7,110.9 229.8,113.6 232.4,113.8 232.9,115 238,116.2 239.2,115.9 241.3,116.2 
		244.5,117.3 247.1,117.8 250,118 252.5,117.8 	"/>
	<polygon class="st0" points="241.6,98.2 243,99 243.5,102.8 245.8,103.1 247.6,102.9 248.6,104.2 251.9,103.2 253.3,104.1 
		255.3,104.3 256.4,106 259.6,104.8 260,105.8 261.1,101.5 261.2,98.7 263.9,96.8 263.8,94.3 264.7,92.4 268,92.1 264.9,89.5 
		265.3,88.1 263.2,85.4 264.8,82.9 262.3,82.4 259.1,82.4 258.1,85.6 257,86.6 255.6,90.5 253.3,91.1 250.7,90.3 249.4,90.5 
		247.8,91.9 246,91.7 244.2,92.3 242.3,90.7 241.8,88.9 240.1,90.8 239.8,93.4 240.2,95.8 	"/>
	<polygon class="st0" points="231.5,106.5 232.2,103 230.8,101.2 228.7,101 227.7,99.4 227.2,97.5 226.2,97.4 224.6,96.4 
		225.7,94.1 223.6,92.8 222,90.5 219.6,88.6 216.7,88.6 214,85.6 212.6,84.4 210.4,82.5 207.9,79.8 203.6,79.3 201.8,79.2 202,80.6 
		204.9,83.7 207,85.3 208.5,87.7 211,89.5 212,91.7 212.7,94.1 215.2,96.4 217.3,100.3 218.7,102.4 220.8,104.7 222,106.4 
		225.6,108.7 228,111 231.1,110.9 	"/>
	<polygon class="st0" points="266,118 265,117.2 264.3,118.4 262.8,118.4 261.8,120 263.3,120 265.2,119.6 268.4,119 267.7,117.8 	
		"/>
	<polygon class="st0" points="278.6,118.8 279,117.2 276.6,118.2 274.7,118.4 272.9,117.6 270.7,118.2 270.7,119.2 274.4,119.6 	"/>
	<polygon class="st0" points="294,136.2 294,136.3 292.5,134.7 290.4,133.4 289,133.8 287.8,134.2 287.8,134.9 286.6,134.6 
		286.6,135.4 285.2,135.9 284.5,137 283,138.4 282.7,140.6 281.5,140 280.6,141.4 281.6,142.8 280.4,143.4 279.2,140.9 277.2,143.4 
		277.1,145 277,146.2 275.4,147.7 274.7,149.3 273.2,150.6 270.2,151.5 268.7,151.4 268,151.7 267.6,152.3 265.9,152.6 263.7,153.7 
		262.9,153.3 261.6,153.5 259.5,154.6 258.1,155.9 255.8,156.9 254.7,158.9 254.5,156.6 253.3,158.8 253.6,160.6 253.2,162.1 
		252.6,162.9 252.3,164.7 252.9,165.6 253.2,166.6 254.6,169 254.6,170.8 253.8,169.6 252.4,168.7 253.4,171.6 252.2,170.2 
		252.6,171.5 254.2,174 254.6,176.5 255.8,177.8 255.9,178.7 257,180.8 256.9,182.6 257.4,184.5 258.9,187.8 259.2,189.8 
		258.9,192.1 259,193.3 258.4,194 257,194.5 256.9,196.4 258.4,197 261.4,199.2 263.3,199.2 265.3,199.3 266.7,198.2 268.1,197.2 
		268.9,197.4 270.6,195.6 272.5,195.4 274.5,195 277,195.6 278.8,195.3 281.2,195.2 282.2,193.8 282.7,192 285.1,191.2 288.1,189.5 
		290.8,189.7 294,188.6 296.9,188.6 296.9,136.2 	"/>
</g>
<path id="MRT" class="st0" d="M96.6,151.7l0.4,0.2l0.1,0.6l-0.2,0.7l-0.6,0.1l-0.4-0.1v-0.6l0.4-0.4L96.6,151.7z"/>
<a id="MLD">
	<path class="st0" d="M143.3,92.6c0,3-3.8,5.5-3.8,5.5s-3.8-2.6-3.8-5.5c0.1-2.1,1.9-3.7,4-3.6C141.6,89.1,143.2,90.7,143.3,92.6z"
		/>
	<circle class="st0" cx="139.5" cy="92.6" r="1.3"/>
</a>
<a id="MRT-p">
	<path class="st0" d="M100.3,146.9c0,3-3.8,5.5-3.8,5.5s-3.8-2.6-3.8-5.5c0-2.1,1.7-3.8,3.8-3.8C98.6,143,100.3,144.7,100.3,146.9z"
		/>
	<circle class="st0" cx="96.5" cy="146.9" r="1.3"/>
</a>
<a id="SCH">
	<path class="st0" d="M99.1,99.4c0,3-3.8,5.5-3.8,5.5s-3.8-2.6-3.8-5.5c-0.1-2.1,1.5-3.9,3.6-4s3.9,1.5,4,3.6
		C99.1,99.2,99.1,99.3,99.1,99.4z"/>
	<circle class="st0" cx="95.2" cy="99.4" r="1.3"/>
</a>
</svg>
