<svg id="map__arabia" xmlns="http://www.w3.org/2000/svg" viewBox="0 0 70.62 63.39"><defs><style>.st0{fill:#c6c4c4}</style></defs><title>map__arabia</title><g id="on-desktop-map-arabia"><a><path id="JO" class="enable st0" d="M2.57 3.23l.49-1 3.12 1.31L11.67 0l1.13 4-.53.5-5.62 1.61 2.8 3.26-.93.55L8.06 11l-2.14.45-.67 1.16-1.25 1-3.08-.51-.09-.46 1.4-5.17-.07-1.27.41-1z"/></a><a><path id="AE" class="enable st0" d="M47.52 29.11L48 29l.1.84 2.19-.48 2.32.08 1.69.09 1.92-2.07 2.09-2 1.77-1.91.53 1.06L61 27h-1.4l-.23 2 .5.42-1.27.58v1.24l-.82 1.26-.07 1.22-.57.64-8.43-1.52-1.08-3.08z"/></a><a><path id="OM" class="enable st0" d="M67.94 38.55l-1 2-1.27-.16-.58.71-.45 1.5.34 2-.27.36H63.4l-1.75 1.1-.27 1.43-.64.62H59l-1.1.74V50l-1.36.81-1.54-.24-1.87 1-1.3.17-.91-2-2.2-4.84 8.41-3 1.87-6-1.28-2.14.07-1.22.82-1.26V30l1.27-.6-.5-.42.23-2H61l1.26 2.1 1.57 1.11 2.06.4 1.66.55 1.27 1.74.76 1 1 .38V35l-1 1.79-.45.84zM61 24l-.36.56-.53-1.06.89-1.05.35.27z"/></a><path id="SA" class="st0" d="M22.85 52.58l-.36-1.24-.85-.88-.22-1.16-1.42-1-1.49-2.46-.79-2.4-1.94-2L14.5 41l-1.86-2.84-.32-2.16.08-1.92-1.61-3.36-1.32-1.16L8 28.93l-1-1.76.15-.7-.78-1.6-.82-.69-1.05-2.31-1.71-2.52-1.39-2.13H0l.44-1.74.12-1.11.35-1.28L4 13.6l1.21-1 .67-1.16L8.05 11l.46-1.08.93-.55-2.8-3.27 5.62-1.65.53-.5 3.38.89 4.18 2.29 7.91 6.49 5.21.25 2.5.31.7 1.52 2-.08 1.1 2.73 1.38.72.48 1.1 1.91 1.31.17 1.29-.28 1 .35 1 .81.86.37 1 .42.75.85.61.78-.22.53 1.17.11.71 1.08 3.08 8.43 1.52.57-.64L59 35.74l-1.87 6-8.41 3-8.09 1.13L38 47.19l-2 3.07-1.31.49-.7-1-1.08.15-2.71-.29-.51-.29-3.24.07-.76.26-1.15-.76-.74 1.43.29 1.23z"/><path id="YE" class="st0" d="M51.81 51.7l-2 .78-.54 1.29-.07 1L46.4 56l-4.48 1.35-2.51 2-1.23.16-.84-.17-1.64 1.17-1.79.55-2.35.15-.71.16-.61.75-.73.21-.43.73-1.39-.06-.9.39-1.94-.14-.73-1.67.08-1.58-.46-.85-.55-2.15-.81-1.19.56-.14-.29-1.32.34-.56-.12-1.26 1.23-.93-.29-1.23.74-1.37 1.15.76.76-.26 3.24-.07.51.29 2.71.29 1.08-.18.7 1 1.3-.49 2-3.07L40.63 46l8.09-1.13 2.19 4.84z"/></g></svg>