<svg id="map__africa" xmlns="http://www.w3.org/2000/svg" viewBox="0 0 192.8 216"><style>.st0{fill:#c6c4c4}</style><g id="on-desktop-map-africa"><path id="AO" class="st0" d="M95.2 128.8l.7 2.1.8 1.7.7.9 1.1 1.5 1.8-.2.9-.4 1.5.4.4-.7.7-1.6 1.7-.1.2-.5h1.4l-.2 1h3.4v1.8l.6 1.1-.4 1.7.2 1.7.9 1-.2 3.4.7-.3 1.2.1 1.7-.4 1.3.2.3.9-.3 1.4.5 1.3-.4 1.1.2 1h-5.8l-.1 9.2 1.9 2.4 1.8 1.8-5.2 1.2-6.8-.4-1.9-1.4-11.4.1-.4.2-1.7-1.3-1.8-.1-1.7.5-1.4.6-.3-1.8.4-2.5 1-2.6.1-1.2.9-2.6.7-1.2 1.6-1.9.9-1.3.3-2.1-.2-1.6-.8-1-.8-1.7-.7-1.7.1-.6.9-1.1-.9-2.7-.6-1.9-1.4-1.8.3-.5 1.2-.4h.8l1-.3 8.6-.4zm-10.9-.6l-.7.3-.8-2.1 1.1-1.2.9-.5 1 1-1 .6-.5.7v1.2z"/><path id="BF" class="st0" d="M41.5 85.4l-1.9-.7-1.3.1-1 .7-1.3-.6-.5-.9-1.3-.6-.2-1.6.8-1.2-.1-1 2.2-2.4.4-2 .8-.7 1.4.4 1.2-.6.4-.7 2.2-1.3.5-.9 2.6-1.2 1.5-.4.7.5h1.8l-.2 1.4.4 1.3 1.6 1.9.1 1.4 3.2.6-.1 2-.6.9-1.3.2-.6 1.3-1 .3-2.5-.1-1.3-.2-.9.5-1.2-.3-4.9.1-.1 1.6.5 2.2z"/><path id="BI" class="st0" d="M131.7 125l-.2-3.4-.7-1.3 1.7.2.9-1.6 1.5.2.2 1.1.6.6v.9l-.7.6-1 1.4-1 1-1.3.3z"/><path id="BJ" class="st0" d="M56.9 94.9l-2.3.3-.7-1.9.1-6.5-.6-.6-.1-1.4-1-1-.9-.8.4-1.5 1-.3.6-1.2 1.4-.3.6-.9.9-.8h1l2.1 1.6-.1.9.6 1.7-.5 1.1.3.8-1.3 1.9-.9.9-.5 1.7.1 1.8-.2 4.5z"/><a><path id="BW" class="enable st0" d="M121.3 165l.6.5.9 1.7 3.2 3.3 1.2.3v1l.8 1.9 2.2.5 1.8 1.4-4 2.2-2.5 2.3-.9 2-.8 1.2-1.5.2-.5 1.5-.3 1-1.8.7-2.3-.2-1.3-.9-1.2-.4-1.4.7-.7 1.5-1.3.9-1.4 1.4-2 .3-.6-1.1.3-1.9-1.7-3-.8-.5v-8.9l2.8-.1.1-10.6 2.1-.1 4.3-1 1.1 1.2 1.8-1.2h.8l1.6-.7.5.2.9 2.7z"/></a><path id="CD" class="st0" d="M135.9 102.6l-.2 3.3 1.1.4-.9 1-1.1.7-1.1 1.5-.6 1.3-.2 2.2-.7 1.1v2.1l-.8.8-.1 1.7-.4.2-.3 1.5.7 1.3.2 3.4.5 2.6v1.3l.6 1.6 1.6 1.6 1.5 3.5-1.1-.3-3.8.5-.8.3-.8 1.8.6 1.2-.5 3.4-.3 2.9.8.5 2 1.1.8-.5.2 3.1h-2.2l-1.2-1.6-1-1.2-2.2-.4-.6-1.5-1.7.9-2.2-.4-.9-1.3-1.8-.2-1.3.1-.2-.9-1-.1-1.3-.2-1.7.4-1.2-.1-.7.3.2-3.4-.9-1-.2-1.7.4-1.7-.6-1.1v-1.8H107l.2-1h-1.4l-.2.5-1.7.1-.7 1.6-.4.7-1.5-.4-.9.4-1.8.2-1.1-1.5-.7-.9-.8-1.5-.7-2.1-8.4-.1-1 .3h-.8l-1.2.4-.4-.9.7-.3.1-1.2.5-.7 1-.6.7.3 1-1.1H89l.2.8 1 .5 1.7-1.8 1.6-1.4.7-.9-.1-2.3 1.2-2.7 1.3-1.4 1.8-1.3.3-.9.1-1 .5-1-.2-1.6.3-2.5.5-1.7.8-1.5.2-1.7.2-2 1.1-1.4 1.5-.9 2.3 1 1.8 1 2 .3 2.1.5.8-1.7.4-.2 1.3.3 3.1-1.4 1.1.6.9-.1.4-.7 1-.2 2.1.3 1.8.1.9-.3 1.7 2.3 1.3.3.8-.5 1.3.2 1.6-.6.7 1.2 2.8 1.9z"/><path id="CF" class="st0" d="M92.3 91.7l2.3-.2.5-.7h.5l.7.6 3.5-1.1 1.2-1.1 1.5-1-.3-1 .8-.2 2.7.2 2.6-1.3 2-3.1 1.4-1.1 1.8-.5.3 1.2 1.6 1.8v1.1l-.5 1.2.2.9 1 .8 2.1 1.2 1.5 1.1v.9l1.9 1.5 1.2 1.2.7 1.7 2.1 1.1.5.9-.9.3-1.8-.1-2.1-.3-1 .2-.4.7-.9.1-1.1-.6-3.1 1.4-1.3-.3-.4.2-.8 1.7-2.1-.5-2-.3-1.8-1-2.3-1-1.5.9-1.1 1.4-.2 2-1.8-.2-1.9-.5-1.7 1.5-1.5 2.6-.3-.8-.1-1.3-1.3-.9-1-1.4-.2-1-1.3-1.5.2-.8-.4-1.1.2-2.2.7-.5 1.4-2.8z"/><a><path id="CG" class="enable st0" d="M85.9 125.8l-1-1-.9.5-1.1 1.2-2.3-3 2.1-1.5-1.1-1.8 1-.7 1.9-.3.2-1.2 1.5 1.3 2.5.1.9-1.3.3-1.9-.3-2.2-1.3-1.6 1.2-3.2-.7-.5-2.1.2-.8-1.4.2-1.2 3.5.1 2.3.7 2.2.7.2-1.5 1.5-2.6 1.7-1.5 1.9.5 1.8.2-.2 1.7-.8 1.5-.5 1.7-.3 2.5.2 1.6-.5 1-.1 1-.3.9-1.8 1.3-1.3 1.4-1.2 2.7.1 2.3-.7.9-1.7 1.4-1.7 1.8-1-.5-.2-.8h-1.5l-1 1.1-.8-.6z"/></a><path id="CI" class="st0" d="M41.4 98.5h-1.3l-2-.5h-1.8l-3.3.4-2 .8-2.8 1-.5-.1.2-2.3.3-.4-.1-1.1-1.2-1.2-.8-.1-.8-.8.6-1.2-.3-1.4.1-.8h.5l.2-1.2-.2-.5.3-.4 1-.3-.7-2.3-.8-1.2.2-1 .6-.2.4-.3.8.4h2.2l.5-.8.5.1.8-.3.4 1.2.6-.4 1.2-.4 1.3.6.5.9 1.3.6 1-.7 1.3-.1 1.9.7.7 4-1.1 2.5-.7 3.2 1.2 2.4-.2 1.2z"/><path id="CM" class="st0" d="M86.1 106.1l-.4-.1-1.7.4-1.7-.4-1.3.2-4.6-.1.4-2.2-1.1-1.8-1.3-.5-.6-1.2-.7-.4v-.8l.7-2 1.3-2.7h.8l1.7-1.6h1.1l1.6 1.1 1.9-1 .3-1.2.6-1.1.4-1.4 1.5-1.2.6-2 .6-.6.4-1.5.7-1.8 2.4-2.2.2-1 .3-.5-1.1-1.1.1-.9.8-.2 1.1 1.8.2 1.9-.1 1.9 1.5 2.6h-1.6l-.8.2-1.3-.3-.6 1.3 1.7 1.6 1.2.5.4 1.2.9 1.9-.4.8-1.4 2.8-.7.5-.2 2.2.3 1.2-.2.9 1.3 1.5.2 1 1 1.4 1.3.9.1 1.3.3.8-.2 1.5-2.2-.7-2.3-.7-3.4-.2z"/><path id="DJ" class="st0" d="M170.2 76.8l.7.9-.1 1.2-1.6.7 1.2.8-1 1.5-.6-.5-.7.2h-1.6v-.9l-.2-.8 1-1.3 1-1.3 1.2.2.7-.7z"/><path id="DZ" class="enable st0" d="M83.1 45.1l-9.6 5.8-8.1 5.9-4 1.3-3.1.3v-1.9l-1.4-.5-1.7-.9-.7-1.4-9.5-6.5-9.5-6.6L25.1 33v-4.6l4.5-2.4 2.8-.5 2.3-.9 1.1-1.6 3.3-1.3.1-2.4 1.6-.3 1.3-1.2 3.7-.5.5-1.3-.7-.7-1-3.5-.2-2-1.1-2.2L46 5.7l3-.6 1.8-1.4 2.7-1.1 4.7-.6 4.6-.3 1.4.5L66.8.8h3l1.2.9 2-.2-.6 1.8.5 3.3-.7 2.8-1.7 1.9.2 2.5 2.3 2v.8l1.7 1.3 1.2 5.9.9 2.8.1 1.5-.5 2.6.2 1.4-.3 1.6.2 2-1.1 1.3 1.7 2.3.1 1.3 1 1.7 1.3-.6 2.2 1.4 1.4 2z"/><path id="EG" class="st0" d="M147.3 26.3l-.8 1.3-.5 2.4-.8 1.6-.7.5-.9-1-1.3-1.4-2-4.6-.3.3 1.2 3.4 1.7 3.2 2.1 4.9 1 1.7.9 1.7 2.5 3.4-.6.5.1 2 3.3 2.7.5.6h-33.2V27.1l-.8-2.6.7-2-.5-1.4 1-1.6h3.7l2.7.9 2.8 1 1.3.5 2.2-1 1.2-.9 2.5-.3 2 .4.8 1.6.7-1.1 2.2.8 2.2.2 1.4-.8 1.7 5.5z"/><path id="ER" class="st0" d="M168.2 77.2l-1-.9-1.2-1.7-1.2-.9-.7-1-2.4-1.1h-1.9l-.7-.6-1.6.7-1.7-1.3-.9 2.1-3.3-.6-.3-1.1 1.2-4.2.3-1.9.9-.9 2.1-.5 1.4-1.7 1.6 3.4.8 2.7 1.5 1.4 3.8 2.7 1.6 1.6L168 75l.9 1 1.4.9-.8.7-1.3-.4z"/><a><path id="ET" class="enable st0" d="M155.7 70.3l1.7 1.3 1.6-.7.7.6h1.9l2.4 1.1.7 1 1.2.9 1.2 1.7 1 .9-1 1.3-1 1.3.2.8v.9h1.6l.7-.2.6.5-.6 1 1 1.6 1 1.4 1.1 1L181 90h2.4l-7.9 8.4-3.7.1-2.5 2h-1.8l-.8.9h-1.9l-1.1-.9-2.6 1.2-.8 1.2-1.9-.2-.6-.3-.7.1h-.9l-3.5-2.4h-2l-1-.9v-1.6l-1.5-.5-1.7-3-1.3-.6-.5-1.1-1.4-1.4-1.7-.2 1-1.6 1.5-.1.4-.9v-2.5l.8-3 1.3-.8.3-1.2 1.2-2.2 1.7-1.4 1.1-2.8.5-2.5 3.3.6 1-2.1z"/></a><path id="GA" class="st0" d="M80.5 123.5l-2.9-2.8-1.9-2.3-1.7-2.9.1-.9.6-.9.7-2 .6-2.1 1-.2h4.1V106l1.3-.2 1.7.4 1.7-.4.4.1-.2 1.2.8 1.4 2.1-.2.7.5-1.2 3.2 1.3 1.6.3 2.2-.3 1.9-.9 1.3-2.5-.1-1.5-1.3-.2 1.2-1.9.3-1 .7 1.1 1.8-2.3 1.9z"/><path id="GH" class="st0" d="M52.4 95.9L48 97.5l-1.6 1-2.5.8-2.5-.8.1-1.1-1.2-2.4.7-3.2 1.2-2.4-.7-4-.4-2.1.1-1.6 4.9-.1 1.2.2.9-.5 1.3.2-.2.9 1.2 1.5v2l.3 2.2.7 1-.6 2.5.2 1.4.8 1.8.5 1.1z"/><path id="GM" class="st0" d="M2.2 75.4l.4-1.3 3-.1.6-.7h.9l1.1.7h.9l.9-.5.6.8-1.2.6H8.2L7 74.5l-1 .7h-.5l-.7.4-2.6-.2z"/><path id="GN" class="st0" d="M25.8 90.9H25l-.6 1.1h-.8l-.5-.6.2-1.1-1.2-1.7-.7.3-.6.1-.8.1v-1l-.5-.7.1-.8-.6-1.3-.8-1H16l-.6.5-.8.1-.5.6-.3.8-1.5 1.2-1.3-1.6-1.1-1.1-.7-.4-.7-.6-.3-1.2-.4-.6-.8-.5 1.2-1.4h.9l.7-.5h.6l.4-.4-.2-.9.3-.3v-1h1.4l2 .7.6-.1.2-.3 1.5.2.4-.2.2 1h.4l.7-.4.5.1.8.7 1.2.2.8-.6.9-.4.7-.4.6.1.6.6.3.8 1.1 1.2-.6.7-.1.9.6-.3.4.3L26 83l.9.8-.6.2-.3 1 .6 1.2.7 2.3-1 .3-.3.4.2.5-.2 1.2h-.2z"/><path id="GQ" class="st0" d="M76 109.6l-.5-.4 1-3.1 4.6.1v3.4H76z"/><path id="GW" class="st0" d="M7 81.5l-1.5-1.2-1.2-.2-.6-.8v-.4l-.9-.6-.2-.6 1.5-.5.9.1.8-.3 5.2.1v1l-.3.3.2.9-.4.4h-.7l-.7.5h-.9L7 81.5z"/><a><path id="KE" class="enable st0" d="M164.4 114.8l1.7 2.3-2 1.1-.7 1.2-1 .2-.4 2-.9 1.1-.5 1.9-1.1.9-4-2.8-.2-1.6-10.2-5.7-.5-.3v-3l.8-1.1 1.4-1.8 1-2-1.2-3.2-.3-1.4-1.3-1.9 1.7-1.7 1.9-1.8 1.5.5v1.6l1 .9h2l3.5 2.4h.9l.7-.1.6.3 1.9.2.8-1.2 2.6-1.2 1.1.9h1.9l-2.5 3.2-.2 10.1z"/></a><path id="LR" class="st0" d="M27.8 100.2h-.7l-2.9-1.3-2.5-2.1-2.4-1.5-1.9-1.8.7-.9.1-.8 1.3-1.5 1.3-1.3.6-.1.7-.3 1.2 1.7-.3 1 .5.6h.8l.6-1.1.8.1-.1.8.3 1.4-.6 1.2.8.8.9.2 1.2 1.2.1 1.1-.3.3-.2 2.3z"/><path id="LS" class="st0" d="M130.7 196.8l1 1-.9 1.6-.5 1-1.6.5-.5 1-1 .3-2.1-2.5 1.5-2 1.5-1.2 1.3-.7 1.3 1z"/><path id="LY" class="st0" d="M91.1 46.9l-2 1.1-1.6-1.7-4.5-1.2-1.2-1.9-2.2-1.4-1.3.6-1-1.7-.1-1.3-1.7-2.4 1.1-1.3-.2-2 .4-1.7-.2-1.4.5-2.6-.1-1.5-1-2.8 1.4-.8.2-1.4-.3-1.4 1.9-1.3.9-1 1.4-1 .2-2.5 3.3 1.2 1.2-.3 2.3.5 3.7 1.5 1.3 2.9 2.5.6 4 1.4 3 1.6 1.4-.8 1.3-1.5-.7-2.4.9-1.6 2-1.5 1.9-.5 3.8.7 1 1.5h1l.9.6 2.8.4.7 1.1-1 1.6.4 1.4-.7 2 .8 2.6v28.4h-3.2v1.2L105.2 51 94 45.2l-2.9 1.7z"/><a><path id="MA" class="st0" d="M45.5 15.3l-1-3.5-.2-2-1.1-2.2H42l-2.9-.8-2.7.2-1.7-1.5h-2.1l-.9 2.1-1.7 3.6-2.1 1.3-2.8 1.5-1.8 2.2-.4 1.7-1 2.8.7 4-2.3 2.7-1.4.9-2.2 2.2-2.6.4-1.4 1.2-1.8 3.2L9 36.5l-1 1.9-.1 1.6-.7 1.8-.9.5-1.6 1.9-1 2.1.2 1-1 1.7-1.1.8-.1 1.4-.1 1.3.6-1h11l-.5-4.3.7-1.6 2.6-.3-.1-7.9 9.2.2v-9.3l4.5-2.4 2.8-.5 2.3-.9 1.1-1.6 3.3-1.3.1-2.4 1.6-.3 1.3-1.2 3.7-.5.5-1.3-.8-.6z"/></a><a><path id="MG" class="enable st0" d="M188.3 147.4l.7 1.2.7 1.9.5 3.5.7 1.4-.3 1.4-.5.9-1-1.7-.5.9.5 2.1-.2 1.2-.8.7-.2 2.5-1.1 3.4-1.3 4.1-1.7 5.7-1.1 4.2-1.3 3.5-2.3.7-2.5 1.3-1.6-.8-2.2-1.1-.8-1.6V180l-1-2.4-.3-2.2.5-2.2 1.3-.5v-1l1.3-2.3.2-1.9-.7-1.4-.5-1.8-.2-2.7 1-1.6.4-1.8 1.4-.1 1.6-.6 1-.5h1.2l1.6-1.6 2.3-1.8.8-1.5-.4-1.2 1.2.4 1.5-2v-1.7l.9-1.3 1.2 1.1z"/></a><path id="ML" class="st0" d="M15.3 71.2l.9-.5.5-1.7.9-.1 2 .8 1.6-.6 1.1.2.4-.6h11.2l.6-2-.5-.4-1.4-12.7-1.4-13.1 4.3-.1L45 47l9.5 6.5.7 1.4L57 56l1.3.5v1.9l3.1-.3v6.7l-1.5 1.9-.2 1.8-2.6.5-3.8.2-1 1-1.8.1h-1.8l-.7-.5-1.5.4-2.6 1.2-.5.9-2.2 1.3-.4.7-1.2.6-1.4-.4-.8.7-.4 2-2.2 2.4.1 1-.8 1.2.2 1.6-1.2.4-.6.4L32 83l-.8.3-.5-.1-.5.8H28l-.8-.4-.4.3-.9-.8.1-.8-.4-.3-.6.3.1-.9.6-.7-1.1-1.2-.3-.8-.6-.6-.6-.1-.7.4-.9.4-.8.6-1-.4-.7-.7-.5-.1-.7.4h-.4l-.2-1 .1-.9-.2-1.1-1-.8-.5-1.6-.3-2z"/><path id="MR" class="st0" d="M15.3 71.2l-1.9-2-1.7-2.1-1.8-.8-1.3-.9H7l-1.4.6-1.4-.2-1 .9-.2-1.4.8-1.4.4-2.8-.3-2.9-.3-1.5.3-1.5-.9-1.4-1.5-1.3.6-1h11l-.5-4.3.7-1.6 2.6-.3-.1-7.9 9.2.2v-4.7l10.5 7.5-4.3.1 1.4 13.1L34 66.2l.5.4-.6 2H22.7l-.4.6-1.1-.2-1.6.6-2-.8-.9.1-.5 1.7-.9.6z"/><a><path id="MW" class="enable st0" d="M146.3 144.7l-.8 2.2.8 3.7h1l1 .9 1.2 2.1.2 3.7-1.2.6-.9 2-1.8-1.8-.2-2 .6-1.3-.2-1.1-1.1-.7-.8.3-1.6-1.4-1.5-.7.8-2.7.9-1-.5-2.4.6-2.3.5-.8-.7-2.4-1.3-1.3 2.8.5.6.8 1 1.3.6 3.8z"/></a><a><path id="MZ" class="enable st0" d="M146.3 144.7l2.1-.2 3.4.8.7-.4 2-.1 1-.9h1.7l3.1-1.1 2.2-1.6.5 1.3-.1 2.8.3 2.5.1 4.5.5 1.4-.8 2.1-1.1 2-1.8 1.8-2.6 1.2-3.2 1.4-3.2 3.2-1.1.5-2 2.1-1.2.7-.2 2.1 1.3 2.3.5 1.8v.9l.5-.2-.1 3-.5 1.4.7.5-.4 1.3-1.1 1-2.3 1-3.4 1.7-1.2 1.1.2 1.3.7.2-.2 1.6h-2.1l-.2-1.4-.4-1.4-.2-1.1.5-3.4-.7-2.2-1.3-4.2 3-3.4.7-2.2.4-.3.3-1.8-.5-.9.1-2.2.5-2v-3.7l-1.5-.9-1.3-.2-.6-.7-1.3-.6-2.3.1-.2-1.1-.3-2 8.5-2.4 1.6 1.4.8-.3 1.1.7.2 1.1-.6 1.3.2 2 1.8 1.8.9-2 1.2-.6-.2-3.7-1.2-2.1-1-.9h-1l-.8-3.7.9-2z"/></a><a><path id="NA" class="enable st0" d="M95.2 195.6l-2.1-2.4-1.1-2.3-.6-3-.7-2.2-.9-4.7-.1-3.6-.4-1.6-1.1-1.2-1.5-2.5-1.5-3.6-.6-1.9-2.3-2.9-.2-2.2 1.4-.5 1.7-.5 1.8.1 1.7 1.3.4-.2 11.4-.1 1.9 1.4 6.8.4 5.2-1.2 2.3-.7 1.8.2 1.1.7v.2l-1.6.7h-.8l-1.8 1.2-1.1-1.2-4.3 1-2.1.1-.1 10.6-2.8.1v20.4l-2.5 1.6-1.5.2-1.8-.6-1.3-.2-.5-1.4-1.1-.9-1.1 1.4z"/></a><path id="NE" class="st0" d="M55.5 78.9l.1-2-3.2-.6-.1-1.4-1.7-1.9-.4-1.3.2-1.4 1.8-.1 1-1L57 69l2.5-.5.2-1.8 1.5-1.9V58l4-1.3 8.1-5.9 9.6-5.8 4.4 1.3 1.6 1.7 2-1.1.7 4.7 1 .8v1l1.2 1-.6 1.3-1.1 6-.2 3.8-3.6 2.7-1.2 3.8 1.2 1.1V75l1.8.1-.1 1.2-.8.2-.1.9-.5.1-1.9-3.1-.7-.2-2.1 1.6-2.2-.8-1.5-.2-.8.4-1.6-.1-1.6 1.2-1.4.1-3.4-1.5-1.4.7h-1.4l-1-1.1-2.8-1.1-3 .3-.8.7-.4 1.6-.8 1.1-.2 2.5-2.1-1.6h-1l-1 .9z"/><path id="NG" class="st0" d="M73.3 99.1l-2.9 1-1.1-.1-1.1.6-2.2-.1-1.5-1.8-.9-2-2-1.9H57l.2-4.5-.2-1.7.5-1.8.9-.9 1.4-1.8-.3-.8.5-1.1-.6-1.7.1-.9.2-2.5.8-1.1.4-1.6.7-.6 3-.3 2.8 1.1 1 1.1h1.4l1.3-.7 3.4 1.5 1.4-.1 1.6-1.2 1.6.1.8-.4 1.5.2 2.3.9 2.2-1.6.7.1 1.9 3.1.5-.1 1.1 1.1-.1.4-.2 1-2.4 2.2-.6 1.8-.4 1.5-.6.6-.6 2-1.5 1.2-.4 1.4-.6 1.1-.3 1.2-1.9 1-1.6-1.1h-1.1l-1.7 1.6h-.8L74 97.1l-.7 2z"/><a><path id="RW" class="enable st0" d="M134.7 115.6l1.1 1.6-.2 1.6-.8.4-1.5-.2-.9 1.6-1.7-.2.3-1.5.4-.2.1-1.7.8-.8.7.3 1.7-.9z"/></a><path id="SD" class="st0" d="M144.6 85.9l-.4-.1v-1.4l-.3-1-1.4-1.1-.3-2 .3-2.1-1.3-.2-.2.6-1.7.1.7.8.2 1.7-1.5 1.6-1.4 2-1.4.3-2.4-1.6-1.1.6-.3.8-1.4.5-.1.6h-2.8l-.4-.6-2-.1-1 .5-.8-.2-1.4-1.6-.5-.8-2 .4-.8 1.3-.7 2.5-1 .5-.9.3-.2-.1-1-.8-.2-.9.5-1.2v-1.1l-1.6-1.8-.3-1.2v-.7l-1-.8V78l-.6-1.1-1 .2.3-1 .7-1.3-.3-1.2.9-.9-.6-.7.7-1.8 1.3-2.1 2.4.2-.1-11.5v-1.2h3.2v-6h33.3l.9 2.9-.6.5.4 3.1 1 3.5 1.1.7 1.5 1.1-1.4 1.7-2.1.5-.9.9-.3 1.9-1.2 4.2.3 1.1-.5 2.5-1.1 2.8-1.7 1.4-1.2 2.2-.3 1.2-1.3.8-.8 3 .1.3z"/><path id="SL" class="st0" d="M17.3 93.5l-.8-.2-2-1.1-1.5-1.5-.5-1-.3-2.1 1.5-1.2.3-.8.5-.6.8-.1.6-.5h2.2l.8 1 .6 1.2-.1.8.5.7v1l.8-.2-1.3 1.3-1.3 1.5-.1.9-.7.9z"/><path id="SN" class="st0" d="M2.6 74.2L1.4 72 0 71l1.2-.5 1.4-2 .7-1.5 1-.9 1.4.2 1.3-.7h1.6l1.3.9 1.9.8 1.7 2.1 1.9 2 .1 1.8.5 1.6 1 .8.2 1.1-.1.9-.4.2-1.5-.2-.2.2-.6.1-2-.7H11l-5.2-.1-.8.3-.9-.1-1.5.5-.5-2.2 2.5.1.7-.4h.5l1-.7 1.2.6h1.2l1.2-.6-.4-.9-.9.5h-.9l-1.1-.7h-.9l-.6.7h-3z"/><path id="SO" class="st0" d="M192.8 79.5l-.1-.8h-1.1l-1.3 1-1.5.3-1.3.4-.9.1-1.6.1-1 .5-1.4.2-2.5.9-3 .3-2.6.7h-1.4l-1.3-1.2-.5-1.2-.9-.5-1 1.5-.6 1 1 1.6 1 1.4 1.1 1 9.2 3.3h2.4l-7.9 8.4-3.7.1-2.5 2h-1.8l-.8.9-2.5 3.2v10.1l1.7 2.3.6-.7.7-1.5 3.1-3.4 2.6-2.1 4.2-2.8 2.8-2.3 3.3-3.8 2.4-3.1 2.4-4.1 1.7-3.6 1.3-3.1.8-3 .6-1v-1.5l.3-1.6z"/><path id="SS" class="st0" d="M144.6 85.9v2.2l-.4.9-1.5.1-1 1.6 1.7.2 1.4 1.4.5 1.1 1.3.6 1.7 3-1.9 1.8-1.7 1.7-1.7 1.3h-2l-2.3.6-1.8-.6-1.2.8-2.4-1.8-.7-1.2-1.6.6-1.3-.2-.8.5-1.3-.3-1.7-2.3-.5-.9-2.1-1.1-.7-1.7-1.2-1.2-1.9-1.5v-.9l-1.5-1.1-1.9-1.1.9-.3 1-.5 1-2.6.8-1.3 2-.4.5.8 1.4 1.6.8.2 1-.5 2 .1.4.6h2.8l.1-.6 1.4-.5.3-.8 1.1-.6 2.4 1.6 1.4-.3 1.4-2 1.5-1.6-.2-1.7-.7-.8 1.7-.1.2-.6 1.3.2-.3 2.1.3 2 1.4 1.1.3 1v1.4h.3z"/><path id="SZ" class="st0" d="M139.3 189.8l-.6 1.4-1.6.3-1.7-1.7v-1.1l.8-1.2.3-.9.8-.2 1.4.6.4 1.4.2 1.4z"/><path id="TD" class="st0" d="M90.1 76.3l.3-1.4-1.8-.1V73l-1.2-1 1.2-3.8 3.6-2.7.2-3.8 1.1-6 .6-1.3-1.2-1v-1l-1-.8-.7-4.7 2.8-1.7 11.2 5.8 11.2 5.7.1 11.6-2.4-.2-1.3 2.1-.7 1.8.6.7-.9.9.2 1.1-.7 1.2-.3 1 1-.2.6 1.1v1.6l1 .8v.7l-1.8.5-1.4 1.2-2 3.1-2.6 1.3H103l-.8.3.3 1-1.5 1-1.2 1.1-3.5 1.1-.7-.6h-.5l-.5.7-2.3.2.4-.8-.9-2-.4-1.2-1.2-.5-1.7-1.6.6-1.3 1.3.3.8-.2h1.6l-1.5-2.6.1-1.9-.2-1.9-1.1-1.8z"/><path id="TG" class="st0" d="M54.6 95.3l-2.3.6-.6-1-.7-1.8-.2-1.4.6-2.5-.7-1-.3-2.2v-2.1l-1.2-1.5.2-.9 2.5.1-.4 1.5.9.8 1 1 .1 1.4.6.6-.1 6.4.6 2z"/><path id="TN" class="st0" d="M76 23.7l-1.2-5.9-1.7-1.3v-.8l-2.3-2-.2-2.5 1.7-1.9.7-2.8-.5-3.3.6-1.8 3-1.4 2 .4-.1 1.8L80.4.9l.2.7-1.4 1.7v1.6l1 .9-.4 3-1.8 1.6.5 1.8 1.5.1.7 1.6 1.1.5-.2 2.6-1.4 1-.9 1-1.9 1.3.3 1.4-.2 1.3-1.5.7z"/><a><path id="TZ" class="enable st0" d="M144.5 115.1l.5.3 10.2 5.7.2 1.6 4 2.8-1.3 3.5.2 1.6 1.8 1 .1.7-.8 1.7.2.9-.2 1.3 1 1.8 1.2 2.8 1 .6-2.2 1.6-3.1 1.1h-1.7l-1 .9-2 .1-.7.4-3.4-.8-2.1.2-.8-3.9-1-1.3-.6-.8-2.8-.5-1.6-.9-1.8-.5-1.1-.5-1.2-.7-1.5-3.5-1.6-1.6-.6-1.6.3-1.5-.5-2.6 1.2-.1 1-1 1.1-1.5.7-.6v-.9l-.6-.6-.2-1.1.8-.4.2-1.6-1.1-1.6 1-.3h3.1l5.7-.2z"/></a><a><path id="UG" class="enable st0" d="M138.8 115.3h-3.1l-1 .3-1.7.9-.7-.3v-2.1l.7-1.1.2-2.2.6-1.3 1.1-1.5 1.1-.7.9-1-1.1-.4.2-3.3 1.2-.8 1.8.6 2.3-.6h2l1.7-1.3 1.3 1.9.3 1.4 1.2 3.2-1 2-1.4 1.8-.8 1.1v3l-5.8.4z"/></a><a><path id="ZA" class="enable st0" d="M137.8 197.8l-.5.5-1.2 1.6-.8 1.7-1.6 2.2-3.2 3.4-2 2-2.1 1.5-2.9 1.3-1.4.2-.4.9-1.7-.5-1.4.6-3-.7-1.7.4-1.2-.2-2.9 1.3-2.4.5-1.7 1.3-1.3.1-1.2-1.2-1-.1-1.2-1.5-.2.5-.4-.9v-2l-.9-2.2.9-.6-.1-2.5-1.8-3-1.4-2.7-2-4.2 1.3-1.6 1.1.9.5 1.4 1.3.2 1.8.6 1.5-.2 2.5-1.6v-11.6l.8.5 1.7 2.9-.3 1.9.6 1.1 2-.3 1.4-1.4 1.3-.9.7-1.5 1.4-.7 1.2.4 1.3.9 2.3.2 1.8-.7.3-1 .5-1.5 1.5-.2.8-1.2.9-2 2.5-2.3 4-2.2h1.1l1.4.5 1-.4 1.5.3 1.3 4.3.7 2.2-.5 3.4.2 1.1-1.4-.6-.8.2-.3.9-.8 1.2v1.1l1.7 1.7 1.6-.3.6-1.4h2.1l-.7 2.3-.3 2.6-.7 1.4-1.7 1.7zm-7.1-1l-1.2-1-1.3.7-1.5 1.2-1.5 2 2.1 2.5 1-.3.5-1 1.6-.5.5-1 .9-1.6-1.1-1z"/></a><a><path id="ZM" class="enable st0" d="M141.3 138.2l1.3 1.3.7 2.4-.5.8-.6 2.3.5 2.4-.9 1-.8 2.7 1.5.7-8.5 2.4.3 2-2.1.4-1.6 1.1-.3 1-1 .2-2.4 2.4-1.5 1.9-1 .1-.9-.3-3.1-.3-.5-.2v-.2l-1.1-.7-1.8-.2-2.3.7-1.8-1.8-1.9-2.4.1-9.2h5.8l-.2-1 .4-1.1-.5-1.3.3-1.4-.3-.9 1 .1.2.9 1.3-.1 1.8.3.9 1.3 2.2.4 1.7-.9.6 1.5 2.2.4 1 1.2 1.2 1.6h2.2l-.2-3.1-.8.5-2-1.1-.8-.5.3-2.9.5-3.4-.6-1.2.8-1.8.8-.3 3.8-.5 1.1.3 1.2.7 1.1.5 1.8.5 1.4.8z"/></a><a><path id="ZW" class="enable st0" d="M136.9 176l-1.5-.3-1 .4-1.4-.5h-1l-1.8-1.4-2.2-.5-.8-1.9v-1.1l-1.2-.3-3.2-3.3-.9-1.7-.6-.5-1.1-2.3 3.1.3.9.3 1-.1 1.5-1.9 2.4-2.4 1-.2.3-1 1.6-1.1 2.1-.4.2 1.1 2.3-.1 1.3.6.6.7 1.3.2 1.5.9v3.7l-.5 2-.1 2.2.5.9-.3 1.8-.4.3-.7 2.2-2.9 3.4z"/></a></g></svg>